<svg width="101" height="101" viewBox="0 0 101 101" fill="none" xmlns="http://www.w3.org/2000/svg">
<g clip-path="url(#clip0)">
<path d="M50.137 1L56.7164 8.93768L65.4807 3.46342L69.3212 13.0434L79.4569 10.58L80.2841 20.981L90.6954 21.5285L87.9608 31.6559L97.5518 35.4878L92.0768 44.2467L100.025 51.0895L92.0836 57.6586L97.5675 66.4174L87.9804 70.2494L90.7253 80.3768L80.3147 81.1979L79.4981 91.599L69.3597 88.8619L65.529 98.4418L56.7591 92.9676L50.1877 100.905L43.3344 92.9676L34.5701 98.4418L30.7296 88.8619L20.594 91.599L20.0407 81.1979L9.62937 80.3768L12.09 70.2494L2.49899 66.4174L7.97399 57.6586L0.0254472 51.0895L7.96718 44.2467L2.48327 35.4878L12.0704 31.6559L9.59947 21.5285L20.0102 20.981L20.5528 10.58L30.6911 13.0434L34.5218 3.46342L43.2917 8.93768L50.137 1Z" fill="#C800FF"/>
<path d="M32.6117 48.124H42.5297L42.5296 47.863C39.7745 47.631 38.9912 47.167 38.9904 45.456L38.9835 32H38.8095L32.6049 34.668L32.692 34.958C33.6198 34.61 34.2288 34.436 34.6928 34.436C35.7368 34.436 36.114 34.987 36.1147 36.205L36.1194 45.456C36.1202 47.196 35.3665 47.631 32.6116 47.863L32.6117 48.124Z" fill="white"/>
<path d="M44.1576 48.124H55.6126L56.4522 45.514H47.7812L49.8394 43.832C54.2746 40.265 55.7527 38.641 55.7515 36.118C55.7502 33.595 53.8354 32 50.7324 32C47.4844 32 45.1943 33.827 44.819 37.104L45.138 37.133C45.6008 34.755 47.166 33.334 49.283 33.334C51.255 33.334 52.5607 34.668 52.5619 36.988C52.5633 39.801 51.1433 41.628 48.0997 44.383L44.1575 47.95L44.1576 48.124Z" fill="white"/>
<path d="M58.1553 52.184H60.3303L70.1513 32.551L70.0933 32.435H58.5803L57.7696 34.987H68.2096L58.1553 52.184Z" fill="white"/>
<path d="M31.8528 69.1441C33.2048 69.1441 34.1534 68.2081 34.2956 66.7131L34.1916 66.6871C33.9581 67.7141 33.2043 68.0521 32.3723 68.0521C30.8513 68.0521 29.9666 66.6741 29.9658 65.2311C29.965 63.6191 30.6926 62.7481 31.9406 62.7481C33.1366 62.7481 33.657 63.6191 33.7227 64.9191H33.8137L34.1115 62.6571C33.6174 62.4101 32.9153 62.2411 32.1353 62.2411C30.2633 62.2411 29.016 63.5931 29.0172 65.8421C29.0182 67.8311 30.1498 69.1441 31.8528 69.1441Z" fill="white"/>
<path d="M41.3903 67.7661C41.2345 68.2991 40.9617 68.5071 40.6627 68.5071C40.3507 68.5071 40.1555 68.2211 40.1553 67.7531L40.1538 64.7631C40.1529 63.1771 39.4245 62.2411 37.9035 62.2411C36.5255 62.2411 35.5899 63.1251 35.4216 64.5291L35.5126 64.5421C35.7331 63.5151 36.3959 62.9951 37.3059 62.9951C38.4109 62.9951 38.8662 63.6451 38.8668 64.8671L38.867 65.2051L37.5281 65.4651C36.0723 65.7641 35.2276 66.4531 35.2282 67.5711C35.2286 68.4291 35.84 69.1441 36.997 69.1441C38.05 69.1441 38.7386 68.4421 38.8813 67.8311L38.8944 68.0261C38.9338 68.7021 39.311 69.1441 39.987 69.1441C40.78 69.1441 41.2867 68.6371 41.4943 67.7791L41.3903 67.7661ZM37.6207 68.5201C36.8277 68.5201 36.5023 67.8701 36.502 67.1941C36.5017 66.6351 36.6313 65.8811 37.9702 65.6081L38.8671 65.4391L38.8682 67.6361C38.6215 68.2731 38.2057 68.5201 37.6207 68.5201Z" fill="white"/>
<path d="M44.0593 68.1301L44.0549 59.4591L41.8582 60.0571L41.8583 60.1611C42.5732 60.1091 42.7683 60.2391 42.7687 60.9671L42.7723 68.1301C42.7726 68.6371 42.5256 68.7671 41.8627 68.8581L41.8627 68.9491H44.9697L44.9697 68.8581C44.3066 68.7671 44.0596 68.6371 44.0593 68.1301Z" fill="white"/>
<path d="M48.8087 69.1441C50.7457 69.1441 51.9539 67.6751 51.9529 65.6991C51.9519 63.7101 50.7422 62.2411 48.8052 62.2411C46.8552 62.2411 45.6469 63.7101 45.6479 65.6991C45.6489 67.6751 46.8587 69.1441 48.8087 69.1441ZM48.8085 68.8451C47.5605 68.8451 47.04 67.7271 47.0389 65.6991C47.0379 63.6581 47.5573 62.5401 48.8053 62.5401C50.0403 62.5401 50.5609 63.6581 50.5619 65.6991C50.563 67.7271 50.0435 68.8451 48.8085 68.8451Z" fill="white"/>
<path d="M56.85 62.2411C55.719 62.2411 55.0044 63.0731 54.8883 64.8671H54.8363L54.835 62.2931L52.6903 62.8781L52.6903 62.9691C53.4053 62.9301 53.6004 63.0731 53.6008 63.8531L53.6029 68.1301C53.6032 68.6371 53.3563 68.7671 52.6933 68.8581L52.6934 68.9491H56.0604L56.0603 68.8581C55.1113 68.7931 54.8902 68.6501 54.8899 68.1301L54.8888 65.7901C54.8878 63.9961 55.4466 63.4631 56.3046 63.4631C56.5516 63.4631 56.7596 63.5021 56.8766 63.5541H56.9416L56.941 62.2411H56.85Z" fill="white"/>
<path d="M58.9196 61.4611C59.4006 61.4611 59.7514 61.0971 59.7512 60.6421C59.751 60.1871 59.3998 59.8231 58.9188 59.8231C58.4508 59.8231 58.0999 60.1741 58.1002 60.6421C58.1004 61.0971 58.4516 61.4611 58.9196 61.4611ZM59.638 68.1301L59.635 62.3321L57.4383 62.9171L57.4384 63.0081C58.1664 62.9691 58.3484 63.0861 58.3488 63.8401L58.351 68.1301C58.3512 68.6371 58.1043 68.7671 57.4414 68.8581L57.4414 68.9491H60.5484L60.5484 68.8581C59.8853 68.7671 59.6382 68.6371 59.638 68.1301Z" fill="white"/>
<path d="M66.4516 66.6351C66.0492 67.8311 65.3213 68.0521 64.5543 68.0521C63.1633 68.0521 62.2267 66.9341 62.1868 65.0491H66.4638C66.5149 63.2811 65.5133 62.2411 64.0833 62.2411C62.2633 62.2411 61.2241 63.7361 61.2251 65.8031C61.2263 67.9871 62.4748 69.1441 64.0218 69.1441C65.2568 69.1441 66.2445 68.3771 66.5426 66.6481L66.4516 66.6351ZM63.7975 62.5271C64.5905 62.5271 65.2148 63.1901 65.1636 64.8021H62.1866C62.2249 63.4111 62.8615 62.5271 63.7975 62.5271Z" fill="white"/>
<path d="M69.6198 69.1441C71.1148 69.1441 72.0763 68.2471 72.0757 66.9731C72.0752 66.0891 71.607 65.5951 70.7228 65.2441L69.3315 64.6721C68.6424 64.4121 68.3952 64.0221 68.3949 63.5801C68.3946 63.0081 68.7714 62.5661 69.6554 62.5661C70.5784 62.5661 71.3457 63.0731 71.5414 64.4511H71.6584L71.8915 62.6831C71.4233 62.4101 70.6433 62.2411 69.9673 62.2411C68.3683 62.2411 67.5627 63.1511 67.5633 64.2301C67.5636 64.9061 67.8369 65.5561 68.7861 65.9461L70.1904 66.5181C70.8926 66.7781 71.2567 67.1031 71.257 67.6621C71.2573 68.2991 70.8026 68.7931 69.9316 68.7931C68.8266 68.7931 67.9291 67.9351 67.7855 66.5831H67.6815L67.4485 68.5461C68.0206 68.9101 68.8788 69.1441 69.6198 69.1441Z" fill="white"/>
</g>
<defs>
<clipPath id="clip0">
<rect width="100" height="100" fill="white" transform="matrix(1 0 0.000508036 1 0.208252 0.949097)"/>
</clipPath>
</defs>
</svg>
