<svg width="101" height="100" viewBox="0 0 101 100" fill="none" xmlns="http://www.w3.org/2000/svg">
<g clip-path="url(#clip0)">
<path d="M50.137 0L56.7164 7.93768L65.4807 2.46342L69.3212 12.0434L79.4569 9.57995L80.2841 19.981L90.6954 20.5285L87.9608 30.6559L97.5518 34.4878L92.0768 43.2467L100.025 50.0895L92.0836 56.6586L97.5675 65.4174L87.9804 69.2494L90.7253 79.3768L80.3147 80.1979L79.4981 90.599L69.3597 87.8619L65.529 97.4418L56.7591 91.9676L50.1877 99.9052L43.3344 91.9676L34.5701 97.4418L30.7296 87.8619L20.594 90.599L20.0407 80.1979L9.62937 79.3768L12.09 69.2494L2.49899 65.4174L7.97399 56.6586L0.0254472 50.0895L7.96718 43.2467L2.48327 34.4878L12.0704 30.6559L9.59947 20.5285L20.0102 19.981L20.5528 9.57995L30.6911 12.0434L34.5218 2.46342L43.2917 7.93768L50.137 0Z" fill="#C800FF"/>
<path d="M32.1603 47.124H42.0783L42.0782 46.863C39.323 46.631 38.5398 46.167 38.5389 44.456L38.5321 31H38.3581L32.1535 33.668L32.2406 33.958C33.1684 33.61 33.7773 33.436 34.2413 33.436C35.2853 33.436 35.6626 33.987 35.6632 35.205L35.6679 44.456C35.6688 46.196 34.915 46.631 32.1602 46.863L32.1603 47.124Z" fill="white"/>
<path d="M44.0831 47.124H54.0011L54.001 46.863C51.2459 46.631 50.4627 46.167 50.4618 44.456L50.455 31H50.281L44.0763 33.668L44.1635 33.958C45.0913 33.61 45.7002 33.436 46.1642 33.436C47.2082 33.436 47.5855 33.987 47.5861 35.205L47.5908 44.456C47.5917 46.196 46.8379 46.631 44.083 46.863L44.0831 47.124Z" fill="white"/>
<path d="M60.7063 51.619C64.6213 51.619 67.723 49.154 67.721 45.181C67.7193 41.759 65.688 39.265 61.309 39.265C59.917 39.265 58.6702 39.613 57.8875 40.164L59.3923 33.987H67.8603L68.671 31.435L59.13 31.435L56.8728 40.918L57.366 41.179C58.0326 40.541 59.0765 40.164 60.2945 40.164C62.7595 40.164 64.5005 42.136 64.502 45.268C64.5038 48.69 62.6199 50.778 59.8939 50.778C57.9799 50.778 56.4424 49.908 55.7165 48.197L55.3106 48.4C56.2107 50.459 58.0093 51.619 60.7063 51.619Z" fill="white"/>
<path d="M30.8531 68.5849C32.2051 68.5849 33.1536 67.6489 33.2958 66.1539L33.1918 66.1279C32.9584 67.1549 32.2045 67.4929 31.3725 67.4929C29.8515 67.4929 28.9668 66.1149 28.9661 64.6719C28.9653 63.0599 29.6928 62.1889 30.9408 62.1889C32.1368 62.1889 32.6573 63.0599 32.7229 64.3599H32.8139L33.1118 62.0979C32.6177 61.8509 31.9156 61.6819 31.1356 61.6819C29.2636 61.6819 28.0163 63.0339 28.0174 65.2829C28.0184 67.2719 29.1501 68.5849 30.8531 68.5849Z" fill="white"/>
<path d="M40.3905 67.2069C40.2348 67.7399 39.9619 67.9479 39.6629 67.9479C39.3509 67.9479 39.1558 67.6619 39.1555 67.1939L39.154 64.2039C39.1532 62.6179 38.4247 61.6819 36.9037 61.6819C35.5257 61.6819 34.5902 62.5659 34.4219 63.9699L34.5129 63.9829C34.7334 62.9559 35.3961 62.4359 36.3061 62.4359C37.4111 62.4359 37.8664 63.0859 37.867 64.3079L37.8672 64.6459L36.5284 64.9059C35.0725 65.2049 34.2279 65.8939 34.2284 67.0119C34.2289 67.8699 34.8402 68.5849 35.9972 68.5849C37.0502 68.5849 37.7389 67.8829 37.8816 67.2719L37.8947 67.4669C37.934 68.1429 38.3112 68.5849 38.9872 68.5849C39.7802 68.5849 40.287 68.0779 40.4945 67.2199L40.3905 67.2069ZM36.6209 67.9609C35.8279 67.9609 35.5026 67.3109 35.5022 66.6349C35.5019 66.0759 35.6316 65.3219 36.9704 65.0489L37.8673 64.8799L37.8685 67.0769C37.6218 67.7139 37.2059 67.9609 36.6209 67.9609Z" fill="white"/>
<path d="M43.0596 67.5709L43.0552 58.8999L40.8585 59.4979L40.8585 59.6019C41.5735 59.5499 41.7686 59.6799 41.7689 60.4079L41.7726 67.5709C41.7728 68.0779 41.5259 68.2079 40.8629 68.2989L40.863 68.3899H43.97L43.9699 68.2989C43.3069 68.2079 43.0598 68.0779 43.0596 67.5709Z" fill="white"/>
<path d="M47.8089 68.5849C49.7459 68.5849 50.9542 67.1159 50.9532 65.1399C50.9522 63.1509 49.7424 61.6819 47.8054 61.6819C45.8554 61.6819 44.6472 63.1509 44.6482 65.1399C44.6492 67.1159 45.8589 68.5849 47.8089 68.5849ZM47.8088 68.2859C46.5608 68.2859 46.0402 67.1679 46.0392 65.1399C46.0382 63.0989 46.5576 61.9809 47.8056 61.9809C49.0406 61.9809 49.5612 63.0989 49.5622 65.1399C49.5632 67.1679 49.0438 68.2859 47.8088 68.2859Z" fill="white"/>
<path d="M55.8502 61.6819C54.7192 61.6819 54.0046 62.5139 53.8885 64.3079H53.8365L53.8352 61.7339L51.6905 62.3189L51.6906 62.4099C52.4055 62.3709 52.6006 62.5139 52.601 63.2939L52.6032 67.5709C52.6034 68.0779 52.3565 68.2079 51.6936 68.2989L51.6936 68.3899H55.0606L55.0606 68.2989C54.1115 68.2339 53.8905 68.0909 53.8902 67.5709L53.889 65.2309C53.8881 63.4369 54.4468 62.9039 55.3048 62.9039C55.5518 62.9039 55.7598 62.9429 55.8769 62.9949H55.9419L55.9412 61.6819H55.8502Z" fill="white"/>
<path d="M57.9198 60.9019C58.4008 60.9019 58.7517 60.5379 58.7514 60.0829C58.7512 59.6279 58.4 59.2639 57.919 59.2639C57.451 59.2639 57.1002 59.6149 57.1004 60.0829C57.1007 60.5379 57.4518 60.9019 57.9198 60.9019ZM58.6382 67.5709L58.6353 61.7729L56.4386 62.3579L56.4386 62.4489C57.1666 62.4099 57.3487 62.5269 57.3491 63.2809L57.3512 67.5709C57.3515 68.0779 57.1046 68.2079 56.4416 68.2989L56.4417 68.3899H59.5487L59.5486 68.2989C58.8856 68.2079 58.6385 68.0779 58.6382 67.5709Z" fill="white"/>
<path d="M65.4518 66.0759C65.0494 67.2719 64.3215 67.4929 63.5545 67.4929C62.1635 67.4929 61.227 66.3749 61.187 64.4899H65.464C65.5151 62.7219 64.5136 61.6819 63.0836 61.6819C61.2636 61.6819 60.2243 63.1769 60.2254 65.2439C60.2265 67.4279 61.4751 68.5849 63.0221 68.5849C64.2571 68.5849 65.2447 67.8179 65.5428 66.0889L65.4518 66.0759ZM62.7977 61.9679C63.5907 61.9679 64.2151 62.6309 64.1639 64.2429H61.1869C61.2252 62.8519 61.8617 61.9679 62.7977 61.9679Z" fill="white"/>
<path d="M68.62 68.5849C70.115 68.5849 71.0766 67.6879 71.0759 66.4139C71.0755 65.5299 70.6072 65.0359 69.723 64.6849L68.3317 64.1129C67.6426 63.8529 67.3954 63.4629 67.3952 63.0209C67.3949 62.4489 67.7717 62.0069 68.6557 62.0069C69.5787 62.0069 70.3459 62.5139 70.5416 63.8919H70.6586L70.8917 62.1239C70.4236 61.8509 69.6435 61.6819 68.9675 61.6819C67.3685 61.6819 66.563 62.5919 66.5635 63.6709C66.5639 64.3469 66.8372 64.9969 67.7864 65.3869L69.1907 65.9589C69.8928 66.2189 70.257 66.5439 70.2573 67.1029C70.2576 67.7399 69.8028 68.2339 68.9318 68.2339C67.8268 68.2339 66.9294 67.3759 66.7857 66.0239H66.6817L66.4487 67.9869C67.0209 68.3509 67.879 68.5849 68.62 68.5849Z" fill="white"/>
</g>
<defs>
<clipPath id="clip0">
<rect width="100" height="100" fill="white" transform="matrix(1 0 0.000508036 1 0 0)"/>
</clipPath>
</defs>
</svg>
