<svg width="205" height="329" viewBox="0 0 205 329" fill="none" xmlns="http://www.w3.org/2000/svg">
<rect x="33.5961" y="0.53366" width="149" height="49" transform="rotate(4 33.5961 0.53366)" fill="white" stroke="#C800FF"/>
<rect x="49.2751" y="75.7619" width="149" height="49" transform="rotate(-7 49.2751 75.7619)" fill="white" stroke="#C800FF"/>
<rect x="7.819" y="163.458" width="149" height="49" transform="rotate(-20 7.819 163.458)" fill="white" stroke="#C800FF"/>
<rect x="3.08995" y="203.634" width="149" height="49" transform="rotate(3 3.08995 203.634)" fill="white" stroke="#C800FF"/>
<rect x="48.1037" y="280.117" width="149" height="49" transform="rotate(-13 48.1037 280.117)" fill="white" stroke="#C800FF"/>
<path d="M97.3533 26.7048C95.7044 26.5895 94.5771 27.7296 94.2236 30.3333L94.1478 30.328L94.4102 26.5751L91.2232 27.2094L91.2139 27.3421C92.2604 27.3581 92.5301 27.5865 92.4506 28.7237L92.0145 34.9595C91.9628 35.6987 91.5895 35.863 90.6135 35.9281L90.6043 36.0608L95.5133 36.404L95.5225 36.2714C94.1456 36.0798 93.8379 35.8488 93.8909 35.0907L94.1295 31.679C94.3124 29.0634 95.1818 28.3433 96.4327 28.4308C96.7928 28.4559 97.0921 28.534 97.2574 28.6217L97.3522 28.6284L97.486 26.714L97.3533 26.7048ZM106.897 35.4668C106.615 36.228 106.196 36.5035 105.76 36.473C105.305 36.4412 105.05 36.0043 105.098 35.322L105.402 30.9626C105.564 28.6503 104.598 27.2114 102.381 27.0563C100.371 26.9158 98.9166 28.1092 98.5271 30.139L98.6584 30.1672C99.0854 28.6924 100.105 28.0019 101.432 28.0946C103.043 28.2073 103.64 29.2014 103.515 30.983L103.481 31.4758L101.502 31.7184C99.3489 32.0059 98.0466 32.9243 97.9326 34.5543C97.8452 35.8052 98.6631 36.91 100.35 37.0279C101.885 37.1353 102.961 36.182 103.232 35.3058L103.231 35.5914C103.219 36.581 103.724 37.2639 104.709 37.3328C105.866 37.4136 106.656 36.7261 107.047 35.4964L106.897 35.4668ZM101.323 36.1818C100.167 36.1009 99.7596 35.1201 99.8285 34.1345C99.8855 33.3195 100.152 32.2335 102.132 31.9719L103.457 31.817L103.233 35.0202C102.808 35.9237 102.176 36.2414 101.323 36.1818ZM120.05 28.5776L120.039 28.7292C120.852 28.8241 121.189 29.1715 121.155 29.6643C121.132 29.9865 121.039 30.2276 120.838 30.6516L118.475 35.5718L116.825 30.2948C116.702 29.8862 116.646 29.5966 116.663 29.3502C116.699 28.8384 117.061 28.559 117.898 28.5794L117.908 28.4278L113.511 28.1203L113.5 28.2719C114.102 28.3902 114.444 28.9474 114.774 29.9419L115.075 30.82L112.964 35.1292L111.328 29.9294C111.205 29.5018 111.132 29.1919 111.147 28.9645C111.185 28.4338 111.486 28.2073 112.193 28.1805L112.203 28.0289L107.844 27.724L107.833 27.8757C108.51 27.9992 108.927 28.5807 109.286 29.7105L111.924 37.7421L112.019 37.7487L115.265 31.3666L117.553 38.1357L117.648 38.1423L121.38 30.5371C121.937 29.3761 122.302 29.0588 122.939 28.932L122.95 28.7804L120.05 28.5776Z" fill="#C800FF"/>
<path d="M107.182 100.576L107.295 100.562L109.676 92.3638C110.025 91.1533 110.264 90.7602 110.958 90.4837L110.939 90.3328L107.96 90.6986L107.978 90.8495C108.926 90.7715 109.271 91.0927 109.329 91.5642C109.373 91.9225 109.278 92.2404 109.188 92.5961L107.683 97.7963L104.933 93.0228C104.739 92.683 104.624 92.3717 104.596 92.1454C104.526 91.5796 104.89 91.267 105.715 91.1274L105.697 90.9765L101.19 91.5299L101.208 91.6808C101.863 91.7152 102.298 92.1404 102.909 93.214L107.182 100.576ZM119.973 95.4067C119.601 97.2135 118.584 97.6638 117.472 97.8004C115.454 98.0481 113.897 96.593 113.504 93.8655L119.709 93.1037C119.469 90.5297 117.832 89.1993 115.758 89.454C113.117 89.7782 111.875 92.1322 112.243 95.1306C112.632 98.2989 114.649 99.755 116.893 99.4794C118.684 99.2594 119.981 97.9708 120.107 95.4094L119.973 95.4067ZM115.394 89.9199C116.544 89.7786 117.567 90.6292 117.779 92.977L113.46 93.5072C113.269 91.4824 114.036 90.0866 115.394 89.9199ZM127.517 96.1076L124.226 96.2818C123.293 96.3199 122.792 96.1326 122.722 95.5668C122.662 95.0765 123.002 94.7285 123.648 94.5343C124.183 94.6792 124.781 94.7206 125.441 94.6395C127.648 94.3686 128.9 92.8749 128.675 91.0456C128.541 89.9518 127.9 89.0926 126.927 88.6569L129.058 88.3952L129.024 88.1123L126.327 88.4434C125.832 88.3127 125.274 88.2856 124.67 88.3597C122.445 88.6329 121.214 90.1432 121.434 91.9348C121.58 93.1229 122.282 94.0128 123.368 94.4347C122.325 94.8307 121.836 95.6757 121.942 96.5432C122.046 97.3918 122.59 97.9185 123.374 98.071C122.174 98.5822 121.623 99.3964 121.736 100.32C121.91 101.735 123.478 102.499 126.061 102.182C129.286 101.786 130.624 99.8991 130.388 97.9756C130.2 96.4481 129.02 96.0378 127.517 96.1076ZM124.703 88.6237C125.742 88.5152 126.612 89.3655 126.853 91.3268C127.087 93.2315 126.448 94.267 125.411 94.3944C124.355 94.5241 123.504 93.6714 123.27 91.7667C123.029 89.8055 123.644 88.7345 124.703 88.6237ZM126.628 101.5C124.592 101.75 123.163 101.026 122.994 99.6492C122.913 98.9891 123.09 98.5653 123.666 98.1118L124.05 98.122L127.819 97.9464C129.038 97.8925 129.631 98.0494 129.749 99.0111C129.879 100.067 128.91 101.22 126.628 101.5ZM140.154 94.5942C140.022 95.3952 139.664 95.7455 139.23 95.7988C138.777 95.8544 138.443 95.4742 138.36 94.7953L137.827 90.4579C137.545 88.1572 136.322 86.929 134.116 87.2C132.117 87.4454 130.916 88.8945 130.921 90.9613L131.056 90.9639C131.193 89.4348 132.062 88.5623 133.383 88.4003C134.985 88.2034 135.761 89.0653 135.979 90.838L136.039 91.3283L134.143 91.944C132.084 92.6371 130.981 93.7871 131.18 95.4089C131.333 96.6535 132.347 97.5819 134.025 97.3758C135.553 97.1883 136.427 96.0472 136.526 95.1354L136.579 95.416C136.756 96.3896 137.382 96.9637 138.363 96.8433C139.513 96.702 140.158 95.8762 140.307 94.5945L140.154 94.5942ZM134.819 96.3595C133.669 96.5007 133.082 95.6157 132.961 94.6351C132.862 93.8242 132.916 92.7072 134.81 92.0727L136.081 91.6678L136.472 94.8548C136.227 95.8229 135.668 96.2553 134.819 96.3595ZM149.899 93.9337L149.222 88.427C148.998 86.5978 147.963 85.4997 146.078 85.7312C144.569 85.9165 143.57 86.9771 143.39 88.1669L143.145 86.1679L140.062 87.4078L140.078 87.5398C141.125 87.3347 141.41 87.472 141.546 88.5847L142.318 94.8645C142.408 95.6 142.073 95.8326 141.127 96.0827L141.143 96.2147L145.537 95.6752L145.521 95.5432C144.583 95.5435 144.279 95.4085 144.191 94.6919L143.42 88.412C143.611 87.623 144.145 86.8299 145.239 86.6956C146.502 86.5405 147.172 87.3197 147.364 88.8849L148.02 94.2218C148.108 94.9384 147.846 95.1429 146.936 95.3695L146.952 95.5015L151.365 94.9597L151.348 94.8277C150.37 94.8138 149.989 94.6692 149.899 93.9337Z" fill="#C800FF"/>
<path d="M72.0332 173.757L76.3003 172.204L76.2549 172.079C75.2696 172.317 74.9076 172.266 74.6607 171.588L70.3067 159.626L67.5883 161.545L67.6403 161.688C68.5963 161.259 68.9291 161.34 69.293 162.34L72.8736 172.178C73.127 172.874 72.8528 173.176 71.9877 173.632L72.0332 173.757ZM78.9249 171.249L81.7994 170.203L81.7604 170.096C81.1388 170.221 80.5868 170.038 79.4876 169.406L74.677 166.467L76.2784 163.7C76.5996 163.138 77.2162 162.166 77.9643 161.61L77.9188 161.485L74.6337 162.681L74.6792 162.806C75.4242 162.575 75.783 162.728 75.8999 163.049C76.0104 163.353 75.9716 163.69 75.4361 164.552L73.4178 167.895L78.9249 171.249ZM88.4854 164.17C88.5298 166.014 87.6404 166.682 86.5871 167.065C84.6767 167.76 82.8323 166.693 81.8365 164.124L87.7105 161.986C86.8981 159.531 85.0035 158.603 83.0395 159.318C80.5399 160.228 79.8589 162.801 80.8922 165.64C81.9839 168.639 84.2763 169.605 86.4009 168.831C88.097 168.214 89.0706 166.667 88.6169 164.143L88.4854 164.17ZM82.7897 159.854C83.8788 159.458 85.0672 160.056 85.8016 162.296L81.713 163.784C81.0712 161.854 81.5042 160.322 82.7897 159.854ZM95.4355 163.177C95.4358 164.067 95.1925 164.62 94.4605 164.887C93.7463 165.147 93.1861 164.663 92.8612 163.771L90.4828 157.236L92.5003 156.502L92.4028 156.234L90.3853 156.968L89.3976 154.254L89.3083 154.287C89.3332 156.077 88.7053 157.297 87.4378 158.203L87.4833 158.328L88.7152 157.879L91.2041 164.717C91.6785 166.021 92.625 166.566 93.8748 166.111C95.1068 165.663 95.6486 164.596 95.5735 163.168L95.4355 163.177ZM101.39 163.376C104.05 162.408 104.976 159.786 103.989 157.072C102.994 154.34 100.6 152.927 97.9392 153.895C95.2611 154.87 94.335 157.492 95.3292 160.224C96.317 162.937 98.7118 164.351 101.39 163.376ZM101.24 162.965C99.5264 163.589 98.2534 162.313 97.2396 159.528C96.2194 156.725 96.3747 154.93 98.0887 154.306C99.7848 153.689 101.058 154.964 102.078 157.767C103.092 160.552 102.937 162.348 101.24 162.965Z" fill="#C800FF"/>
<path d="M37.9703 235.209L34.6998 234.81C33.774 234.685 33.3126 234.414 33.3424 233.844C33.3683 233.351 33.7637 233.067 34.4337 232.988C34.9351 233.224 35.5173 233.369 36.1814 233.403C38.4014 233.52 39.894 232.266 39.9905 230.426C40.0482 229.325 39.5656 228.368 38.6837 227.77L40.8278 227.882L40.8427 227.597L38.1294 227.455C37.665 227.241 37.1197 227.117 36.5125 227.085C34.2736 226.968 32.7989 228.241 32.7045 230.044C32.6418 231.239 33.1793 232.238 34.1751 232.842C33.0796 233.051 32.4507 233.798 32.4049 234.67C32.3602 235.524 32.8037 236.137 33.5497 236.424C32.2786 236.719 31.5947 237.425 31.5459 238.355C31.4714 239.778 32.8826 240.803 35.4821 240.939C38.7266 241.109 40.372 239.483 40.4734 237.548C40.5539 236.011 39.4633 235.402 37.9703 235.209ZM36.4986 227.351C37.5412 227.424 38.2504 228.413 38.147 230.386C38.0466 232.302 37.2379 233.211 36.1943 233.157C35.1318 233.101 34.4415 232.114 34.542 230.197C34.6454 228.224 35.4371 227.276 36.4986 227.351ZM36.159 240.366C34.1098 240.258 32.8284 239.297 32.901 237.912C32.9358 237.248 33.1843 236.861 33.8304 236.515L34.2069 236.591L37.9488 237.073C39.1582 237.231 39.7154 237.489 39.6647 238.457C39.609 239.519 38.4549 240.486 36.159 240.366ZM44.5028 236.123L45.1661 223.467L41.9137 224.172L41.9058 224.323C42.9533 224.302 43.228 224.507 43.1723 225.569L42.6244 236.024C42.5856 236.764 42.2152 236.935 41.2406 237.017L41.2336 237.15L45.7684 237.388L45.7753 237.255C44.8146 237.071 44.4641 236.863 44.5028 236.123ZM55.2816 236.402L55.7132 228.167L52.5536 228.554L52.5467 228.686C53.5373 228.662 53.774 228.865 53.7154 229.984L53.4081 235.847C53.0477 236.551 52.3398 236.99 51.5409 236.986C50.3446 236.942 49.6683 236.051 49.7489 234.514L50.0969 227.873L46.8605 228.274L46.8535 228.407C47.901 228.386 48.1577 228.571 48.0991 229.69L47.8395 234.642C47.7282 236.767 48.757 237.83 50.5026 237.921C51.8497 237.992 52.94 237.155 53.3932 236.132L53.3067 237.783L56.5322 237.952L56.5392 237.819C55.6144 237.675 55.2309 237.37 55.2816 236.402ZM63.111 236.356C62.7637 237.175 62.3234 237.589 61.5455 237.548C60.7865 237.509 60.4598 236.845 60.5095 235.896L60.8735 228.952L63.0175 229.064L63.0325 228.779L60.8884 228.667L61.0396 225.783L60.9447 225.778C60.268 227.436 59.2136 228.313 57.6928 228.652L57.6859 228.784L58.9951 228.853L58.6142 236.12C58.5416 237.505 59.1999 238.377 60.5281 238.446C61.8373 238.515 62.7529 237.745 63.2419 236.401L63.111 236.356ZM71.7233 235.361C71.0436 237.076 69.9641 237.343 68.8447 237.284C66.8145 237.178 65.5339 235.474 65.6211 232.72L71.8636 233.047C72.0747 230.471 70.6932 228.876 68.6061 228.767C65.9498 228.628 64.3175 230.73 64.1594 233.747C63.9923 236.935 65.7253 238.719 67.9832 238.837C69.7858 238.932 71.2864 237.888 71.8551 235.387L71.7233 235.361ZM68.1668 229.163C69.3242 229.223 70.1843 230.239 69.9851 232.587L65.64 232.36C65.8033 230.332 66.8007 229.091 68.1668 229.163ZM81.8095 238.078L82.0999 232.537C82.1963 230.697 81.3682 229.436 79.4708 229.336C77.9529 229.257 76.7847 230.128 76.4015 231.268L76.5069 229.257L73.2555 229.943L73.2486 230.076C74.3151 230.056 74.5718 230.24 74.5131 231.36L74.182 237.678C74.1432 238.418 73.7727 238.589 72.7981 238.671L72.7911 238.804L77.2121 239.035L77.219 238.903C76.2953 238.74 76.0196 238.554 76.0574 237.833L76.3885 231.515C76.7129 230.771 77.3768 230.083 78.4773 230.14C79.7486 230.207 80.2731 231.091 80.1905 232.666L79.9091 238.035C79.8713 238.756 79.5778 238.912 78.6421 238.977L78.6351 239.11L83.075 239.343L83.082 239.21C82.1213 239.026 81.7707 238.818 81.8095 238.078ZM84.4972 233.957L89.9427 234.242L89.9795 233.54L84.534 233.255L84.4972 233.957ZM96.0117 226.322C94.1902 226.226 92.9102 227.054 92.7839 229.463L92.7391 230.317L91.4868 230.251L91.4719 230.536L92.7242 230.602L92.3036 238.628C92.2648 239.368 91.8943 239.539 90.9197 239.621L90.9128 239.753L95.827 240.011L95.834 239.878C94.4538 239.711 94.1422 239.485 94.182 238.726L94.6026 230.7L96.4621 230.798L96.477 230.513L94.4847 230.409C93.9414 229.885 93.7635 229.286 93.8052 228.489C93.844 227.749 94.3141 226.766 95.4905 226.827C96.629 226.887 97.2273 227.813 97.2665 228.88L97.3794 228.905L97.9222 226.898C97.4068 226.566 96.7137 226.359 96.0117 226.322ZM103.594 230.601C101.943 230.514 100.836 231.674 100.528 234.283L100.452 234.279L100.649 230.522L97.4733 231.212L97.4663 231.345C98.5128 231.343 98.7865 231.566 98.7269 232.705L98.3997 238.947C98.3609 239.687 97.9905 239.858 97.0158 239.94L97.0089 240.073L101.923 240.33L101.93 240.198C100.55 240.03 100.238 239.805 100.278 239.046L100.457 235.63C100.594 233.012 101.451 232.277 102.703 232.342C103.064 232.361 103.364 232.434 103.531 232.519L103.626 232.524L103.726 230.608L103.594 230.601ZM111.876 237.465C111.196 239.18 110.117 239.447 108.998 239.388C106.967 239.282 105.687 237.579 105.774 234.824L112.016 235.152C112.228 232.575 110.846 230.981 108.759 230.871C106.103 230.732 104.47 232.835 104.312 235.851C104.145 239.039 105.878 240.823 108.136 240.941C109.939 241.036 111.439 239.992 112.008 237.491L111.876 237.465ZM108.32 231.267C109.477 231.328 110.337 232.343 110.138 234.692L105.793 234.464C105.956 232.437 106.954 231.195 108.32 231.267ZM120.881 237.937C120.202 239.652 119.122 239.919 118.003 239.86C115.973 239.754 114.692 238.051 114.779 235.296L121.022 235.624C121.233 233.047 119.851 231.453 117.764 231.343C115.108 231.204 113.476 233.306 113.318 236.323C113.15 239.511 114.883 241.295 117.141 241.413C118.944 241.508 120.445 240.464 121.013 237.963L120.881 237.937ZM117.325 231.739C118.482 231.799 119.342 232.815 119.143 235.164L114.798 234.936C114.961 232.909 115.959 231.667 117.325 231.739Z" fill="#C800FF"/>
<path d="M94.1561 299.987L90.902 300.505C89.9778 300.64 89.4594 300.506 89.3312 299.951C89.2201 299.469 89.5219 299.088 90.1443 298.827C90.6911 298.915 91.2907 298.894 91.9386 298.744C94.1047 298.244 95.1939 296.628 94.7794 294.832C94.5315 293.758 93.8037 292.971 92.7911 292.639L94.8831 292.156L94.819 291.878L92.1716 292.49C91.666 292.411 91.1078 292.443 90.5154 292.579C88.3308 293.084 87.2643 294.715 87.6704 296.473C87.9396 297.64 88.7315 298.451 89.8552 298.757C88.8597 299.26 88.4611 300.152 88.6577 301.003C88.85 301.836 89.4453 302.303 90.2414 302.373C89.1008 303.007 88.638 303.874 88.8475 304.781C89.168 306.17 90.8072 306.766 93.3435 306.181C96.5092 305.45 97.6426 303.433 97.2067 301.545C96.8605 300.046 95.6443 299.761 94.1561 299.987ZM90.5752 292.839C91.5977 292.622 92.5519 293.377 92.9964 295.302C93.4281 297.172 92.9013 298.269 91.8831 298.504C90.8463 298.743 89.9106 297.984 89.4789 296.114C89.0344 294.189 89.5342 293.06 90.5752 292.839ZM93.8362 305.443C91.8368 305.905 90.34 305.334 90.028 303.982C89.8784 303.334 90.0108 302.894 90.5362 302.383L90.9193 302.353L94.649 301.785C95.8552 301.604 96.4619 301.698 96.6799 302.642C96.9192 303.678 96.0762 304.926 93.8362 305.443ZM101.639 290.011C100.028 290.383 99.2838 291.803 99.707 294.396L99.6329 294.413L98.7867 290.748L95.9243 292.286L95.9543 292.416C96.9597 292.125 97.2844 292.265 97.5408 293.376L98.947 299.466C99.1137 300.188 98.8047 300.455 97.8904 300.802L97.9203 300.932L102.715 299.825L102.685 299.695C101.312 299.915 100.951 299.784 100.78 299.043L100.01 295.711C99.4206 293.156 100.041 292.213 101.263 291.931C101.615 291.85 101.924 291.837 102.108 291.873L102.2 291.851L101.769 289.981L101.639 290.011ZM113.327 295.6C113.28 296.411 112.96 296.797 112.534 296.895C112.09 296.997 111.718 296.654 111.564 295.988L110.581 291.73C110.06 289.471 108.715 288.378 106.549 288.878C104.587 289.331 103.545 290.897 103.766 292.952L103.899 292.941C103.877 291.406 104.65 290.447 105.946 290.148C107.519 289.785 108.381 290.561 108.783 292.301L108.894 292.782L107.072 293.593C105.097 294.497 104.12 295.756 104.488 297.349C104.77 298.57 105.875 299.388 107.523 299.007C109.023 298.661 109.773 297.435 109.776 296.518L109.858 296.791C110.136 297.741 110.818 298.247 111.781 298.024C112.91 297.764 113.466 296.875 113.48 295.585L113.327 295.6ZM108.206 297.914C107.077 298.174 106.401 297.355 106.178 296.393C105.995 295.597 105.932 294.48 107.749 293.651L108.971 293.116L109.693 296.244C109.551 297.233 109.04 297.721 108.206 297.914ZM114.129 285.958C114.814 285.8 115.195 285.166 115.045 284.518C114.895 283.87 114.276 283.467 113.591 283.625C112.924 283.779 112.54 284.394 112.694 285.061C112.843 285.709 113.463 286.112 114.129 285.958ZM117.34 295.22L115.434 286.963L112.498 288.518L112.528 288.648C113.551 288.353 113.849 288.46 114.097 289.534L115.507 295.643C115.674 296.365 115.365 296.631 114.451 296.979L114.481 297.109L118.905 296.087L118.876 295.957C117.901 296.046 117.507 295.942 117.34 295.22ZM128.211 292.71L126.963 287.304C126.548 285.509 125.404 284.525 123.553 284.952C122.072 285.294 121.189 286.453 121.135 287.655L120.682 285.693L117.746 287.248L117.776 287.378C118.795 287.065 119.093 287.171 119.345 288.264L120.768 294.428C120.935 295.15 120.626 295.417 119.712 295.764L119.742 295.894L124.055 294.898L124.025 294.768C123.093 294.867 122.777 294.764 122.614 294.061L121.191 287.896C121.298 287.091 121.746 286.247 122.82 285.999C124.06 285.713 124.808 286.417 125.163 287.954L126.372 293.193C126.535 293.897 126.295 294.127 125.414 294.448L125.444 294.577L129.776 293.577L129.746 293.448C128.772 293.536 128.377 293.432 128.211 292.71ZM129.658 288.008L134.972 286.781L134.814 286.096L129.5 287.323L129.658 288.008ZM138.622 277.495C136.845 277.905 135.843 279.053 136.386 281.405L136.578 282.238L135.356 282.52L135.42 282.797L136.642 282.515L138.45 290.346C138.617 291.068 138.308 291.335 137.393 291.682L137.423 291.812L142.218 290.705L142.188 290.575C140.815 290.795 140.454 290.664 140.283 289.923L138.475 282.092L140.289 281.673L140.225 281.396L138.281 281.844C137.615 281.491 137.278 280.964 137.099 280.187C136.932 279.465 137.113 278.39 138.261 278.125C139.372 277.868 140.202 278.593 140.534 279.608L140.649 279.601L140.618 277.522C140.031 277.345 139.307 277.337 138.622 277.495ZM147.09 279.518C145.479 279.89 144.735 281.31 145.158 283.903L145.084 283.92L144.238 280.255L141.375 281.793L141.405 281.923C142.411 281.632 142.735 281.772 142.992 282.882L144.398 288.973C144.565 289.695 144.256 289.961 143.341 290.309L143.371 290.439L148.166 289.332L148.136 289.202C146.763 289.421 146.402 289.291 146.231 288.55L145.461 285.218C144.872 282.663 145.492 281.72 146.714 281.438C147.066 281.357 147.375 281.344 147.559 281.379L147.651 281.358L147.22 279.488L147.09 279.518ZM156.944 283.834C156.763 285.67 155.799 286.224 154.707 286.476C152.726 286.933 151.025 285.649 150.35 282.977L156.441 281.571C155.934 279.036 154.166 277.885 152.13 278.355C149.538 278.953 148.549 281.424 149.228 284.368C149.946 287.478 152.104 288.715 154.307 288.206C156.066 287.8 157.22 286.383 157.078 283.823L156.944 283.834ZM151.817 278.856C152.946 278.595 154.053 279.334 154.508 281.647L150.269 282.626C149.867 280.632 150.484 279.164 151.817 278.856ZM165.73 281.806C165.55 283.641 164.586 284.195 163.493 284.448C161.512 284.905 159.812 283.621 159.137 280.949L165.227 279.543C164.72 277.008 162.953 275.856 160.916 276.326C158.325 276.925 157.335 279.395 158.015 282.339C158.733 285.449 160.89 286.687 163.093 286.178C164.852 285.772 166.007 284.355 165.864 281.794L165.73 281.806ZM160.603 276.827C161.732 276.567 162.839 277.306 163.295 279.618L159.055 280.597C158.654 278.604 159.27 277.135 160.603 276.827Z" fill="#C800FF"/>
</svg>
