<svg width="154" height="154" viewBox="0 0 154 154" fill="none" xmlns="http://www.w3.org/2000/svg">
<path d="M43.3284 126.277L43.2349 126.211L35.8045 130.802C34.7856 131.435 34.3613 131.579 33.6764 131.332L33.6004 131.441L35.9994 133.117L36.0754 133.007C35.4178 132.456 35.353 132.016 35.6244 131.627C35.8088 131.361 36.0759 131.177 36.3695 130.988L40.6748 128.294L39.613 133.346C39.5423 133.714 39.431 134.007 39.3008 134.194C38.9969 134.63 38.549 134.642 37.8513 134.248L37.7753 134.357L41.7477 137.131L41.8237 137.021C41.4012 136.564 41.35 135.972 41.5948 134.822L43.3284 126.277Z" fill="#C800FF"/>
<path d="M26.9128 115.766C28.4377 115.179 29.324 115.745 30.0172 116.552C31.2921 118.037 31.0091 120.011 29.095 121.836L25.1341 117.224C22.9688 118.989 22.9825 121.134 24.2822 122.648C26.0028 124.651 28.7121 124.423 31.0295 122.427C33.4764 120.318 33.532 117.787 32.059 116.072C30.9326 114.76 29.1116 114.273 26.8426 115.626L26.9128 115.766ZM24.9124 122.682C24.2068 121.86 24.3922 120.647 26.2305 119.113L28.7928 122.097C27.2527 123.424 25.7417 123.647 24.9124 122.682Z" fill="#C800FF"/>
<path d="M21.0981 103.186L22.4234 106.412C22.7653 107.218 22.7498 107.737 22.2579 107.985C21.8678 108.182 21.4512 108.03 21.0848 107.556C21.0406 106.961 20.8776 106.341 20.5531 105.696C19.5113 103.625 17.6664 102.875 15.9872 103.723C15.0035 104.219 14.4285 105.106 14.3295 106.177L13.3817 104.293L13.0933 104.439L14.3401 106.917C14.3925 107.444 14.5639 107.996 14.8542 108.573C15.8875 110.627 17.7494 111.368 19.4115 110.529C20.4631 109.998 21.0634 109.035 21.0856 107.853C21.8012 108.684 22.8463 108.859 23.6604 108.448C24.4406 108.054 24.7869 107.389 24.7083 106.599C25.5431 107.497 26.4778 107.706 27.258 107.312C28.5301 106.67 28.7037 104.986 27.4655 102.525C25.9113 99.4359 23.6001 98.9427 21.9379 99.7819C20.5471 100.484 20.4998 101.785 21.0981 103.186ZM15.1171 108.419C14.6901 107.57 15.2392 106.548 17.0201 105.649C18.7332 104.784 19.8462 104.967 20.2732 105.816C20.7087 106.681 20.1849 107.669 18.4718 108.534C16.6909 109.433 15.5356 109.293 15.1171 108.419ZM26.5729 102.188C27.5208 104.072 27.2959 105.654 26.0577 106.279C25.5658 106.528 25.1753 106.555 24.6735 106.276C24.6391 106.123 24.5792 105.962 24.5107 105.783L23.0572 102.218C22.5954 101.089 22.5939 100.536 23.3571 100.151C24.29 99.6798 25.5994 100.253 26.5729 102.188Z" fill="#C800FF"/>
<path d="M15.8223 85.8235C16.5907 85.8692 16.9396 86.2207 17.0247 86.6105C17.1219 87.0561 16.8114 87.4158 16.1433 87.5621L12.0785 88.452C9.77707 88.9559 8.57878 90.327 9.07696 92.6102C9.52653 94.6708 11.1029 95.7455 13.2198 95.5543L13.2285 95.4162C11.6853 95.3846 10.8187 94.6213 10.5433 93.359C10.199 91.7811 11.016 90.9798 12.6307 90.6263L13.0762 90.5287L13.8136 92.215C14.6981 94.2192 15.9944 95.258 17.6277 94.9004C18.8527 94.6322 19.7017 93.5322 19.3453 91.8986C19.0253 90.4321 17.8722 89.6926 16.9327 89.6649L17.1473 89.579C18.1148 89.2894 18.6162 88.5572 18.3894 87.5176C18.1302 86.3296 17.187 85.6609 15.8044 85.6524L15.8223 85.8235ZM18.0112 91.0431C18.234 92.0641 17.4855 92.7337 16.5204 92.945C15.6852 93.1278 14.6158 93.1286 13.901 91.4568L13.4474 90.4475L16.6397 89.7485C17.447 89.883 17.8533 90.3191 18.0112 91.0431Z" fill="#C800FF"/>
<path d="M16.2139 70.0887L10.5787 69.7915C8.77625 69.6964 7.55182 70.5451 7.45267 72.4235C7.37556 73.8845 8.19026 75.031 9.31165 75.4136L7.35737 75.3105L8.12178 78.8517L8.2546 78.8587C8.2867 77.89 8.5294 77.6174 9.59193 77.6735L15.7963 78.0007C16.5552 78.0407 16.7819 78.4332 16.8686 79.313L17.0014 79.32L17.2418 74.7664L17.109 74.7594C16.9521 75.5692 16.7114 75.8039 16.0093 75.7668L9.57728 75.4276C8.92723 75.1269 8.35012 74.5257 8.40019 73.577C8.45927 72.4576 9.24526 71.9853 10.6493 72.0594L16.1896 72.3516C16.8916 72.3886 17.1063 72.6473 17.1771 73.4692L17.3099 73.4762L17.5502 68.9225L17.4174 68.9155C17.2385 69.7813 16.9729 70.1288 16.2139 70.0887Z" fill="#C800FF"/>
<path d="M16.0495 49.6269C15.2774 49.2451 14.822 48.7937 14.6833 48.2729C14.5446 47.7521 14.6068 47.2247 14.87 46.6907C15.1332 46.1567 15.5134 45.7866 16.0105 45.5802C16.5076 45.3739 17.1421 45.4616 17.9142 45.8435C18.6636 46.2141 19.1133 46.6626 19.2633 47.1891C19.4134 47.7155 19.3568 48.2457 19.0937 48.7797C18.8305 49.3137 18.4446 49.6811 17.9362 49.8818C17.4277 50.0825 16.7988 49.9975 16.0495 49.6269Z" fill="#C800FF"/>
<path d="M33.9314 34.9997L37.528 31.9262L37.4418 31.8249C36.6601 32.343 36.2812 32.3669 35.8254 31.8316L27.5966 22.1686L25.5794 25.1921L25.6656 25.2933C26.4023 24.6638 26.7791 24.6667 27.4196 25.4189L34.0594 33.2158C34.5521 33.7945 34.4234 34.2294 33.8452 34.8984L33.9314 34.9997ZM39.5069 30.2351L42.1502 27.9762L42.0763 27.8895C41.5257 28.21 40.9573 28.2459 39.7904 28.0184L34.1723 26.6962L34.653 23.8612C34.7575 23.222 34.9993 22.0407 35.4709 21.1878L35.397 21.101L32.6092 23.4833L32.6832 23.5701C33.3145 23.0806 33.7427 23.1146 34.0013 23.4184C34.2231 23.6787 34.3025 24.0358 34.1002 25.0584L33.3723 28.8045L39.5069 30.2351Z" fill="#C800FF"/>
<path d="M52.7221 18.3575C52.8889 19.9843 52.112 20.694 51.1526 21.1541C49.388 22.0004 47.5587 21.213 46.3 18.8876L51.7822 16.2585C50.6464 13.7056 48.575 13.1608 46.7762 14.0235C44.3948 15.1655 43.9061 17.8442 45.2251 20.6042C46.6179 23.5185 49.0431 24.2308 51.0818 23.2531C52.6408 22.5055 53.5868 20.8718 52.8756 18.326L52.7221 18.3575ZM46.5788 14.6239C47.5553 14.1555 48.6762 14.6505 49.6743 16.8269L46.128 18.5276C45.2514 16.6933 45.4309 15.1743 46.5788 14.6239Z" fill="#C800FF"/>
<path d="M65.8392 15.8685C65.7553 16.6876 65.4322 17.2306 64.6918 17.4022C63.9699 17.5696 63.4772 17.0401 63.2678 16.133L61.7252 9.44971L63.7242 8.98637L63.6516 8.67164L61.6525 9.13499L60.9816 6.22841L60.8891 6.24986C60.512 7.99509 59.6378 9.19239 58.3124 10.1237L58.338 10.2348L59.5411 9.95596L61.1649 16.991C61.4854 18.3795 62.3939 19.1051 63.7821 18.7833C65.1888 18.4573 65.9049 17.3356 66.0001 15.8897L65.8392 15.8685Z" fill="#C800FF"/>
<path d="M76.8708 17.285C79.7588 17.285 81.6018 15.138 81.6018 12.193C81.6018 9.248 79.7588 7.101 76.8708 7.101C73.9828 7.101 72.1398 9.248 72.1398 12.193C72.1398 15.138 73.9828 17.285 76.8708 17.285ZM76.8708 16.791C75.2178 16.791 74.5338 15.233 74.5338 12.193C74.5338 9.153 75.2178 7.595 76.8708 7.595C78.5048 7.595 79.1888 9.153 79.1888 12.193C79.1888 15.233 78.5048 16.791 76.8708 16.791Z" fill="#C800FF"/>
<path d="M100.577 14.3095C100.91 13.5152 101.332 13.0331 101.843 12.8633C102.354 12.6935 102.883 12.7241 103.432 12.955C103.981 13.186 104.373 13.5436 104.61 14.028C104.846 14.5123 104.798 15.1516 104.464 15.9459C104.141 16.7168 103.722 17.193 103.206 17.3745C102.69 17.556 102.158 17.5312 101.609 17.3003C101.061 17.0693 100.671 16.7058 100.439 16.2098C100.208 15.7139 100.253 15.0804 100.577 14.3095Z" fill="#C800FF"/>
<path d="M122.063 34.6013L119.8 31.9476C119.224 31.2875 119.077 30.7897 119.467 30.4005C119.777 30.0919 120.22 30.1063 120.716 30.4435C120.943 30.9952 121.29 31.5338 121.8 32.0458C123.434 33.6897 125.42 33.8283 126.752 32.4998C127.532 31.7215 127.803 30.7001 127.563 29.6507L129.05 31.1464L129.279 30.9182L127.323 28.951C127.109 28.4665 126.774 27.9951 126.319 27.537C124.698 25.9066 122.698 25.7815 121.38 27.0966C120.546 27.9286 120.275 29.0306 120.622 30.1609C119.684 29.5942 118.636 29.7534 117.991 30.3975C117.372 31.0148 117.25 31.7541 117.57 32.4809C116.498 31.887 115.544 31.9792 114.926 32.5965C113.917 33.6029 114.276 35.2576 116.218 37.2114C118.656 39.6637 121.006 39.4131 122.324 38.098C123.427 36.9976 123.067 35.7463 122.063 34.6013ZM126.117 27.7652C126.787 28.4389 126.583 29.5815 125.171 30.9905C123.812 32.3458 122.698 32.5183 122.028 31.8446C121.345 31.1574 121.535 30.0552 122.894 28.6998C124.306 27.2908 125.447 27.0646 126.117 27.7652ZM117.171 37.2537C115.684 35.758 115.406 34.1842 116.388 33.2046C116.778 32.8154 117.14 32.6683 117.704 32.777C117.784 32.9116 117.891 33.0463 118.012 33.1945L120.502 36.131C121.293 37.0605 121.466 37.5852 120.861 38.1891C120.121 38.9271 118.698 38.7898 117.171 37.2537Z" fill="#C800FF"/>
<path d="M129.084 44.7763L139.669 37.946L136.948 35.5412L136.836 35.6133C137.36 36.4284 137.307 36.802 136.476 37.3377L127.871 42.8905C127.233 43.3026 126.82 43.1169 126.235 42.4539L126.124 42.526L128.682 46.5053L128.794 46.4331C128.433 45.6259 128.446 45.1883 129.084 44.7763Z" fill="#C800FF"/>
<path d="M135.876 59.268L143.718 56.3727L142.005 53.4205L141.898 53.46C142.199 54.2802 142.064 54.5732 141.048 54.9483L135.541 56.9815C134.854 56.9312 134.276 56.5166 134.016 55.8634C133.613 54.878 134.103 54.0085 135.368 53.5413L141.803 51.1659L140.025 48.0954L139.9 48.1415C140.259 49.0622 140.137 49.3908 139.121 49.7658L134.434 51.4964C132.437 52.2334 131.902 53.5854 132.493 55.1902C132.952 56.4385 134.144 57.0921 135.273 57.0802L133.705 57.6593L134.912 60.9403L135.036 60.8942C134.855 60.0702 134.967 59.6036 135.876 59.268Z" fill="#C800FF"/>
<path d="M138.825 71.9893C138.019 71.8233 137.511 71.447 137.416 70.693C137.324 69.9579 137.9 69.5209 138.824 69.4039L145.629 68.542L145.886 70.5778L146.206 70.5373L145.949 68.5014L148.908 68.1266L148.896 68.0323C147.199 67.4812 146.097 66.4908 145.306 65.0781L145.193 65.0924L145.348 66.3177L138.185 67.2249C136.771 67.404 135.957 68.2349 136.135 69.6487C136.316 71.0813 137.359 71.9069 138.787 72.1473L138.825 71.9893Z" fill="#C800FF"/>
<path d="M139.705 86.184C138.224 85.4916 138.015 84.4605 138.114 83.4012C138.296 81.4527 139.912 80.2876 142.554 80.402L141.988 86.4555C144.762 86.7922 146.295 85.2949 146.481 83.3085C146.727 80.679 144.681 78.884 141.635 78.5982C138.419 78.2964 136.561 80.0112 136.35 82.2624C136.189 83.9839 137.103 85.6345 139.653 86.3318L139.705 86.184ZM146.067 82.8308C145.967 83.9091 144.965 84.6167 142.585 84.3551L142.952 80.4392C144.976 80.6292 146.186 81.5634 146.067 82.8308Z" fill="#C800FF"/>
<path d="M133.112 101.568L138.405 103.523C140.098 104.148 141.519 103.701 142.168 101.935C142.673 100.562 142.234 99.2254 141.276 98.5274L143.112 99.2053L143.428 95.5953L143.303 95.5493C142.987 96.4652 142.674 96.6537 141.676 96.2851L135.848 94.1328C135.135 93.8695 135.035 93.4273 135.212 92.561L135.087 92.5149L133.512 96.7944L133.637 96.8404C134.026 96.1132 134.325 95.9604 134.985 96.2039L141.027 98.4352C141.559 98.9152 141.932 99.6608 141.604 100.552C141.217 101.604 140.327 101.823 139.008 101.335L133.803 99.4135C133.144 99.17 133.015 98.8592 133.191 98.0529L133.066 98.0069L131.491 102.286L131.616 102.332C132.042 101.558 132.399 101.305 133.112 101.568Z" fill="#C800FF"/>
<path d="M132.833 110.936L129.809 115.474L130.488 115.928L133.512 111.391L132.833 110.936Z" fill="#C800FF"/>
<path d="M128.13 129.933C129.484 128.572 129.668 126.985 127.974 125.294L127.49 124.811L128.334 123.962L128.105 123.734L127.261 124.583L121.585 118.919C121.047 118.382 121.14 117.938 121.662 117.225L121.568 117.131L117.965 120.755L118.059 120.849C118.997 120.04 119.44 119.945 120.004 120.509L125.68 126.172L124.461 127.398L124.69 127.627L126.043 126.266C126.848 126.103 127.452 126.411 127.977 126.934C128.461 127.418 128.852 128.371 128.048 129.18C127.298 129.934 126.238 129.815 125.364 129.104L125.27 129.172L126.24 131.052C126.871 130.903 127.541 130.526 128.13 129.933Z" fill="#C800FF"/>
<path d="M113.125 136.814C114.503 135.9 114.725 134.272 113.339 131.862L113.402 131.82L115.58 135.118L117.892 132.447L117.818 132.336C117.021 132.887 116.626 132.807 116.009 131.871L112.648 126.782C112.229 126.147 112.41 125.731 113.065 125.138L112.992 125.027L108.731 127.85L108.805 127.961C109.887 127.358 110.339 127.354 110.779 128.02L112.559 130.715C113.972 132.856 113.7 133.926 112.654 134.618C112.322 134.839 112.037 134.959 111.842 134.974L111.763 135.027L112.998 136.898L113.125 136.814Z" fill="#C800FF"/>
<path d="M96.0348 137.514C96.0138 135.879 96.851 135.242 97.8477 134.869C99.6808 134.184 101.433 135.132 102.479 137.56L96.7838 139.689C97.6874 142.333 99.7021 143.06 101.571 142.362C104.045 141.437 104.771 138.813 103.703 135.947C102.576 132.92 100.223 131.994 98.1055 132.785C96.4859 133.391 95.3979 134.933 95.8792 137.532L96.0348 137.514ZM101.821 141.782C100.807 142.161 99.7342 141.568 98.9342 139.311L102.618 137.934C103.328 139.839 103.014 141.336 101.821 141.782Z" fill="#C800FF"/>
<path d="M80.8974 140.319C81.2708 138.727 82.2369 138.311 83.294 138.19C85.2384 137.968 86.7107 139.311 87.1415 141.92L81.1008 142.61C81.3412 145.393 83.1215 146.586 85.1037 146.36C87.7276 146.06 89.064 143.689 88.718 140.65C88.3526 137.44 86.2925 135.974 84.0461 136.23C82.3283 136.426 80.9007 137.66 80.7421 140.299L80.8974 140.319ZM85.4863 145.857C84.4103 145.98 83.5121 145.145 83.2791 142.762L87.1867 142.316C87.4166 144.336 86.751 145.712 85.4863 145.857Z" fill="#C800FF"/>
<path d="M64.2599 142.02C64.0254 142.848 63.665 143.378 63.1785 143.609C62.692 143.839 62.1625 143.873 61.5898 143.711C61.017 143.548 60.584 143.241 60.2906 142.789C59.9972 142.337 59.9677 141.697 60.2022 140.868C60.4297 140.063 60.7884 139.54 61.2784 139.297C61.7683 139.054 62.2996 139.014 62.8723 139.177C63.445 139.339 63.8763 139.653 64.1663 140.117C64.4562 140.581 64.4874 141.215 64.2599 142.02Z" fill="#C800FF"/>
</svg>
