<svg width="44" height="134" viewBox="0 0 44 134" fill="none" xmlns="http://www.w3.org/2000/svg">
<circle cx="22" cy="22" r="21.5" stroke="#C800FF"/>
<path d="M22 13.8018C24.6701 13.8018 24.9864 13.812 26.0408 13.8601C27.0158 13.9046 27.5453 14.0675 27.8977 14.2044C28.3644 14.3858 28.6976 14.6026 29.0475 14.9525C29.3974 15.3024 29.6142 15.6356 29.7955 16.1023C29.9325 16.4547 30.0954 16.9842 30.1399 17.9591C30.188 19.0136 30.1982 19.3299 30.1982 22C30.1982 24.6701 30.188 24.9864 30.1399 26.0409C30.0954 27.0158 29.9325 27.5453 29.7955 27.8978C29.6142 28.3645 29.3974 28.6976 29.0475 29.0476C28.6976 29.3975 28.3644 29.6142 27.8977 29.7956C27.5453 29.9325 27.0158 30.0954 26.0408 30.1399C24.9865 30.188 24.6703 30.1982 22 30.1982C19.3297 30.1982 19.0134 30.188 17.9591 30.1399C16.9842 30.0954 16.4547 29.9325 16.1023 29.7956C15.6355 29.6142 15.3024 29.3975 14.9524 29.0476C14.6025 28.6976 14.3858 28.3645 14.2044 27.8978C14.0675 27.5453 13.9046 27.0158 13.8601 26.0409C13.812 24.9864 13.8018 24.6701 13.8018 22C13.8018 19.3299 13.812 19.0136 13.8601 17.9592C13.9046 16.9842 14.0675 16.4547 14.2044 16.1023C14.3858 15.6356 14.6025 15.3024 14.9524 14.9525C15.3024 14.6026 15.6355 14.3858 16.1023 14.2044C16.4547 14.0675 16.9842 13.9046 17.9591 13.8601C19.0136 13.812 19.3299 13.8018 22 13.8018ZM22 12C19.2841 12 18.9436 12.0115 17.877 12.0602C16.8126 12.1088 16.0857 12.2778 15.4496 12.525C14.792 12.7806 14.2343 13.1225 13.6784 13.6784C13.1225 14.2344 12.7805 14.792 12.525 15.4496C12.2777 16.0857 12.1087 16.8126 12.0601 17.8771C12.0115 18.9436 12 19.2842 12 22C12 24.7159 12.0115 25.0564 12.0601 26.123C12.1087 27.1874 12.2777 27.9143 12.525 28.5504C12.7805 29.208 13.1225 29.7657 13.6784 30.3216C14.2343 30.8775 14.792 31.2195 15.4496 31.475C16.0857 31.7223 16.8126 31.8913 17.877 31.9399C18.9436 31.9885 19.2841 32 22 32C24.7158 32 25.0564 31.9885 26.1229 31.9399C27.1874 31.8913 27.9143 31.7223 28.5504 31.475C29.208 31.2195 29.7656 30.8775 30.3216 30.3216C30.8775 29.7657 31.2194 29.208 31.475 28.5504C31.7222 27.9143 31.8912 27.1874 31.9398 26.123C31.9885 25.0564 32 24.7159 32 22C32 19.2842 31.9885 18.9436 31.9398 17.8771C31.8912 16.8126 31.7222 16.0857 31.475 15.4496C31.2194 14.792 30.8775 14.2344 30.3216 13.6784C29.7656 13.1225 29.208 12.7806 28.5504 12.525C27.9143 12.2778 27.1874 12.1088 26.1229 12.0602C25.0564 12.0115 24.7158 12 22 12ZM22 16.8649C19.1639 16.8649 16.8648 19.164 16.8648 22C16.8648 24.8361 19.1639 27.1352 22 27.1352C24.836 27.1352 27.1351 24.8361 27.1351 22C27.1351 19.164 24.836 16.8649 22 16.8649ZM22 25.3334C20.159 25.3334 18.6666 23.841 18.6666 22C18.6666 20.1591 20.159 18.6667 22 18.6667C23.8409 18.6667 25.3333 20.1591 25.3333 22C25.3333 23.841 23.8409 25.3334 22 25.3334ZM28.538 16.662C28.538 17.3247 28.0008 17.862 27.338 17.862C26.6753 17.862 26.138 17.3247 26.138 16.662C26.138 15.9992 26.6753 15.462 27.338 15.462C28.0008 15.462 28.538 15.9992 28.538 16.662Z" fill="#C800FF"/>
<circle cx="22" cy="67" r="21.5" fill="#C800FF" stroke="#C800FF"/>
<path d="M22 58.8018C24.6701 58.8018 24.9864 58.812 26.0408 58.8601C27.0158 58.9046 27.5453 59.0675 27.8977 59.2044C28.3644 59.3858 28.6976 59.6026 29.0475 59.9525C29.3974 60.3024 29.6142 60.6356 29.7955 61.1023C29.9325 61.4547 30.0954 61.9842 30.1399 62.9591C30.188 64.0136 30.1982 64.3299 30.1982 67C30.1982 69.6701 30.188 69.9864 30.1399 71.0409C30.0954 72.0158 29.9325 72.5453 29.7955 72.8978C29.6142 73.3645 29.3974 73.6976 29.0475 74.0476C28.6976 74.3975 28.3644 74.6142 27.8977 74.7956C27.5453 74.9325 27.0158 75.0954 26.0408 75.1399C24.9865 75.188 24.6703 75.1982 22 75.1982C19.3297 75.1982 19.0134 75.188 17.9591 75.1399C16.9842 75.0954 16.4547 74.9325 16.1023 74.7956C15.6355 74.6142 15.3024 74.3975 14.9524 74.0476C14.6025 73.6976 14.3858 73.3645 14.2044 72.8978C14.0675 72.5453 13.9046 72.0158 13.8601 71.0409C13.812 69.9864 13.8018 69.6701 13.8018 67C13.8018 64.3299 13.812 64.0136 13.8601 62.9592C13.9046 61.9842 14.0675 61.4547 14.2044 61.1023C14.3858 60.6356 14.6025 60.3024 14.9524 59.9525C15.3024 59.6026 15.6355 59.3858 16.1023 59.2044C16.4547 59.0675 16.9842 58.9046 17.9591 58.8601C19.0136 58.812 19.3299 58.8018 22 58.8018ZM22 57C19.2841 57 18.9436 57.0115 17.877 57.0602C16.8126 57.1088 16.0857 57.2778 15.4496 57.525C14.792 57.7806 14.2343 58.1225 13.6784 58.6784C13.1225 59.2344 12.7805 59.792 12.525 60.4496C12.2777 61.0857 12.1087 61.8126 12.0601 62.8771C12.0115 63.9436 12 64.2842 12 67C12 69.7159 12.0115 70.0564 12.0601 71.123C12.1087 72.1874 12.2777 72.9143 12.525 73.5504C12.7805 74.208 13.1225 74.7657 13.6784 75.3216C14.2343 75.8775 14.792 76.2195 15.4496 76.475C16.0857 76.7223 16.8126 76.8913 17.877 76.9399C18.9436 76.9885 19.2841 77 22 77C24.7158 77 25.0564 76.9885 26.1229 76.9399C27.1874 76.8913 27.9143 76.7223 28.5504 76.475C29.208 76.2195 29.7656 75.8775 30.3216 75.3216C30.8775 74.7657 31.2194 74.208 31.475 73.5504C31.7222 72.9143 31.8912 72.1874 31.9398 71.123C31.9885 70.0564 32 69.7159 32 67C32 64.2842 31.9885 63.9436 31.9398 62.8771C31.8912 61.8126 31.7222 61.0857 31.475 60.4496C31.2194 59.792 30.8775 59.2344 30.3216 58.6784C29.7656 58.1225 29.208 57.7806 28.5504 57.525C27.9143 57.2778 27.1874 57.1088 26.1229 57.0602C25.0564 57.0115 24.7158 57 22 57ZM22 61.8649C19.1639 61.8649 16.8648 64.164 16.8648 67C16.8648 69.8361 19.1639 72.1352 22 72.1352C24.836 72.1352 27.1351 69.8361 27.1351 67C27.1351 64.164 24.836 61.8649 22 61.8649ZM22 70.3334C20.159 70.3334 18.6666 68.841 18.6666 67C18.6666 65.1591 20.159 63.6667 22 63.6667C23.8409 63.6667 25.3333 65.1591 25.3333 67C25.3333 68.841 23.8409 70.3334 22 70.3334ZM28.538 61.662C28.538 62.3247 28.0008 62.862 27.338 62.862C26.6753 62.862 26.138 62.3247 26.138 61.662C26.138 60.9992 26.6753 60.462 27.338 60.462C28.0008 60.462 28.538 60.9992 28.538 61.662Z" fill="white"/>
<circle cx="22" cy="112" r="21.5" fill="#DE66FF" stroke="#DE66FF"/>
<path d="M22 103.802C24.6701 103.802 24.9864 103.812 26.0408 103.86C27.0158 103.905 27.5453 104.068 27.8977 104.204C28.3644 104.386 28.6976 104.603 29.0475 104.952C29.3974 105.302 29.6142 105.636 29.7955 106.102C29.9325 106.455 30.0954 106.984 30.1399 107.959C30.188 109.014 30.1982 109.33 30.1982 112C30.1982 114.67 30.188 114.986 30.1399 116.041C30.0954 117.016 29.9325 117.545 29.7955 117.898C29.6142 118.364 29.3974 118.698 29.0475 119.048C28.6976 119.397 28.3644 119.614 27.8977 119.796C27.5453 119.933 27.0158 120.095 26.0408 120.14C24.9865 120.188 24.6703 120.198 22 120.198C19.3297 120.198 19.0134 120.188 17.9591 120.14C16.9842 120.095 16.4547 119.933 16.1023 119.796C15.6355 119.614 15.3024 119.397 14.9524 119.048C14.6025 118.698 14.3858 118.364 14.2044 117.898C14.0675 117.545 13.9046 117.016 13.8601 116.041C13.812 114.986 13.8018 114.67 13.8018 112C13.8018 109.33 13.812 109.014 13.8601 107.959C13.9046 106.984 14.0675 106.455 14.2044 106.102C14.3858 105.636 14.6025 105.302 14.9524 104.952C15.3024 104.603 15.6355 104.386 16.1023 104.204C16.4547 104.068 16.9842 103.905 17.9591 103.86C19.0136 103.812 19.3299 103.802 22 103.802ZM22 102C19.2841 102 18.9436 102.012 17.877 102.06C16.8126 102.109 16.0857 102.278 15.4496 102.525C14.792 102.781 14.2343 103.122 13.6784 103.678C13.1225 104.234 12.7805 104.792 12.525 105.45C12.2777 106.086 12.1087 106.813 12.0601 107.877C12.0115 108.944 12 109.284 12 112C12 114.716 12.0115 115.056 12.0601 116.123C12.1087 117.187 12.2777 117.914 12.525 118.55C12.7805 119.208 13.1225 119.766 13.6784 120.322C14.2343 120.878 14.792 121.219 15.4496 121.475C16.0857 121.722 16.8126 121.891 17.877 121.94C18.9436 121.989 19.2841 122 22 122C24.7158 122 25.0564 121.989 26.1229 121.94C27.1874 121.891 27.9143 121.722 28.5504 121.475C29.208 121.219 29.7656 120.878 30.3216 120.322C30.8775 119.766 31.2194 119.208 31.475 118.55C31.7222 117.914 31.8912 117.187 31.9398 116.123C31.9885 115.056 32 114.716 32 112C32 109.284 31.9885 108.944 31.9398 107.877C31.8912 106.813 31.7222 106.086 31.475 105.45C31.2194 104.792 30.8775 104.234 30.3216 103.678C29.7656 103.122 29.208 102.781 28.5504 102.525C27.9143 102.278 27.1874 102.109 26.1229 102.06C25.0564 102.012 24.7158 102 22 102ZM22 106.865C19.1639 106.865 16.8648 109.164 16.8648 112C16.8648 114.836 19.1639 117.135 22 117.135C24.836 117.135 27.1351 114.836 27.1351 112C27.1351 109.164 24.836 106.865 22 106.865ZM22 115.333C20.159 115.333 18.6666 113.841 18.6666 112C18.6666 110.159 20.159 108.667 22 108.667C23.8409 108.667 25.3333 110.159 25.3333 112C25.3333 113.841 23.8409 115.333 22 115.333ZM28.538 106.662C28.538 107.325 28.0008 107.862 27.338 107.862C26.6753 107.862 26.138 107.325 26.138 106.662C26.138 105.999 26.6753 105.462 27.338 105.462C28.0008 105.462 28.538 105.999 28.538 106.662Z" fill="white"/>
</svg>
