<svg width="44" height="44" viewBox="0 0 44 44" fill="none" xmlns="http://www.w3.org/2000/svg">
<circle cx="22" cy="22" r="21.5" stroke="#C800FF"/>
<path d="M22 13.8018C24.6701 13.8018 24.9864 13.812 26.0408 13.8601C27.0158 13.9046 27.5453 14.0675 27.8977 14.2044C28.3644 14.3858 28.6976 14.6026 29.0475 14.9525C29.3974 15.3024 29.6142 15.6356 29.7955 16.1023C29.9325 16.4547 30.0954 16.9842 30.1399 17.9591C30.188 19.0136 30.1982 19.3299 30.1982 22C30.1982 24.6701 30.188 24.9864 30.1399 26.0409C30.0954 27.0158 29.9325 27.5453 29.7955 27.8978C29.6142 28.3645 29.3974 28.6976 29.0475 29.0476C28.6976 29.3975 28.3644 29.6142 27.8977 29.7956C27.5453 29.9325 27.0158 30.0954 26.0408 30.1399C24.9865 30.188 24.6703 30.1982 22 30.1982C19.3297 30.1982 19.0134 30.188 17.9591 30.1399C16.9842 30.0954 16.4547 29.9325 16.1023 29.7956C15.6355 29.6142 15.3024 29.3975 14.9524 29.0476C14.6025 28.6976 14.3858 28.3645 14.2044 27.8978C14.0675 27.5453 13.9046 27.0158 13.8601 26.0409C13.812 24.9864 13.8018 24.6701 13.8018 22C13.8018 19.3299 13.812 19.0136 13.8601 17.9592C13.9046 16.9842 14.0675 16.4547 14.2044 16.1023C14.3858 15.6356 14.6025 15.3024 14.9524 14.9525C15.3024 14.6026 15.6355 14.3858 16.1023 14.2044C16.4547 14.0675 16.9842 13.9046 17.9591 13.8601C19.0136 13.812 19.3299 13.8018 22 13.8018ZM22 12C19.2841 12 18.9436 12.0115 17.877 12.0602C16.8126 12.1088 16.0857 12.2778 15.4496 12.525C14.792 12.7806 14.2343 13.1225 13.6784 13.6784C13.1225 14.2344 12.7805 14.792 12.525 15.4496C12.2777 16.0857 12.1087 16.8126 12.0601 17.8771C12.0115 18.9436 12 19.2842 12 22C12 24.7159 12.0115 25.0564 12.0601 26.123C12.1087 27.1874 12.2777 27.9143 12.525 28.5504C12.7805 29.208 13.1225 29.7657 13.6784 30.3216C14.2343 30.8775 14.792 31.2195 15.4496 31.475C16.0857 31.7223 16.8126 31.8913 17.877 31.9399C18.9436 31.9885 19.2841 32 22 32C24.7158 32 25.0564 31.9885 26.1229 31.9399C27.1874 31.8913 27.9143 31.7223 28.5504 31.475C29.208 31.2195 29.7656 30.8775 30.3216 30.3216C30.8775 29.7657 31.2194 29.208 31.475 28.5504C31.7222 27.9143 31.8912 27.1874 31.9398 26.123C31.9885 25.0564 32 24.7159 32 22C32 19.2842 31.9885 18.9436 31.9398 17.8771C31.8912 16.8126 31.7222 16.0857 31.475 15.4496C31.2194 14.792 30.8775 14.2344 30.3216 13.6784C29.7656 13.1225 29.208 12.7806 28.5504 12.525C27.9143 12.2778 27.1874 12.1088 26.1229 12.0602C25.0564 12.0115 24.7158 12 22 12ZM22 16.8649C19.1639 16.8649 16.8648 19.164 16.8648 22C16.8648 24.8361 19.1639 27.1352 22 27.1352C24.836 27.1352 27.1351 24.8361 27.1351 22C27.1351 19.164 24.836 16.8649 22 16.8649ZM22 25.3334C20.159 25.3334 18.6666 23.841 18.6666 22C18.6666 20.1591 20.159 18.6667 22 18.6667C23.8409 18.6667 25.3333 20.1591 25.3333 22C25.3333 23.841 23.8409 25.3334 22 25.3334ZM28.538 16.662C28.538 17.3247 28.0008 17.862 27.338 17.862C26.6753 17.862 26.138 17.3247 26.138 16.662C26.138 15.9992 26.6753 15.462 27.338 15.462C28.0008 15.462 28.538 15.9992 28.538 16.662Z" fill="#C800FF"/>
</svg>
