<svg width="101" height="100" viewBox="0 0 101 100" fill="none" xmlns="http://www.w3.org/2000/svg">
<g clip-path="url(#clip0)">
<path d="M50.1843 0L56.7552 7.93768L65.5245 2.46342L69.355 12.0434L79.4926 9.57995L80.3091 19.981L90.7191 20.5285L87.9744 30.6559L97.5609 34.4878L92.0773 43.2467L100.019 50.0895L92.0705 56.6586L97.5451 65.4174L87.9548 69.2494L90.6892 79.3768L80.2785 80.1979L79.4514 90.599L69.3165 87.8619L65.4763 97.4418L56.7125 91.9676L50.1336 99.9052L43.2888 91.9676L34.5195 97.4418L30.689 87.8619L20.5513 90.599L20.0087 80.1979L9.59885 79.3768L12.0696 69.2494L2.48313 65.4174L7.96666 56.6586L0.0253355 50.0895L7.97348 43.2467L2.49885 34.4878L12.0892 30.6559L9.62874 20.5285L20.0393 19.981L20.5925 9.57995L30.7275 12.0434L34.5677 2.46342L43.3315 7.93768L50.1843 0Z" fill="#C800FF"/>
<path d="M38.2032 46.124H48.1212L48.1214 45.863C45.3665 45.631 44.5837 45.167 44.5846 43.456L44.5914 30H44.4174L38.2101 32.668L38.2969 32.958C39.2251 32.61 39.8342 32.436 40.2982 32.436C41.3422 32.436 41.7189 32.987 41.7183 34.205L41.7136 43.456C41.7127 45.196 40.9585 45.631 38.2034 45.863L38.2032 46.124Z" fill="white"/>
<path d="M59.0595 43.427L54.0426 43.079C52.6217 42.963 51.8969 42.586 51.8973 41.716C51.8977 40.962 52.4779 40.498 53.493 40.324C54.2759 40.643 55.1748 40.817 56.1898 40.817C59.5828 40.817 61.7588 38.787 61.7602 35.974C61.7611 34.292 60.9498 32.871 59.5582 32.03H62.8352L62.8355 31.595H58.6885C57.9636 31.305 57.1227 31.16 56.1947 31.16C52.7727 31.16 50.6256 33.219 50.6242 35.974C50.6233 37.801 51.5216 39.28 53.0871 40.121C51.4339 40.527 50.5343 41.716 50.5336 43.05C50.533 44.355 51.2575 45.254 52.4173 45.631C50.5031 46.182 49.5165 47.313 49.5158 48.734C49.5147 50.909 51.7469 52.359 55.7199 52.359C60.6789 52.359 63.0582 49.749 63.0597 46.791C63.0609 44.442 61.3504 43.601 59.0595 43.427ZM56.1945 31.566C57.7895 31.595 58.9487 33.045 58.9472 36.061C58.9457 38.99 57.785 40.44 56.19 40.44C54.566 40.44 53.4357 38.99 53.4372 36.061C53.4387 33.045 54.5705 31.537 56.1945 31.566ZM56.7064 51.431C53.5744 51.431 51.5451 50.068 51.5462 47.951C51.5467 46.936 51.895 46.327 52.8523 45.747L53.4322 45.834L59.174 46.269C61.0299 46.414 61.8998 46.762 61.899 48.241C61.8982 49.865 60.2154 51.431 56.7064 51.431Z" fill="white"/>
<path d="M31.1165 68.305L31.1184 64.509C31.119 63.248 30.5085 62.416 29.2085 62.416C28.1684 62.416 27.4011 63.053 27.1797 63.846L27.1804 62.468L24.9831 63.053L24.9831 63.144C25.7111 63.092 25.893 63.209 25.8927 63.976L25.8905 68.305C25.8902 68.812 25.6431 68.942 24.9801 69.033L24.98 69.124H28.009L28.0091 69.033C27.3721 68.955 27.1772 68.838 27.1774 68.344L27.1796 64.015C27.3749 63.495 27.8042 63.001 28.5582 63.001C29.4292 63.001 29.8189 63.586 29.8183 64.665L29.8164 68.344C29.8162 68.838 29.6211 68.955 28.9841 69.033L28.984 69.124H32.026L32.0261 69.033C31.3631 68.942 31.1162 68.812 31.1165 68.305Z" fill="white"/>
<path d="M37.9281 66.81C37.5245 68.006 36.7964 68.227 36.0294 68.227C34.6384 68.227 33.7029 67.109 33.6649 65.224H37.9419C37.9948 63.456 36.9943 62.416 35.5643 62.416C33.7443 62.416 32.7036 63.911 32.7025 65.978C32.7014 68.162 33.9488 69.319 35.4958 69.319C36.7308 69.319 37.7192 68.552 38.0191 66.823L37.9281 66.81ZM35.2782 62.702C36.0712 62.702 36.6949 63.365 36.642 64.977H33.665C33.7047 63.586 34.3422 62.702 35.2782 62.702Z" fill="white"/>
<path d="M42.6285 67.798C42.4202 68.37 42.1341 68.669 41.6011 68.669C41.0811 68.669 40.8343 68.227 40.8346 67.577L40.837 62.819H42.306L42.3061 62.624H40.8371L40.8382 60.648H40.7732C40.3696 61.805 39.6802 62.442 38.6531 62.728L38.653 62.819H39.55L39.5475 67.798C39.547 68.747 40.0277 69.319 40.9377 69.319C41.8347 69.319 42.433 68.76 42.7195 67.824L42.6285 67.798Z" fill="white"/>
<path d="M48.9538 69.319C50.3058 69.319 51.2552 68.383 51.399 66.888L51.295 66.862C51.0605 67.889 50.3063 68.227 49.4743 68.227C47.9533 68.227 47.07 66.849 47.0708 65.406C47.0716 63.794 47.8 62.923 49.048 62.923C50.244 62.923 50.7636 63.794 50.8279 65.094H50.9189L51.2191 62.832C50.7252 62.585 50.0233 62.416 49.2433 62.416C47.3713 62.416 46.1226 63.768 46.1214 66.017C46.1204 68.006 47.2508 69.319 48.9538 69.319Z" fill="white"/>
<path d="M58.4926 67.941C58.3363 68.474 58.0632 68.682 57.7642 68.682C57.4522 68.682 57.2574 68.396 57.2576 67.928L57.2591 64.938C57.2599 63.352 56.5324 62.416 55.0114 62.416C53.6334 62.416 52.697 63.3 52.5273 64.704L52.6182 64.717C52.8398 63.69 53.503 63.17 54.413 63.17C55.518 63.17 55.9727 63.82 55.9721 65.042L55.9719 65.38L54.6328 65.64C53.1766 65.939 52.3313 66.628 52.3307 67.746C52.3303 68.604 52.9409 69.319 54.0979 69.319C55.1509 69.319 55.8403 68.617 55.9836 68.006L55.9965 68.201C56.0351 68.877 56.4119 69.319 57.0879 69.319C57.8809 69.319 58.3882 68.812 58.5966 67.954L58.4926 67.941ZM54.7222 68.695C53.9292 68.695 53.6046 68.045 53.6049 67.369C53.6052 66.81 53.7356 66.056 55.0747 65.783L55.9718 65.614L55.9707 67.811C55.7234 68.448 55.3072 68.695 54.7222 68.695Z" fill="white"/>
<path d="M63.1923 62.416C62.0613 62.416 61.3459 63.248 61.2279 65.042H61.1759L61.1773 62.468L59.032 63.053L59.0319 63.144C59.7469 63.105 59.9419 63.248 59.9415 64.028L59.9393 68.305C59.939 68.812 59.692 68.942 59.0289 69.033L59.0289 69.124H62.3959L62.3959 69.033C61.4469 68.968 61.226 68.825 61.2263 68.305L61.2275 65.965C61.2284 64.171 61.7877 63.638 62.6457 63.638C62.8927 63.638 63.1006 63.677 63.2176 63.729H63.2826L63.2833 62.416H63.1923Z" fill="white"/>
<path d="M67.8233 62.416C66.9263 62.416 66.042 62.988 65.7557 63.703L65.7577 59.634L63.5604 60.232L63.5604 60.336C64.2754 60.284 64.4703 60.414 64.47 61.142L64.4661 68.747C65.0769 69.098 65.9348 69.319 66.7148 69.319C68.7558 69.319 70.1996 67.798 70.2008 65.497C70.2017 63.586 69.2273 62.416 67.8233 62.416ZM66.9489 69.059C66.2469 69.059 65.8702 68.656 65.7532 68.461L65.7555 63.937C65.9769 63.326 66.575 63.066 67.069 63.066C68.213 63.066 68.8105 64.067 68.8095 65.952C68.8085 67.993 68.0669 69.059 66.9489 69.059Z" fill="white"/>
<path d="M73.2764 69.319C74.7714 69.319 75.7338 68.422 75.7345 67.148C75.7349 66.264 75.2672 65.77 74.3833 65.419L72.9926 64.847C72.3038 64.587 72.057 64.197 72.0572 63.755C72.0575 63.183 72.4347 62.741 73.3187 62.741C74.2417 62.741 75.0084 63.248 75.2027 64.626H75.3197L75.5546 62.858C75.0868 62.585 74.3069 62.416 73.6309 62.416C72.0319 62.416 71.2254 63.326 71.2249 64.405C71.2245 65.081 71.4972 65.731 72.446 66.121L73.8497 66.693C74.5516 66.953 74.9154 67.278 74.9151 67.837C74.9148 68.474 74.4595 68.968 73.5885 68.968C72.4835 68.968 71.587 68.11 71.4447 66.758H71.3407L71.1057 68.721C71.6775 69.085 72.5354 69.319 73.2764 69.319Z" fill="white"/>
</g>
<defs>
<clipPath id="clip0">
<rect width="100" height="100" fill="white" transform="matrix(1 0 -0.000508007 1 0.0507812 0)"/>
</clipPath>
</defs>
</svg>
