<svg width="232" height="223" viewBox="0 0 232 223" fill="none" xmlns="http://www.w3.org/2000/svg">
<g clip-path="url(#clip0)">
<path d="M5.25703 36.9854C5.25703 34.3828 5.25703 33.1043 5.25703 30.5016C12.0393 31.9365 18.9895 32.6873 25.9698 32.739C35.9056 32.739 39.7959 32.4193 39.3227 30.2733C37.7982 25.3419 2.9965 31.0952 2.73364 19.2233C2.73364 13.1048 10.9872 10.0911 23.2361 10.0911C29.2197 10.4124 35.1627 11.1607 41.005 12.3285C41.8461 14.8855 42.2667 16.1184 43.0552 18.6297C37.3675 17.4066 31.5585 16.6574 25.707 16.3924C17.0854 16.3924 13.3529 17.1229 13.5632 19.0407C14.1414 24.1091 46.4723 19.4973 49.3637 30.8212C50.8882 36.8484 42.6347 38.4466 28.3355 38.4009C20.6171 38.328 12.9106 37.8553 5.25703 36.9854Z" fill="#C800FF"/>
<path d="M49.8894 12.0088L60.4035 12.5568C61.9281 17.4882 62.5589 19.8625 63.5577 24.383H64.0834C63.032 17.0772 65.6606 11.7349 75.4912 12.3741C85.3219 13.0134 91.8407 19.2233 95.5732 32.1453C96.7875 36.1767 97.7527 40.2615 98.4646 44.3824L89.8956 43.0126C89.0544 38.8118 88.4762 36.6201 87.1093 32.054C84.4808 23.4241 80.0649 19.2689 73.5987 18.7667C66.344 18.2644 64.136 24.2003 66.6068 32.8759C67.3954 35.7982 67.7634 37.442 68.3942 40.0447C64.3989 39.588 62.3486 39.3597 58.143 38.9944C56.2262 29.8222 53.4662 20.7981 49.8894 12.0088Z" fill="#C800FF"/>
<path d="M102.091 38.7205C100.199 30.1819 115.655 30.6385 124.907 30.6385C124.746 28.4017 123.605 26.3035 121.718 24.7749C119.831 23.2463 117.341 22.4035 114.761 22.4195C110.278 22.2242 105.821 23.1091 101.881 24.9765C100.935 22.0086 100.409 20.4104 99.2527 17.3512C104.056 15.2999 109.357 14.282 114.708 14.3832C125.485 14.9311 131.531 22.6478 133.108 32.6476C134.189 38.7726 134.856 44.9474 135.106 51.1402L127.693 49.8617C127.956 45.8892 128.009 43.8345 128.009 39.5424H127.483C126.905 47.5787 122.226 49.8161 113.71 48.2636C110.84 47.9894 108.153 46.9088 106.056 45.1862C103.959 43.4636 102.567 41.1933 102.091 38.7205ZM125.696 35.4785C119.335 35.4785 109.294 34.337 109.925 38.6291C110.299 39.7448 111.06 40.7333 112.104 41.4603C113.148 42.1873 114.425 42.6177 115.76 42.693C121.49 43.5605 126.695 41.6428 125.696 35.4785Z" fill="#C800FF"/>
<path d="M138.261 35.159C136.789 23.9264 142.414 15.7074 154.295 16.0727C159.259 16.1188 164.1 17.4198 168.226 19.8169C168.594 23.6524 168.699 25.5245 168.91 29.1774C165.006 26.5025 160.211 24.9968 155.241 24.8853C148.617 24.5656 145.305 29.4514 145.989 35.9352C145.788 38.3629 146.504 40.7812 148.028 42.8235C149.553 44.8657 151.802 46.4205 154.436 47.2518C157.07 48.0832 159.944 48.1458 162.622 47.4302C165.3 46.7147 167.637 45.2599 169.278 43.2866C169.278 46.5742 169.278 48.1723 169.278 51.2773C167.702 52.6613 165.787 53.7172 163.674 54.3657C161.562 55.0143 159.308 55.2384 157.081 55.0215C146.777 53.9713 139.733 46.3459 138.261 35.159Z" fill="#C800FF"/>
<path d="M172.642 0H181.579C182.895 11.1337 183.474 22.3238 183.314 33.5151C189.465 26.0724 192.619 22.1455 199.085 14.7941C204.027 14.3375 206.497 14.1092 211.544 13.5613C206.287 18.447 204.027 21.0953 199.138 26.392C202.617 33.0049 206.531 39.4385 210.861 45.6609C206.497 46.9394 204.342 47.533 200.347 48.5832C197.403 43.0583 195.983 40.0903 192.829 33.6978L183.051 44.0628C183.051 47.2591 183.051 48.6289 182.578 51.9165C179.424 52.4187 177.899 52.647 174.85 53.0123C176.243 35.323 175.503 17.5556 172.642 0V0Z" fill="#C800FF"/>
<path d="M216.065 40.0903C216.163 38.7262 216.711 37.4155 217.643 36.3144C218.575 35.2133 219.852 34.3684 221.322 33.8804C224.371 32.9672 226.579 33.8804 226.579 36.5744C226.426 38.0028 225.812 39.3646 224.808 40.5034C223.803 41.6423 222.449 42.512 220.902 43.0126C218.168 44.0628 215.96 42.8756 216.065 40.0903ZM217.222 0H227.105C227.105 9.45181 226.737 14.1549 226.369 23.561C222.847 24.4743 221.112 24.8852 217.642 25.6614C217.695 15.6617 217.59 10.5933 217.222 0Z" fill="#C800FF"/>
<path d="M29.0715 53.2407C36.0163 53.1989 42.9504 53.7187 49.7843 54.7932C49.7843 56.9393 50.1523 57.9895 50.3626 60.0899C43.9484 59.0769 37.4256 58.6788 30.9115 58.9027C20.6602 59.3593 15.7712 60.7291 15.7712 62.5556C15.7712 67.3956 55.0413 60.0899 53.9374 70.4092C53.3591 75.8885 44.6849 77.8976 29.3869 79.5414C22.7105 80.3633 12.7221 81.2309 4.36335 81.6418C4.36335 79.0391 4.36335 77.7606 4.36335 75.158C12.178 75.3553 19.9987 75.0348 27.7572 74.1991C38.7445 73.0119 42.845 72.4183 43.0553 70.3636C43.4232 65.7975 2.15539 76.0712 2.05025 64.245C2.05025 58.1264 13.826 53.606 29.0189 53.0581L29.0715 53.2407ZM29.0189 52.0535C11.7758 52.7384 0 58.2178 0 64.7473C0 73.0576 18.2945 70.5006 29.8601 69.9526C34.644 69.7243 41.4781 69.6787 41.373 70.5919C41.2679 71.5051 37.5354 72.2813 27.9149 73.3315C20.3976 74.1081 12.8228 74.3829 5.25705 74.1534H2.3131V75.7972C2.3131 78.3999 2.3131 79.6784 2.3131 82.2811V83.1486H3.83765C12.1438 82.692 22.3425 81.7788 29.3869 80.9112C53.0962 77.9889 55.199 73.8795 55.6722 70.5919C56.4607 63.4688 41.6884 62.6925 30.228 62.8752C25.7596 62.8752 17.9791 63.3774 17.9265 62.4642C17.874 61.551 19.1882 60.5008 31.1217 59.9072C37.5268 59.6922 43.9403 60.0594 50.2574 61.0031L52.2551 61.3227C52.2291 60.9273 52.2291 60.5309 52.2551 60.1355C52.2551 58.0351 51.9397 56.9849 51.6768 54.8389C51.6484 54.5654 51.6484 54.2904 51.6768 54.017H50.31C43.3729 52.9306 36.3294 52.4411 29.2818 52.5558L29.0189 52.0535Z" fill="#C800FF"/>
<path d="M86.689 57.4414C95.7837 59.3592 99.8842 63.9253 98.5173 73.5597C98.1335 76.6293 97.5544 79.678 96.7825 82.6919C94.2083 81.9697 91.594 81.3601 88.9495 80.8655C89.6449 78.0469 90.1539 75.196 90.474 72.3269C91.1574 65.843 88.6341 62.5555 82.3256 61.5053C76.0171 60.4551 71.8115 64.4732 70.6549 71.8703C70.2869 74.3816 70.1292 75.6145 69.6561 78.0345C65.9236 77.6236 63.9785 77.6236 59.9831 77.6236C61.2391 70.0525 61.2391 62.3642 59.9831 54.7931C64.6093 55.1584 66.8173 55.3867 71.1806 55.9346C71.1806 59.6788 70.8652 61.5053 70.4972 65.0668H71.0229C72.2321 59.3135 77.0686 55.7063 86.7941 57.4871L86.689 57.4414ZM86.7941 56.5282C84.3522 55.8172 81.7346 55.6921 79.2177 56.1663C76.7008 56.6405 74.3781 57.6963 72.4949 59.2222C72.4949 57.9894 72.4949 57.3958 72.4949 56.1173C72.4687 55.7676 72.4687 55.4168 72.4949 55.0671H70.8652C66.5019 54.5191 64.2939 54.2908 59.6677 53.9255H58.1432C58.1432 54.3365 58.1432 54.5191 58.1432 54.9301C59.366 62.5032 59.366 70.1874 58.1432 77.7605C58.1141 78.0797 58.1141 78.4003 58.1432 78.7194H59.6151C63.6105 78.7194 65.5556 78.7194 69.2881 79.2674H70.6549C70.6804 78.9633 70.6804 78.6581 70.6549 78.3541C71.1281 75.9341 71.3384 74.7013 71.6538 72.1899C72.6526 65.3864 75.912 61.5966 82.1679 62.6468C86.7941 63.423 89.6855 65.5234 89.0546 72.2812C88.7345 75.1353 88.2255 77.9709 87.5301 80.7742C87.5301 81.1395 87.5301 81.3221 87.5301 81.6874L88.7392 81.9157C91.946 82.5549 93.5231 82.9202 96.5196 83.7421L97.571 84.0161L97.8339 83.1942C98.6216 80.1808 99.2183 77.1322 99.6213 74.062C100.883 64.3819 96.9928 58.6743 86.5838 56.7109L86.7941 56.5282Z" fill="#C800FF"/>
<path d="M121.858 65.4321C123.722 65.7925 125.485 66.4713 127.045 67.429C128.604 68.3867 129.929 69.6042 130.941 71.0106C131.954 72.417 132.635 73.9843 132.943 75.6213C133.252 77.2583 133.183 78.9323 132.74 80.5459C132.04 84.8899 130.95 89.1798 129.481 93.3766L123.015 91.3218C124.434 88.6278 125.118 87.258 126.379 84.427H125.959C123.015 89.5867 117.81 90.3173 110.188 87.8516C106.56 86.6644 101.198 84.3357 102.249 79.45C103.564 73.1945 118.021 76.482 125.854 78.1258C126.327 74.2903 124.329 72.2356 119.335 70.8658C115.305 69.868 111.081 69.6037 106.928 70.0895C106.928 67.9891 106.928 66.8933 107.191 64.7015C112.04 64.2837 116.937 64.6239 121.648 65.7061L121.858 65.4321ZM125.223 81.5504C119.598 80.2719 110.713 77.7149 109.977 80.7742C109.662 82.2353 111.292 83.6508 114.078 84.6097C118.967 86.2078 124.592 85.9339 125.223 81.5504ZM121.7 64.6559C116.851 63.5447 111.808 63.2196 106.823 63.697H106.14C106.114 63.9247 106.114 64.1542 106.14 64.3819C106.14 66.5736 106.14 67.6238 106.14 69.7242C106.14 70.3178 106.14 70.6374 106.14 71.1854H107.717C111.713 70.7144 115.779 70.9789 119.65 71.9616C124.171 73.2401 125.328 74.7926 125.328 76.9843C116.601 75.1579 102.985 72.4182 101.566 79.2217C100.988 82.1897 102.092 86.0708 110.345 88.8105C112.364 89.7576 114.622 90.2536 116.917 90.2536C119.211 90.2536 121.469 89.7576 123.488 88.8105L122.331 91.0935L121.806 92.0524L122.962 92.4177C125.538 93.3309 126.852 93.7875 129.428 94.6094L130.375 94.9291C130.448 94.6319 130.554 94.3414 130.69 94.0615C132.11 89.8411 133.182 85.538 133.897 81.1851C134.842 77.6492 134.133 73.9318 131.925 70.8497C129.717 67.7676 126.191 65.5727 122.121 64.7472L121.7 64.6559ZM114.341 83.6965C112.658 83.1485 110.818 82.144 111.029 81.0938C111.502 79.2217 118.757 81.0938 123.015 82.0527L123.856 82.281C122.542 84.975 118.231 84.975 114.341 83.6965Z" fill="#C800FF"/>
<path d="M154.767 72.6009C158.684 72.9994 162.462 74.1036 165.86 75.8429C165.387 78.5825 165.176 79.9524 164.651 82.555C161.447 80.388 157.636 79.0012 153.611 78.5369C152.434 78.2754 151.206 78.237 150.011 78.4243C148.816 78.6116 147.681 79.0202 146.683 79.6223C145.686 80.2244 144.849 81.006 144.23 81.9138C143.612 82.8217 143.225 83.8346 143.097 84.8837C142.798 85.9314 142.756 87.0221 142.976 88.0846C143.195 89.147 143.67 90.1573 144.369 91.0494C145.069 91.9415 145.978 92.6954 147.036 93.2616C148.094 93.8279 149.277 94.1938 150.509 94.3356C154.552 95.1606 158.806 94.6048 162.39 92.7831C161.864 95.0205 161.549 96.162 160.971 98.3537C157.093 99.8661 152.742 100.204 148.617 99.3126C146.593 98.9792 144.669 98.2919 142.961 97.2927C141.253 96.2934 139.797 95.0029 138.681 93.4996C137.564 91.9964 136.812 90.3117 136.468 88.548C136.125 86.7843 136.198 84.9784 136.683 83.2399C136.915 81.4302 137.6 79.6862 138.688 78.1299C139.776 76.5735 141.243 75.2423 142.985 74.2292C144.727 73.2161 146.703 72.5455 148.774 72.2643C150.846 71.9831 152.963 72.0979 154.978 72.6009H154.767ZM154.978 71.4138C152.818 70.947 150.569 70.8826 148.378 71.2248C146.188 71.567 144.105 72.3081 142.268 73.3993C140.431 74.4904 138.88 75.907 137.718 77.5558C136.556 79.2047 135.81 81.0485 135.527 82.966C134.97 84.8456 134.863 86.8045 135.211 88.7215C135.56 90.6386 136.358 92.4732 137.555 94.1121C138.752 95.7509 140.324 97.1592 142.172 98.25C144.02 99.3408 146.106 100.091 148.301 100.454C152.586 101.38 157.104 101.026 161.129 99.4496H161.812V98.8103C162.39 96.6186 162.653 95.5227 163.231 93.2397C163.231 92.5091 163.494 92.1438 163.652 91.3219L161.759 92.2808C158.371 94.0194 154.335 94.5435 150.509 93.742C149.417 93.6453 148.362 93.3463 147.414 92.8652C146.467 92.3841 145.649 91.7321 145.016 90.9531C144.383 90.1741 143.95 89.2863 143.746 88.3496C143.542 87.4128 143.572 86.449 143.833 85.523C143.962 84.6001 144.317 83.712 144.876 82.919C145.435 82.126 146.183 81.4466 147.071 80.9269C147.958 80.4073 148.964 80.0594 150.02 79.907C151.076 79.7546 152.157 79.8012 153.19 80.0437C157.038 80.5058 160.671 81.8625 163.704 83.9705L165.071 84.9294L165.492 82.966C166.018 80.3176 166.28 78.9478 166.701 76.2082V75.4319L166.123 75.158C162.583 73.3472 158.641 72.2109 154.557 71.8247L154.978 71.4138Z" fill="#C800FF"/>
<path d="M181.105 60.2268C179.949 71.2768 179.107 76.3908 177.162 86.2079C183.471 80.9303 189.455 75.3672 195.089 69.5416C200.031 68.2631 202.554 67.5326 207.916 65.7518C202.238 71.4594 199.4 74.1991 193.775 79.4501C196.786 84.7603 200.782 89.6041 205.603 93.7876C201.604 95.0603 197.533 96.1576 193.407 97.0752C190.588 93.6411 188.242 89.9326 186.415 86.0252C182.993 88.9923 179.359 91.768 175.533 94.3355C175.112 96.6186 174.849 97.7601 174.324 99.9975C171.064 100.226 169.434 100.271 166.333 100.271C169.901 87.4428 172.292 74.3885 173.482 61.2314C176.479 60.9117 178.003 60.7291 181.158 60.2268H181.105ZM182.419 58.72H181.263C178.161 59.2223 176.637 59.4049 173.588 59.7245H172.484C172.484 60.2725 172.484 60.5008 172.484 61.0487C171.339 74.1354 168.948 87.1171 165.334 99.8605C165.334 100.226 165.334 100.408 165.334 100.819H166.438C169.592 100.819 171.169 100.819 174.481 100.545H175.69V99.5409C176.111 97.5318 176.321 96.4816 176.742 94.3812C179.932 92.2785 182.969 90.0064 185.836 87.5777C187.501 91.1095 189.655 94.4521 192.25 97.5318L192.566 97.9427H193.354C197.505 97.0465 201.594 95.9489 205.603 94.6551L208.389 93.7876L207.075 92.6004C202.376 88.6307 198.483 83.9993 195.562 78.9021C200.819 74.0621 203.448 71.4594 208.81 66.1171L212.069 62.8752L208.126 64.1993C203.946 65.6515 199.682 66.9164 195.352 67.9892H194.879L194.458 68.3545C188.202 74.7013 185.1 77.4866 178.95 83.0573C180.579 73.9251 181.315 69.359 182.367 59.6332C182.367 59.131 182.367 58.857 182.367 58.3091L182.419 58.72Z" fill="#C800FF"/>
<path d="M225.685 47.6699C225.159 57.0304 224.897 61.6878 224.213 70.957C219.955 72.8748 217.905 73.6967 213.962 75.2491C214.435 66.117 214.698 61.2769 215.013 51.6424C219.166 50.227 221.269 49.4507 225.527 47.6699H225.685ZM218.22 82.1896C221.9 80.7285 224.791 81.1394 224.739 83.5594C224.388 85.1324 223.567 86.5975 222.358 87.8078C221.15 89.018 219.596 89.9307 217.852 90.4542C214.172 91.8697 211.544 91.0935 211.701 88.6735C212.091 87.2105 212.889 85.8535 214.026 84.7226C215.163 83.5916 216.604 82.7216 218.22 82.1896ZM227.21 46.1631L225.685 46.7111C221.322 48.4462 219.219 49.2224 215.171 50.6379L213.752 51.0945V52.373C213.384 62.0531 213.121 66.7562 212.543 76.071V77.2582L214.014 76.6646C218.01 75.1578 220.06 74.2903 224.529 72.3725L226.106 71.6876V70.5004C226.684 61.3682 226.947 56.8021 227.367 47.3503V46.1631H227.21ZM218.273 81.0937C216.316 81.7674 214.572 82.8347 213.183 84.208C211.793 85.5812 210.799 87.2212 210.282 88.9931C210.282 91.961 213.173 93.1026 217.905 91.3675C220.096 90.6768 222.046 89.5072 223.565 87.9716C225.084 86.436 226.122 84.5861 226.579 82.6006C226.579 79.5869 222.951 78.9933 218.378 80.8654L218.273 81.0937Z" fill="#C800FF"/>
<path d="M31.8577 93.9245C38.0943 93.0429 44.4283 92.7978 50.7305 93.1939C50.3625 95.2487 50.1522 96.2989 49.7842 98.4449C44.0022 98.0806 38.1903 98.3568 32.4885 99.2668C23.1309 100.865 18.3996 103.057 18.2945 104.837C18.2945 109.723 52.5179 98.5363 50.4676 108.719C49.3636 114.152 41.6883 117.12 28.6509 120.59C22.9732 122.097 14.5094 124.061 7.35979 125.385C7.35979 122.828 7.35979 121.549 7.35979 118.992C14.1394 118.295 20.8395 117.104 27.3892 115.431C36.7993 113.056 40.4267 112.006 40.7421 109.997C41.4781 105.431 5.36211 120.134 5.62496 108.399C5.62496 102.372 17.3482 96.1619 31.6474 93.9245H31.8577ZM31.6474 92.8743C15.7711 95.3857 3.94271 102.554 3.89014 108.993C3.89014 117.166 19.6613 112.691 29.5971 110.865C33.7502 110.134 39.6381 109.358 39.4804 110.271C39.3227 111.184 36.0107 112.326 27.7046 114.381C21.3401 115.964 14.8334 117.079 8.25349 117.714L5.73011 117.988V119.632C5.73011 122.189 5.73011 123.467 5.73011 126.07V126.892L6.9918 126.663C14.0888 125.294 22.763 123.239 28.7034 121.641C48.9431 116.161 51.3088 111.824 51.9396 108.582C53.4116 101.55 41.4255 101.961 30.9114 103.468C26.9686 104.016 19.9767 105.34 20.0293 104.427C20.0819 103.513 21.4487 102.235 32.3308 100.317C37.9078 99.4033 43.5942 99.0966 49.2585 99.4038H50.9408V98.2166C51.3613 96.1162 51.5716 95.066 51.9396 93.0113V92.1894H50.7305C44.3247 91.812 37.8907 92.0416 31.5422 92.8743H31.6474Z" fill="#C800FF"/>
<path d="M84.1128 93.5136C92.051 94.8834 94.0486 99.1299 90.7367 108.125C89.4224 111.732 88.739 113.559 87.4773 117.257C85.1899 116.626 82.8533 116.138 80.4855 115.796C81.642 112.28 82.2203 110.545 83.3768 107.212C85.5848 100.819 84.2705 98.0797 78.7506 97.3947C73.2307 96.7098 67.0274 101.139 65.0297 108.49C64.3989 110.956 64.0309 112.189 63.4 114.746C60.5733 114.736 57.7479 114.858 54.9362 115.111C57.039 105.979 58.1955 101.413 60.1932 92.2807C64.3463 92.2807 66.344 92.2807 70.1816 92.6003C68.8148 96.1619 68.0788 97.9427 66.6594 101.733H67.1325C68.2904 98.7805 70.6674 96.3062 73.8038 94.7881C76.9402 93.27 80.6133 92.8159 84.1128 93.5136ZM84.3757 92.646C81.8928 92.1346 79.3042 92.1542 76.8319 92.7029C74.3596 93.2517 72.0776 94.3133 70.1816 95.7966L71.3382 92.8286L71.7587 91.8241H70.3393C66.4491 91.3218 64.4514 91.3218 60.2984 91.3218H58.879V92.2351C57.039 101.367 55.935 105.933 53.8848 115.066V116.07H55.1465C58.6161 115.796 60.4035 115.705 63.5577 115.659H64.7669V114.7C65.3977 112.189 65.7657 110.956 66.4491 108.49C68.2891 101.733 73.2307 97.623 78.5929 98.2623C82.6934 98.7189 84.6911 100.408 82.4306 107.029C81.274 110.408 80.6957 112.143 79.5392 115.659V116.572H80.5906C82.9533 116.915 85.2887 117.388 87.5825 117.988L88.5813 118.262C88.6622 117.951 88.7676 117.646 88.8967 117.349C90.1584 113.604 90.8418 111.824 92.1561 108.216C95.5206 99.0842 93.8384 94.0158 84.7962 92.4634L84.3757 92.646Z" fill="#C800FF"/>
<path d="M115.655 102.783C117.247 103.133 118.732 103.781 120.007 104.68C121.282 105.58 122.316 106.711 123.036 107.993C123.757 109.275 124.147 110.678 124.18 112.105C124.212 113.531 123.886 114.947 123.225 116.253C121.49 120.819 120.596 122.965 119.019 127.531L112.501 125.248C113.973 122.645 114.761 121.412 116.286 118.855L115.655 118.718C112.238 123.284 107.033 124.015 99.8836 121.686C96.4665 120.59 91.4198 118.307 93.2072 113.513C95.5203 107.349 108.978 111.139 116.654 113.513C117.863 110.362 116.286 108.49 111.712 106.801C107.945 105.53 103.924 104.924 99.8836 105.02L101.618 100.454C106.353 100.524 111.035 101.328 115.444 102.828L115.655 102.783ZM115.444 116.207C110.187 114.654 101.671 111.641 100.514 114.791C99.9888 116.207 101.408 117.577 104.037 118.49C108.663 120.088 113.973 119.905 115.444 116.207ZM115.655 101.961C111.133 100.403 106.324 99.5676 101.461 99.4951H100.725V100.043C100.041 101.915 99.6733 102.828 98.9899 104.609C98.9899 105.111 98.7271 105.385 98.5168 105.888H100.094C104.016 105.752 107.929 106.295 111.607 107.486C115.76 109.038 116.864 110.408 116.128 112.052C107.822 109.677 95.0997 106.344 92.4712 113.102C91.3672 115.979 91.8929 119.86 99.7785 122.234C101.798 123.1 104.019 123.55 106.271 123.55C108.523 123.55 110.744 123.1 112.763 122.234C112.238 123.102 111.975 123.513 111.502 124.38L110.976 125.339L112.08 125.704L118.599 128.033L119.598 128.398L119.86 127.531C121.438 122.965 122.331 120.727 124.066 116.253C124.701 114.84 124.985 113.326 124.897 111.811C124.81 110.297 124.354 108.815 123.559 107.465C122.764 106.114 121.649 104.925 120.286 103.977C118.924 103.028 117.345 102.341 115.655 101.961ZM104.352 117.622C102.775 117.075 101.04 116.07 101.461 115.065C102.144 113.285 109.031 115.065 113.131 116.435L113.973 116.664C112.238 118.901 107.979 118.901 104.352 117.622Z" fill="#C800FF"/>
<path d="M146.304 112.6C150.346 113.386 154.252 114.629 157.922 116.298C157.291 118.399 156.976 119.449 156.397 121.504C152.749 119.402 148.712 117.857 144.464 116.938C138.839 115.613 134.528 117.166 133.161 120.91C131.794 124.654 134.528 128.399 140.679 130.042C145.057 131.184 149.745 131.056 154.032 129.677C153.453 131.64 153.191 132.645 152.665 134.608C148.182 135.726 143.427 135.726 138.944 134.608C129.008 132.097 124.066 125.476 126.537 119.038C129.008 112.6 136.526 110.591 146.304 112.737V112.6ZM146.619 111.869C136.105 109.586 128.22 111.869 125.591 118.718C122.963 125.568 127.904 132.736 138.734 135.476C143.388 136.639 148.326 136.639 152.98 135.476H153.821V134.928L155.136 129.905C155.136 129.266 155.136 128.946 155.609 128.307L153.453 128.992C149.406 130.305 144.976 130.433 140.836 129.357C135.579 127.988 132.846 124.791 134.055 121.458C135.264 118.125 139.312 116.892 144.096 118.079C148.134 118.916 151.976 120.353 155.451 122.326L157.028 123.193C157.028 122.6 157.291 122.28 157.501 121.686C158.08 119.632 158.395 118.581 159.026 116.481V115.887L158.395 115.613C154.607 113.864 150.555 112.589 146.356 111.824L146.619 111.869Z" fill="#C800FF"/>
<path d="M175.428 105.659C173.588 113.787 172.642 117.714 170.855 125.476C178.005 121.734 184.839 117.553 191.304 112.965C196.45 112.107 201.54 111.01 206.55 109.678C201.307 113.648 195.833 117.382 190.148 120.864C194.7 125.865 199.673 130.566 205.025 134.928C198.98 135.887 196.141 136.207 190.621 136.709C187.413 133.233 184.429 129.605 181.684 125.842C176.427 128.672 174.166 129.905 169.33 132.188L168.226 137.439C164.388 137.439 162.548 137.211 158.921 136.891C161.655 124.746 163.652 118.901 167.017 106.025C169.791 106.035 172.564 105.913 175.323 105.659H175.428ZM176.795 104.609H175.533C172.116 104.883 170.276 104.929 167.227 104.974H166.071L165.808 105.933C162.496 118.718 160.498 124.654 157.712 136.983C157.687 137.287 157.687 137.592 157.712 137.896H159.026C162.601 138.216 164.283 138.353 168.279 138.49H169.698C169.698 138.124 169.698 137.942 169.698 137.576C170.066 135.659 170.224 134.7 170.644 132.736C174.692 130.819 176.795 129.768 181.158 127.44C183.66 130.86 186.363 134.167 189.254 137.348L189.675 137.805H190.621C195.878 137.348 199.032 136.983 205.078 136.07L208.39 135.522L206.708 134.197C201.528 130.045 196.68 125.59 192.198 120.864C198.244 117.075 201.293 114.974 207.601 110.317L211.439 107.395L206.708 108.719C201.698 110.065 196.609 111.178 191.462 112.052H190.936L190.463 112.372C184.8 116.318 178.866 119.962 172.694 123.285C174.219 116.253 175.113 112.737 176.69 105.431V104.472L176.795 104.609Z" fill="#C800FF"/>
<path d="M227.946 92.2352C227.526 101.367 227.263 105.705 226.79 114.655C221.533 116.207 219.167 116.892 214.383 118.079C214.383 109.723 214.383 105.522 214.804 97.0752C220.061 95.3858 222.479 94.4269 227.946 92.2352ZM219.85 124.746C224.214 123.696 227.683 124.472 227.683 126.937C227.683 129.403 224.214 132.006 219.587 133.01C214.961 134.015 212.07 133.01 212.228 130.453C212.385 127.896 215.592 125.887 219.85 124.746ZM229.839 90.3174L227.946 91.0936C222.689 93.2854 219.903 94.2899 214.856 95.9794L213.174 96.5729V97.6688C213.174 106.07 212.806 110.226 212.648 118.582V119.632L214.436 119.175C219.219 117.988 221.69 117.303 226.842 115.796L228.787 115.203V114.152C229.208 105.02 229.471 100.682 229.839 91.5959V90.4087V90.3174ZM219.903 123.65C214.646 124.974 210.545 127.942 210.335 130.819C210.125 133.695 214.015 135.385 219.535 134.106C225.055 132.828 229.734 129.54 229.734 126.39C229.734 123.239 225.37 122.28 219.903 123.65Z" fill="#C800FF"/>
<path d="M28.3359 135.248C33.5312 133.693 38.9402 132.741 44.4225 132.417C44.0545 134.7 43.7391 136.298 43.266 138.946C38.2704 138.961 33.3129 139.702 28.5988 141.138C20.6606 143.604 16.6127 146.298 16.455 148.307C16.0344 153.74 45.3688 138.672 43.5814 151.914C42.5825 158.991 35.7484 163.283 24.656 166.662C18.8744 168.32 12.9738 169.647 6.9923 170.635C6.9923 167.941 6.9923 166.571 6.9923 163.877C12.682 163.279 18.2736 162.114 23.6572 160.407C31.5953 157.804 34.8021 156.389 35.1175 153.832C35.8535 148.033 5.36261 165.019 5.7306 152.827C5.7306 146.526 15.8767 139.129 28.1256 135.111L28.3359 135.248ZM28.1256 134.06C14.5099 138.49 4.46891 147.028 4.36377 153.695C4.36377 162.051 17.2435 157.256 25.6548 155.11C29.1771 154.197 34.1713 153.147 34.0661 154.288C33.961 155.43 30.9645 156.982 23.9726 159.265C18.7506 160.951 13.3144 162.085 7.78085 162.644L5.7306 162.918V164.653C5.7306 167.347 5.7306 168.671 5.7306 171.365V172.279H6.78201C12.8892 171.291 18.9133 169.948 24.8137 168.26C42.0568 162.872 44.1597 156.069 44.7379 151.823C46.0522 142.69 35.7484 144.06 27.1268 146.252C23.7623 147.119 17.8744 148.9 17.9795 147.85C18.0847 146.8 19.1887 145.384 28.4936 142.462C33.1325 141.084 37.9954 140.359 42.898 140.316H44.3174L44.5802 138.855C45.0534 136.206 45.3688 134.608 45.7368 132.325V131.503H44.8431C39.2574 131.729 33.7361 132.636 28.4411 134.197L28.1256 134.06Z" fill="#C800FF"/>
<path d="M73.5992 129.814C80.6437 130.636 82.431 134.791 80.5911 146.617C79.9077 151.183 79.5922 153.74 79.2242 158.9C76.7943 158.39 74.3104 158.1 71.8118 158.032C72.2849 153.466 72.6004 150.955 73.3363 146.526C74.7558 138.216 73.6518 135.202 68.7101 135.019C63.7685 134.837 58.196 140.91 56.6189 150.727C56.1458 154.014 55.9355 155.704 55.5675 159.174C52.5184 159.539 50.9413 159.768 47.7871 160.315C49.2065 147.713 50.6785 140.727 52.571 130.773C55.446 130.423 58.3426 130.225 61.2451 130.179C59.9309 134.243 59.1423 136.846 57.828 141.595H58.2486C60.772 133.878 66.029 129.083 73.5992 129.814ZM73.5992 128.809C71.1406 128.529 68.641 128.866 66.3958 129.78C64.1506 130.695 62.2539 132.148 60.9297 133.969C61.4028 132.417 61.6131 131.595 62.0863 130.225C62.0863 129.814 62.0863 129.586 62.4543 129.129H61.1926C58.274 129.199 55.3614 129.398 52.4659 129.723H51.2567C51.2567 130.134 51.2567 130.316 51.2567 130.727C49.3642 140.681 47.9448 147.713 46.5254 160.315C46.5254 160.863 46.5254 161.092 46.5254 161.64H47.6819C50.8887 161.092 52.4133 160.863 55.4624 160.498H56.5664C56.5664 159.996 56.5664 159.722 56.5664 159.174C56.9344 155.749 57.1446 154.06 57.6703 150.727C58.9846 141.595 63.5057 136.115 68.1844 136.252C71.8644 136.252 73.4415 137.942 72.0221 146.663C71.2861 151.229 70.9707 153.375 70.4975 158.215C70.4975 158.717 70.4975 158.991 70.4975 159.494H71.549C74.0515 159.516 76.5414 159.807 78.9614 160.361H80.0128C80.0128 159.859 80.0128 159.631 80.0128 159.128C80.3808 153.969 80.6437 151.503 81.3796 146.846C83.2196 134.837 81.6425 129.768 73.6518 128.855L73.5992 128.809Z" fill="#C800FF"/>
<path d="M103.879 136.983C107.366 137.915 110.338 139.928 112.228 142.639C114.118 145.35 114.795 148.569 114.13 151.685C113.669 156.439 113.581 161.214 113.868 165.977L106.613 164.379C107.086 160.772 107.401 159.037 108.085 155.749H107.664C105.719 161.868 100.935 164.105 93.1023 162.553C90.5345 162.355 88.1604 161.285 86.4966 159.575C84.8327 157.864 84.0138 155.653 84.2179 153.421C85.059 145.11 99.1479 147.713 107.139 149.311C107.507 145.384 105.667 143.421 100.883 142.005C97.0378 141.014 92.9628 140.904 89.0544 141.686C89.4749 139.403 89.6852 138.261 90.2109 136.024C94.8197 135.537 99.4954 135.975 103.879 137.302V136.983ZM106.718 152.827C100.935 151.777 92.0509 149.768 91.6829 153.695C91.6829 155.567 93.3126 157.073 96.204 157.713C101.461 158.854 106.297 157.713 106.718 152.827ZM104.09 136.389C99.5993 134.982 94.795 134.498 90.0532 134.974H89.3698V135.704C88.8967 137.942 88.6338 139.037 88.2132 141.366C88.2132 142.005 88.2132 142.325 87.8978 143.01L89.4224 142.69C93.2028 141.897 97.1582 141.992 100.883 142.964C105.194 144.197 106.14 145.75 106.14 147.941C97.4131 146.16 84.0602 144.06 83.1139 153.147C82.924 154.422 83.033 155.718 83.4342 156.956C83.8354 158.194 84.5206 159.349 85.4486 160.351C86.3767 161.353 87.5284 162.182 88.8346 162.788C90.1408 163.394 91.5746 163.764 93.0497 163.877C95.2638 164.577 97.6663 164.695 99.9571 164.216C102.248 163.737 104.325 162.682 105.93 161.183C105.93 162.37 105.667 162.964 105.509 164.197C105.483 164.622 105.483 165.049 105.509 165.475L106.771 165.749L114.078 167.347H115.182C115.182 166.891 115.182 166.662 115.182 166.251C114.809 161.493 114.809 156.718 115.182 151.959C115.874 148.592 115.129 145.121 113.088 142.197C111.046 139.272 107.847 137.093 104.09 136.069V136.389ZM96.2565 156.571C94.5743 156.16 92.6292 155.247 92.7343 153.923C92.7343 151.503 100.199 152.69 104.563 153.512H105.456C104.405 156.526 100.199 157.302 96.2565 156.389V156.571Z" fill="#C800FF"/>
<path d="M136.999 146.937C141.633 148.056 146.072 149.714 150.194 151.868C150.194 153.923 150.194 154.973 150.194 157.119C145.882 154.633 141.145 152.753 136.158 151.549C129.849 150.088 125.644 151.823 125.644 156.115C125.644 160.407 128.956 164.425 136.158 165.886C140.783 167.119 145.727 167.119 150.352 165.886C150.352 168.078 150.667 169.174 150.93 171.411C146.068 172.368 141.02 172.368 136.158 171.411C131.377 170.811 126.979 168.799 123.705 165.714C120.431 162.629 118.479 158.659 118.179 154.471C118.652 146.709 125.854 144.426 136.841 147.12L136.999 146.937ZM136.841 146.206C125.276 143.421 117.443 145.887 116.969 154.151C117.194 158.667 119.238 162.97 122.746 166.309C126.254 169.648 131.001 171.809 136.158 172.416C141.212 173.396 146.454 173.396 151.508 172.416H152.297C152.297 172.142 152.297 172.005 152.297 171.776C151.981 169.539 151.876 168.398 151.666 166.251C151.666 165.567 151.666 165.201 151.666 164.516L149.616 165.11C145.228 166.263 140.546 166.263 136.158 165.11C129.586 163.74 126.432 160.544 126.59 156.617C126.748 152.69 130.375 151.32 135.895 152.599C140.684 153.736 145.229 155.54 149.353 157.941L151.403 159.037C151.403 158.398 151.403 158.078 151.403 157.439C151.403 155.339 151.403 154.288 151.403 152.188V151.64L150.615 151.275C146.391 149.079 141.871 147.346 137.157 146.115L136.841 146.206Z" fill="#C800FF"/>
<path d="M168.226 143.147C166.948 149.615 166.665 156.202 167.384 162.736C174.744 159.174 177.899 157.485 187.203 152.644C193.006 152.517 198.797 152.121 204.552 151.457C197.087 155.612 194.038 157.211 187.729 160.361C195.089 166.617 199.137 169.859 207.075 176.479C201.082 176.479 198.191 176.479 192.566 176.479C187.309 171.502 184.575 169.082 179.633 164.288L168.226 169.676C168.488 171.868 168.699 173.009 169.067 175.247C164.914 174.836 162.916 174.607 158.921 174.105C156.633 163.651 156.633 152.916 158.921 142.462C162.6 142.827 164.493 142.964 168.383 143.147H168.226ZM170.013 142.279H168.226C164.335 142.279 162.443 141.96 158.815 141.595L157.711 141.549C157.711 141.914 157.711 142.097 157.711 142.462C155.422 152.901 155.422 163.621 157.711 174.059C157.711 174.47 157.711 174.653 157.711 175.064H159.131C163.126 175.566 165.176 175.795 169.277 176.205H170.854C170.829 175.871 170.829 175.535 170.854 175.201C170.486 173.146 170.328 172.142 170.065 170.087C173.798 168.397 175.691 167.53 179.686 165.521C184.207 170.087 186.625 172.187 191.462 176.799L192.04 177.301H193.039C198.664 177.301 201.555 177.301 207.548 177.301H210.808C210.019 176.708 209.651 176.388 208.915 175.749C201.292 169.448 197.402 166.388 190.305 160.407C196.246 157.393 199.347 155.841 206.076 152.051L210.334 149.631L205.077 150.27C197.77 151.046 194.3 151.275 187.729 151.503H186.625L186.152 151.731C178.266 155.886 175.217 157.439 168.699 160.589C168.191 154.732 168.527 148.842 169.697 143.056C169.668 142.737 169.668 142.416 169.697 142.097L170.013 142.279Z" fill="#C800FF"/>
<path d="M228.839 136.983C228.419 146.115 228.156 150.453 227.893 159.311C222.373 160.087 219.745 160.407 214.593 160.955C213.804 152.599 213.647 148.444 213.594 139.996C219.482 138.992 222.478 138.398 228.839 136.983ZM221.059 168.398C225.527 167.987 229.05 169.311 229.05 171.776C229.05 174.242 225.895 176.343 221.427 176.616C216.958 176.89 213.909 175.384 213.752 173.009C213.594 170.635 216.748 168.808 221.059 168.443V168.398ZM231.31 135.293L229.102 135.796C222.794 137.257 219.745 137.85 213.909 138.855L211.964 139.22V140.316C211.832 147.266 212.148 154.218 212.911 161.137V162.142H214.803C220.06 161.64 222.584 161.366 228.051 160.589L230.101 160.27V159.174C230.469 150.042 230.679 145.704 231.1 136.663V135.476L231.31 135.293ZM221.269 167.256C216.012 167.804 211.912 170.178 212.122 173.055C212.332 175.932 216.38 178.032 221.742 177.621C227.105 177.21 231.31 174.653 231.31 171.502C231.31 168.352 226.842 166.708 221.217 167.256H221.269Z" fill="#C800FF"/>
<path d="M23.6565 185.201C28.4828 184.153 33.4593 183.722 38.4288 183.922C38.4288 187.027 38.4288 188.488 38.4288 191.776C33.7844 191.287 29.0794 191.457 24.4976 192.278C17.2954 193.739 13.9835 195.611 13.9835 197.803C13.9835 203.648 40.2688 191.502 40.9522 207.985C41.2676 216.798 34.2757 220.862 23.1833 220.999C17.4974 220.906 11.8467 220.2 6.36078 218.898V211.867C11.3233 213.203 16.528 213.73 21.7114 213.419C29.3341 212.871 32.5935 211.73 32.5409 208.853C32.5409 201.958 4.94138 212.689 5.09909 200.132C5.09909 193.694 13.1424 187.986 23.8668 185.383L23.6565 185.201ZM23.8668 184.059C11.6704 187.073 3.73226 193.694 3.67969 200.497C3.67969 209.036 14.8772 208.077 22.8679 207.803C26.1799 207.803 31.1741 207.803 31.2266 208.944C31.2792 210.086 28.3353 211.638 21.6588 212.186C16.6448 212.53 11.6009 212.066 6.78135 210.816L4.99395 210.451V220.086L5.94022 220.314C11.5601 221.686 17.3491 222.468 23.1833 222.643C40.479 222.643 42.3716 213.51 42.1613 208.077C41.6882 196.616 31.6472 197.164 23.4462 197.94C20.3971 198.214 15.1926 198.853 15.1926 197.712C15.1926 196.57 16.0338 195.474 24.3925 193.831C28.8934 193.056 33.5089 192.917 38.0608 193.42H39.5328C39.5328 192.689 39.5328 192.324 39.5328 191.593C39.5328 188.397 39.5328 187.027 39.5328 183.74C39.5328 183.283 39.5328 183.009 39.5328 182.552H38.7442C33.6818 182.353 28.6136 182.815 23.7091 183.922L23.8668 184.059Z" fill="#C800FF"/>
<path d="M67.5008 178.397C75.0184 178.078 78.4355 183.557 81.064 200.908C82.1154 207.849 82.7462 211.501 84.4811 219.172C80.9063 219.172 79.224 219.172 75.5966 219.172C74.2298 212.004 73.6515 208.579 72.8104 202.05C71.2333 189.767 69.183 185.977 63.8209 186.388C58.4587 186.799 53.8325 194.835 54.9364 207.986C55.3044 212.552 55.5147 214.698 56.093 219.401L47.3137 219.446C46.0074 206.954 45.6386 194.401 46.2097 181.867C49.732 181.32 51.4668 181.091 54.8839 180.726C54.3582 186.525 54.1479 189.584 53.9376 195.84H54.3582C55.1993 185.657 59.6152 179.037 67.5534 178.443L67.5008 178.397ZM67.5534 176.982C64.7924 177.263 62.1879 178.244 60.0654 179.803C57.943 181.362 56.3967 183.43 55.6199 185.749C55.6199 183.74 55.6199 182.735 56.0404 180.772C56.0404 180.132 56.0404 179.813 56.0404 179.128H54.7787L46.1046 180.269H44.948C44.948 180.863 44.948 181.137 44.948 181.73C44.3644 194.217 44.698 206.723 45.9469 219.172C45.9469 219.812 45.9469 220.177 45.9469 220.862H47.3137H56.1981H57.8278L57.3547 219.172C56.7764 214.606 56.5661 212.186 56.1981 207.757C55.1467 195.52 58.6689 188.169 63.8734 187.758C67.8688 187.438 70.0242 189.173 71.6539 201.913C72.4424 208.442 72.9681 211.821 74.335 218.99C74.335 219.766 74.335 220.131 74.6504 220.908H86.2159C86.2159 220.177 86.2159 219.766 85.7953 219.035C84.0079 211.364 83.3245 207.757 82.2731 200.771C79.5394 183.146 76.0172 176.251 67.5534 176.708V176.982Z" fill="#C800FF"/>
<path d="M102.355 181.685C112.185 183.055 116.864 189.219 119.598 198.853C121.561 205.847 123.93 212.751 126.695 219.538H117.968C116.706 214.104 116.181 211.501 115.287 206.524H114.761C115.655 215.656 111.502 220.862 101.934 220.816C98.3403 220.893 94.8524 219.755 92.2049 217.643C89.5574 215.531 87.9568 212.609 87.74 209.492C85.2166 197.209 101.934 197.438 111.081 197.301C109.662 191.73 106.928 189.675 101.303 189.036C96.7855 188.713 92.2644 189.623 88.3708 191.639C87.8977 188.306 87.6874 186.662 87.4246 183.511C92.1368 181.795 97.2935 181.212 102.355 181.822V181.685ZM112.29 202.415C105.667 202.689 94.9421 202.415 96.2564 208.031C96.5998 209.367 97.472 210.555 98.7209 211.39C99.9698 212.224 101.516 212.651 103.091 212.597C104.574 212.76 106.081 212.586 107.465 212.094C108.848 211.601 110.062 210.806 110.988 209.786C111.914 208.766 112.52 207.556 112.748 206.272C112.976 204.989 112.819 203.676 112.29 202.46V202.415ZM102.197 180.543C97.0249 179.867 91.7386 180.419 86.8989 182.141L86.1629 182.415C86.1629 182.826 86.1629 183.009 86.1629 183.42C86.4257 186.616 86.636 187.986 87.0566 191.547C87.0566 192.506 87.0566 192.963 87.372 193.922L88.8965 193.1C92.6576 191.134 97.0327 190.24 101.408 190.543C103.251 190.474 105.063 190.971 106.525 191.949C107.987 192.926 109.005 194.32 109.399 195.885C99.4106 195.885 83.6921 195.885 86.3731 209.584C86.6347 213.091 88.3987 216.386 91.3177 218.82C94.2367 221.254 98.0991 222.65 102.144 222.734C105.163 223.118 108.237 222.493 110.745 220.984C113.253 219.475 115.008 217.196 115.655 214.606C116.023 216.387 116.233 217.3 116.654 219.172L117.074 221.136H128.745C128.43 220.451 128.324 220.131 128.062 219.492C124.539 210.634 123.12 206.524 120.859 198.853C117.547 187.484 111.817 181.639 102.249 180.269L102.197 180.543ZM102.67 210.908C100.567 210.908 97.9912 210.04 97.413 208.122C96.5718 204.607 105.141 204.241 110.188 204.059H111.239C111.318 205.036 111.141 206.017 110.721 206.926C110.301 207.836 109.649 208.651 108.814 209.31C107.979 209.969 106.983 210.455 105.901 210.732C104.818 211.009 103.678 211.069 102.565 210.908H102.67Z" fill="#C800FF"/>
<path d="M139.416 186.844C145.098 187.731 150.581 189.395 155.661 191.776C156.502 194.424 156.922 195.794 157.921 198.579C152.763 195.829 147.027 193.997 141.046 193.191C134.37 192.506 131.321 195.931 133.529 202.323C134.592 205.387 136.707 208.096 139.591 210.087C142.476 212.078 145.991 213.257 149.668 213.465C151.971 213.71 154.308 213.531 156.527 212.941C158.745 212.351 160.797 211.363 162.548 210.04C163.809 213.008 164.493 214.606 165.965 217.574C162.224 219.941 157.652 221.104 153.032 220.862C146.655 220.475 140.569 218.392 135.603 214.895C130.637 211.398 127.031 206.658 125.275 201.319C121.753 190.315 127.904 185.338 139.416 186.753V186.844ZM139.101 185.612C127.01 184.059 120.333 189.447 124.066 201.228C125.926 206.979 129.779 212.093 135.103 215.876C140.426 219.658 146.962 221.925 153.821 222.369C158.548 222.685 163.254 221.555 167.121 219.172L167.752 218.807L167.279 217.939C165.859 214.88 165.176 213.373 163.914 210.451C163.494 209.492 163.336 209.036 162.916 208.122L161.338 209.218C159.602 210.383 157.613 211.23 155.49 211.709C153.366 212.188 151.153 212.288 148.984 212.004C145.769 211.848 142.685 210.842 140.148 209.12C137.61 207.397 135.741 205.042 134.79 202.369C132.793 196.89 135.579 194.059 141.467 194.607C147.211 195.273 152.739 196.951 157.711 199.538C158.71 199.995 159.236 200.223 160.182 200.725C159.919 199.903 159.761 199.492 159.446 198.671C158.447 195.885 158.026 194.561 157.185 191.913C157.215 191.67 157.215 191.425 157.185 191.182L156.239 190.771C150.989 188.292 145.306 186.58 139.416 185.703L139.101 185.612Z" fill="#C800FF"/>
<path d="M170.224 181.411C171.81 189.143 174.005 196.771 176.795 204.241C181.631 200.017 186.911 196.195 192.566 192.826C198.769 193.1 201.924 193.191 208.337 193.237C202.344 196.616 199.611 198.214 194.616 201.502C202.66 208.944 206.76 212.734 213.752 220.268H202.765C197.508 214.515 194.354 211.684 188.571 205.976C185.537 208.119 182.707 210.471 180.107 213.008C181.263 215.748 181.842 217.209 183.156 220.086H174.061C167.509 207.383 162.794 194.024 160.025 180.315C164.02 180.817 166.071 181.045 170.224 181.411ZM171.538 180.543H170.013C165.86 180.132 163.81 179.904 159.815 179.402H158.395C158.37 179.751 158.37 180.102 158.395 180.452C161.144 194.221 165.896 207.631 172.537 220.36L173.168 221.729H185.049C184.786 221.181 184.681 220.953 184.47 220.405C183.314 217.803 182.788 216.478 181.737 213.967C183.896 211.841 186.233 209.857 188.728 208.031C193.986 213.282 196.719 215.93 201.819 221.181L202.397 221.775H216.643L215.014 219.994C208.337 212.825 204.5 209.218 196.929 202.141C201.608 199.082 204.132 197.575 209.704 194.378L213.121 192.461H208.337C201.819 192.461 198.664 192.461 192.566 192.05H191.988H191.62C186.642 195.005 181.932 198.287 177.531 201.867C175.186 195.199 173.307 188.413 171.906 181.548C171.885 181.198 171.885 180.847 171.906 180.498L171.538 180.543Z" fill="#C800FF"/>
<path d="M229.103 182.05C229.103 191.182 228.735 195.429 228.63 204.287C224.319 204.287 222.216 204.287 218.115 204.287C216.801 195.52 216.223 191.182 215.172 182.689C220.429 182.689 223.373 182.37 229.155 181.959L229.103 182.05ZM223.898 212.689C224.614 212.599 225.342 212.639 226.039 212.805C226.736 212.971 227.386 213.261 227.949 213.655C228.511 214.049 228.974 214.54 229.308 215.096C229.642 215.653 229.841 216.263 229.891 216.889C229.909 217.481 229.782 218.069 229.52 218.615C229.257 219.161 228.865 219.652 228.369 220.058C227.873 220.463 227.283 220.772 226.64 220.966C225.996 221.16 225.313 221.233 224.634 221.181C223.173 221.199 221.757 220.74 220.667 219.894C219.576 219.049 218.891 217.879 218.746 216.615C218.326 214.15 220.639 212.415 224.003 212.46L223.898 212.689ZM231.363 180.498H229.366C223.635 180.954 220.797 181.091 215.329 181.274H213.489V182.37C214.593 190.817 215.224 195.155 216.643 203.876V204.972H218.168C222.269 204.972 224.371 204.972 228.682 204.972H230.259V203.876C230.522 194.744 230.68 190.452 231.048 181.502V180.315L231.363 180.498ZM223.898 211.364C219.693 211.364 216.906 213.602 217.432 216.661C217.719 218.189 218.622 219.58 219.979 220.583C221.337 221.587 223.062 222.139 224.844 222.14C225.659 222.171 226.473 222.062 227.239 221.819C228.005 221.576 228.709 221.204 229.309 220.725C229.91 220.246 230.396 219.669 230.739 219.026C231.083 218.383 231.277 217.688 231.311 216.981C231.232 216.197 230.974 215.436 230.551 214.74C230.128 214.045 229.55 213.43 228.849 212.933C228.148 212.435 227.34 212.064 226.472 211.841C225.603 211.619 224.693 211.55 223.793 211.638L223.898 211.364Z" fill="#C800FF"/>
</g>
<defs>
<clipPath id="clip0">
<rect width="231.1" height="222.46" fill="white"/>
</clipPath>
</defs>
</svg>
