<svg width="232" height="223" viewBox="0 0 232 223" fill="none" xmlns="http://www.w3.org/2000/svg">
<g clip-path="url(#clip0)">
<path d="M23.4986 11.4153C29.5208 11.731 35.5007 12.4949 41.3725 13.6983C42.2137 16.2097 42.6342 17.4882 43.3702 19.9082C37.6411 18.7191 31.7991 17.9855 25.9168 17.7165C17.2427 17.7165 13.4576 18.4471 13.6679 20.3192C14.2462 25.2049 46.7873 20.6388 49.6261 31.9627C51.1507 37.8986 42.8445 39.4968 28.2825 39.4968C20.5807 39.4427 12.8904 38.9699 5.2566 38.0813C5.2566 35.5243 5.2566 34.2458 5.2566 31.6431C12.1449 33.0772 19.2014 33.8126 26.2848 33.8348C36.2732 33.8348 40.1634 33.5152 39.7429 31.3235C38.0606 26.4377 3.04863 32.2367 2.73321 20.3648C2.73321 14.2463 11.1445 11.2327 23.7614 11.2327L23.4986 11.4153ZM23.7614 10.0911C9.30453 9.99981 0.998384 13.6983 1.10353 20.4105C1.10353 28.6295 16.1913 28.8578 26.6002 29.5427C30.9636 29.8166 37.1143 30.3646 37.5349 31.3235C37.9555 32.2823 34.2755 32.8759 25.5488 32.7846C18.7068 32.7366 11.8954 31.9855 5.2566 30.5472L3.04863 30.045V31.9627C3.04863 34.5197 3.04863 35.8439 3.04863 38.4466V39.2685H4.3629C12.2835 40.1001 20.2519 40.5422 28.2299 40.5926C51.1507 40.547 52.0969 35.6156 51.1507 31.9627C49.2056 24.2004 35.8001 22.5109 25.8117 21.7803C21.974 21.4607 15.2976 21.0954 15.2976 20.0909C15.2976 19.0863 15.7707 18.2644 26.2848 18.6297C32.0926 18.9431 37.8603 19.6762 43.5279 20.8214L45.4205 21.2324C45.2494 20.7679 45.109 20.2953 44.9999 19.8169C44.1062 17.3512 43.6856 16.1184 42.8445 13.6983L42.4765 12.7395H41.2674C35.3358 11.5989 29.3037 10.8963 23.2357 10.6391L23.7614 10.0911Z" fill="#C800FF"/>
<path d="M76.0694 13.6983C85.427 14.4289 92.3137 20.5018 95.8885 33.3325C97.0662 37.394 97.9789 41.51 98.6222 45.6609L90.1057 44.2454C89.445 40.5862 88.5677 36.959 87.4772 33.3782C84.9538 24.8396 80.5905 20.7301 74.0717 20.1365C67.553 19.5429 64.5565 25.4788 66.8696 34.0631C67.6581 36.9854 68.0261 38.6292 68.657 41.1862C64.609 40.7296 62.5588 40.5013 58.1429 40.136C56.3501 31.0107 53.7489 22.0192 50.3624 13.2417L60.8765 13.7896C62.3485 18.721 62.9268 21.0497 63.8731 25.5245H64.4513C63.5051 18.2644 66.1336 13.1504 76.0694 13.6983ZM75.4911 12.3285C68.9198 11.9632 64.977 14.0636 63.5576 17.9904C63.0845 16.3923 62.8742 15.5704 62.3485 13.9266C62.3485 13.3787 62.3485 13.1047 61.9279 12.5568H60.4034L49.8893 12.0088H48.5225C48.5225 12.5111 48.5225 12.7394 48.943 13.196C52.3632 21.9282 55.0168 30.8729 56.8812 39.9533C56.8561 40.3031 56.8561 40.6538 56.8812 41.0035H58.4057C62.6114 41.3688 64.609 41.5515 68.657 42.0537H70.1289C70.104 41.7192 70.104 41.3837 70.1289 41.0492C69.4981 38.2639 69.1301 36.8484 68.3415 33.9261C66.1862 25.9354 68.3416 20.5018 74.5449 21.0497C79.3814 21.5063 83.4819 24.0177 86.0578 32.8759C87.1431 36.4424 88.0204 40.0542 88.6863 43.6975C88.7114 44.0472 88.7114 44.398 88.6863 44.7477L90.1057 44.976L98.6222 46.4372H99.7787C99.7787 45.9806 99.7787 45.7979 99.7787 45.3413C99.1229 41.2374 98.2103 37.1676 97.045 33.1498C93.4703 20.0452 86.0578 12.7851 75.4386 12.0088L75.4911 12.3285Z" fill="#C800FF"/>
<path d="M115.182 15.9356C125.696 16.5292 131.847 24.2003 133.371 33.8804C134.362 39.9344 134.959 46.0323 135.159 52.1448L127.799 50.8206C128.062 46.8938 128.167 44.8847 128.167 40.5925H127.694C127.01 48.4919 122.121 50.6836 113.868 49.1311C111.086 48.855 108.476 47.8237 106.409 46.184C104.342 44.5443 102.923 42.3798 102.355 39.999C100.567 31.4604 116.181 31.9626 125.17 31.9626C124.996 29.7582 123.86 27.6945 121.995 26.1926C120.129 24.6907 117.673 23.8638 115.129 23.8806C110.681 23.6681 106.248 24.5042 102.302 26.3007C101.356 23.3784 100.883 21.7346 99.7787 18.7666C104.578 16.7647 109.86 15.7938 115.182 15.9356ZM125.696 36.8483C119.388 36.8483 109.347 35.6155 110.188 39.9076C110.556 41.9167 112.816 43.3779 115.97 43.9258C121.227 44.839 126.485 42.9669 125.696 36.8483ZM114.709 14.3832C109.25 14.2789 103.842 15.3123 98.9376 17.3968L98.2542 17.6708C98.2542 18.0817 98.2541 18.2644 98.5696 18.6753C99.7261 21.7802 100.199 23.2414 101.093 26.1637C101.356 26.9856 101.514 27.3965 101.724 28.2184L103.143 27.3965C107.027 25.7509 111.348 25.0413 115.655 25.3418C120.912 25.7984 122.857 27.6248 123.751 30.6385C113.868 30.6385 99.3056 30.6385 101.303 39.7706C101.852 42.4605 103.378 44.927 105.658 46.8087C107.938 48.6904 110.852 49.8884 113.973 50.227C120.176 51.4598 124.487 50.5466 126.853 47.0764C126.853 48.4462 126.853 49.0855 126.853 50.4096C126.853 50.9576 126.853 51.2315 126.853 51.7795L128.114 52.0534L135.474 53.4233H136.578C136.552 52.9974 136.552 52.5706 136.578 52.1448C136.396 46.0331 135.817 39.9353 134.843 33.8804C133.108 22.2825 125.538 14.7941 115.024 14.2462L114.709 14.3832ZM115.97 42.6929C114.13 42.3733 111.817 41.5514 111.554 40.0446C111.081 37.4419 119.072 37.8986 123.856 38.1269H124.855C124.592 42.0994 120.386 43.3779 115.97 42.6929Z" fill="#C800FF"/>
<path d="M154.558 17.7621C159.42 17.8728 164.152 19.1531 168.226 21.4606C168.541 25.2962 168.646 27.1226 168.857 30.5928C164.983 27.9412 160.224 26.4513 155.294 26.3464C148.67 25.9811 145.358 30.9124 145.989 37.2593C145.653 39.7313 146.285 42.2295 147.781 44.3522C149.278 46.4749 151.553 48.0989 154.24 48.963C156.928 49.8272 159.872 49.8813 162.599 49.1168C165.326 48.3523 167.679 46.8135 169.277 44.7477C169.277 47.9896 169.277 49.5878 169.277 52.647C167.693 54.0202 165.776 55.0689 163.666 55.7166C161.556 56.3644 159.307 56.5949 157.081 56.3912C146.987 55.2497 139.996 47.7157 138.629 36.6201C137.262 25.5245 142.992 17.3968 154.768 17.7621H154.558ZM154.768 16.0726C141.941 15.6617 135.79 24.6569 137.262 36.5287C138.734 48.4006 145.936 56.5282 156.818 57.7154C159.114 57.9429 161.439 57.7206 163.622 57.0647C165.805 56.4088 167.792 55.3361 169.435 53.9255L170.118 53.5146C170.092 53.2106 170.092 52.9054 170.118 52.6014C170.118 49.4964 170.118 48.0353 170.381 44.6564V41.9624L168.646 43.5605C167.344 45.0548 165.619 46.2311 163.638 46.9752C161.658 47.7192 159.489 48.0058 157.344 47.807C154.478 47.5109 151.844 46.2905 149.965 44.3878C148.086 42.485 147.098 40.0387 147.198 37.5333C146.672 31.6887 149.774 27.8075 155.504 28.1271C160.209 28.1695 164.775 29.513 168.541 31.9626C169.112 32.3725 169.708 32.7536 170.329 33.1042C170.329 32.054 170.329 31.5517 170.329 30.4558C170.329 26.8486 170.066 25.0222 169.75 21.3237C169.75 20.867 169.75 20.6844 169.75 20.2278L169.014 19.8168C164.705 17.3497 159.666 16.0177 154.505 15.9813L154.768 16.0726Z" fill="#C800FF"/>
<path d="M181.737 1.73511C183.004 12.7948 183.531 23.9092 183.314 35.0219C189.464 27.5792 192.619 23.6524 199.085 16.3009L211.439 14.9311C206.445 19.9082 203.974 22.5565 199.085 27.8532C202.549 34.3546 206.464 40.6674 210.808 46.7568C206.392 48.0809 204.237 48.6745 200.294 49.7247C197.35 44.2454 195.931 41.3231 192.829 34.9763L182.998 45.6609C182.998 48.8572 182.735 50.227 182.473 53.5146C179.318 53.9712 177.794 54.1995 174.745 54.5648C176.249 36.9612 175.614 19.269 172.852 1.78078H181.737V1.73511ZM182.893 0H171.328V1.82644C174.206 19.2738 174.929 36.9384 173.483 54.5191C173.483 55.0671 173.483 55.341 173.483 55.889H174.587C177.636 55.5237 179.161 55.2954 182.315 54.7931H183.471C183.471 54.2452 183.471 53.9712 183.471 53.4233C183.471 50.638 183.787 49.2225 183.945 46.3002C187.151 42.8756 188.781 41.0948 192.04 37.5333C194.827 43.2409 196.141 45.9349 198.769 50.9576L199.085 51.5512H199.821C204.026 50.501 206.129 49.9074 210.335 48.5376L212.753 47.807L211.965 45.6609C207.798 39.915 204.041 33.9527 200.715 27.8075C205.288 22.8761 207.601 20.4104 212.28 15.7987C213.384 14.6572 213.962 14.1092 215.119 13.0134L211.492 13.47C206.234 14.0179 203.974 14.2462 199.032 14.7028H198.559L198.244 15.1138C192.619 21.552 189.885 24.9309 184.523 31.4604C184.619 21.5366 184.128 11.615 183.051 1.73511C183.051 1.0502 183.051 0.684914 183.051 0H182.893Z" fill="#C800FF"/>
<path d="M227.105 1.23284C227.105 10.639 226.737 15.3421 226.369 24.7939L217.642 26.9399C217.642 16.9859 217.642 11.9175 217.222 1.36983H227.105V1.23284ZM221.48 35.1132C224.529 34.1544 226.737 35.1133 226.737 37.7616C226.565 39.1967 225.938 40.5623 224.927 41.7068C223.915 42.8513 222.558 43.7301 221.007 44.2454C217.958 45.3413 215.75 44.2454 215.75 41.3688C215.851 39.9999 216.399 38.6843 217.33 37.5764C218.261 36.4684 219.536 35.614 221.007 35.1132H221.48ZM228.472 0H215.907C215.907 0.547931 215.907 0.867558 215.907 1.41549C216.275 12.1001 216.328 17.2142 216.275 27.2596V28.5381L217.537 28.2184C221.007 27.3966 222.794 26.9399 226.264 25.9811L227.578 25.6158V24.4286C227.946 15.2964 228.104 10.7303 228.314 1.23284V0H228.472ZM221.532 33.8804C219.641 34.489 217.991 35.5573 216.779 36.9579C215.567 38.3585 214.845 40.0324 214.698 41.7797C214.698 45.2043 217.169 46.8481 221.112 45.4326C223.059 44.7804 224.759 43.6705 226.022 42.2271C227.284 40.7836 228.06 39.0636 228.261 37.2593C228.261 34.1087 225.37 32.6932 221.532 33.8804Z" fill="#C800FF"/>
<path d="M29.1766 54.2907C36.1134 54.1693 43.0479 54.6126 49.8894 55.6149C49.8894 57.761 50.2574 58.8112 50.4677 60.9116C44.0307 59.9373 37.4934 59.5547 30.964 59.77C21.0282 60.2723 15.7712 61.8248 15.7712 63.6056C16.034 68.4913 54.9362 61.0942 53.7796 71.4136C53.2014 76.8929 44.5272 78.902 29.2818 80.7741C22.6053 81.596 12.6695 82.5092 4.31078 82.9658C4.31078 80.3631 4.31078 79.0846 4.31078 76.4819C12.1107 76.6512 19.9141 76.3001 27.6521 75.4317C38.5868 74.1989 42.6873 73.6053 42.8975 71.5506C43.4232 66.9388 2.20796 77.6235 2.10282 65.569C2.10282 59.3591 13.9838 54.793 29.1766 54.2907ZM29.1766 53.2405C11.8284 53.8341 0 59.3591 0 65.8886C0 74.1532 18.2945 71.5962 29.8075 71.0026C34.5914 70.7743 41.373 70.7287 41.3204 71.6419C41.2679 72.5551 37.4302 73.3313 27.8098 74.3815C20.3135 75.1959 12.7555 75.5012 5.20448 75.2948H2.3131V84.4269H3.83765C12.0912 83.9703 22.2373 83.0114 29.2818 82.0982C52.9385 79.0846 55.0939 74.9751 55.567 71.6875C56.3556 64.6101 41.7936 63.7882 30.2806 64.0622C25.8647 64.0622 18.0317 64.6101 17.9791 63.6969C17.9265 62.7837 19.2934 61.6878 31.2269 61.0485C37.632 60.8355 44.0451 61.2028 50.3626 62.1444L52.3077 62.4184C52.3337 62.023 52.3337 61.6266 52.3077 61.2312C52.3077 59.1308 52.0448 58.0806 51.782 55.9802C51.782 55.6606 51.782 55.4779 51.782 55.1583H50.4677C43.525 54.1139 36.4845 53.64 29.4395 53.7428L29.1766 53.2405Z" fill="#C800FF"/>
<path d="M86.7414 58.4003C95.8361 60.1811 99.7263 65.0211 98.4121 74.473C97.9912 77.5439 97.3769 80.5925 96.5721 83.6051C93.5756 82.7832 91.9985 82.418 88.7917 81.7787C89.5277 78.3998 89.8431 76.7103 90.3688 73.2858C91.1048 66.8019 88.634 63.56 82.3781 62.5098C76.1222 61.4596 71.6011 65.4778 70.4971 72.8748C70.1817 75.3405 69.9714 76.5734 69.4983 79.0391C65.7658 78.7194 63.8207 78.5824 59.8253 78.4911C61.0613 70.9188 61.0613 63.233 59.8253 55.6607C64.399 55.9803 66.6595 56.2086 70.9703 56.7565C70.9703 60.5007 70.6548 62.3272 70.2343 65.8887H70.76C71.9691 60.1811 76.8582 56.7565 86.5311 58.3547L86.7414 58.4003ZM86.5311 57.3958C84.0959 56.6985 81.4901 56.5806 78.9846 57.0543C76.4792 57.5281 74.1656 58.5763 72.2845 60.0898C72.2845 58.8569 72.2845 58.2633 72.2845 56.9848V55.9346H70.7074C66.3441 55.3867 64.1361 55.1584 59.5099 54.7931H57.9854C57.9854 55.1584 57.9854 55.3867 57.9854 55.752C59.2082 63.3251 59.2082 71.0093 57.9854 78.5824C57.9854 78.9477 57.9854 79.1304 57.9854 79.5413H59.4573C63.4527 79.5413 65.3978 79.5413 69.1303 80.0436H70.4971C70.4971 79.6783 70.4971 79.4957 70.4971 79.1304C70.9703 76.7103 71.1806 75.4775 71.5485 73.0118C72.5474 66.2083 75.9645 62.3728 82.0627 63.423C86.6889 64.1993 89.5802 66.2997 88.8442 73.0118C88.3185 76.482 88.0031 78.1715 87.2671 81.5504C87.2671 81.87 87.2671 82.0527 87.2671 82.418L88.4763 82.6463C91.1035 83.1408 93.7003 83.7504 96.2567 84.4727L97.3081 84.7467C97.338 84.4581 97.338 84.1677 97.3081 83.8791C98.1826 80.8747 98.8323 77.8243 99.2532 74.7469C100.567 65.1125 96.7298 59.4505 86.426 57.4414L86.5311 57.3958Z" fill="#C800FF"/>
<path d="M121.806 66.528C123.64 66.9024 125.37 67.5901 126.894 68.5511C128.419 69.5121 129.709 70.7272 130.687 72.1255C131.666 73.5238 132.314 75.0773 132.595 76.6954C132.875 78.3136 132.781 79.964 132.32 81.5505C131.604 85.8511 130.496 90.0957 129.008 94.2442C126.432 93.4223 125.118 92.9657 122.542 92.0525C123.961 89.4042 124.644 88.0343 125.906 85.2033H125.486C122.542 90.3174 117.285 91.0479 109.714 88.5823C106.14 87.3951 100.777 85.0664 101.829 80.1806C103.248 73.9708 117.6 77.304 125.486 78.9935C126.011 75.2036 124.014 73.1489 119.019 71.7334C115.006 70.7454 110.805 70.466 106.665 70.9115C106.665 68.8111 106.665 67.7609 106.981 65.5691C111.819 65.159 116.703 65.5306 121.385 66.665L121.806 66.528ZM125.223 82.1897C119.65 80.9112 110.713 78.3085 110.03 81.3678C109.662 82.7833 111.292 84.2445 114.078 85.1577C118.914 86.7558 124.592 86.5732 125.223 82.1897ZM121.858 65.3865C117.03 64.2594 112.004 63.9188 107.033 64.382H106.297V65.0669C106.297 67.2129 106.297 68.3088 105.982 70.3635C105.982 70.9571 105.982 71.2311 105.982 71.8247H107.559C111.56 71.3924 115.62 71.672 119.493 72.6466C124.014 73.9708 125.17 75.4776 125.118 77.6693C116.443 75.7972 102.828 73.1032 101.356 79.7697C100.672 82.7377 101.776 86.5732 110.03 89.3585C112.044 90.3177 114.304 90.8205 116.601 90.8205C118.898 90.8205 121.158 90.3177 123.173 89.3585C122.699 90.2717 122.489 90.7283 121.963 91.6415C121.438 92.5548 121.701 92.1895 121.49 92.6004L122.594 92.9657L129.06 95.2031L130.059 95.5227L130.322 94.6095C131.809 90.4421 132.933 86.1836 133.687 81.8701C134.62 78.3534 133.917 74.6591 131.732 71.5897C129.547 68.5203 126.055 66.324 122.016 65.4778L121.858 65.3865ZM114.288 84.2901C112.658 83.7422 110.766 82.7377 111.029 81.6875C111.502 79.8154 118.809 81.6875 123.067 82.692L123.909 82.9203C122.594 85.6143 118.178 85.5686 114.288 84.2901Z" fill="#C800FF"/>
<path d="M154.557 73.7424C158.481 74.1414 162.263 75.2621 165.649 77.03C165.176 79.7696 164.913 81.0938 164.388 83.6965C161.208 81.5148 157.415 80.1117 153.4 79.6326C152.227 79.3713 151.004 79.3316 149.812 79.5162C148.62 79.7008 147.487 80.1054 146.49 80.7027C145.494 81.3 144.656 82.076 144.035 82.9785C143.413 83.8809 143.021 84.8887 142.886 85.9338C142.578 86.9697 142.527 88.0508 142.737 89.1051C142.947 90.1593 143.413 91.1626 144.105 92.0482C144.796 92.9338 145.697 93.6813 146.746 94.241C147.796 94.8007 148.971 95.1598 150.194 95.2943C154.247 96.1358 158.517 95.5966 162.127 93.7875C161.601 96.0249 161.286 97.1664 160.708 99.3125C156.829 100.825 152.479 101.163 148.354 100.271C146.319 99.9604 144.38 99.29 142.657 98.3017C140.933 97.3133 139.461 96.0281 138.332 94.5256C137.204 93.0231 136.442 91.3353 136.095 89.5668C135.748 87.7983 135.823 85.9868 136.315 84.2444C136.568 82.4467 137.267 80.7181 138.365 79.1781C139.462 77.6381 140.931 76.3234 142.671 75.3248C144.41 74.3262 146.379 73.6675 148.44 73.3943C150.501 73.1211 152.606 73.2399 154.609 73.7424H154.557ZM154.609 72.6009C152.463 72.0796 150.211 71.9692 148.01 72.2775C145.809 72.5857 143.712 73.3052 141.863 74.3862C140.013 75.4672 138.456 76.884 137.298 78.5387C136.141 80.1935 135.411 82.0467 135.158 83.9704C134.618 85.8262 134.521 87.7585 134.873 89.6481C135.226 91.5377 136.02 93.3446 137.207 94.9574C138.394 96.5703 139.949 97.9548 141.775 99.0258C143.602 100.097 145.662 100.831 147.828 101.185C152.141 102.25 156.745 101.992 160.865 100.454H161.549V99.8148C162.127 97.623 162.39 96.4815 162.968 94.2441L163.389 92.4177L161.549 93.2853C158.138 95.0175 154.09 95.5409 150.246 94.7464C149.161 94.6499 148.112 94.3521 147.171 93.8733C146.229 93.3945 145.417 92.7458 144.789 91.971C144.161 91.1962 143.732 90.3134 143.531 89.3821C143.33 88.4509 143.361 87.493 143.622 86.5731C143.749 85.6509 144.105 84.7636 144.664 83.972C145.224 83.1804 145.973 82.5033 146.862 81.9871C147.751 81.4709 148.758 81.1279 149.814 80.9816C150.87 80.8353 151.95 80.8891 152.98 81.1394C156.832 81.6192 160.464 82.9915 163.494 85.1119L164.913 86.0708C164.913 85.2946 164.913 84.8836 165.281 84.1074C165.86 81.5047 166.122 80.1349 166.543 77.3953V76.619L165.965 76.345C162.441 74.5403 158.517 73.4043 154.452 73.0118L154.609 72.6009Z" fill="#C800FF"/>
<path d="M180.947 61.5509C179.791 72.5095 178.897 77.6235 176.952 87.395C183.292 82.1457 189.294 76.5971 194.931 70.7744C199.296 69.7024 203.594 68.4375 207.811 66.9846C202.08 72.6922 199.242 75.4318 193.617 80.6828C196.629 85.9632 200.646 90.7641 205.498 94.8834C201.488 96.1772 197.399 97.2748 193.249 98.171C190.413 94.7876 188.048 91.1244 186.204 87.258C182.794 90.1793 179.158 92.8949 175.322 95.3856C174.849 97.6687 174.639 98.8102 174.113 101.002C170.801 101.23 169.224 101.276 166.07 101.276C169.703 88.5574 172.181 75.6108 173.482 62.5554C176.531 62.2358 178.056 62.0532 181.157 61.5509H180.947ZM182.472 60.0441H181.315C178.161 60.5464 176.636 60.729 173.64 61.0486H172.536C172.536 61.5509 172.536 61.8249 172.536 62.3728C171.323 75.335 168.915 88.1918 165.334 100.819L165.071 101.778H166.227C168.911 101.836 171.597 101.76 174.271 101.55H175.48V100.545C175.953 98.5363 176.163 97.486 176.584 95.3856C179.784 93.3602 182.823 91.1481 185.678 88.7648C187.373 92.2506 189.544 95.5467 192.145 98.5819L192.46 98.9929H193.301C197.45 98.1295 201.54 97.0623 205.55 95.7966L208.389 94.929L207.022 93.7419C202.352 89.8607 198.445 85.3413 195.457 80.3632C200.714 75.5232 203.395 72.9205 208.757 67.5781L212.016 64.3362L208.074 65.7061C202.816 67.4868 200.188 68.2174 195.246 69.4959H194.773L194.353 69.9069C188.044 76.2537 184.942 79.2673 178.581 84.564C180.264 75.6601 181 70.8657 182.051 61.2313C182.051 60.729 182.051 60.455 182.051 59.9071L182.472 60.0441Z" fill="#C800FF"/>
<path d="M225.633 48.8572C225.107 58.2177 224.844 62.8751 224.213 72.1443C219.903 74.0621 217.852 74.9296 213.699 76.4364C214.172 67.3042 214.435 62.7381 214.803 52.8754C218.956 51.4599 221.059 50.638 225.317 48.8572H225.633ZM218.168 83.1029C221.848 81.5961 224.792 82.0527 224.739 84.4727C224.375 86.0426 223.543 87.5018 222.325 88.7039C221.107 89.9061 219.546 90.8089 217.8 91.3219C214.12 92.6917 211.491 91.9155 211.649 89.4954C212.054 88.0492 212.859 86.7108 213.995 85.5966C215.131 84.4825 216.564 83.6264 218.168 83.1029ZM227.157 47.0765L225.685 47.67C221.269 49.4508 219.167 50.2271 215.171 51.6425L213.752 52.1448C213.778 52.5554 213.778 52.967 213.752 53.3777C213.384 63.0578 213.121 67.7608 212.543 77.0757V78.2172L214.015 77.6693C218.01 76.1168 220.113 75.2492 224.529 73.1032L226.106 72.3726V71.2311C226.684 62.0989 226.895 57.5328 227.368 48.081V46.8481L227.157 47.0765ZM218.22 82.1897C216.278 82.8755 214.548 83.9474 213.17 85.3193C211.791 86.6913 210.802 88.3249 210.282 90.089C210.282 93.057 213.226 94.1985 217.958 92.4634C220.155 91.7871 222.113 90.6286 223.642 89.1003C225.172 87.5721 226.219 85.7262 226.684 83.7422C226.684 80.6829 223.057 80.0893 218.431 81.9614L218.22 82.1897Z" fill="#C800FF"/>
<path d="M31.5423 94.9748C37.7394 94.0619 44.0386 93.7861 50.31 94.1529C49.942 96.2533 49.7843 97.3035 49.3637 99.4039C43.6121 99.0775 37.8361 99.3843 32.1732 100.317C22.8682 101.961 18.1368 104.107 18.0317 105.933C17.9265 110.819 52.5705 99.4952 50.2574 109.586C49.1534 115.02 41.5307 117.988 28.5458 121.504C22.8682 123.056 14.4569 125.02 7.51758 126.39C7.51758 123.833 7.51758 122.554 7.51758 119.951C14.2816 119.24 20.9644 118.033 27.4944 116.344C36.7994 114.152 40.4793 113.057 40.7947 111.002C41.5307 106.436 5.57247 121.275 5.78276 109.541C5.78276 103.468 17.506 97.2578 31.7526 94.9748H31.5423ZM31.7526 93.9246C15.7712 96.4816 3.94279 103.696 3.83765 110.134C3.83765 118.308 19.6088 113.741 29.4921 111.915C33.5926 111.139 39.4805 110.363 39.3227 111.276C39.165 112.189 35.8531 113.376 27.5995 115.431C21.2517 117 14.7623 118.1 8.201 118.718L5.73019 118.992V120.591C5.73019 123.193 5.73019 124.472 5.73019 127.074V127.851H6.83417C13.826 126.435 22.6053 124.38 28.4406 122.737C48.5752 117.166 50.9408 112.828 51.6242 109.586C53.0437 102.509 41.1101 102.965 30.8589 104.472C26.9161 105.066 19.9768 106.436 20.0294 105.477C20.0819 104.518 21.4488 103.285 32.2783 101.322C37.8227 100.428 43.4736 100.136 49.1009 100.454H50.7831L51.046 99.2213C51.414 97.1209 51.6242 96.1163 51.9922 94.0159V93.194H50.9934C44.6039 92.7854 38.1813 93.0306 31.8577 93.9246H31.7526Z" fill="#C800FF"/>
<path d="M84.113 94.3811C91.9986 95.7052 93.9962 99.9517 90.6843 108.993C89.37 112.6 88.6866 114.426 87.4249 118.125C85.1311 117.525 82.7958 117.052 80.433 116.709C81.5896 113.193 82.1679 111.458 83.377 108.079C85.5324 101.687 84.2707 98.9472 78.6982 98.2623C73.1257 97.5773 67.0276 102.052 65.0825 109.404L63.0848 115.705C59.8254 115.705 58.1431 115.705 54.6735 116.116C56.7763 106.755 57.8803 102.417 59.9305 93.2852C64.0836 93.2852 66.0813 93.2852 69.9189 93.5592C68.4995 97.1207 67.8161 98.9015 66.3441 102.691H66.8173C67.9785 99.6767 70.3998 97.1503 73.6024 95.6115C76.8049 94.0727 80.5557 93.6336 84.113 94.3811ZM84.3758 93.5135C81.8888 93.0081 79.2976 93.035 76.8251 93.5917C74.3527 94.1485 72.0729 95.2185 70.1818 96.7098L71.3909 93.7418L71.7589 92.7373H70.3395C66.5019 92.509 64.5042 92.4177 60.3511 92.4177H58.9317V93.3765C57.0917 102.509 55.9878 107.075 53.9375 116.207V117.166H55.1992C58.6688 116.846 60.4562 116.801 63.6105 116.709H64.767L65.0299 115.75L66.0287 109.586C67.8687 102.783 72.8103 98.7189 78.1725 99.3125C82.273 99.7691 84.2707 101.459 82.0102 108.079C80.8536 111.504 80.2228 113.193 79.1188 116.755C78.9897 117.053 78.8843 117.358 78.8034 117.668H79.8548C82.2175 118.011 84.5528 118.484 86.8466 119.084L87.8455 119.312C87.8455 118.992 87.8455 118.81 88.1609 118.444C89.4226 114.7 90.106 112.874 91.4203 109.312C94.8374 100.18 93.1551 95.1117 84.113 93.5592L84.3758 93.5135Z" fill="#C800FF"/>
<path d="M115.129 103.65C116.724 103.989 118.215 104.628 119.496 105.521C120.776 106.414 121.817 107.54 122.543 108.819C123.27 110.098 123.665 111.5 123.701 112.927C123.737 114.353 123.413 115.769 122.752 117.074C121.017 121.641 120.123 123.832 118.546 128.398L112.027 126.07C113.499 123.513 114.288 122.234 115.813 119.723H115.392C111.975 124.289 106.77 125.019 99.6208 122.736C96.2038 121.641 91.157 119.403 92.9444 114.563C95.2049 108.399 108.716 112.143 116.338 114.335C117.547 111.184 116.023 109.312 111.449 107.623C107.768 106.366 103.839 105.745 99.8837 105.796L101.619 101.23C106.343 101.288 111.013 102.109 115.392 103.65H115.129ZM115.392 116.983C110.135 115.431 101.566 112.645 100.462 115.613C99.9363 116.983 101.356 118.399 103.984 119.312C108.558 120.91 113.92 120.682 115.392 116.983ZM115.392 102.783C110.863 101.246 106.059 100.412 101.198 100.317H100.462V100.911L98.7271 105.477L98.254 106.755H99.8837C103.807 106.597 107.726 107.141 111.397 108.353C115.55 109.86 116.338 111.23 115.918 112.919C107.612 110.545 94.8895 107.257 92.2084 114.015C91.157 116.892 91.6827 120.773 99.5683 123.147C101.584 124.023 103.807 124.479 106.061 124.479C108.315 124.479 110.538 124.023 112.553 123.147C112.027 124.015 111.765 124.472 111.291 125.339L110.766 126.252L111.87 126.663L118.441 128.992L119.387 129.312C119.387 128.992 119.387 128.809 119.703 128.49C121.227 123.924 122.121 121.641 123.856 117.166C124.503 115.76 124.802 114.251 124.732 112.737C124.663 111.224 124.227 109.741 123.454 108.383C122.68 107.026 121.585 105.826 120.242 104.861C118.898 103.896 117.335 103.188 115.655 102.783H115.392ZM104.037 118.444C102.512 117.896 100.777 116.938 101.145 115.933C101.829 114.107 108.768 115.933 112.869 117.257L113.71 117.485C111.922 119.768 107.717 119.723 104.037 118.444Z" fill="#C800FF"/>
<path d="M145.989 113.513C150.055 114.279 153.981 115.523 157.659 117.212C157.029 119.312 156.713 120.317 156.135 122.371C152.476 120.285 148.443 118.742 144.201 117.805C138.524 116.481 134.213 117.805 132.846 121.732C131.479 125.659 134.265 129.22 140.416 130.864C144.795 132.006 149.482 131.878 153.769 130.499L152.455 135.567C147.944 136.589 143.196 136.51 138.734 135.339C128.746 132.828 123.804 126.207 126.222 119.769C128.64 113.33 136.158 111.276 145.989 113.513ZM146.304 112.6C135.79 110.317 127.904 112.6 125.276 119.403C122.647 126.207 127.642 133.467 138.471 136.207C143.122 137.429 148.071 137.508 152.77 136.435H153.559V135.841C154.032 133.832 154.295 132.873 154.873 130.864C154.873 130.225 154.873 129.905 155.294 129.266L153.138 129.905C149.09 131.227 144.651 131.34 140.521 130.225C135.264 128.855 132.478 125.659 133.687 122.371C134.896 119.084 138.944 117.805 143.728 118.992C147.772 119.859 151.625 121.293 155.136 123.239L156.713 124.152C156.713 123.513 156.976 123.239 157.186 122.6C157.764 120.545 158.08 119.54 158.711 117.44V116.846L158.08 116.572C154.262 114.836 150.196 113.546 145.989 112.737L146.304 112.6Z" fill="#C800FF"/>
<path d="M175.217 106.664C173.377 114.746 172.378 118.627 170.643 126.435C177.813 122.78 184.665 118.675 191.146 114.152C196.313 113.328 201.421 112.245 206.444 110.91C201.194 114.879 195.701 118.598 189.989 122.052C194.603 127.006 199.628 131.661 205.025 135.978C198.979 136.891 196.088 137.257 190.568 137.713C187.338 134.241 184.337 130.612 181.578 126.846C176.321 129.631 174.008 130.864 169.171 133.147L168.225 138.398C164.388 138.398 162.548 138.124 158.973 137.805C161.654 125.613 163.599 119.814 166.963 106.984C170.223 106.984 171.853 106.984 175.322 106.664H175.217ZM176.794 105.568H175.532C172.774 105.822 170.001 105.944 167.226 105.933H166.017V106.892C162.6 119.677 160.76 125.476 157.921 137.576C157.897 137.88 157.897 138.186 157.921 138.49H159.236C162.81 138.809 164.493 138.946 168.541 139.083H169.96C169.96 138.718 169.96 138.535 169.96 138.124C170.328 136.206 170.538 135.248 170.906 133.558C175.007 131.64 177.057 130.59 181.42 128.261C183.834 131.738 186.448 135.106 189.253 138.353L189.674 138.809H190.62C196.14 138.353 199.032 138.033 205.077 137.12L208.389 136.617L206.759 135.248C201.533 131.091 196.649 126.62 192.145 121.869C197.499 118.599 202.657 115.093 207.601 111.367C209.125 110.271 209.914 109.678 211.438 108.49L206.707 109.769C201.696 111.101 196.607 112.199 191.461 113.056H190.883L190.41 113.376C184.763 117.356 178.828 121.016 172.641 124.335C174.166 117.349 175.007 113.833 176.636 106.573V105.568H176.794Z" fill="#C800FF"/>
<path d="M227.945 93.3766C227.472 102.509 227.262 106.847 226.736 115.796C221.479 117.303 219.113 117.988 214.329 119.175C214.329 110.773 214.329 106.618 214.75 98.171C220.007 96.4815 222.425 95.5226 227.945 93.3766ZM219.849 125.841C224.213 124.791 227.682 125.842 227.682 128.033C227.682 130.225 224.213 133.147 219.534 134.106C214.855 135.065 212.016 134.106 212.174 131.549C212.332 128.992 215.539 126.983 219.849 125.841ZM229.838 91.3218L227.945 92.0981C222.688 94.2898 219.849 95.2487 214.803 96.9381L213.068 97.5317V98.6276C212.805 107.029 212.7 111.184 212.489 119.495V120.545L214.277 120.134C219.061 118.947 221.584 118.307 226.736 116.755L228.681 116.207V115.066C229.102 105.933 229.312 101.596 229.733 92.509V91.3218H229.838ZM219.849 124.609C214.592 125.933 210.439 128.855 210.282 131.732C210.124 134.608 213.961 136.298 219.534 135.065C225.106 133.832 229.733 130.499 229.733 127.394C229.733 124.289 225.317 123.284 219.849 124.609Z" fill="#C800FF"/>
<path d="M28.2306 136.344C33.3114 134.806 38.6258 133.929 44.0018 133.741C43.5286 136.344 43.3184 137.668 42.8452 140.316C37.8696 140.315 32.9292 141.04 28.2306 142.462C20.2925 144.974 16.2971 147.622 16.1394 149.677C15.7714 155.247 45.1583 139.997 43.3709 153.329C42.4247 160.453 35.6431 164.745 24.5507 168.078C18.7914 169.726 12.9067 171.023 6.93956 171.959C6.93956 169.265 6.93956 167.895 6.93956 165.201C12.6136 164.635 18.1901 163.486 23.5518 161.777C31.5426 159.22 34.8545 157.804 35.1699 155.247C35.8533 149.448 5.57273 166.388 5.94072 154.151C5.94072 147.85 16.0343 140.225 28.2306 136.389V136.344ZM28.2306 135.293C14.4571 139.586 4.46875 148.215 4.31104 154.836C4.31104 163.238 17.1382 158.489 25.3392 156.343C28.8615 155.476 33.8557 154.425 33.7505 155.567C33.6454 156.708 30.7014 158.261 23.7096 160.544C18.5013 162.198 13.0826 163.302 7.57041 163.831L5.57273 164.105V165.841C5.57273 168.535 5.57273 169.859 5.57273 172.553V173.512H6.62414C12.697 172.564 18.6869 171.252 24.5507 169.585C41.6361 164.379 44.0018 157.348 44.5801 153.101C45.8417 143.969 35.5905 145.293 26.9689 147.485C23.657 148.352 17.7691 150.133 17.8742 149.083C17.9794 148.033 19.0834 146.572 28.3883 143.695C32.9759 142.327 37.785 141.603 42.6349 141.549H44.0544V140.042C44.5275 137.394 44.7378 136.115 45.2109 133.513V132.554H44.6326C39.0843 132.802 33.6012 133.709 28.3358 135.248L28.2306 135.293Z" fill="#C800FF"/>
<path d="M73.2836 130.864C80.3281 131.64 82.168 135.841 80.3806 147.759C79.6972 152.325 79.3818 154.927 79.0664 160.178C76.6463 159.624 74.1565 159.333 71.6539 159.311C72.0745 154.471 72.3899 152.142 73.0733 147.667C74.4402 139.311 73.0733 136.298 68.3946 136.115C63.7158 135.932 57.8805 142.097 56.4085 151.959C55.9353 155.293 55.7251 157.028 55.3571 160.498C52.308 160.863 50.7834 161.092 47.5766 161.64C48.5777 151.638 50.1568 141.687 52.308 131.823C55.183 131.474 58.0796 131.275 60.9821 131.229C59.5101 135.795 58.8267 138.033 57.565 142.827H57.8279C60.3513 135.065 65.6083 130.134 73.1259 130.91L73.2836 130.864ZM73.3888 129.86C70.9169 129.615 68.4158 129.983 66.1741 130.92C63.9324 131.857 62.0414 133.326 60.7193 135.156C61.1924 133.604 61.4027 132.828 61.8758 131.366C61.8758 130.864 61.8758 130.636 62.2964 130.179H61.0347C58.1322 130.225 55.2355 130.423 52.3606 130.773H51.1514C51.1514 131.184 51.1514 131.366 51.1514 131.869C48.8909 143.147 47.8395 148.991 46.4727 161.685C46.4727 162.233 46.4727 162.461 46.4727 163.009H47.6292C50.7834 162.461 52.308 162.233 55.3571 161.868H56.5136C56.5136 161.32 56.5136 161.092 56.5136 160.544C56.8816 157.073 57.0919 155.384 57.565 152.051C58.8793 142.919 63.4004 137.302 68.0791 137.439C71.7065 137.439 73.3362 139.083 71.9694 147.85C71.2334 152.416 70.9179 154.653 70.4974 159.539C70.4974 160.041 70.4974 160.27 70.4974 160.818H71.5488C74.0475 160.846 76.5344 161.122 78.9612 161.64H80.0652C80.0652 161.137 80.0652 160.863 80.0652 160.361C80.4332 155.156 80.6961 152.69 81.3795 147.987C83.1143 135.887 81.3795 130.773 73.5465 129.723L73.3888 129.86Z" fill="#C800FF"/>
<path d="M103.616 137.805C107.15 138.71 110.176 140.715 112.115 143.435C114.055 146.156 114.772 149.402 114.13 152.553C113.786 157.358 113.786 162.177 114.13 166.982L106.823 165.384C107.296 161.777 107.559 160.042 108.243 156.663H107.822C105.929 162.781 101.146 165.11 93.3125 163.603C91.9848 163.517 90.6903 163.202 89.505 162.675C88.3197 162.149 87.2675 161.422 86.4104 160.537C85.5533 159.652 84.9085 158.627 84.5139 157.523C84.1193 156.418 83.9829 155.257 84.1127 154.106C84.9538 145.75 99.0953 148.307 107.086 149.859C107.454 145.932 105.561 143.969 100.778 142.599C96.9189 141.585 92.8201 141.475 88.8966 142.279C89.3172 139.951 89.5275 138.809 90.0006 136.572C94.6053 136.068 99.2818 136.489 103.669 137.805H103.616ZM106.718 153.466C100.883 152.416 91.9457 150.407 91.6303 154.38C91.6303 156.252 93.3125 157.759 96.2039 158.398C101.461 159.539 106.35 158.398 106.718 153.466ZM103.879 136.983C99.3765 135.622 94.5726 135.185 89.8429 135.704H89.1595V136.389C88.6338 138.627 88.4235 139.768 88.0029 142.097L87.7401 143.741L89.3698 143.375C93.1482 142.589 97.0971 142.667 100.83 143.604C105.193 144.836 106.087 146.389 106.35 148.626C97.5708 146.891 84.2178 144.791 83.2716 153.923C83.0894 155.213 83.2083 156.522 83.621 157.771C84.0338 159.02 84.7319 160.185 85.6739 161.195C86.6158 162.205 87.7823 163.039 89.1037 163.649C90.4251 164.259 91.8744 164.632 93.3651 164.745C95.59 165.428 97.9969 165.528 100.287 165.033C102.577 164.538 104.649 163.469 106.245 161.959C106.245 163.147 105.982 163.74 105.824 164.973C105.824 165.475 105.824 165.749 105.824 166.297L107.086 166.571L114.446 168.124H115.497C115.524 167.743 115.524 167.362 115.497 166.982C115.128 162.193 115.128 157.388 115.497 152.599C116.035 149.219 115.158 145.784 113.026 142.918C110.893 140.052 107.648 137.946 103.879 136.983ZM96.2039 157.256C94.5217 156.891 92.524 155.932 92.6291 154.608C92.6291 152.188 100.094 153.329 104.51 154.151H105.404C104.352 157.211 100.147 158.032 96.2039 157.119V157.256Z" fill="#C800FF"/>
<path d="M136.684 147.804C141.367 148.946 145.857 150.62 150.036 152.781C150.036 154.836 150.036 155.886 150.036 158.033C145.698 155.527 140.923 153.646 135.895 152.462C129.586 151.001 125.381 152.781 125.381 157.028C125.381 161.274 128.745 165.338 136.21 166.799C140.83 168.061 145.785 168.061 150.404 166.799C150.404 168.991 150.772 170.133 151.088 172.37C146.226 173.328 141.178 173.328 136.316 172.37C131.491 171.773 127.056 169.739 123.767 166.615C120.478 163.492 118.54 159.474 118.284 155.247C118.652 147.439 125.854 145.11 136.841 147.759L136.684 147.804ZM136.841 146.891C125.276 144.06 117.495 146.617 117.075 154.928C117.271 159.543 119.352 163.947 122.944 167.352C126.537 170.757 131.407 172.94 136.684 173.512C141.756 174.493 147.014 174.493 152.087 173.512H152.875C152.875 173.238 152.875 173.101 152.875 172.872C152.56 170.589 152.402 169.493 152.192 167.302C152.192 166.617 152.192 166.251 152.192 165.567L150.142 166.16C145.758 167.335 141.067 167.335 136.684 166.16C130.06 164.836 126.905 161.594 127.063 157.667C127.221 153.74 130.743 152.325 136.316 153.603C141.122 154.739 145.684 156.543 149.826 158.946L151.876 160.042C151.876 159.402 151.876 159.128 151.876 158.489C151.876 156.343 151.876 155.293 151.876 153.192V152.599C151.614 152.505 151.367 152.382 151.14 152.234C146.821 150.033 142.191 148.33 137.367 147.165L136.841 146.891Z" fill="#C800FF"/>
<path d="M168.226 144.106C167.008 150.582 166.814 157.172 167.648 163.694C175.008 160.087 178.845 158.261 187.309 153.649C193.111 153.54 198.902 153.159 204.657 152.507C197.56 156.526 194.143 158.215 187.992 161.366C195.352 167.667 199.4 170.863 207.391 177.575C201.398 177.575 198.507 177.575 192.882 177.575C187.624 172.553 184.838 170.087 179.897 165.292L168.226 170.68C168.541 172.872 168.752 173.968 169.12 176.251C165.019 175.84 162.969 175.612 158.974 175.11C156.494 164.576 156.351 153.727 158.553 143.147C162.18 143.558 163.81 143.695 168.016 143.877L168.226 144.106ZM169.645 143.01H168.173C164.283 143.01 162.391 142.69 158.711 142.325H157.396C157.396 142.69 157.396 142.873 157.396 143.238C155.167 153.721 155.274 164.479 157.712 174.927C157.712 175.338 157.712 175.566 157.712 175.931H159.184C163.127 176.434 165.177 176.662 169.33 177.027H170.854C170.854 176.616 170.854 176.434 170.854 176.023C170.434 173.968 170.276 172.918 170.013 170.909L179.581 166.343C183.997 171.228 186.415 173.511 191.304 178.078L191.883 178.625H192.882C198.454 178.625 201.345 178.625 207.338 178.625H210.545L208.705 177.027C201.083 170.68 197.192 167.621 190.095 161.64C195.983 158.626 199.085 157.073 205.866 153.284L210.072 150.955L204.815 151.549C199.061 152.212 193.27 152.609 187.467 152.736H186.836L186.31 152.964C178.425 157.119 175.796 158.626 169.067 161.777C168.446 155.914 168.693 150.006 169.803 144.197C169.778 143.893 169.778 143.588 169.803 143.284L169.645 143.01Z" fill="#C800FF"/>
<path d="M228.84 138.079C228.419 147.211 228.209 151.503 227.893 160.407C222.636 161.183 219.745 161.457 214.646 161.959C213.872 155.009 213.521 148.029 213.594 141.047C219.429 140.088 222.479 139.494 228.84 138.079ZM221.112 169.448C225.528 169.037 229.05 170.407 229.102 172.872C229.155 175.338 225.896 177.438 221.48 177.712C217.064 177.986 213.962 176.434 213.804 174.059C213.647 171.685 216.801 169.859 221.112 169.493V169.448ZM231.31 136.435L229.102 136.937C222.741 138.353 219.745 138.946 213.857 139.951L211.912 140.27V141.549C211.813 148.501 212.164 155.452 212.963 162.37V163.42H214.856C220.113 162.918 222.584 162.644 228.051 161.914L230.101 161.594V160.498C230.469 151.366 230.68 146.8 231.1 137.987V136.8L231.31 136.435ZM221.322 168.398C216.065 168.9 211.964 171.32 212.227 174.196C212.49 177.073 216.486 179.173 221.795 178.763C227.105 178.352 231.31 175.795 231.31 172.644C231.31 169.493 226.842 167.85 221.269 168.352L221.322 168.398Z" fill="#C800FF"/>
<path d="M6.15104 220.131V213.1C11.0958 214.515 16.3045 215.104 21.5016 214.835C29.1244 214.378 32.3837 213.237 32.3312 210.269C32.3312 203.374 4.73163 213.784 4.88935 201.136C4.88935 194.653 12.8801 189.036 23.6045 186.479C28.4379 185.475 33.4173 185.105 38.3768 185.383C38.3768 188.488 38.3768 189.949 38.3768 193.237C33.7394 192.694 29.0298 192.833 24.4456 193.648C17.296 195.063 13.9315 196.936 13.9315 199.082C13.9315 204.972 40.2167 192.963 41.0053 209.584C41.3733 218.442 34.3288 222.46 23.2365 222.46C17.4499 222.324 11.7075 221.541 6.15104 220.131Z" fill="#C800FF"/>
<path d="M46.104 183.329C49.6262 182.781 51.3611 182.552 54.8307 182.187C54.305 188.032 54.0947 191.319 53.937 197.438H54.4101C55.1461 187.164 59.6672 180.406 67.5528 179.904C75.4384 179.402 78.54 185.109 81.3263 202.735C82.4302 209.721 83.1137 213.419 84.9011 220.999H75.9641C74.5447 213.739 73.9664 210.314 73.0727 203.693C71.3904 191.274 69.235 187.484 63.8728 187.895C58.5106 188.306 53.937 196.342 55.0936 209.629C55.4616 214.195 55.7244 216.387 56.3027 221.09L47.3131 221.182C45.9533 208.601 45.5494 195.956 46.104 183.329Z" fill="#C800FF"/>
<path d="M88.1077 211.09C85.4792 198.716 102.249 198.853 111.449 198.625C111.279 196.419 110.166 194.348 108.327 192.819C106.489 191.289 104.058 190.412 101.513 190.36C96.9884 190.032 92.4602 190.959 88.5809 193.009C88.0552 189.63 87.8975 188.032 87.582 184.835C92.2976 183.072 97.4722 182.441 102.565 183.009C112.395 184.379 117.179 190.589 120.018 200.269C122.052 207.346 124.508 214.326 127.378 221.182H118.546C117.232 215.657 116.706 213.008 115.76 207.986H115.234C116.233 217.437 112.132 222.506 102.459 222.506C98.8289 222.594 95.301 221.453 92.6225 219.322C89.9439 217.192 88.3248 214.239 88.1077 211.09ZM112.711 203.785C106.034 204.104 95.2573 203.785 96.6767 209.538C97.0311 210.877 97.9135 212.067 99.1711 212.901C100.429 213.735 101.983 214.16 103.563 214.104C105.06 214.246 106.574 214.051 107.96 213.539C109.345 213.026 110.555 212.212 111.474 211.176C112.392 210.139 112.989 208.915 113.205 207.621C113.422 206.326 113.252 205.005 112.711 203.785Z" fill="#C800FF"/>
<path d="M125.749 202.871C122.069 191.73 128.22 186.662 139.733 188.032C145.434 188.856 150.94 190.491 156.029 192.872C156.871 195.566 157.344 196.936 158.395 199.721C153.212 196.99 147.46 195.174 141.467 194.378C134.791 193.739 131.742 197.209 134.055 203.511C135.143 206.584 137.288 209.294 140.201 211.277C143.114 213.26 146.656 214.422 150.352 214.606C152.591 214.87 154.87 214.726 157.042 214.183C159.214 213.641 161.232 212.712 162.969 211.456C164.283 214.424 164.966 216.022 166.491 219.035C162.829 221.481 158.275 222.697 153.664 222.46C147.27 222.046 141.174 219.949 136.186 216.45C131.199 212.95 127.558 208.214 125.749 202.871Z" fill="#C800FF"/>
<path d="M160.288 181.365C164.283 181.867 166.281 182.096 170.434 182.461C172.093 190.256 174.359 197.945 177.215 205.474C182.014 201.188 187.297 197.333 192.986 193.967C199.137 194.241 202.291 194.333 208.758 194.378C202.817 197.757 200.136 199.355 195.194 202.643C203.238 210.131 207.286 213.967 214.278 221.501H203.133C197.876 215.748 194.721 212.871 188.939 207.163C185.953 209.339 183.175 211.721 180.632 214.287C181.789 217.072 182.42 218.487 183.734 221.41H174.692C168.019 208.625 163.181 195.176 160.288 181.365Z" fill="#C800FF"/>
<path d="M218.693 218.122C218.325 215.611 220.533 213.876 223.95 213.876C224.662 213.8 225.384 213.851 226.071 214.026C226.759 214.202 227.398 214.497 227.95 214.895C228.501 215.293 228.953 215.784 229.278 216.339C229.603 216.894 229.793 217.501 229.838 218.122C229.873 218.718 229.758 219.313 229.502 219.866C229.246 220.419 228.854 220.917 228.354 221.325C227.853 221.734 227.257 222.042 226.605 222.231C225.954 222.419 225.263 222.481 224.581 222.414C223.165 222.45 221.783 222.032 220.697 221.241C219.612 220.45 218.899 219.34 218.693 218.122ZM215.224 183.877C220.481 183.877 223.372 183.603 229.102 183.192C229.102 192.324 228.734 196.57 228.629 205.428C224.423 205.428 222.321 205.428 218.115 205.428C216.853 196.707 216.275 192.415 215.224 183.877Z" fill="#C800FF"/>
</g>
<defs>
<clipPath id="clip0">
<rect width="231.1" height="222.46" fill="white"/>
</clipPath>
</defs>
</svg>
