<svg width="232" height="223" viewBox="0 0 232 223" fill="none" xmlns="http://www.w3.org/2000/svg">
<g clip-path="url(#clip0)">
<path d="M23.4995 11.3696C29.5118 11.6327 35.4895 12.3199 41.3735 13.4243C42.2147 15.9357 42.5826 17.2142 43.3712 19.6342C37.6413 18.4483 31.7998 17.7147 25.9178 17.4425C17.2437 17.4425 13.4586 18.1731 13.6689 20.0452C14.2471 25.0679 46.7883 20.5474 49.5745 31.9627C51.0991 37.8986 42.7929 39.4967 28.5463 39.4967C20.7549 39.3455 12.9796 38.812 5.25757 37.8986C5.25757 35.3416 5.25757 34.0631 5.25757 31.4604C12.1451 32.8981 19.2021 33.6337 26.2858 33.6521C36.2742 33.6521 40.217 33.3325 39.7438 31.1864C38.0616 26.3007 3.04961 31.9627 2.73419 20.2735C2.73419 14.1549 11.1455 11.1413 23.7624 11.3696H23.4995ZM23.7624 10.2281C9.3055 9.95409 0.999361 13.6983 1.1045 20.2735C1.1045 28.4924 16.1922 28.7207 26.6012 29.4056C30.912 29.6796 37.1153 30.2275 37.4833 31.1864C37.8513 32.1453 34.2239 32.6932 25.4972 32.6476C18.6746 32.5733 11.8841 31.8226 5.25757 30.4102L3.04961 29.9079V31.5517C3.04961 34.1544 3.04961 35.4329 3.04961 37.9899V38.8575H4.41644C12.3336 39.7263 20.3035 40.1837 28.2835 40.2273C51.1516 40.3186 52.0453 35.4329 51.1516 31.9627C49.154 24.109 35.7485 22.4652 25.8126 21.6889C21.9224 21.415 15.2985 21.004 15.2985 20.0452C15.2985 19.0863 15.7717 18.2644 26.2858 18.5383C32.0967 18.8255 37.8669 19.559 43.5289 20.7301L45.4215 21.141C45.4215 20.5474 45.4215 20.2735 45.0009 19.7255C44.2123 17.2598 43.8443 16.027 42.9506 13.47C42.9506 13.1047 42.9506 12.922 42.6352 12.5111L41.4261 12.2828C35.489 11.1773 29.4589 10.4902 23.3944 10.2281H23.7624Z" fill="#C800FF"/>
<path d="M76.0179 13.6983C85.3755 14.4288 92.2622 20.5017 95.837 33.2411C97.0433 37.2225 97.9737 41.2632 98.6232 45.3413L90.0542 43.9258C89.3877 40.2976 88.5104 36.701 87.4257 33.1498C84.9023 24.6112 80.539 20.5017 74.0202 19.9538C67.5015 19.4059 64.505 25.2505 66.8706 33.6521C67.6592 36.5287 67.9746 37.9442 68.6055 40.7295C64.5575 40.2273 62.5073 40.0446 58.0914 39.6793C56.3014 30.6775 53.7179 21.8084 50.3635 13.1503L60.8776 13.7439C62.3496 18.6296 62.9278 20.9584 63.8741 25.4331H64.4524C63.4535 18.2644 66.0821 13.059 76.0179 13.6983ZM75.4396 12.3741C68.8683 11.9632 64.9255 14.0636 63.5061 17.9904C63.0856 16.3923 62.8227 15.5704 62.3496 13.9266L61.929 12.5567H60.4045L49.8903 12.0545H48.4709C48.4709 12.5111 48.4709 12.7394 48.9441 13.2417C52.3478 21.9281 54.984 30.8273 56.8297 39.862C56.8297 40.2729 56.8297 40.5012 56.8297 40.9122H58.3542C62.5598 41.3231 64.6101 41.5058 68.6055 41.9624H70.0774C70.0982 41.6125 70.0982 41.262 70.0774 40.9122C69.4466 38.1725 69.1312 36.757 68.29 33.8347C66.1346 25.8897 68.29 20.5017 74.4934 21.0497C79.3298 21.5063 83.4303 24.0176 86.0063 32.8302C87.3206 37.3963 87.8463 39.451 88.6874 43.5605C88.658 43.9253 88.658 44.2915 88.6874 44.6564H90.0542L98.5707 46.0719L99.7798 46.3002C99.7798 45.8436 99.7798 45.6152 99.7798 45.1586C99.1189 41.0706 98.2063 37.0161 97.0461 33.0128C93.4713 19.9995 86.0589 12.785 75.4922 12.0088L75.4396 12.3741Z" fill="#C800FF"/>
<path d="M115.183 15.89C125.697 16.4379 131.848 24.0633 133.319 33.7434C134.333 39.7961 134.947 45.8942 135.159 52.0078L127.747 50.6836C128.062 46.8024 128.115 44.7933 128.168 40.5012H127.642C127.011 48.3549 122.069 50.5923 113.816 48.9941C111.029 48.7316 108.41 47.7049 106.34 46.0629C104.27 44.4209 102.856 42.249 102.303 39.862C100.515 31.3234 116.182 31.9626 125.171 31.9626C125.036 29.738 123.915 27.6451 122.043 26.1217C120.172 24.5984 117.695 23.7626 115.13 23.7893C110.669 23.5566 106.218 24.3771 102.25 26.1637C101.357 23.2414 100.831 21.5976 99.7269 18.6753C104.54 16.6663 109.846 15.7101 115.183 15.89ZM126.17 36.5287C119.809 36.5287 109.768 35.2959 110.399 39.588C110.786 40.685 111.545 41.6552 112.576 42.372C113.608 43.0888 114.864 43.5189 116.182 43.6062C121.439 44.5194 126.696 42.6016 125.96 36.5287H126.17ZM114.657 14.3375C109.202 14.2172 103.794 15.235 98.8858 17.3055L98.2024 17.6251L98.5704 18.584C99.6744 21.6433 100.147 23.1501 101.094 26.0724C101.094 26.8943 101.462 27.2596 101.672 28.0814L103.091 27.3965C106.979 25.7043 111.317 24.9475 115.656 25.2048C120.913 25.6614 122.858 27.4879 123.804 30.5015C113.921 30.5015 99.3064 30.5015 101.304 39.6337C101.83 42.3456 103.345 44.839 105.626 46.7462C107.907 48.6535 110.834 49.8737 113.974 50.227C120.177 51.4142 124.488 50.501 126.853 47.0764C126.853 48.4006 126.853 49.0855 126.853 50.364C126.881 50.8355 126.881 51.3079 126.853 51.7795H128.168L135.527 53.1493H136.579V51.8708C136.403 45.7571 135.806 39.6581 134.791 33.6064C133.057 22.0999 125.539 14.6115 114.972 14.1092L114.657 14.3375ZM115.971 42.5103C114.079 42.1907 111.818 41.3231 111.503 39.9076C111.03 37.2593 119.073 37.7159 123.857 37.9442H124.803C124.803 41.9167 120.387 43.1496 115.971 42.5103Z" fill="#C800FF"/>
<path d="M154.557 17.7164C159.49 17.7571 164.307 19.0248 168.436 21.3693C168.751 25.1592 168.857 26.9856 169.067 30.5015C165.163 27.9029 160.42 26.4337 155.504 26.3007C148.88 25.9811 145.568 30.8668 146.199 37.168C146.037 39.5658 146.773 41.9447 148.295 43.95C149.817 45.9554 152.044 47.4798 154.645 48.2961C157.245 49.1124 160.08 49.1768 162.727 48.4798C165.373 47.7827 167.689 46.3616 169.33 44.4281C169.33 47.67 169.33 49.2681 169.067 52.3274C167.489 53.706 165.572 54.7553 163.459 55.396C161.346 56.0368 159.093 56.2521 156.871 56.026C146.777 54.9301 139.785 47.396 138.418 36.3461C137.051 25.2962 142.729 17.2142 154.557 17.6251V17.7164ZM154.557 15.89C141.941 15.616 135.737 24.5199 137.262 36.5287C138.786 48.5376 145.936 56.3912 156.818 57.6241C159.114 57.8549 161.44 57.6341 163.624 56.9781C165.808 56.322 167.794 55.2476 169.435 53.8342L170.118 53.4233C170.118 53.058 170.118 52.8754 170.118 52.5101C170.118 49.4051 170.118 47.944 170.381 44.6107V41.7797C169.698 42.419 169.382 42.7386 168.646 43.3322C167.346 44.8315 165.623 46.0141 163.643 46.766C161.663 47.5179 159.494 47.8135 157.344 47.6243C154.483 47.3182 151.856 46.095 149.979 44.1946C148.103 42.2941 147.11 39.8533 147.198 37.3506C146.672 31.506 149.721 27.7162 155.504 28.2185C160.195 28.2407 164.759 29.5512 168.541 31.9627L170.329 33.1042C170.329 32.054 170.329 31.5517 170.329 30.4558C170.329 26.8486 170.013 25.0222 169.75 21.3237C169.75 20.9127 169.75 20.6844 169.75 20.2735L169.014 19.8625C164.705 17.3953 159.666 16.0633 154.505 16.027L154.557 15.89Z" fill="#C800FF"/>
<path d="M181.736 1.73511C183.003 12.7338 183.53 23.7873 183.313 34.8393C189.253 27.3966 192.618 23.561 199.084 16.2096C203.973 15.753 206.444 15.4791 211.438 14.8398C206.444 19.7712 203.973 22.4195 199.084 27.7162C202.558 34.1838 206.472 40.4657 210.807 46.5285C206.391 47.8526 204.288 48.4462 200.293 49.4964C197.349 44.0171 195.93 41.0948 192.828 34.7936L183.208 45.2956C183.208 48.4462 182.945 49.8617 182.682 53.058C179.58 53.5603 178.003 53.7886 174.954 54.1539C176.375 36.6805 175.67 19.1257 172.851 1.78078H181.736V1.73511ZM182.892 0H171.327C171.327 0.730575 171.327 1.09586 171.327 1.78078C174.228 19.1497 174.951 36.7408 173.482 54.2452C173.482 54.7931 173.482 55.0671 173.482 55.615H174.586C177.635 55.2497 179.212 55.0671 182.314 54.5648H183.47C183.47 54.0169 183.47 53.7429 183.47 53.195C183.996 50.227 183.996 48.6745 183.996 45.6609C187.203 42.2364 188.833 40.5012 192.092 36.9397C194.931 42.6473 196.193 45.2956 198.874 50.3183L199.189 50.9119H199.872C204.078 49.8617 206.233 49.2681 210.387 47.8983L212.805 47.1677L211.964 45.6609C207.796 39.9469 204.039 34.0149 200.714 27.8988C205.287 23.0131 207.6 20.5474 212.279 15.9357L215.118 13.196L211.491 13.6983C206.233 14.2462 203.973 14.5202 199.031 14.9768H198.558L198.243 15.3421C192.618 21.7346 189.884 25.1135 184.522 31.643C184.522 20.4561 184.259 14.5658 183.05 1.8721C183.05 1.23284 183.05 0.867558 183.05 0.182644L182.892 0Z" fill="#C800FF"/>
<path d="M227.104 1.18718C227.104 10.5933 226.736 15.2964 226.368 24.6569C222.793 25.5701 221.111 26.0267 217.641 26.803C217.641 16.8945 217.641 11.8262 217.221 1.36983H227.104V1.18718ZM221.479 34.9306C224.528 34.0174 226.736 34.9306 226.736 37.5789C226.56 39.0076 225.932 40.3658 224.92 41.5025C223.908 42.6392 222.553 43.5097 221.006 44.0171C217.957 45.113 215.749 44.0171 215.749 41.1862C215.856 39.8188 216.406 38.5057 217.337 37.3987C218.267 36.2917 219.539 35.436 221.006 34.9306H221.479ZM228.471 0H215.906C215.906 0.547931 215.906 0.821897 215.906 1.41549C216.274 12.0088 216.327 17.1228 216.274 27.1226V28.4011L217.536 28.0815C221.006 27.2596 222.793 26.803 226.263 25.8441L227.577 25.4788V24.3373C227.945 15.2051 228.103 10.639 228.313 1.23284V0H228.471ZM221.531 33.6978C219.648 34.3031 218.003 35.3644 216.792 36.7563C215.58 38.1481 214.854 39.8121 214.697 41.5514C214.697 44.976 217.221 46.6198 221.111 45.2043C223.061 44.55 224.766 43.4406 226.037 41.9984C227.308 40.5562 228.095 38.8372 228.313 37.031C228.313 33.9261 225.369 32.4649 221.531 33.6978Z" fill="#C800FF"/>
<path d="M29.1766 54.0169C36.0976 53.9099 43.0148 54.3685 49.8369 55.3867C49.8369 57.4871 50.2049 58.5373 50.4151 60.6377C44.0016 59.6161 37.4815 59.1875 30.964 59.3592C20.7128 59.8158 15.7712 61.3683 15.8237 63.1491C15.8237 67.9891 54.9888 60.6834 53.8848 70.9114C53.3065 76.3907 44.6324 78.3998 29.3344 80.0436C22.6579 80.8655 12.7221 81.7787 4.36335 82.1897C4.36335 79.6327 4.36335 78.3541 4.36335 75.7515C12.1794 75.9342 20.0001 75.5984 27.7572 74.7469C38.6919 73.5141 42.7924 72.9205 42.9501 70.8658C43.3707 66.2997 2.15539 76.6647 2.05025 64.8842C2.10282 59.3592 13.9312 54.7931 29.1766 54.0169ZM29.1766 53.0123C11.8284 53.5603 0 59.0396 0 65.5691C0 73.7881 18.2945 71.231 29.8075 70.6831C34.5914 70.4091 41.4256 70.3635 41.3204 71.2767C41.2153 72.1899 37.4828 72.9662 27.8624 74.0164C20.3642 74.8105 12.8066 75.1006 5.25705 74.8839H2.3131V84.0161H3.83765C12.0912 83.5138 22.2899 82.5549 29.3344 81.6874C52.9911 78.7194 55.1465 74.61 55.6196 71.368C56.2505 63.9253 41.5833 63.2404 30.1229 63.4687C25.6544 63.4687 17.8214 64.0166 17.7688 63.1034C17.7163 62.1902 19.0831 61.0943 31.0692 60.5007C37.4546 60.2971 43.8475 60.6489 50.1523 61.5509L52.15 61.8706C52.15 61.3683 52.15 61.14 52.15 60.6834C52.15 58.583 51.8345 57.5328 51.5717 55.4324C51.5717 55.1127 51.5717 54.9758 51.5717 54.6105H50.2574C43.3151 53.5634 36.2743 53.0895 29.2292 53.195L29.1766 53.0123Z" fill="#C800FF"/>
<path d="M86.7405 58.172C95.8352 59.9071 99.7779 64.7472 98.4637 74.1533C98.0428 77.2243 97.4285 80.2729 96.6237 83.2855C93.6272 82.4636 92.1026 82.0983 88.8433 81.4134C89.5793 78.0802 89.9998 76.3907 90.4204 72.9662C91.1564 66.528 88.633 63.286 82.3771 62.2358C76.1212 61.1856 71.6001 65.2038 70.5487 72.5552C70.2333 75.0209 70.023 76.2537 69.5499 78.6738C65.8174 78.3542 63.8723 78.2172 59.8769 78.1259C61.149 70.5558 61.149 62.8654 59.8769 55.2954C64.5031 55.6607 66.7111 55.889 71.0744 56.4369C71.0744 60.1354 70.7064 61.9619 70.2859 65.5691H70.8642C72.0733 59.8615 76.9098 56.4369 86.6353 58.0807L86.7405 58.172ZM86.6353 57.1218C84.196 56.4196 81.5852 56.2947 79.0719 56.7602C76.5585 57.2257 74.2335 58.2647 72.3361 59.7702C72.3361 58.583 72.3361 57.9437 72.3361 56.7109C72.3361 56.2999 72.3361 56.0716 72.3361 55.6607H70.759C66.3957 55.1127 64.1351 54.8844 59.5615 54.5191H57.9844C57.9844 54.9301 57.9844 55.1127 57.9844 55.5237C59.2246 63.0957 59.2246 70.7821 57.9844 78.3542C57.9844 78.7194 57.9844 78.9021 57.9844 79.313H59.4564C63.5043 79.313 65.3968 79.5413 69.1293 79.861H70.4962C70.5216 79.557 70.5216 79.2518 70.4962 78.9478C70.9693 76.4821 71.1796 75.2949 71.5476 72.8292C72.4938 66.0257 75.8584 62.2815 82.0617 63.286C86.6879 64.0623 89.5793 66.1627 88.8958 72.8748C88.554 75.7142 88.0275 78.5345 87.3187 81.3221C87.3486 81.6107 87.3486 81.9011 87.3187 82.1897L88.5279 82.418C91.7872 83.1029 93.3118 83.4682 96.3083 84.2444L97.4123 84.564C97.4123 84.1988 97.4123 84.0618 97.4123 83.6965C98.2491 80.6896 98.8637 77.6393 99.2522 74.5643C100.619 64.9298 96.7289 59.2679 86.3725 57.3045L86.6353 57.1218Z" fill="#C800FF"/>
<path d="M121.805 66.254C123.634 66.6287 125.358 67.315 126.879 68.2729C128.4 69.2309 129.687 70.4415 130.665 71.8347C131.643 73.2278 132.293 74.7757 132.577 76.3886C132.861 78.0015 132.773 79.6474 132.32 81.2308C131.619 85.5299 130.53 89.7743 129.06 93.9245L122.594 91.7328C124.013 89.0845 124.697 87.7146 125.959 84.8837H125.538C122.594 89.9977 117.337 90.7282 109.767 88.2626C106.139 87.0754 100.777 84.7467 101.881 79.8609C103.196 73.6511 117.652 77.03 125.485 78.6738C126.011 74.8839 123.961 72.8748 119.019 71.4593C114.993 70.4476 110.769 70.1678 106.613 70.6374C106.613 68.537 106.875 67.4868 106.928 65.2951C111.766 64.9354 116.64 65.3061 121.332 66.391L121.805 66.254ZM124.802 82.0527C119.23 80.8198 110.345 78.1715 109.609 81.2308C109.241 82.6919 110.871 84.1074 113.71 85.0206C118.546 86.6188 124.224 86.3905 124.802 82.0527ZM121.385 65.3408C116.556 64.2207 111.534 63.8649 106.56 64.2906H105.824V64.9755C105.824 67.1216 105.824 68.2174 105.509 70.2722C105.509 70.8658 105.509 71.1397 105.509 71.7333H107.086C111.09 71.3183 115.15 71.6135 119.019 72.6009C123.54 73.8794 124.644 75.4318 124.644 77.5779C115.97 75.7515 102.302 73.0118 100.882 79.6783C100.252 82.6463 101.356 86.4818 109.609 89.2671C111.628 90.2142 113.886 90.7102 116.18 90.7102C118.475 90.7102 120.733 90.2142 122.752 89.2671L121.543 91.5501C121.407 91.8628 121.249 92.1678 121.07 92.4634L122.226 92.8743L128.64 95.066L129.638 95.3857L129.901 94.5181C131.389 90.3538 132.496 86.0941 133.213 81.7787C134.114 78.2689 133.389 74.5925 131.196 71.5427C129.002 68.493 125.516 66.3146 121.49 65.4778L121.385 65.3408ZM114.393 84.0161C112.711 83.4682 110.871 82.4636 111.134 81.4134C111.554 79.5413 118.862 81.4134 123.12 82.418L123.961 82.6463C122.647 85.3403 118.283 85.2946 114.393 84.0161Z" fill="#C800FF"/>
<path d="M154.61 73.4684C158.53 73.852 162.312 74.9572 165.702 76.7103C165.229 79.45 165.019 80.7742 164.44 83.3768C161.266 81.1874 157.47 79.7833 153.453 79.313C152.28 79.0438 151.053 78.9982 149.858 79.1795C148.662 79.3607 147.526 79.7645 146.527 80.3631C145.529 80.9618 144.691 81.741 144.071 82.6474C143.452 83.5538 143.066 84.5659 142.939 85.6142C142.664 86.635 142.64 87.6946 142.866 88.7242C143.093 89.7539 143.566 90.7307 144.255 91.5916C144.944 92.4524 145.833 93.178 146.865 93.7215C147.897 94.2649 149.049 94.6141 150.246 94.7464C154.298 95.612 158.579 95.0715 162.18 93.2396C161.602 95.5226 161.339 96.6185 160.76 98.7646C156.882 100.277 152.532 100.615 148.406 99.7235C146.378 99.4119 144.444 98.7428 142.725 97.7574C141.005 96.772 139.536 95.4912 138.408 93.9939C137.28 92.4966 136.517 90.8146 136.167 89.0514C135.816 87.2883 135.884 85.4814 136.368 83.7421C136.603 81.9435 137.29 80.2116 138.38 78.6686C139.47 77.1256 140.936 75.8092 142.676 74.8121C144.416 73.815 146.386 73.1615 148.448 72.8978C150.51 72.6341 152.613 72.7665 154.61 73.2858V73.4684ZM154.61 72.1443C152.47 71.6227 150.225 71.511 148.031 71.8168C145.836 72.1227 143.744 72.8387 141.9 73.9155C140.055 74.9923 138.502 76.4041 137.347 78.0535C136.192 79.7028 135.463 81.5503 135.211 83.4682C134.687 85.3238 134.604 87.2527 134.967 89.1371C135.33 91.0215 136.131 92.822 137.322 94.4286C138.512 96.0352 140.067 97.4142 141.892 98.4816C143.716 99.5489 145.772 100.282 147.933 100.637C152.229 101.58 156.765 101.242 160.813 99.6778H161.496V99.0385C162.075 96.8468 162.338 95.7509 162.916 93.4679L163.336 91.6415L161.444 92.5547C158.048 94.2778 154.013 94.7854 150.194 93.9702C149.113 93.8715 148.069 93.5746 147.13 93.0991C146.191 92.6237 145.38 91.9805 144.748 91.2122C144.117 90.4438 143.681 89.5679 143.469 88.6422C143.257 87.7165 143.273 86.7622 143.517 85.8425C143.645 84.9204 144 84.0331 144.559 83.2415C145.119 82.4499 145.868 81.7727 146.757 81.2566C147.646 80.7404 148.653 80.3973 149.709 80.251C150.765 80.1047 151.845 80.1586 152.875 80.4089C156.717 80.8903 160.344 82.245 163.389 84.3357L164.756 85.2946C164.756 84.5184 165.019 84.1531 165.176 83.3768C165.702 80.7285 165.965 79.4043 166.438 76.6647V75.8885L165.86 75.6145C162.307 73.8371 158.369 72.7177 154.294 72.3269L154.61 72.1443Z" fill="#C800FF"/>
<path d="M181 61.277C179.791 72.1899 178.95 77.3039 177.005 87.0297C183.358 81.8077 189.36 76.2737 194.984 70.4548C199.873 69.222 202.449 68.4457 207.811 66.6649C202.133 72.3269 199.242 75.1122 193.67 80.3632C196.669 85.6366 200.688 90.4242 205.551 94.5181C201.557 95.8052 197.485 96.9027 193.354 97.8057C190.466 94.3943 188.082 90.6821 186.257 86.7557C182.879 89.6893 179.259 92.4057 175.428 94.8834C174.954 97.1664 174.692 98.2623 174.218 100.5C170.907 100.5 169.277 100.774 166.175 100.774C169.763 88.1281 172.207 75.2581 173.482 62.2815C176.479 61.9619 178.004 61.7792 181.158 61.277H181ZM182.419 59.7701H181.263C178.161 60.2724 176.637 60.4551 173.588 60.7747H172.484C172.484 61.277 172.484 61.5509 172.484 62.0989C171.272 75.0311 168.863 87.8576 165.281 100.454C165.281 100.819 165.281 101.002 165.281 101.413H166.385C169.087 101.471 171.79 101.395 174.481 101.185H175.69V100.18C176.111 98.1253 176.374 97.1208 176.794 95.0204C179.955 92.9687 182.974 90.7579 185.837 88.3995C187.531 91.871 189.702 95.1519 192.303 98.171L192.618 98.5819H193.459C198.138 97.5317 200.556 96.8925 205.708 95.34L208.494 94.4724L207.18 93.2853C202.496 89.4324 198.587 84.9258 195.615 79.9523C200.872 75.1122 203.5 72.5552 208.862 67.2129L211.859 63.9253L207.969 65.2951C202.712 67.0759 200.031 67.8065 195.142 69.085H194.668L194.248 69.4959C187.939 75.7971 184.838 78.6281 178.477 84.1074C180.159 75.2492 180.895 70.6374 181.946 60.866C181.946 60.3637 181.946 60.0898 181.946 59.5418L182.419 59.7701Z" fill="#C800FF"/>
<path d="M225.633 48.6289C225.159 57.7611 224.844 62.3272 224.213 71.779C219.955 73.6967 217.852 74.5186 213.699 76.0711C214.172 66.9389 214.382 62.3728 214.75 52.647C218.904 51.1859 221.006 50.4097 225.265 48.6289H225.633ZM217.852 82.6919C221.479 81.2308 224.423 81.6417 224.371 84.0618C224.007 85.6316 223.174 87.0908 221.957 88.2929C220.739 89.4951 219.178 90.3979 217.432 90.9109C213.752 92.2807 211.123 91.5502 211.281 89.1758C211.675 87.708 212.481 86.3477 213.628 85.2164C214.775 84.085 216.226 83.2177 217.852 82.6919ZM226.789 46.8481L225.317 47.4417C220.901 49.1768 218.798 49.9531 214.803 51.4142L213.436 51.8708V53.1493C213.016 62.7381 212.753 67.4412 212.227 76.6647V77.8519L213.699 77.2583C217.694 75.7058 219.745 74.8839 224.213 72.9662L225.79 72.2356V71.0941C226.369 61.9619 226.631 57.3958 227.052 48.2636V47.0308L226.789 46.8481ZM217.905 81.5961C215.981 82.3265 214.287 83.445 212.961 84.8585C211.635 86.2721 210.717 87.94 210.282 89.7237C210.282 92.646 213.173 93.7875 217.905 92.0068C220.103 91.3463 222.065 90.1984 223.596 88.6766C225.127 87.1549 226.173 85.3123 226.631 83.3312C226.631 80.3176 223.004 79.724 218.43 81.5961H217.905Z" fill="#C800FF"/>
<path d="M7.35977 125.887C7.35977 123.33 7.35977 122.052 7.35977 119.495C14.1415 118.786 20.842 117.579 27.3891 115.887C36.7993 113.513 40.4266 112.463 40.742 110.454C41.478 105.888 5.41466 120.636 5.62494 108.993C5.62494 102.965 17.3482 96.7555 31.6473 94.4724C37.8669 93.5973 44.1806 93.3369 50.4676 93.6962C50.0996 95.7966 49.8893 96.8468 49.5213 98.9016C43.7523 98.5712 37.9583 98.8781 32.2782 99.8148C22.9206 101.413 18.2419 103.605 18.1367 105.385C17.8213 110.271 52.255 98.9929 50.2047 109.175C49.1008 114.563 41.478 117.531 28.4405 121.001C22.9206 122.554 14.4568 124.517 7.35977 125.887Z" fill="#C800FF"/>
<path d="M59.9839 92.8287C64.1369 92.8287 66.1346 92.8287 69.9723 93.1483C68.6054 96.6642 67.8694 98.4449 66.3975 102.28H66.9232C68.0522 99.2666 70.4516 96.7351 73.6399 95.1938C76.8283 93.6525 80.5698 93.2154 84.1137 93.9702C91.9993 95.2943 94.0496 99.5865 90.7376 108.536C89.4234 112.143 88.7925 113.924 87.4782 117.668C85.1924 117.032 82.8554 116.543 80.4864 116.207C81.6429 112.737 82.2738 111.002 83.4303 107.623C85.5857 101.276 84.2714 98.4906 78.7515 97.897C73.2316 97.3034 67.0283 101.641 65.0832 108.947C64.4524 111.413 64.0844 112.645 63.4535 115.157C60.1941 115.157 58.5119 115.157 55.0422 115.568C56.9348 106.253 58.0913 101.778 59.9839 92.8287Z" fill="#C800FF"/>
<path d="M93.2595 113.878C95.5201 107.76 109.031 111.55 116.653 113.878C117.81 110.728 116.285 108.856 111.712 107.212C107.955 105.905 103.929 105.283 99.8834 105.385L101.618 100.819C106.336 100.926 110.997 101.745 115.392 103.239C116.987 103.579 118.477 104.217 119.758 105.11C121.039 106.003 122.079 107.129 122.806 108.408C123.532 109.688 123.927 111.09 123.963 112.516C123.999 113.942 123.676 115.358 123.014 116.664C121.28 121.23 120.386 123.33 118.809 127.896L112.29 125.568L116.075 119.266H115.655C112.237 123.832 107.033 124.517 99.8834 122.234C96.4663 120.91 91.4721 118.718 93.2595 113.878ZM115.392 116.527C110.135 114.974 101.618 112.235 100.462 115.157C99.936 116.527 101.355 117.897 104.036 118.81C108.61 120.408 113.92 120.225 115.655 116.527H115.392Z" fill="#C800FF"/>
<path d="M126.169 119.312C128.64 112.919 136.105 110.91 145.935 113.102C149.999 113.875 153.924 115.119 157.606 116.801L156.029 121.915C152.352 119.91 148.32 118.445 144.095 117.577C138.47 116.253 134.159 117.577 132.793 121.458C131.426 125.339 134.212 128.946 140.363 130.59C144.721 131.746 149.397 131.617 153.663 130.225C153.137 132.234 152.875 133.193 152.401 135.156C147.918 136.274 143.164 136.274 138.68 135.156C128.902 132.417 123.961 125.659 126.169 119.312Z" fill="#C800FF"/>
<path d="M166.965 106.573C169.756 106.598 172.546 106.491 175.324 106.253C173.484 114.335 172.485 118.216 170.75 125.933C177.9 122.224 184.735 118.073 191.2 113.513C196.362 112.65 201.468 111.553 206.498 110.225C201.248 114.194 195.755 117.913 190.043 121.367C194.623 126.347 199.631 131.018 205.026 135.339C200.245 136.147 195.42 136.741 190.569 137.12C187.363 133.663 184.362 130.067 181.579 126.344C176.322 129.083 174.062 130.362 169.225 132.599L168.227 137.85C164.389 137.85 162.549 137.576 158.974 137.257C161.655 125.157 163.6 119.358 166.965 106.573Z" fill="#C800FF"/>
<path d="M212.174 130.91C212.174 128.581 215.591 126.344 219.849 125.248C224.108 124.152 227.682 124.974 227.682 127.394C227.682 129.814 224.213 132.462 219.587 133.467C214.96 134.471 212.069 133.284 212.174 130.91ZM214.75 97.76C220.007 96.0249 222.425 95.0661 227.945 92.92C227.525 102.052 227.262 106.299 226.789 115.203C221.532 116.755 219.113 117.44 214.382 118.627C214.487 110.271 214.592 106.116 214.75 97.76Z" fill="#C800FF"/>
<path d="M28.2822 135.613C33.4622 134.038 38.8845 133.145 44.3688 132.965C43.8957 135.522 43.6328 136.846 43.2122 139.448C38.2226 139.434 33.2653 140.144 28.5451 141.549C20.6069 144.015 16.6116 146.709 16.4538 148.718C15.9807 154.106 45.3151 139.083 43.5277 152.279C42.5288 159.311 35.7472 163.603 24.6549 166.982C18.8733 168.64 12.9727 169.967 6.99116 170.955C6.99116 168.261 6.99116 166.891 6.99116 164.197C12.6682 163.62 18.2453 162.455 23.6034 160.726C31.5942 158.169 34.7484 156.708 35.0638 154.197C35.7998 148.444 5.36147 165.338 5.72946 153.192C5.72946 146.937 15.8756 139.494 28.0719 135.522L28.2822 135.613ZM28.0719 134.471C14.4562 138.855 4.46777 147.439 4.31006 154.014C4.31006 162.37 17.1898 157.576 25.6011 155.43C29.1233 154.517 34.1701 153.466 34.0124 154.608C33.8547 155.749 30.9633 157.302 23.9189 159.585C18.7151 161.271 13.2963 162.405 7.77971 162.964L5.72946 163.238V164.927C5.72946 167.621 5.72946 168.945 5.72946 171.639V172.507H6.78087C12.8841 171.523 18.9073 170.196 24.8126 168.534C42.0031 163.329 44.4214 156.526 44.9996 152.325C46.2613 143.193 35.9575 144.608 27.3359 146.8C23.9714 147.667 18.0835 149.448 18.1887 148.398C18.2938 147.348 19.4504 145.932 28.7028 143.01C33.3247 141.636 38.1696 140.911 43.0545 140.864H44.5265L44.7894 139.403C45.2099 136.754 45.4728 135.476 45.9459 132.919C45.9459 132.508 45.9459 132.371 45.9459 132.006H44.7894C39.2008 132.21 33.6759 133.117 28.3874 134.7L28.0719 134.471Z" fill="#C800FF"/>
<path d="M73.5982 130.179C80.6426 130.956 82.43 135.156 80.6426 146.891C79.9066 151.457 79.5912 154.014 79.2232 159.174C76.8104 158.667 74.3443 158.377 71.8633 158.306C72.2839 153.512 72.5993 151.229 73.3353 146.846C74.7021 138.535 73.6507 135.567 68.7091 135.385C63.7675 135.202 58.195 141.229 56.6704 151.046C56.1447 154.334 55.9345 156.023 55.5665 159.448C52.5174 159.813 50.9928 160.042 47.8386 160.589C49.2054 148.033 50.6774 141.001 52.5174 131.138C55.4093 130.776 58.3232 130.563 61.2441 130.499C59.9298 134.563 59.0887 137.211 57.827 141.96H58.2476C60.7709 134.289 66.028 129.449 73.5982 130.225V130.179ZM73.5982 129.22C71.1318 128.936 68.6234 129.271 66.3691 130.186C64.1149 131.1 62.2088 132.555 60.8761 134.38C61.3492 132.828 61.6121 132.006 62.0852 130.636C62.1834 130.25 62.3062 129.869 62.4532 129.494H61.1915C58.2716 129.542 55.3576 129.74 52.4648 130.088H51.2557C51.2808 130.438 51.2808 130.788 51.2557 131.138C49.4683 141.047 47.9963 148.078 46.5769 160.635C46.5769 161.183 46.5769 161.411 46.5769 161.959H47.7335C50.8877 161.411 52.4122 161.183 55.4613 160.818H56.6179C56.6179 160.316 56.6179 160.042 56.6179 159.494C56.9859 156.069 57.2487 154.38 57.7219 151.092C59.0361 141.96 63.5572 136.526 68.236 136.663C71.8633 136.663 73.493 138.353 72.0736 146.983C71.3902 151.549 71.0748 153.695 70.6016 158.535C70.6016 159.037 70.6016 159.265 70.6016 159.768H71.653C74.1513 159.802 76.6374 160.078 79.0655 160.589H80.1169C80.1169 160.087 80.1169 159.813 80.1169 159.357C80.4323 154.197 80.7477 151.777 81.4312 147.074C83.2711 135.111 81.694 130.088 73.6507 129.175L73.5982 129.22Z" fill="#C800FF"/>
<path d="M103.775 136.983C107.313 137.851 110.351 139.834 112.296 142.545C114.24 145.256 114.951 148.498 114.289 151.64C113.942 156.399 113.942 161.173 114.289 165.932L106.613 164.379C107.087 160.818 107.402 159.083 108.085 155.795H107.612C105.72 161.868 100.936 164.105 93.1028 162.599C90.5309 162.401 88.1518 161.332 86.4796 159.623C84.8074 157.915 83.9762 155.703 84.1658 153.466C85.0069 145.202 99.0958 147.759 107.139 149.357C107.507 145.476 105.615 143.512 100.831 142.097C97.0086 141.03 92.9334 140.841 89.0023 141.549C89.4229 139.266 89.6331 138.124 90.1063 135.887C94.715 135.396 99.392 135.833 103.775 137.165V136.983ZM106.719 152.69C100.936 151.64 91.9988 149.585 91.6834 153.512C91.6834 155.384 93.3131 156.891 96.2045 157.53C101.199 158.626 106.298 157.53 106.719 152.69ZM104.037 136.252C99.5489 134.839 94.7388 134.37 90.0011 134.882H89.3177C89.293 135.11 89.293 135.339 89.3177 135.567C88.792 137.805 88.5817 138.901 88.1612 141.229C88.1612 141.868 88.1612 142.188 87.8457 142.873L89.3703 142.508C93.1533 141.736 97.1022 141.83 100.831 142.782C105.194 144.06 106.088 145.567 106.088 147.804C97.361 146.024 84.0081 143.923 83.0618 152.964C82.8797 154.24 82.9961 155.534 83.404 156.77C83.812 158.005 84.5031 159.156 85.4359 160.154C86.3688 161.152 87.524 161.976 88.8325 162.576C90.1409 163.177 91.5755 163.542 93.0502 163.649C95.2611 164.343 97.6568 164.462 99.9444 163.991C102.232 163.521 104.312 162.482 105.93 161C105.93 162.188 105.667 162.781 105.509 163.968C105.352 165.156 105.509 164.745 105.509 165.247L106.771 165.521L114.078 167.119L115.182 167.347C115.209 166.982 115.209 166.616 115.182 166.251C114.811 161.508 114.811 156.748 115.182 152.005C115.872 148.644 115.126 145.18 113.084 142.262C111.041 139.345 107.843 137.176 104.09 136.161L104.037 136.252ZM96.257 156.389C94.5748 155.978 92.5771 155.064 92.6822 153.74C92.6822 151.366 100.2 152.553 104.563 153.329H105.457C104.405 156.343 100.2 157.119 96.257 156.206V156.389Z" fill="#C800FF"/>
<path d="M136.946 147.211C141.586 148.357 146.038 150.014 150.194 152.142C150.194 154.243 150.194 155.247 150.194 157.393C145.876 154.915 141.141 153.036 136.158 151.823C129.849 150.361 125.644 152.097 125.644 156.389C125.644 160.681 128.956 164.653 136.158 166.16C140.782 167.399 145.728 167.399 150.352 166.16C150.352 168.352 150.667 169.448 150.983 171.685C146.117 172.619 141.076 172.619 136.21 171.685C131.404 171.146 126.967 169.16 123.673 166.073C120.378 162.987 118.434 158.994 118.179 154.791C118.599 147.074 125.801 144.791 136.789 147.439L136.946 147.211ZM136.789 146.572C125.223 143.741 117.443 146.252 116.969 154.471C117.204 158.984 119.252 163.282 122.758 166.619C126.264 169.956 131.005 172.12 136.158 172.735C141.215 173.694 146.451 173.694 151.508 172.735H152.349C152.349 172.461 152.349 172.324 152.349 172.096C152.034 169.859 151.876 168.763 151.719 166.571C151.719 165.886 151.719 165.521 151.719 164.836L149.668 165.43C145.281 166.583 140.598 166.583 136.21 165.43C129.639 164.06 126.485 160.863 126.642 156.937C126.8 153.01 130.375 151.686 135.947 152.964C140.733 154.11 145.276 155.913 149.405 158.306L151.456 159.402C151.456 158.763 151.456 158.443 151.456 157.804C151.456 155.704 151.456 154.654 151.456 152.599V152.005L150.72 151.64C146.436 149.443 141.841 147.739 137.051 146.572H136.789Z" fill="#C800FF"/>
<path d="M168.225 143.512C166.965 149.952 166.699 156.509 167.436 163.01C174.849 159.448 177.95 157.804 187.203 153.01C193.023 152.883 198.832 152.487 204.604 151.823C197.086 155.932 194.09 157.53 187.781 160.635C195.194 166.891 199.242 170.087 207.18 176.708C201.187 176.708 198.295 176.708 192.618 176.708C187.361 171.731 184.627 169.311 179.738 164.516C174.954 166.799 172.641 167.804 168.225 169.813C168.54 172.005 168.698 173.101 169.119 175.384C164.966 174.973 162.915 174.744 158.972 174.242C156.662 163.836 156.662 153.142 158.972 142.736C162.6 143.101 164.23 143.238 168.435 143.421L168.225 143.512ZM170.012 142.553H168.225C164.282 142.553 162.442 142.234 158.762 141.868H157.448C157.448 142.234 157.448 142.416 157.448 142.782C155.161 153.174 155.161 163.849 157.448 174.242C157.448 174.653 157.448 174.836 157.448 175.247H158.92C162.915 175.749 164.913 175.977 169.066 176.388H170.591C170.591 175.977 170.591 175.795 170.591 175.384C170.223 173.329 170.065 172.279 169.802 170.27C173.482 168.58 175.427 167.713 179.37 165.704C183.891 170.27 186.309 172.37 191.198 176.89L191.776 177.438H192.723C198.348 177.438 201.239 177.438 207.232 177.438H210.492L208.599 175.886C201.029 169.585 197.139 166.754 189.989 160.589C195.93 157.622 199.031 156.023 205.76 152.279L210.018 149.905L204.761 150.544C197.402 151.32 193.932 151.549 187.413 151.777H186.625L186.099 152.051C178.266 156.16 175.217 157.713 168.751 160.818C168.191 154.981 168.474 149.106 169.592 143.33C169.617 143.026 169.617 142.72 169.592 142.416L170.012 142.553Z" fill="#C800FF"/>
<path d="M228.839 137.394C228.419 146.115 228.156 150.681 227.893 159.813C222.373 160.589 219.745 160.909 214.593 161.457C213.804 153.147 213.594 148.992 213.594 140.59C219.429 139.631 222.478 139.037 228.839 137.622V137.394ZM221.059 168.854C225.528 168.443 229.05 169.767 229.102 172.187C229.155 174.607 225.896 176.753 221.427 177.027C216.959 177.301 213.909 175.795 213.752 173.42C213.594 171.046 216.748 169.265 221.059 168.854ZM231.047 135.978L228.839 136.48C222.531 137.896 219.482 138.49 213.647 139.494L211.649 139.859V140.955C211.56 147.861 211.893 154.765 212.648 161.64V162.69H214.54C219.797 162.188 222.321 161.868 227.788 161.137L229.838 160.818V159.722C230.206 150.59 230.417 146.343 230.837 137.348V136.161L231.047 135.978ZM221.006 167.941C215.749 168.489 211.649 170.863 211.859 173.74C212.069 176.616 216.17 178.671 221.48 178.306C226.789 177.941 231.31 174.881 231.31 171.776C231.31 168.671 226.842 167.21 221.217 167.53L221.006 167.941Z" fill="#C800FF"/>
<path d="M23.6565 185.383C28.4874 184.358 33.4601 183.928 38.4288 184.105C38.4288 187.21 38.4288 188.671 38.4288 191.913C33.7844 191.424 29.0794 191.594 24.4976 192.415C17.2954 193.876 13.9835 195.748 13.9835 197.94C13.9835 203.739 40.2688 191.639 40.9522 208.077C41.2676 216.798 34.2757 220.862 23.1833 220.999C17.4401 221.012 11.7177 220.398 6.1505 219.172V211.912C11.113 213.249 16.3177 213.775 21.5011 213.465C29.1238 212.917 32.3832 211.775 32.3306 208.899C32.3306 202.004 4.73109 212.689 4.88881 200.223C4.88881 193.785 12.8795 188.123 23.6565 185.52V185.383ZM23.6565 184.196C11.4601 187.21 3.57454 193.694 3.52197 200.406C3.52197 208.899 14.7195 207.985 22.7102 207.711C26.0222 207.711 31.0164 207.711 31.0689 208.853C31.1215 209.995 28.1775 211.501 21.5011 212.049C16.4868 212.416 11.438 211.951 6.62363 210.679L4.83624 210.314V219.903L5.78251 220.131C11.4024 221.503 17.1914 222.285 23.0256 222.46C40.3213 222.46 42.2139 213.328 42.0036 207.985C41.5305 196.525 31.4895 197.118 23.2885 197.849C20.2394 198.168 15.0349 198.762 15.0349 197.849C15.0349 196.936 15.876 195.611 24.2348 193.968C28.7357 193.193 33.3512 193.054 37.9031 193.557H39.3751C39.3751 192.826 39.3751 192.461 39.3751 191.73C39.3751 188.58 39.3751 187.164 39.3751 183.922C39.3498 183.527 39.3498 183.13 39.3751 182.735H38.7442C33.6827 182.56 28.6186 183.021 23.7091 184.105L23.6565 184.196Z" fill="#C800FF"/>
<path d="M67.5006 178.58C75.0708 178.215 78.4353 183.74 81.0638 201.045C82.1153 207.94 82.7987 211.547 84.4809 219.309C80.9061 219.309 79.2239 219.309 75.5965 219.309C74.2297 212.141 73.704 208.716 72.8628 202.232C71.2857 189.995 69.1829 186.251 63.8207 186.662C58.4585 187.073 53.8849 195.063 54.9363 208.168C55.3043 212.734 55.5146 214.835 56.0928 219.492L47.3136 219.446C46.0075 207.015 45.6387 194.523 46.2096 182.05L54.8837 180.909C54.358 186.708 54.1477 189.721 53.9374 195.977H54.358C55.1991 185.84 59.6151 179.219 67.5532 178.626L67.5006 178.58ZM67.5532 177.21C64.7987 177.487 62.1989 178.462 60.0772 180.013C57.9554 181.563 56.4053 183.622 55.6197 185.931C55.6197 183.922 55.6197 182.918 56.0403 180.954C56.0403 180.315 56.0403 179.995 56.0403 179.356H54.7786C51.3615 179.767 49.5215 179.995 46.1044 180.543H44.8953C44.8953 181.091 44.8953 181.365 44.8953 181.959C44.3376 194.385 44.6712 206.828 45.8942 219.218C45.8942 219.903 45.8942 220.223 45.8942 220.908H57.8277C57.8277 220.223 57.8277 219.857 57.8277 219.172C57.1968 214.606 56.9865 212.232 56.6185 207.803C55.5671 195.611 59.0894 188.306 64.2938 187.849C68.2892 187.575 70.4972 189.31 72.0743 201.958C72.8628 208.442 73.3885 211.867 74.7554 218.99C74.7554 219.72 74.7554 220.086 75.0708 220.862H86.6363C86.6363 220.131 86.6363 219.766 86.2158 219.035C84.4809 211.364 83.7975 207.757 82.6935 200.771C80.0124 183.237 76.4902 176.388 67.9738 176.845L67.5532 177.21Z" fill="#C800FF"/>
<path d="M102.407 181.867C112.185 183.237 116.917 189.402 119.65 198.945C121.595 205.923 123.946 212.812 126.695 219.583H117.968C116.707 214.15 116.181 211.547 115.34 206.616H114.761C115.655 215.748 111.555 220.862 101.934 220.816C98.349 220.893 94.8685 219.762 92.2224 217.66C89.5763 215.557 87.97 212.647 87.7401 209.538C85.2693 197.347 101.987 197.575 111.134 197.392C110.964 195.21 109.862 193.162 108.043 191.65C106.224 190.138 103.82 189.271 101.303 189.219C96.7898 188.863 92.2625 189.758 88.371 191.776C87.8979 188.443 87.7401 186.844 87.4247 183.694C92.1543 181.974 97.3291 181.391 102.407 182.004V181.867ZM112.343 202.506C105.667 202.78 94.9423 202.506 96.3091 208.077C96.6332 209.421 97.5004 210.62 98.7538 211.458C100.007 212.295 101.564 212.716 103.143 212.643C104.621 212.802 106.12 212.627 107.498 212.137C108.875 211.647 110.084 210.857 111.008 209.843C111.932 208.829 112.54 207.626 112.774 206.349C113.008 205.072 112.86 203.765 112.343 202.552V202.506ZM102.25 180.726C97.06 180.072 91.7638 180.624 86.899 182.324L86.2156 182.644C86.2156 183.055 86.2156 183.237 86.2156 183.648C86.531 186.799 86.6887 188.214 87.1093 191.776C87.1093 192.689 87.1093 193.146 87.4247 194.105L89.0018 193.283C92.7721 191.337 97.1399 190.444 101.514 190.726C106.771 191.274 108.453 193.009 109.452 196.068C99.4634 196.068 83.7974 196.068 86.4259 209.766C86.7001 213.265 88.4696 216.549 91.3873 218.974C94.305 221.398 98.1603 222.788 102.197 222.871C105.232 223.25 108.318 222.604 110.821 221.067C113.324 219.529 115.054 217.218 115.655 214.606C116.023 216.387 116.233 217.255 116.654 219.172C116.654 219.949 116.917 220.314 117.074 221.136H128.745C128.43 220.451 128.325 220.131 128.062 219.492C125.286 212.781 122.9 205.954 120.912 199.036C117.6 187.712 111.817 181.913 102.302 180.543L102.25 180.726ZM102.67 210.999C100.62 210.999 97.9914 210.132 97.4131 208.168C96.6246 204.652 105.141 204.333 110.24 204.15H111.292C111.352 205.128 111.161 206.104 110.731 207.01C110.301 207.915 109.644 208.725 108.808 209.381C107.972 210.037 106.977 210.523 105.897 210.803C104.817 211.083 103.679 211.15 102.565 210.999H102.67Z" fill="#C800FF"/>
<path d="M139.469 187.21C145.134 187.953 150.621 189.495 155.713 191.776C156.554 194.424 156.975 195.794 157.974 198.534C152.813 195.796 147.076 193.98 141.098 193.191C134.422 192.506 131.373 195.885 133.581 202.05C134.63 205.108 136.736 207.813 139.613 209.797C142.49 211.782 146 212.95 149.667 213.145C151.945 213.422 154.263 213.29 156.479 212.755C158.695 212.221 160.76 211.297 162.547 210.04C163.809 212.963 164.492 214.606 165.964 217.529C162.217 219.88 157.645 221.026 153.032 220.771C146.679 220.397 140.613 218.334 135.656 214.863C130.7 211.391 127.093 206.678 125.327 201.365C121.805 190.36 127.956 185.429 139.469 186.844V187.21ZM139.153 185.657C127.01 184.151 120.386 189.538 124.066 201.228C125.937 206.965 129.796 212.064 135.12 215.83C140.443 219.596 146.973 221.847 153.82 222.277C158.535 222.621 163.24 221.522 167.121 219.172L167.752 218.853C167.589 218.557 167.449 218.252 167.331 217.94C165.859 214.88 165.176 213.373 163.967 210.497C163.546 209.584 163.336 209.127 162.968 208.168L161.338 209.31C159.618 210.482 157.637 211.331 155.519 211.802C153.401 212.274 151.194 212.358 149.037 212.049C145.818 211.907 142.728 210.911 140.181 209.197C137.634 207.482 135.752 205.132 134.79 202.461C132.845 197.027 135.631 194.196 141.519 194.744C147.242 195.4 152.752 197.062 157.711 199.63L160.182 200.817C159.866 199.995 159.708 199.584 159.446 198.762C158.447 196.022 158.026 194.653 157.185 192.05C157.215 191.807 157.215 191.562 157.185 191.319L156.239 190.908C150.979 188.45 145.299 186.738 139.416 185.84L139.153 185.657Z" fill="#C800FF"/>
<path d="M170.275 181.639C171.856 189.372 174.051 197 176.847 204.47C181.684 200.261 186.964 196.454 192.618 193.1C198.769 193.374 201.923 193.465 208.389 193.511C202.449 196.89 199.715 198.488 194.721 201.73C202.711 209.173 206.812 212.917 213.804 220.405H202.764C197.507 214.698 194.353 211.867 188.57 206.205C185.541 208.32 182.727 210.657 180.159 213.191C181.263 215.93 181.841 217.346 183.155 220.223H174.061C167.543 207.576 162.847 194.28 160.077 180.635C164.072 181.137 166.122 181.365 170.275 181.776V181.639ZM171.537 180.863H170.013L159.867 179.767H158.395C158.42 180.102 158.42 180.437 158.395 180.772C161.196 194.486 165.946 207.844 172.536 220.542C172.536 221.09 172.904 221.364 173.167 221.866H185.048L184.47 220.588C183.313 217.94 182.787 216.661 181.788 214.15C183.93 212.039 186.249 210.07 188.728 208.259C193.985 213.465 196.718 216.067 201.818 221.318L202.396 221.912H216.643L215.013 220.131C208.389 213.008 204.499 209.447 196.929 202.369C201.608 199.31 204.183 197.803 209.703 194.698L213.12 192.735H208.389C201.87 192.735 198.664 192.735 192.618 192.369H191.882L191.461 192.598C186.523 195.564 181.833 198.829 177.425 202.369C175.05 195.739 173.171 188.982 171.8 182.141V181.091L171.537 180.863Z" fill="#C800FF"/>
<path d="M229.102 182.278C229.102 191.137 228.734 195.566 228.629 204.424H218.114C216.8 195.703 216.222 191.411 215.171 182.963C220.428 182.963 223.424 182.644 229.154 182.233L229.102 182.278ZM223.897 212.78C224.613 212.691 225.341 212.73 226.038 212.896C226.735 213.063 227.385 213.352 227.948 213.746C228.51 214.14 228.973 214.631 229.307 215.188C229.641 215.744 229.84 216.355 229.89 216.981C229.909 217.57 229.782 218.157 229.519 218.701C229.256 219.244 228.863 219.734 228.366 220.135C227.869 220.537 227.279 220.842 226.635 221.03C225.991 221.219 225.309 221.286 224.633 221.227C223.22 221.253 221.844 220.832 220.761 220.042C219.678 219.253 218.962 218.149 218.745 216.935C218.377 214.469 220.638 212.734 224.002 212.78H223.897ZM231.362 180.817H229.365C223.634 181.228 220.796 181.365 215.381 181.594H213.488V182.689C214.592 191.137 215.223 195.429 216.643 204.104V205.2H218.167C222.268 205.2 224.37 205.2 228.681 205.2H230.258V204.104C230.521 194.972 230.679 190.771 231.047 181.822V180.68L231.362 180.817ZM223.897 211.501C219.692 211.501 216.905 213.739 217.431 216.798C217.729 218.318 218.637 219.698 219.993 220.692C221.35 221.687 223.068 222.232 224.844 222.232C225.663 222.262 226.48 222.152 227.25 221.906C228.019 221.66 228.725 221.284 229.327 220.8C229.928 220.316 230.413 219.734 230.753 219.086C231.093 218.438 231.283 217.738 231.31 217.026C231.231 216.243 230.973 215.481 230.55 214.786C230.127 214.091 229.549 213.476 228.848 212.978C228.147 212.48 227.339 212.109 226.471 211.887C225.602 211.665 224.692 211.596 223.792 211.684L223.897 211.501Z" fill="#C800FF"/>
</g>
<defs>
<clipPath id="clip0">
<rect width="231.1" height="222.46" fill="white"/>
</clipPath>
</defs>
</svg>
