<svg width="232" height="223" viewBox="0 0 232 223" fill="none" xmlns="http://www.w3.org/2000/svg">
<g clip-path="url(#clip0)">
<path d="M23.4986 11.3696C29.5108 11.6327 35.4885 12.3199 41.3725 13.4244C42.2137 15.9357 42.5817 17.2142 43.3702 19.6343C37.6404 18.4483 31.7988 17.7148 25.9168 17.4425C17.2427 17.4425 13.4576 18.1731 13.6679 20.0452C14.2462 25.0679 46.7873 20.5475 49.5735 31.9627C51.0981 37.8986 42.7919 39.4968 28.5453 39.4968C20.754 39.3456 12.9786 38.812 5.2566 37.8986C5.2566 35.3416 5.2566 34.0631 5.2566 31.4604C12.1441 32.8982 19.2012 33.6337 26.2848 33.6522C36.2732 33.6522 40.216 33.3325 39.7429 31.1865C38.0606 26.3008 3.04863 31.9627 2.73321 20.2735C2.73321 14.1549 11.1445 11.1413 23.7614 11.3696H23.4986ZM23.7614 10.2281C9.30453 9.95414 0.998384 13.6983 1.10353 20.2735C1.10353 28.4925 16.1913 28.7208 26.6002 29.4057C30.911 29.6797 37.1143 30.2276 37.4823 31.1865C37.8503 32.1454 34.223 32.6933 25.4962 32.6476C18.6736 32.5734 11.8831 31.8227 5.2566 30.4102L3.04863 29.908V31.5518C3.04863 34.1544 3.04863 35.4329 3.04863 37.99V38.8575H4.41547C12.3327 39.7264 20.3025 40.1838 28.2825 40.2273C51.1507 40.3187 52.0444 35.4329 51.1507 31.9627C49.153 24.109 35.7475 22.4652 25.8117 21.689C21.9215 21.415 15.2976 21.0041 15.2976 20.0452C15.2976 19.0863 15.7707 18.2644 26.2848 18.5384C32.0957 18.8256 37.8659 19.559 43.5279 20.7301L45.4205 21.1411C45.4205 20.5475 45.4205 20.2735 44.9999 19.7256C44.2114 17.2599 43.8434 16.027 42.9497 13.47C42.9497 13.1047 42.9497 12.9221 42.6342 12.5112L41.4251 12.2828C35.488 11.1774 29.4579 10.4902 23.3934 10.2281H23.7614Z" fill="#C800FF"/>
<path d="M76.0169 13.6983C85.3745 14.4289 92.2612 20.5018 95.836 33.2412C97.0423 37.2226 97.9727 41.2632 98.6222 45.3413L90.0532 43.9258C89.3867 40.2976 88.5094 36.7011 87.4247 33.1498C84.9013 24.6113 80.538 20.5018 74.0192 19.9538C67.5005 19.4059 64.504 25.2505 66.8697 33.6521C67.6582 36.5288 67.9736 37.9442 68.6045 40.7296C64.5565 40.2273 62.5063 40.0446 58.0904 39.6794C56.3004 30.6775 53.7169 21.8084 50.3625 13.1504L60.8766 13.744C62.3486 18.6297 62.9269 20.9584 63.8731 25.4332H64.4514C63.4526 18.2644 66.0811 13.059 76.0169 13.6983ZM75.4386 12.3741C68.8673 11.9632 64.9245 14.0636 63.5051 17.9904C63.0846 16.3923 62.8217 15.5704 62.3486 13.9266L61.928 12.5568H60.4035L49.8894 12.0545H48.47C48.47 12.5111 48.47 12.7394 48.9431 13.2417C52.3468 21.9281 54.983 30.8274 56.8287 39.862C56.8287 40.2729 56.8287 40.5013 56.8287 40.9122H58.3532C62.5589 41.3232 64.6091 41.5058 68.6045 41.9624H70.0765C70.0972 41.6126 70.0972 41.262 70.0765 40.9122C69.4456 38.1726 69.1302 36.7571 68.2891 33.8348C66.1337 25.8898 68.2891 20.5018 74.4924 21.0497C79.3289 21.5063 83.4294 24.0177 86.0053 32.8302C87.3196 37.3963 87.8453 39.4511 88.6864 43.5605C88.657 43.9254 88.657 44.2916 88.6864 44.6564H90.0532L98.5697 46.0719L99.7788 46.3002C99.7788 45.8436 99.7788 45.6153 99.7788 45.1587C99.1179 41.0706 98.2053 37.0162 97.0451 33.0129C93.4703 19.9995 86.0579 12.7851 75.4912 12.0088L75.4386 12.3741Z" fill="#C800FF"/>
<path d="M115.182 15.8901C125.696 16.438 131.847 24.0634 133.319 33.7435C134.332 39.7963 134.946 45.8943 135.158 52.0079L127.746 50.6837C128.061 46.8025 128.114 44.7935 128.167 40.5013H127.641C127.01 48.355 122.068 50.5924 113.815 48.9943C111.028 48.7317 108.409 47.705 106.339 46.0631C104.269 44.4211 102.855 42.2491 102.302 39.8621C100.515 31.3235 116.181 31.9627 125.17 31.9627C125.035 29.7381 123.914 27.6452 122.042 26.1219C120.171 24.5985 117.694 23.7628 115.129 23.7894C110.668 23.5568 106.217 24.3772 102.249 26.1638C101.356 23.2415 100.83 21.5977 99.726 18.6754C104.539 16.6664 109.845 15.7102 115.182 15.8901ZM126.169 36.5288C119.808 36.5288 109.767 35.296 110.398 39.5881C110.785 40.6851 111.544 41.6553 112.575 42.3721C113.607 43.0889 114.863 43.519 116.181 43.6063C121.438 44.5195 126.695 42.6017 125.959 36.5288H126.169ZM114.656 14.3376C109.201 14.2174 103.793 15.2351 98.8848 17.3056L98.2014 17.6252L98.5694 18.5841C99.6734 21.6434 100.147 23.1502 101.093 26.0725C101.093 26.8944 101.461 27.2597 101.671 28.0816L103.09 27.3967C106.978 25.7044 111.316 24.9476 115.655 25.2049C120.912 25.6615 122.857 27.488 123.803 30.5016C113.92 30.5016 99.3054 30.5016 101.303 39.6338C101.829 42.3457 103.344 44.8391 105.625 46.7463C107.906 48.6536 110.833 49.8738 113.973 50.2271C120.176 51.4143 124.487 50.5011 126.852 47.0765C126.852 48.4007 126.852 49.0856 126.852 50.3641C126.88 50.8356 126.88 51.3081 126.852 51.7796H128.167L135.526 53.1494H136.578V51.8709C136.402 45.7573 135.805 39.6582 134.79 33.6065C133.056 22.1 125.538 14.6116 114.971 14.1093L114.656 14.3376ZM115.97 42.5104C114.078 42.1908 111.817 41.3232 111.502 39.9077C111.029 37.2594 119.072 37.716 123.856 37.9443H124.802C124.802 41.9168 120.386 43.1497 115.97 42.5104Z" fill="#C800FF"/>
<path d="M154.557 17.7164C159.49 17.757 164.307 19.0247 168.436 21.3693C168.751 25.1591 168.857 26.9855 169.067 30.5014C165.163 27.9029 160.42 26.4336 155.504 26.3006C148.88 25.981 145.568 30.8667 146.199 37.1679C146.037 39.5657 146.773 41.9446 148.295 43.9499C149.817 45.9553 152.044 47.4797 154.645 48.296C157.245 49.1123 160.08 49.1768 162.727 48.4797C165.373 47.7827 167.689 46.3615 169.33 44.428C169.33 47.6699 169.33 49.2681 169.067 52.3274C167.489 53.706 165.572 54.7553 163.459 55.396C161.346 56.0367 159.093 56.2521 156.871 56.0259C146.777 54.93 139.785 47.396 138.418 36.346C137.051 25.2961 142.729 17.2141 154.557 17.6251V17.7164ZM154.557 15.8899C141.941 15.616 135.737 24.5199 137.262 36.5287C138.786 48.5375 145.936 56.3912 156.818 57.624C159.114 57.8549 161.44 57.6341 163.624 56.978C165.808 56.322 167.794 55.2475 169.435 53.8342L170.118 53.4232C170.118 53.0579 170.118 52.8753 170.118 52.51C170.118 49.4051 170.118 47.9439 170.381 44.6107V41.7797C169.698 42.4189 169.382 42.7386 168.646 43.3322C167.346 44.8314 165.623 46.0141 163.643 46.7659C161.663 47.5178 159.494 47.8134 157.344 47.6243C154.483 47.3181 151.856 46.095 149.979 44.1945C148.103 42.294 147.11 39.8533 147.198 37.3506C146.672 31.506 149.721 27.7161 155.504 28.2184C160.195 28.2406 164.759 29.5512 168.541 31.9626L170.329 33.1041C170.329 32.0539 170.329 31.5516 170.329 30.4558C170.329 26.8486 170.013 25.0221 169.75 21.3236C169.75 20.9126 169.75 20.6843 169.75 20.2734L169.014 19.8624C164.705 17.3953 159.666 16.0633 154.505 16.0269L154.557 15.8899Z" fill="#C800FF"/>
<path d="M181.737 1.73511C183.004 12.7338 183.53 23.7873 183.314 34.8393C189.254 27.3966 192.619 23.561 199.085 16.2096C203.974 15.753 206.445 15.4791 211.439 14.8398C206.445 19.7712 203.974 22.4195 199.085 27.7162C202.559 34.1838 206.473 40.4657 210.808 46.5285C206.392 47.8526 204.289 48.4462 200.294 49.4964C197.35 44.0171 195.931 41.0948 192.829 34.7936L183.209 45.2956C183.209 48.4462 182.946 49.8617 182.683 53.058C179.581 53.5603 178.004 53.7886 174.955 54.1539C176.376 36.6805 175.671 19.1257 172.852 1.78078H181.737V1.73511ZM182.893 0H171.328C171.328 0.730575 171.328 1.09586 171.328 1.78078C174.229 19.1497 174.952 36.7408 173.483 54.2452C173.483 54.7931 173.483 55.0671 173.483 55.615H174.587C177.636 55.2497 179.213 55.0671 182.315 54.5648H183.471C183.471 54.0169 183.471 53.7429 183.471 53.195C183.997 50.227 183.997 48.6745 183.997 45.6609C187.204 42.2364 188.834 40.5012 192.093 36.9397C194.932 42.6473 196.193 45.2956 198.875 50.3183L199.19 50.9119H199.873C204.079 49.8617 206.234 49.2681 210.388 47.8983L212.806 47.1677L211.965 45.6609C207.797 39.9469 204.04 34.0149 200.715 27.8988C205.288 23.0131 207.601 20.5474 212.28 15.9357L215.119 13.196L211.492 13.6983C206.234 14.2462 203.974 14.5202 199.032 14.9768H198.559L198.244 15.3421C192.619 21.7346 189.885 25.1135 184.523 31.643C184.523 20.4561 184.26 14.5658 183.051 1.8721C183.051 1.23284 183.051 0.867558 183.051 0.182644L182.893 0Z" fill="#C800FF"/>
<path d="M227.105 1.18718C227.105 10.5933 226.737 15.2964 226.369 24.6569C222.794 25.5701 221.112 26.0267 217.642 26.803C217.642 16.8945 217.642 11.8262 217.222 1.36983H227.105V1.18718ZM221.48 34.9306C224.529 34.0174 226.737 34.9306 226.737 37.5789C226.562 39.0076 225.933 40.3658 224.921 41.5025C223.91 42.6392 222.555 43.5097 221.007 44.0171C217.958 45.113 215.75 44.0171 215.75 41.1862C215.857 39.8188 216.408 38.5057 217.338 37.3987C218.268 36.2917 219.54 35.436 221.007 34.9306H221.48ZM228.472 0H215.908C215.908 0.547931 215.908 0.821897 215.908 1.41549C216.276 12.0088 216.328 17.1228 216.276 27.1226V28.4011L217.537 28.0815C221.007 27.2596 222.794 26.803 226.264 25.8441L227.578 25.4788V24.3373C227.946 15.2051 228.104 10.639 228.314 1.23284V0H228.472ZM221.533 33.6978C219.649 34.3031 218.004 35.3644 216.793 36.7563C215.582 38.1481 214.855 39.8121 214.698 41.5514C214.698 44.976 217.222 46.6198 221.112 45.2043C223.063 44.55 224.767 43.4406 226.038 41.9984C227.309 40.5562 228.097 38.8372 228.314 37.031C228.314 33.9261 225.37 32.4649 221.533 33.6978Z" fill="#C800FF"/>
<path d="M29.1766 54.0168C36.0976 53.9098 43.0148 54.3685 49.8369 55.3866C49.8369 57.487 50.2049 58.5372 50.4151 60.6376C44.0016 59.616 37.4815 59.1875 30.964 59.3591C20.7128 59.8158 15.7712 61.3682 15.8237 63.149C15.8237 67.9891 54.9888 60.6833 53.8848 70.9114C53.3065 76.3907 44.6324 78.3997 29.3344 80.0435C22.6579 80.8654 12.7221 81.7787 4.36335 82.1896C4.36335 79.6326 4.36335 78.3541 4.36335 75.7514C12.1794 75.9342 20.0001 75.5984 27.7572 74.7469C38.6919 73.514 42.7924 72.9204 42.9501 70.8657C43.3707 66.2996 2.15539 76.6646 2.05025 64.8841C2.10282 59.3591 13.9312 54.7931 29.1766 54.0168ZM29.1766 53.0123C11.8284 53.5602 0 59.0395 0 65.569C0 73.788 18.2945 71.231 29.8075 70.6831C34.5914 70.4091 41.4256 70.3634 41.3204 71.2766C41.2153 72.1899 37.4828 72.9661 27.8624 74.0163C20.3642 74.8105 12.8066 75.1005 5.25705 74.8839H2.3131V84.016H3.83765C12.0912 83.5138 22.2899 82.5549 29.3344 81.6873C52.9911 78.7194 55.1465 74.6099 55.6196 71.368C56.2505 63.9252 41.5833 63.2403 30.1229 63.4686C25.6544 63.4686 17.8214 64.0166 17.7688 63.1033C17.7163 62.1901 19.0831 61.0943 31.0692 60.5007C37.4546 60.297 43.8475 60.6488 50.1523 61.5509L52.15 61.8705C52.15 61.3682 52.15 61.1399 52.15 60.6833C52.15 58.5829 51.8345 57.5327 51.5717 55.4323C51.5717 55.1127 51.5717 54.9757 51.5717 54.6104H50.2574C43.3151 53.5634 36.2743 53.0894 29.2292 53.1949L29.1766 53.0123Z" fill="#C800FF"/>
<path d="M86.7414 58.172C95.8361 59.9071 99.7789 64.7472 98.4647 74.1533C98.0437 77.2243 97.4295 80.2729 96.6247 83.2855C93.6282 82.4636 92.1036 82.0983 88.8443 81.4134C89.5802 78.0802 90.0008 76.3907 90.4214 72.9662C91.1574 66.528 88.634 63.286 82.3781 62.2358C76.1222 61.1856 71.6011 65.2038 70.5497 72.5552C70.2343 75.0209 70.024 76.2537 69.5509 78.6738C65.8184 78.3541 63.8733 78.2172 59.8779 78.1258C61.15 70.5558 61.15 62.8654 59.8779 55.2954C64.5041 55.6607 66.7121 55.889 71.0754 56.4369C71.0754 60.1354 70.7074 61.9619 70.2869 65.5691H70.8651C72.0743 59.8615 76.9107 56.4369 86.6363 58.0807L86.7414 58.172ZM86.6363 57.1218C84.197 56.4195 81.5862 56.2947 79.0728 56.7602C76.5595 57.2257 74.2344 58.2647 72.3371 59.7701C72.3371 58.583 72.3371 57.9437 72.3371 56.7109C72.3371 56.2999 72.3371 56.0716 72.3371 55.6607H70.76C66.3966 55.1127 64.1361 54.8844 59.5625 54.5191H57.9854C57.9854 54.9301 57.9854 55.1127 57.9854 55.5237C59.2256 63.0957 59.2256 70.7821 57.9854 78.3541C57.9854 78.7194 57.9854 78.9021 57.9854 79.313H59.4573C63.5053 79.313 65.3978 79.5413 69.1303 79.8609H70.4971C70.5226 79.5569 70.5226 79.2517 70.4971 78.9477C70.9703 76.482 71.1806 75.2949 71.5485 72.8292C72.4948 66.0257 75.8593 62.2815 82.0627 63.286C86.6889 64.0623 89.5802 66.1627 88.8968 72.8748C88.555 75.7142 88.0285 78.5344 87.3197 81.3221C87.3496 81.6107 87.3496 81.9011 87.3197 82.1897L88.5288 82.418C91.7882 83.1029 93.3128 83.4682 96.3093 84.2444L97.4133 84.564C97.4133 84.1987 97.4133 84.0618 97.4133 83.6965C98.2501 80.6896 98.8647 77.6393 99.2532 74.5643C100.62 64.9298 96.7298 59.2679 86.3734 57.3045L86.6363 57.1218Z" fill="#C800FF"/>
<path d="M121.806 66.2541C123.635 66.6288 125.359 67.3151 126.88 68.273C128.401 69.231 129.688 70.4417 130.666 71.8348C131.644 73.2279 132.294 74.7758 132.578 76.3887C132.862 78.0017 132.774 79.6475 132.321 81.2309C131.62 85.53 130.531 89.7745 129.061 93.9246L122.595 91.7329C124.014 89.0846 124.698 87.7147 125.96 84.8838H125.539C122.595 89.9978 117.338 90.7284 109.768 88.2627C106.14 87.0755 100.778 84.7468 101.882 79.8611C103.197 73.6512 117.653 77.0301 125.486 78.6739C126.012 74.884 123.962 72.8749 119.02 71.4595C114.994 70.4477 110.77 70.1679 106.614 70.6376C106.614 68.5372 106.876 67.487 106.929 65.2952C111.767 64.9355 116.641 65.3063 121.333 66.3911L121.806 66.2541ZM124.803 82.0528C119.231 80.8199 110.346 78.1716 109.61 81.2309C109.242 82.692 110.872 84.1075 113.711 85.0208C118.547 86.6189 124.225 86.3906 124.803 82.0528ZM121.386 65.3409C116.557 64.2208 111.535 63.865 106.561 64.2907H105.825V64.9756C105.825 67.1217 105.825 68.2175 105.51 70.2723C105.51 70.8659 105.51 71.1398 105.51 71.7334H107.087C111.091 71.3185 115.151 71.6136 119.02 72.601C123.541 73.8795 124.645 75.432 124.645 77.578C115.971 75.7516 102.303 73.0119 100.883 79.6784C100.253 82.6464 101.357 86.4819 109.61 89.2672C111.629 90.2144 113.887 90.7103 116.181 90.7103C118.476 90.7103 120.734 90.2144 122.753 89.2672L121.544 91.5503C121.408 91.8629 121.25 92.1679 121.07 92.4635L122.227 92.8744L128.641 95.0662L129.639 95.3858L129.902 94.5182C131.39 90.3539 132.497 86.0942 133.214 81.7788C134.115 78.2691 133.39 74.5926 131.197 71.5429C129.003 68.4931 125.517 66.3148 121.491 65.4779L121.386 65.3409ZM114.394 84.0162C112.712 83.4683 110.872 82.4637 111.135 81.4135C111.555 79.5414 118.863 81.4135 123.121 82.4181L123.962 82.6464C122.648 85.3404 118.284 85.2947 114.394 84.0162Z" fill="#C800FF"/>
<path d="M154.61 73.4684C158.53 73.852 162.312 74.9572 165.702 76.7103C165.229 79.4499 165.019 80.7741 164.44 83.3768C161.266 81.1873 157.47 79.7833 153.453 79.313C152.28 79.0437 151.053 78.9981 149.858 79.1794C148.662 79.3607 147.526 79.7645 146.527 80.3631C145.529 80.9617 144.691 81.741 144.071 82.6474C143.452 83.5538 143.066 84.5659 142.939 85.6142C142.664 86.635 142.64 87.6945 142.866 88.7242C143.093 89.7538 143.566 90.7307 144.255 91.5915C144.944 92.4523 145.833 93.178 146.865 93.7214C147.897 94.2649 149.049 94.614 150.246 94.7464C154.298 95.612 158.579 95.0714 162.18 93.2395C161.602 95.5226 161.339 96.6185 160.76 98.7645C156.882 100.277 152.532 100.615 148.406 99.7234C146.378 99.4118 144.444 98.7427 142.725 97.7573C141.005 96.7719 139.536 95.4911 138.408 93.9938C137.28 92.4966 136.517 90.8145 136.167 89.0514C135.816 87.2882 135.884 85.4814 136.368 83.7421C136.603 81.9434 137.29 80.2115 138.38 78.6686C139.47 77.1256 140.936 75.8091 142.676 74.812C144.416 73.8149 146.386 73.1615 148.448 72.8978C150.51 72.634 152.613 72.7665 154.61 73.2857V73.4684ZM154.61 72.1442C152.47 71.6227 150.225 71.511 148.031 71.8168C145.836 72.1226 143.744 72.8387 141.9 73.9155C140.055 74.9922 138.502 76.4041 137.347 78.0534C136.192 79.7027 135.463 81.5502 135.211 83.4681C134.687 85.3237 134.604 87.2526 134.967 89.1371C135.33 91.0215 136.131 92.8219 137.322 94.4285C138.512 96.0351 140.067 97.4142 141.892 98.4815C143.716 99.5489 145.772 100.282 147.933 100.637C152.229 101.58 156.765 101.242 160.813 99.6777H161.496V99.0385C162.075 96.8468 162.338 95.7509 162.916 93.4678L163.336 91.6414L161.444 92.5546C158.048 94.2777 154.013 94.7854 150.194 93.9701C149.113 93.8714 148.069 93.5745 147.13 93.0991C146.191 92.6236 145.38 91.9804 144.748 91.2121C144.117 90.4438 143.681 89.5678 143.469 88.6421C143.257 87.7165 143.273 86.7622 143.517 85.8425C143.645 84.9203 144 84.033 144.559 83.2414C145.119 82.4498 145.868 81.7727 146.757 81.2565C147.646 80.7403 148.653 80.3973 149.709 80.251C150.765 80.1047 151.845 80.1585 152.875 80.4088C156.717 80.8903 160.344 82.2449 163.389 84.3357L164.756 85.2946C164.756 84.5183 165.019 84.153 165.176 83.3768C165.702 80.7285 165.965 79.4043 166.438 76.6646V75.8884L165.86 75.6144C162.307 73.837 158.369 72.7177 154.294 72.3268L154.61 72.1442Z" fill="#C800FF"/>
<path d="M181 61.2769C179.791 72.1898 178.95 77.3039 177.005 87.0296C183.358 81.8076 189.36 76.2736 194.984 70.4547C199.873 69.2219 202.449 68.4456 207.811 66.6649C202.133 72.3268 199.242 75.1121 193.67 80.3631C196.669 85.6365 200.688 90.4242 205.551 94.518C201.557 95.8051 197.485 96.9026 193.354 97.8056C190.466 94.3942 188.082 90.682 186.257 86.7557C182.879 89.6892 179.259 92.4056 175.428 94.8833C174.954 97.1664 174.692 98.2622 174.218 100.5C170.907 100.5 169.277 100.774 166.175 100.774C169.763 88.1281 172.207 75.2581 173.482 62.2814C176.479 61.9618 178.004 61.7791 181.158 61.2769H181ZM182.419 59.7701H181.263C178.161 60.2723 176.637 60.455 173.588 60.7746H172.484C172.484 61.2769 172.484 61.5508 172.484 62.0988C171.272 75.031 168.863 87.8575 165.281 100.454C165.281 100.819 165.281 101.002 165.281 101.413H166.385C169.087 101.471 171.79 101.395 174.481 101.185H175.69V100.18C176.111 98.1252 176.374 97.1207 176.794 95.0203C179.955 92.9686 182.974 90.7579 185.837 88.3995C187.531 91.8709 189.702 95.1519 192.303 98.1709L192.618 98.5818H193.459C198.138 97.5316 200.556 96.8924 205.708 95.3399L208.494 94.4724L207.18 93.2852C202.496 89.4323 198.587 84.9258 195.615 79.9522C200.872 75.1121 203.5 72.5551 208.862 67.2128L211.859 63.9252L207.969 65.295C202.712 67.0758 200.031 67.8064 195.142 69.0849H194.668L194.248 69.4958C187.939 75.797 184.838 78.628 178.477 84.1073C180.159 75.2491 180.895 70.6374 181.946 60.8659C181.946 60.3637 181.946 60.0897 181.946 59.5418L182.419 59.7701Z" fill="#C800FF"/>
<path d="M225.633 48.6289C225.159 57.7611 224.844 62.3272 224.213 71.779C219.955 73.6968 217.852 74.5187 213.699 76.0711C214.172 66.9389 214.382 62.3729 214.75 52.6471C218.904 51.1859 221.006 50.4097 225.265 48.6289H225.633ZM217.852 82.692C221.479 81.2308 224.423 81.6418 224.371 84.0618C224.007 85.6316 223.174 87.0908 221.957 88.293C220.739 89.4951 219.178 90.398 217.432 90.9109C213.752 92.2808 211.123 91.5502 211.281 89.1758C211.675 87.708 212.481 86.3477 213.628 85.2164C214.775 84.085 216.226 83.2178 217.852 82.692ZM226.789 46.8481L225.317 47.4417C220.901 49.1769 218.798 49.9531 214.803 51.4142L213.436 51.8708C213.41 52.2967 213.41 52.7235 213.436 53.1494C213.016 62.7381 212.753 67.4412 212.227 76.6647V77.8519L213.699 77.2583C217.694 75.7058 219.745 74.8839 224.213 72.9662L225.79 72.2356V71.0941C226.369 61.9619 226.631 57.3958 227.052 48.2636V47.0308L226.789 46.8481ZM217.905 81.5961C215.981 82.3266 214.287 83.445 212.961 84.8586C211.635 86.2721 210.717 87.94 210.282 89.7237C210.282 92.646 213.173 93.7876 217.905 92.0068C220.103 91.3463 222.065 90.1984 223.596 88.6767C225.127 87.155 226.173 85.3123 226.631 83.3312C226.631 80.3176 223.004 79.724 218.43 81.5961H217.905Z" fill="#C800FF"/>
<path d="M31.8051 94.4725C38.0246 93.5973 44.3383 93.3369 50.6253 93.6962C50.2573 95.7966 50.0471 96.8468 49.6791 98.9016C43.91 98.5712 38.116 98.8781 32.4359 99.8148C23.0784 101.413 18.3996 103.605 18.2945 105.385C17.979 110.271 52.4127 98.9929 50.3625 109.175C49.2585 114.563 41.6358 117.531 28.5983 121.001C22.9207 122.554 14.4568 124.517 7.57007 125.887C7.57007 123.33 7.57007 122.052 7.57007 119.495C14.3519 118.786 21.0523 117.579 27.5994 115.887C37.0096 113.513 40.6369 112.463 40.9524 110.454C41.6883 105.888 5.62496 120.636 5.83525 108.993C5.83525 102.965 17.5585 96.7555 31.8577 94.4725H31.8051ZM31.8577 93.4679C15.7711 95.8879 3.94271 103.148 3.89014 109.586C3.89014 117.668 19.6613 113.193 29.5445 111.367C33.6976 110.591 39.533 109.815 39.4278 110.728C39.3227 111.641 35.9582 112.782 27.652 114.883C21.2887 116.47 14.7816 117.585 8.20092 118.216L5.73011 118.718V120.362C5.73011 122.919 5.73011 124.198 5.73011 126.755V127.622L6.9918 127.348C14.0362 125.978 22.763 123.924 28.6509 122.28C48.8379 116.801 51.2036 112.509 51.887 109.267C53.3064 102.28 41.3729 102.691 30.8588 104.198C26.916 104.792 19.9241 106.116 19.9767 105.203C20.0293 104.29 21.4487 103.011 32.2782 101.048C37.8408 100.157 43.5065 99.8501 49.1534 100.134H50.8356V98.9472C51.2562 96.8468 51.4665 95.8423 51.8344 93.7419V92.9656H50.6779C44.2709 92.5568 37.8309 92.802 31.4897 93.6962L31.8577 93.4679Z" fill="#C800FF"/>
<path d="M84.1126 93.9703C92.0507 95.3401 94.0484 99.5866 90.7365 108.536C89.4222 112.143 88.7913 113.924 87.4771 117.668C85.1913 117.032 82.8542 116.543 80.4852 116.207C81.6418 112.737 82.2726 111.002 83.4291 107.623C85.5845 101.276 84.2703 98.4907 78.7504 97.8971C73.2305 97.3035 67.0271 101.641 65.082 108.947C64.4512 111.413 64.0832 112.646 63.4523 115.157C60.193 115.157 58.5107 115.157 55.0411 115.568C57.0913 106.436 58.2479 101.87 60.2981 92.7374C64.4512 92.7374 66.4489 92.7374 70.2865 93.057C68.9197 96.5729 68.1837 98.3537 66.7117 102.189H67.2374C68.3939 99.2563 70.7544 96.7965 73.8676 95.2802C76.9809 93.764 80.6283 93.2976 84.1126 93.9703ZM84.1126 93.1484C81.6339 92.631 79.0478 92.6432 76.5757 93.184C74.1037 93.7247 71.8194 94.7779 69.9185 96.2533L71.1276 93.331L71.4956 92.3265H70.0762C66.2386 92.0525 64.2409 92.0068 60.0353 92.0068H58.6684V92.9201C56.8285 102.052 55.7245 106.618 53.4114 115.751V116.755H54.7256C58.1953 116.481 59.9827 116.39 63.0844 116.344H64.2935V115.385C64.9243 112.874 65.2923 111.641 65.9232 109.175C67.8157 102.418 72.7048 98.3537 78.1195 98.993C82.22 99.4496 84.1651 101.093 81.9572 107.714C80.8006 111.093 80.2223 112.783 79.0658 116.298C79.0658 116.664 79.0658 116.846 78.7504 117.212H79.8544C82.1988 117.559 84.5163 118.032 86.7937 118.627L87.7925 118.901C87.9216 118.603 88.027 118.298 88.1079 117.988C89.4222 114.289 90.053 112.463 91.3673 108.856C94.7318 99.7235 93.0496 94.7008 84.06 93.194L84.1126 93.1484Z" fill="#C800FF"/>
<path d="M115.287 103.239C116.883 103.579 118.373 104.217 119.654 105.11C120.935 106.003 121.975 107.129 122.701 108.408C123.428 109.688 123.823 111.09 123.859 112.516C123.895 113.942 123.571 115.358 122.91 116.664C121.175 121.23 120.282 123.33 118.705 127.896L112.186 125.568L115.971 119.266H115.55C112.133 123.832 106.929 124.517 99.7791 122.234C96.3621 121.093 91.3679 118.855 93.1553 114.061C95.4158 107.942 108.926 111.732 116.549 114.061C117.706 110.91 116.181 109.038 111.608 107.395C107.899 106.037 103.909 105.353 99.8843 105.385L101.619 100.819C106.337 100.926 110.998 101.745 115.393 103.239H115.287ZM115.393 116.527C110.136 114.974 101.619 112.235 100.463 115.157C99.9369 116.527 101.356 117.897 104.037 118.81C108.611 120.408 113.921 120.225 115.393 116.527ZM115.393 102.418C110.891 100.855 106.098 100.02 101.251 99.9518H100.515V100.545L98.7803 105.111L98.3072 106.39H99.8843C103.809 106.271 107.722 106.83 111.397 108.034C115.55 109.541 116.391 110.91 115.918 112.6C107.612 110.226 94.8901 106.892 92.2616 113.604C91.2101 116.481 91.7359 120.362 99.5689 122.737C101.588 123.602 103.81 124.053 106.061 124.053C108.313 124.053 110.535 123.602 112.554 122.737C112.081 123.604 111.818 124.015 111.292 124.883L110.766 125.796L111.923 126.207L118.442 128.536L119.388 128.855C119.517 128.588 119.622 128.314 119.703 128.033C121.28 123.467 122.122 121.23 123.856 116.755C124.512 115.353 124.817 113.845 124.752 112.333C124.686 110.82 124.251 109.337 123.476 107.981C122.7 106.626 121.602 105.429 120.254 104.469C118.906 103.51 117.338 102.811 115.655 102.418H115.393ZM104.142 117.988C102.565 117.44 100.883 116.435 101.251 115.477C101.935 113.65 108.821 115.477 112.922 116.801L113.763 117.075C112.028 119.312 107.822 119.266 104.142 117.988Z" fill="#C800FF"/>
<path d="M146.147 113.102C150.21 113.875 154.135 115.119 157.817 116.801L156.24 121.915C152.563 119.91 148.531 118.445 144.307 117.577C138.682 116.253 134.371 117.577 133.004 121.458C131.637 125.339 134.423 128.946 140.574 130.59C144.933 131.746 149.609 131.617 153.875 130.225C153.349 132.234 153.086 133.193 152.613 135.156C148.13 136.274 143.375 136.274 138.892 135.156C128.904 132.645 123.962 126.024 126.38 119.632C128.798 113.239 136.316 111.23 146.147 113.422V113.102ZM146.462 112.554C135.948 110.271 128.062 112.554 125.434 119.312C122.805 126.07 127.8 133.284 138.629 136.024C143.287 137.163 148.217 137.163 152.876 136.024H153.717V135.476C154.19 133.467 154.453 132.508 154.979 130.499L155.399 128.901L153.296 129.54C149.249 130.853 144.818 130.981 140.679 129.905C135.422 128.535 132.636 125.339 133.845 122.052C135.054 118.764 139.102 117.485 143.886 118.718C147.935 119.548 151.792 120.969 155.294 122.919L156.871 123.832L157.292 122.326C157.922 120.271 158.185 119.221 158.816 117.166V116.572L158.185 116.298C154.394 114.556 150.342 113.281 146.147 112.508L146.462 112.554Z" fill="#C800FF"/>
<path d="M175.323 106.253C173.483 114.335 172.484 118.216 170.749 125.933C177.9 122.224 184.734 118.073 191.199 113.513C196.361 112.65 201.468 111.553 206.497 110.225C201.247 114.194 195.755 117.913 190.043 121.367C194.622 126.347 199.631 131.018 205.025 135.339C200.245 136.147 195.419 136.741 190.568 137.12C187.362 133.663 184.362 130.067 181.579 126.344C176.322 129.083 174.061 130.362 169.225 132.599L168.226 137.85C164.388 137.85 162.548 137.576 158.974 137.257C161.655 125.157 163.6 119.358 166.964 106.573C169.755 106.598 172.545 106.491 175.323 106.253ZM176.795 105.157H175.533C172.116 105.385 170.276 105.477 167.227 105.477C166.826 105.522 166.419 105.522 166.018 105.477V106.436C162.653 119.175 160.761 124.974 157.922 136.983C157.922 137.348 157.922 137.531 157.922 137.896H159.236C162.864 138.216 164.493 138.353 168.541 138.49H169.961C169.961 138.124 169.961 137.942 169.961 137.531C170.329 135.613 170.539 134.654 170.907 132.965C175.008 131.001 177.058 129.951 181.421 127.668C183.831 131.146 186.446 134.514 189.254 137.759L189.675 138.216H190.621C195.455 137.821 200.263 137.212 205.025 136.389L208.337 135.887L206.708 134.563C201.487 130.448 196.619 126.007 192.146 121.275C198.139 117.531 201.24 115.431 207.549 110.773C209.073 109.678 209.862 109.084 211.386 107.897L206.655 109.175C201.652 110.543 196.562 111.656 191.41 112.509H190.831L190.411 112.828C184.751 116.793 178.817 120.453 172.642 123.787C174.166 116.801 175.008 113.33 176.637 106.07V105.066L176.795 105.157Z" fill="#C800FF"/>
<path d="M227.945 92.9199C227.525 102.052 227.262 106.299 226.789 115.202C221.532 116.755 219.114 117.44 214.382 118.627C214.382 110.271 214.382 106.116 214.75 97.76C220.007 96.0249 222.426 95.066 227.945 92.9199ZM219.85 125.248C224.213 124.198 227.683 124.974 227.683 127.394C227.683 129.814 224.213 132.462 219.587 133.467C214.961 134.471 212.069 133.467 212.174 130.91C212.279 128.353 215.591 126.344 219.85 125.248ZM229.838 91.0022L227.945 91.7784C222.688 93.9701 219.85 94.929 214.803 96.6641L213.121 97.2121V98.3079C213.121 106.664 212.753 110.819 212.595 119.084V120.134L214.33 119.723C219.166 118.536 221.637 117.851 226.789 116.344L228.734 115.75V114.609C229.155 105.477 229.365 101.185 229.785 92.1894V91.0022H229.838ZM219.902 124.152C214.645 125.476 210.492 128.398 210.334 131.275C210.177 134.152 213.962 135.841 219.534 134.563C225.107 133.284 229.733 129.997 229.733 126.892C229.733 123.787 225.37 122.782 219.902 124.152Z" fill="#C800FF"/>
<path d="M6.99181 171.046C6.99181 168.352 6.99181 166.982 6.99181 164.288C12.6689 163.711 18.246 162.546 23.6041 160.818C31.5948 158.261 34.749 156.8 35.0645 154.288C35.8005 148.535 5.36212 165.429 5.73012 153.284C5.73012 147.028 15.8762 139.585 28.0726 135.613C33.2526 134.038 38.6749 133.145 44.1592 132.965C43.686 135.522 43.4232 136.846 43.0026 139.448C38.0836 139.454 33.1992 140.164 28.5457 141.549C20.6076 144.015 16.6122 146.709 16.4545 148.718C15.9814 154.106 45.3157 139.083 43.5283 152.279C42.5295 159.311 35.7479 163.603 24.6555 166.982C18.8764 168.671 12.9758 170.029 6.99181 171.046Z" fill="#C800FF"/>
<path d="M52.5709 131.138C55.4628 130.776 58.3767 130.563 61.2976 130.499C59.9833 134.563 59.1422 137.211 57.8805 141.96H58.3011C60.8244 134.289 66.1341 129.403 73.6516 130.225C81.1692 131.047 82.4835 135.202 80.6961 146.937C79.9601 151.503 79.6447 154.06 79.2767 159.22C76.8639 158.713 74.3978 158.422 71.9168 158.352C72.3374 153.558 72.6528 151.275 73.3888 146.891C74.7556 138.581 73.7042 135.613 68.7626 135.43C63.821 135.248 58.2485 141.275 56.7239 151.092C56.1982 154.38 55.988 156.069 55.62 159.494C52.5709 159.859 51.0463 160.087 47.8921 160.635C49.1012 148.033 50.5732 141.001 52.5709 131.138Z" fill="#C800FF"/>
<path d="M84.1128 153.238C84.9539 144.973 99.0428 147.53 107.086 149.129C107.454 145.247 105.562 143.284 100.778 141.868C96.9491 140.885 92.8935 140.775 89.0018 141.549C89.4224 139.266 89.6327 138.124 90.1058 135.887C94.7145 135.396 99.3915 135.833 103.774 137.165C107.312 138.034 110.351 140.017 112.295 142.728C114.24 145.438 114.95 148.681 114.288 151.823C113.942 156.582 113.942 161.355 114.288 166.114L106.613 164.379C107.086 160.818 107.401 159.083 108.085 155.795H107.612C105.719 161.868 100.935 164.105 93.1023 162.598C91.7999 162.507 90.5315 162.191 89.3713 161.669C88.2112 161.147 87.1825 160.429 86.3455 159.557C85.5085 158.686 84.88 157.678 84.4966 156.593C84.1132 155.508 83.9827 154.367 84.1128 153.238ZM106.666 152.69C100.883 151.64 91.9458 149.585 91.6303 153.512C91.6303 155.384 93.26 156.891 96.1514 157.53C101.198 158.626 106.298 157.347 106.718 152.69H106.666Z" fill="#C800FF"/>
<path d="M118.336 154.562C118.757 146.846 125.959 144.562 136.946 147.211C141.586 148.357 146.038 150.014 150.194 152.142C150.194 154.243 150.194 155.247 150.194 157.393C145.876 154.915 141.141 153.036 136.158 151.823C129.849 150.361 125.643 152.097 125.643 156.389C125.643 160.681 128.955 164.653 136.158 166.16C140.781 167.399 145.728 167.399 150.352 166.16C150.352 168.352 150.667 169.448 150.982 171.685C146.117 172.619 141.076 172.619 136.21 171.685C131.39 171.109 126.957 169.077 123.689 165.947C120.42 162.816 118.525 158.785 118.336 154.562Z" fill="#C800FF"/>
<path d="M158.711 142.827C162.338 143.193 163.968 143.33 168.173 143.512C166.913 149.952 166.648 156.509 167.385 163.01C174.797 159.448 177.899 157.804 187.151 153.01C192.972 152.883 198.78 152.487 204.552 151.823C197.035 155.932 194.038 157.53 187.73 160.635C195.142 166.891 199.19 170.087 207.128 176.708C201.135 176.708 198.244 176.708 192.566 176.708C187.309 171.731 184.575 169.311 179.686 164.516C174.902 166.799 172.589 167.804 168.173 169.813C168.489 172.005 168.647 173.101 169.067 175.384C164.914 174.973 162.864 174.744 158.921 174.242C156.555 163.877 156.483 153.216 158.711 142.827Z" fill="#C800FF"/>
<path d="M213.751 173.192C213.751 170.863 216.748 169.037 221.059 168.626C225.369 168.215 229.049 169.539 229.102 171.959C229.154 174.379 225.895 176.525 221.426 176.799C216.958 177.073 213.909 175.566 213.751 173.192ZM213.751 140.362C219.587 139.403 222.636 138.809 228.997 137.394C228.418 146.115 228.156 150.681 227.893 159.813C222.373 160.59 219.744 160.909 214.592 161.457C213.804 152.919 213.594 148.763 213.594 140.362H213.751Z" fill="#C800FF"/>
<path d="M23.6565 185.383C28.4874 184.358 33.4601 183.928 38.4288 184.105C38.4288 187.21 38.4288 188.671 38.4288 191.913C33.7844 191.424 29.0794 191.594 24.4976 192.415C17.2954 193.876 13.9835 195.748 13.9835 197.94C13.9835 203.739 40.2688 191.639 40.9522 208.077C41.2676 216.798 34.2757 220.862 23.1833 220.999C17.4401 221.012 11.7177 220.398 6.1505 219.172V211.912C11.113 213.249 16.3177 213.775 21.5011 213.465C29.1238 212.917 32.3832 211.775 32.3306 208.899C32.3306 202.004 4.73109 212.689 4.88881 200.223C4.88881 193.785 12.8795 188.123 23.6565 185.52V185.383ZM23.6565 184.196C11.4601 187.21 3.57454 193.694 3.52197 200.406C3.52197 208.899 14.7195 207.985 22.7102 207.711C26.0222 207.711 31.0164 207.711 31.0689 208.853C31.1215 209.995 28.1775 211.501 21.5011 212.049C16.4868 212.416 11.438 211.951 6.62363 210.679L4.83624 210.314V219.903L5.78251 220.131C11.4024 221.503 17.1914 222.285 23.0256 222.46C40.3213 222.46 42.2139 213.328 42.0036 207.985C41.5305 196.525 31.4895 197.118 23.2885 197.849C20.2394 198.168 15.0349 198.762 15.0349 197.849C15.0349 196.936 15.876 195.611 24.2348 193.968C28.7357 193.193 33.3512 193.054 37.9031 193.557H39.3751C39.3751 192.826 39.3751 192.461 39.3751 191.73C39.3751 188.58 39.3751 187.164 39.3751 183.922C39.3498 183.527 39.3498 183.13 39.3751 182.735H38.7442C33.6827 182.56 28.6186 183.021 23.7091 184.105L23.6565 184.196Z" fill="#C800FF"/>
<path d="M67.5006 178.58C75.0708 178.215 78.4353 183.74 81.0638 201.045C82.1153 207.94 82.7987 211.547 84.4809 219.309C80.9061 219.309 79.2239 219.309 75.5965 219.309C74.2297 212.141 73.704 208.716 72.8628 202.232C71.2857 189.995 69.1829 186.251 63.8207 186.662C58.4585 187.073 53.8849 195.063 54.9363 208.168C55.3043 212.734 55.5146 214.835 56.0928 219.492L47.3136 219.446C46.0075 207.015 45.6387 194.523 46.2096 182.05L54.8837 180.909C54.358 186.708 54.1477 189.721 53.9374 195.977H54.358C55.1991 185.84 59.6151 179.219 67.5532 178.626L67.5006 178.58ZM67.5532 177.21C64.7987 177.487 62.1989 178.462 60.0772 180.013C57.9554 181.563 56.4053 183.621 55.6197 185.931C55.6197 183.922 55.6197 182.918 56.0403 180.954C56.0403 180.315 56.0403 179.995 56.0403 179.356H54.7786C51.3615 179.767 49.5215 179.995 46.1044 180.543H44.8953C44.8953 181.091 44.8953 181.365 44.8953 181.959C44.3376 194.385 44.6712 206.828 45.8942 219.218C45.8942 219.903 45.8942 220.223 45.8942 220.908H57.8277C57.8277 220.223 57.8277 219.857 57.8277 219.172C57.1968 214.606 56.9865 212.232 56.6185 207.803C55.5671 195.611 59.0894 188.306 64.2938 187.849C68.2892 187.575 70.4972 189.31 72.0743 201.958C72.8628 208.442 73.3885 211.867 74.7554 218.99C74.7554 219.72 74.7554 220.086 75.0708 220.862H86.6363C86.6363 220.131 86.6363 219.766 86.2158 219.035C84.4809 211.364 83.7975 207.757 82.6935 200.771C80.0124 183.237 76.4902 176.388 67.9738 176.845L67.5532 177.21Z" fill="#C800FF"/>
<path d="M102.407 181.868C112.185 183.237 116.917 189.402 119.65 198.945C121.595 205.923 123.946 212.812 126.695 219.583H117.968C116.707 214.15 116.181 211.547 115.34 206.616H114.761C115.655 215.748 111.555 220.862 101.934 220.816C98.349 220.893 94.8685 219.762 92.2224 217.66C89.5763 215.557 87.97 212.647 87.7401 209.538C85.2693 197.347 101.987 197.575 111.134 197.392C110.964 195.21 109.862 193.162 108.043 191.65C106.224 190.138 103.82 189.271 101.303 189.219C96.7898 188.863 92.2625 189.758 88.371 191.776C87.8979 188.443 87.7401 186.845 87.4247 183.694C92.1543 181.974 97.3291 181.391 102.407 182.005V181.868ZM112.343 202.506C105.667 202.78 94.9423 202.506 96.3091 208.077C96.6332 209.421 97.5004 210.621 98.7538 211.458C100.007 212.295 101.564 212.716 103.143 212.643C104.621 212.802 106.12 212.627 107.498 212.137C108.875 211.647 110.084 210.857 111.008 209.843C111.932 208.829 112.54 207.626 112.774 206.349C113.008 205.072 112.86 203.765 112.343 202.552V202.506ZM102.25 180.726C97.06 180.072 91.7638 180.624 86.899 182.324L86.2156 182.644C86.2156 183.055 86.2156 183.237 86.2156 183.648C86.531 186.799 86.6887 188.214 87.1093 191.776C87.1093 192.689 87.1093 193.146 87.4247 194.105L89.0018 193.283C92.7721 191.337 97.1399 190.444 101.514 190.726C106.771 191.274 108.453 193.009 109.452 196.068C99.4634 196.068 83.7974 196.068 86.4259 209.766C86.7001 213.265 88.4696 216.549 91.3873 218.974C94.305 221.398 98.1603 222.788 102.197 222.871C105.232 223.25 108.318 222.604 110.821 221.067C113.324 219.529 115.054 217.218 115.655 214.606C116.023 216.387 116.233 217.255 116.654 219.172C116.654 219.949 116.917 220.314 117.074 221.136H128.745C128.43 220.451 128.325 220.131 128.062 219.492C125.286 212.781 122.9 205.954 120.912 199.036C117.6 187.712 111.817 181.913 102.302 180.543L102.25 180.726ZM102.67 210.999C100.62 210.999 97.9914 210.132 97.4131 208.168C96.6246 204.652 105.141 204.333 110.24 204.15H111.292C111.352 205.128 111.161 206.105 110.731 207.01C110.301 207.915 109.644 208.725 108.808 209.381C107.972 210.038 106.977 210.523 105.897 210.803C104.817 211.083 103.679 211.15 102.565 210.999H102.67Z" fill="#C800FF"/>
<path d="M139.47 187.21C145.135 187.953 150.622 189.495 155.714 191.776C156.555 194.424 156.976 195.794 157.975 198.534C152.814 195.796 147.077 193.98 141.099 193.191C134.423 192.506 131.374 195.885 133.582 202.049C134.631 205.108 136.737 207.812 139.614 209.797C142.491 211.782 146.001 212.95 149.668 213.145C151.946 213.422 154.264 213.289 156.48 212.755C158.696 212.221 160.761 211.297 162.548 210.04C163.81 212.962 164.493 214.606 165.965 217.529C162.218 219.879 157.646 221.026 153.033 220.77C146.68 220.397 140.613 218.334 135.657 214.862C130.701 211.391 127.094 206.678 125.328 201.365C121.806 190.36 127.957 185.429 139.47 186.844V187.21ZM139.154 185.657C127.01 184.15 120.387 189.538 124.067 201.228C125.938 206.965 129.797 212.063 135.121 215.829C140.444 219.595 146.974 221.847 153.821 222.277C158.536 222.621 163.241 221.522 167.122 219.172L167.753 218.853C167.59 218.556 167.449 218.251 167.332 217.939C165.86 214.88 165.177 213.373 163.968 210.497C163.547 209.584 163.337 209.127 162.969 208.168L161.339 209.31C159.619 210.482 157.638 211.331 155.52 211.802C153.402 212.274 151.195 212.358 149.038 212.049C145.819 211.906 142.729 210.911 140.182 209.197C137.635 207.482 135.753 205.131 134.791 202.46C132.846 197.027 135.632 194.196 141.52 194.744C147.243 195.4 152.753 197.062 157.712 199.629L160.182 200.817C159.867 199.995 159.709 199.584 159.446 198.762C158.448 196.022 158.027 194.652 157.186 192.05C157.216 191.807 157.216 191.562 157.186 191.319L156.24 190.908C150.98 188.449 145.3 186.738 139.417 185.84L139.154 185.657Z" fill="#C800FF"/>
<path d="M170.275 181.639C171.856 189.372 174.051 197 176.847 204.47C181.684 200.261 186.964 196.454 192.618 193.1C198.769 193.374 201.923 193.465 208.389 193.511C202.449 196.89 199.715 198.488 194.721 201.73C202.711 209.173 206.812 212.917 213.804 220.405H202.764C197.507 214.698 194.353 211.867 188.57 206.205C185.541 208.32 182.727 210.657 180.159 213.191C181.263 215.93 181.841 217.346 183.155 220.223H174.061C167.543 207.576 162.847 194.28 160.077 180.635C164.072 181.137 166.122 181.365 170.275 181.776V181.639ZM171.537 180.863H170.013L159.867 179.767H158.395C158.42 180.102 158.42 180.437 158.395 180.772C161.196 194.486 165.946 207.844 172.536 220.542C172.536 221.09 172.904 221.364 173.167 221.866H185.048L184.47 220.588C183.313 217.94 182.787 216.661 181.788 214.15C183.93 212.039 186.249 210.07 188.728 208.259C193.985 213.465 196.718 216.067 201.818 221.318L202.396 221.912H216.643L215.013 220.131C208.389 213.008 204.499 209.447 196.929 202.369C201.608 199.31 204.183 197.803 209.703 194.698L213.12 192.735H208.389C201.87 192.735 198.664 192.735 192.618 192.369H191.882L191.461 192.598C186.523 195.564 181.833 198.829 177.425 202.369C175.05 195.739 173.171 188.982 171.8 182.141V181.091L171.537 180.863Z" fill="#C800FF"/>
<path d="M229.103 182.278C229.103 191.137 228.735 195.566 228.63 204.424H218.115C216.801 195.703 216.223 191.411 215.172 182.963C220.429 182.963 223.425 182.644 229.155 182.233L229.103 182.278ZM223.898 212.78C224.614 212.69 225.342 212.73 226.039 212.896C226.736 213.063 227.386 213.352 227.949 213.746C228.511 214.14 228.974 214.631 229.308 215.188C229.642 215.744 229.841 216.355 229.891 216.981C229.91 217.57 229.783 218.157 229.52 218.701C229.257 219.244 228.864 219.734 228.367 220.135C227.87 220.537 227.28 220.842 226.636 221.03C225.992 221.219 225.31 221.286 224.634 221.227C223.221 221.253 221.845 220.832 220.762 220.042C219.679 219.253 218.963 218.149 218.746 216.935C218.378 214.469 220.639 212.734 224.003 212.78H223.898ZM231.363 180.817H229.366C223.635 181.228 220.797 181.365 215.382 181.594H213.489V182.689C214.593 191.137 215.224 195.429 216.643 204.104V205.2H218.168C222.269 205.2 224.371 205.2 228.682 205.2H230.259V204.104C230.522 194.972 230.68 190.771 231.048 181.822V180.68L231.363 180.817ZM223.898 211.501C219.693 211.501 216.906 213.739 217.432 216.798C217.73 218.318 218.638 219.698 219.994 220.692C221.351 221.687 223.069 222.232 224.844 222.232C225.664 222.262 226.481 222.152 227.251 221.906C228.02 221.66 228.726 221.284 229.327 220.8C229.929 220.316 230.414 219.734 230.754 219.086C231.094 218.438 231.284 217.738 231.311 217.026C231.232 216.243 230.974 215.481 230.551 214.786C230.128 214.091 229.55 213.476 228.849 212.978C228.148 212.48 227.34 212.109 226.472 211.887C225.603 211.665 224.693 211.596 223.793 211.684L223.898 211.501Z" fill="#C800FF"/>
</g>
<defs>
<clipPath id="clip0">
<rect width="231.1" height="222.46" fill="white"/>
</clipPath>
</defs>
</svg>
