<svg width="232" height="223" viewBox="0 0 232 223" fill="none" xmlns="http://www.w3.org/2000/svg">
<g clip-path="url(#clip0)">
<path d="M22.6053 11.3239C28.6527 11.5835 34.6656 12.2707 40.5844 13.3787C41.4256 15.9357 41.7936 17.1685 42.5296 19.5885C36.7852 18.3952 30.9238 17.6766 25.0236 17.4425C16.2969 17.4425 12.4592 18.1731 12.6695 20.0452C13.1952 25.0679 45.9466 20.5018 48.7329 31.7344C50.2048 37.6703 42.0564 39.2684 27.2315 39.3141C19.4287 39.253 11.6359 38.8109 3.89022 37.9899C3.89022 35.3872 3.89022 34.1087 3.89022 31.5061C10.7818 32.9187 17.8375 33.6388 24.9184 33.6521C34.9594 33.6521 38.9022 33.2868 38.4816 31.1408C37.1674 26.255 1.83997 31.9627 1.68226 20.2735C1.68226 14.1549 10.1987 11.1413 22.7105 11.1413L22.6053 11.3239ZM22.7105 10.0454C8.35871 9.9541 0 13.6983 0 20.3191C0 28.5381 15.1403 28.7207 25.6018 29.4513C29.9652 29.6796 36.3788 30.2275 36.5891 31.1864C36.7994 32.1453 33.2771 32.6932 24.4979 32.6476C17.6937 32.6006 10.9189 31.8651 4.31078 30.4558L1.89254 29.9536V31.5974C1.89254 34.2 1.89254 35.4785 1.89254 38.0812V38.9488H3.25937C11.2337 39.7661 19.2546 40.1929 27.2841 40.2273C50.2574 40.2729 51.2037 35.3872 50.31 31.9627C48.3123 24.2003 34.8543 22.5565 24.8659 21.8259C20.9756 21.552 14.3518 21.141 14.3518 20.1821C14.3518 19.2233 14.9826 18.2644 25.2339 18.5383C31.0602 18.8135 36.8476 19.5316 42.5296 20.6844L44.4221 21.0954C44.313 20.617 44.1726 20.1444 44.0015 19.6799C43.2655 17.2142 42.8975 15.9813 42.0564 13.6983C41.9827 13.3715 41.8772 13.0507 41.741 12.7394L40.4793 12.2828C34.5164 11.1292 28.4466 10.4415 22.3425 10.2281L22.7105 10.0454Z" fill="#C800FF"/>
<path d="M75.3865 13.6983C84.7966 14.4289 91.7359 20.5018 95.3633 33.2412C96.5279 37.2128 97.4405 41.237 98.0969 45.2957L89.3702 43.8345C88.7091 40.2055 87.8317 36.6086 86.7417 33.0585C84.1132 24.5656 79.9075 20.4561 73.5991 19.9082C66.2918 19.2689 63.9787 25.2048 66.2918 33.6065C67.0803 36.4831 67.4483 37.8986 68.0792 40.6839C64.0312 40.2273 61.981 39.999 57.5651 39.6337C55.6723 30.6439 53.0012 21.791 49.5743 13.1504L60.0884 13.6983C61.3188 17.5318 62.319 21.4182 63.085 25.3418H63.6632C62.7695 18.2644 65.3981 13.0134 75.3865 13.6983ZM74.8608 12.3741C68.2894 12.0088 64.3467 14.0636 62.8747 17.9904C62.4016 16.3923 62.1913 15.5704 61.7181 13.9266C61.7181 13.3787 61.4553 13.1047 61.2976 12.5568H59.7205L49.2063 12.0088H47.7344L48.1549 13.196C51.5181 21.874 54.1363 30.7566 55.9879 39.7707C56.0087 40.1205 56.0087 40.471 55.9879 40.8209H57.5651C61.7707 41.1862 63.821 41.3688 68.0792 41.8711H69.5511C69.5761 41.5366 69.5761 41.201 69.5511 40.8665C68.9203 38.0812 68.6049 36.6657 67.8163 33.7891C65.6084 25.7984 67.8163 20.4105 74.0722 21.004C78.9087 21.4607 83.0092 23.9263 85.5852 32.7389C86.8994 37.305 87.4251 39.3597 88.2663 43.4692C88.2663 43.9258 88.2663 44.1085 88.2663 44.5651L89.6331 44.7934L98.3072 46.2545H99.4638C99.4638 45.7979 99.4638 45.5696 99.4638 45.1587C98.8078 41.0699 97.8952 37.0152 96.7301 33.0129C93.1027 19.9995 85.6377 12.7851 75.0185 12.0088L74.8608 12.3741Z" fill="#C800FF"/>
<path d="M114.709 15.8442C125.486 16.4378 131.479 24.0632 132.951 33.6977C133.98 39.7497 134.612 45.8477 134.844 51.962L127.431 50.6379C127.694 46.7567 127.799 44.702 127.799 40.4555H127.274C126.643 48.3092 121.701 50.5009 113.395 48.9484C110.607 48.6746 107.989 47.645 105.913 46.0057C103.837 44.3664 102.408 42.2008 101.83 39.8162C99.8844 31.2776 115.656 31.9626 124.75 31.9626C124.615 29.7338 123.496 27.636 121.626 26.1053C119.756 24.5746 117.279 23.7288 114.709 23.7436C110.232 23.5162 105.766 24.3362 101.777 26.118C100.883 23.1957 100.358 21.5519 99.2535 18.6296C104.085 16.6678 109.378 15.714 114.709 15.8442ZM125.539 36.5286C119.125 36.5286 109.084 35.2958 109.768 39.5423C110.122 40.6803 110.883 41.6912 111.941 42.4297C112.999 43.1682 114.3 43.596 115.656 43.6518C120.913 44.565 126.17 42.6929 125.434 36.62L125.539 36.5286ZM114.236 14.2918C108.778 14.1946 103.372 15.2276 98.465 17.3054L97.729 17.5794C97.8752 17.8918 97.9982 18.2121 98.097 18.5382C99.201 21.6432 99.7267 23.1043 100.62 26.0266C100.883 26.8485 101.041 27.2138 101.251 28.0357L102.618 27.3965C106.471 25.7086 110.77 24.9366 115.077 25.1591C120.334 25.6613 122.332 27.4421 123.226 30.4557C113.29 30.4557 98.6227 30.4557 100.673 39.5879C101.2 42.3351 102.741 44.8589 105.065 46.7782C107.388 48.6974 110.367 49.9079 113.553 50.2269C119.756 51.4141 124.067 50.5466 126.485 47.0763C126.485 48.4461 126.485 49.0854 126.485 50.4096C126.485 50.9575 126.485 51.2315 126.485 51.7794L127.747 52.0077L135.107 53.3775H136.211C136.237 52.9517 136.237 52.5249 136.211 52.099C136.032 45.9872 135.453 39.8892 134.476 33.8347C132.741 22.2824 125.171 14.794 114.552 14.2918H114.236ZM115.656 42.4189C113.763 42.1449 111.45 41.2774 111.187 39.8162C110.661 37.2136 118.757 37.6702 123.541 37.8985H124.54C124.277 41.8253 120.071 43.1038 115.656 42.4646V42.4189Z" fill="#C800FF"/>
<path d="M154.294 17.6707C159.249 17.7214 164.084 19.0049 168.225 21.3693C168.593 25.1591 168.698 27.0312 168.856 30.5015C164.959 27.8551 160.186 26.3664 155.24 26.255C148.616 25.8897 145.304 30.5471 145.935 37.0766C145.833 39.8944 146.92 42.6474 148.992 44.8173C151.064 46.9871 153.978 48.424 157.185 48.8571C159.465 49.0404 161.761 48.7176 163.858 47.9189C165.954 47.1202 167.783 45.8719 169.172 44.291C169.172 47.4873 169.172 49.0854 168.909 52.1904C167.312 53.5563 165.382 54.5935 163.262 55.2257C161.142 55.8579 158.886 56.069 156.66 55.8433C146.514 54.7931 139.469 47.4417 138.102 36.5287C136.736 25.6157 142.413 17.3968 154.294 17.7621V17.6707ZM154.031 15.9813C141.414 15.5703 135.369 24.5199 136.683 36.5287C137.997 48.5375 145.462 56.3912 156.344 57.624C158.644 57.8645 160.977 57.6528 163.17 57.0047C165.363 56.3566 167.36 55.2887 169.014 53.8798L169.697 53.4689C169.722 53.1801 169.722 52.8901 169.697 52.6013C169.697 49.4964 169.697 48.0352 169.96 44.6563V41.8254L168.225 43.3778C166.912 44.8709 165.176 46.0427 163.185 46.779C161.195 47.5153 159.019 47.7908 156.87 47.5786C154.104 47.1814 151.599 45.9254 149.82 44.044C148.041 42.1627 147.109 39.7841 147.197 37.3506C146.671 31.506 149.773 27.6705 155.556 28.2184C160.119 28.3186 164.539 29.6247 168.225 31.9626L170.013 33.0585C170.013 32.0083 170.013 31.506 170.013 30.4558C170.013 26.8486 169.697 24.9765 169.382 21.3236C169.382 20.867 169.382 20.6844 169.382 20.2277L168.593 19.8625C164.287 17.3487 159.22 15.9983 154.031 15.9813Z" fill="#C800FF"/>
<path d="M181.579 1.73511C182.831 12.7498 183.34 23.8186 183.103 34.8849C189.254 27.3966 192.461 23.561 198.927 16.2553C203.869 15.753 206.34 15.4791 211.386 14.8398C206.129 19.8168 203.869 22.4652 198.927 27.7618C202.422 34.2228 206.372 40.4902 210.755 46.5285C206.34 47.8983 204.184 48.4462 199.978 49.4964C197.035 44.0628 195.615 41.1405 192.513 34.8393L182.84 45.2956C182.84 48.4919 182.578 49.8617 182.315 53.1036C179.161 53.6059 177.636 53.7886 174.587 54.1539C176.056 36.6852 175.404 19.1308 172.642 1.78078H181.579V1.73511ZM182.735 0H171.065L171.328 1.78078C174.211 19.1667 174.916 36.7729 173.43 54.2908C173.43 54.8388 173.43 55.1127 173.43 55.6607H174.587C177.636 55.2954 179.161 55.0671 182.315 54.6105H183.471C183.499 54.1694 183.499 53.7273 183.471 53.2863C183.997 50.227 183.997 48.6745 183.997 45.6609L192.145 36.9397C194.932 42.6473 196.246 45.2956 198.927 50.3183L199.243 50.8663H199.926C204.132 49.8161 206.287 49.2225 210.44 47.8526L212.858 47.1221L211.912 45.6609C207.726 39.9645 203.951 34.0476 200.609 27.9445C205.025 22.8305 207.496 20.4104 212.175 15.7987L215.066 13.059L211.386 13.47C206.129 14.0179 203.869 14.2919 198.927 14.7485H198.454L198.086 15.1594C192.513 21.552 189.727 24.8852 184.312 31.4147C184.433 21.5068 183.959 11.6002 182.893 1.73511C182.893 1.0502 182.893 0.684914 182.893 0H182.735Z" fill="#C800FF"/>
<path d="M227.105 1.18718C226.842 10.5933 226.737 15.2964 226.316 24.6569C222.794 25.5701 221.059 26.0267 217.59 26.803C217.59 16.8945 217.59 11.8262 217.169 1.36983H227.105V1.18718ZM221.48 34.9306C224.529 34.0174 226.737 34.9306 226.737 37.5789C226.584 39.0073 225.97 40.3691 224.965 41.508C223.961 42.6468 222.607 43.5165 221.059 44.0171C217.958 45.113 215.802 44.0171 215.802 41.1862C215.938 39.7942 216.529 38.4651 217.508 37.3564C218.486 36.2477 219.81 35.4058 221.322 34.9306H221.48ZM228.472 0H215.802C215.802 0.547931 215.802 0.821897 215.802 1.41549C216.223 12.0088 216.275 17.1685 216.223 27.1682V28.4011L217.485 28.0815C220.954 27.2596 222.742 26.803 226.264 25.8441L227.578 25.4788V24.3373C227.946 15.2051 228.051 10.639 228.314 1.23284V0H228.472ZM221.48 33.6978C219.588 34.3063 217.938 35.3746 216.727 36.7753C215.515 38.1759 214.792 39.8497 214.646 41.5971C214.646 45.0217 217.169 46.6655 221.112 45.25C223.056 44.5933 224.753 43.4821 226.015 42.0396C227.276 40.5971 228.054 38.8794 228.261 37.0767C228.261 33.9261 225.318 32.5106 221.48 33.6978Z" fill="#C800FF"/>
<path d="M2.99596 82.8289C2.99596 80.2262 2.99596 78.9477 2.99596 76.345C10.886 76.4851 18.7768 76.1035 26.6001 75.2035C37.6399 73.925 41.8456 73.2858 42.0033 71.231C42.3713 66.6649 0.735432 77.3039 0.682861 65.4321C0.735432 59.3592 12.7215 54.7931 28.0721 54.0625C35.1115 53.9381 42.1495 54.366 49.1003 55.341C49.1003 57.4871 49.4683 58.5373 49.6786 60.592C43.1371 59.6007 36.4968 59.1877 29.8595 59.3592C19.3454 59.9071 14.5089 61.4596 14.614 63.2404C14.614 68.1261 54.1471 60.592 53.0431 70.8657C52.4648 76.345 43.6855 78.3998 28.2824 80.3175C21.5008 81.3677 11.4598 82.1896 2.99596 82.8289Z" fill="#C800FF"/>
<path d="M59.1417 55.341C63.8205 55.6606 66.0284 55.8889 70.4443 56.4369C70.4443 60.1354 70.0764 61.9618 69.7084 65.5691H70.2341C71.4432 59.8614 76.3848 56.4369 86.0052 58.0807C95.6256 59.7245 99.1479 64.6102 97.8862 74.062C97.4712 77.1337 96.8568 80.1826 96.0462 83.1942C93.472 82.4719 90.8577 81.8624 88.2132 81.3677C88.938 78.6268 89.4821 75.8522 89.8429 73.0575C90.5789 66.6193 88.0555 63.3317 81.747 62.2815C75.4385 61.2313 70.9175 65.2951 69.8661 72.6465C69.4981 75.1122 69.2878 76.345 68.8672 78.8107C65.0822 78.4911 63.137 78.3541 59.0891 78.2628C60.3889 70.665 60.4066 62.9432 59.1417 55.341Z" fill="#C800FF"/>
<path d="M101.882 79.587C103.249 73.3771 117.653 76.7561 125.591 78.4455C126.117 74.6556 124.119 72.6466 119.125 71.1854C115.077 70.1926 110.84 69.9131 106.666 70.3635C106.666 68.2631 106.666 67.2129 106.981 65.0669C111.837 64.6563 116.738 65.0278 121.438 66.1627C123.296 66.5073 125.056 67.1711 126.614 68.1152C128.173 69.0593 129.498 70.2645 130.512 71.66C131.526 73.0555 132.208 74.6131 132.519 76.241C132.829 77.869 132.762 79.5345 132.32 81.1395C131.604 85.4401 130.497 89.6847 129.008 93.8332L122.542 91.5958C123.962 88.9475 124.645 87.6233 125.907 84.7924H125.486C122.49 89.8607 117.285 90.5913 109.715 88.1256C106.245 86.7558 100.831 84.4727 101.882 79.587ZM124.96 81.8244C119.335 80.5459 110.398 77.8976 109.662 80.9569C109.347 82.418 110.977 83.8335 113.815 84.7467C118.652 86.3905 124.172 86.1622 124.96 81.8244Z" fill="#C800FF"/>
<path d="M136.053 83.8336C137.577 76.0255 144.359 71.9617 154.4 73.4229C158.317 73.8508 162.091 74.9695 165.492 76.7104C165.019 79.4501 164.809 80.7743 164.283 83.3769C161.063 81.1957 157.236 79.7936 153.191 79.3131C152.025 79.0362 150.804 78.9821 149.612 79.1546C148.419 79.3271 147.285 79.7221 146.285 80.3124C145.286 80.9027 144.445 81.6742 143.822 82.5738C143.2 83.4733 142.809 84.4795 142.677 85.523C142.368 86.5623 142.319 87.6468 142.532 88.7039C142.745 89.761 143.216 90.7664 143.913 91.6527C144.61 92.5389 145.517 93.2857 146.573 93.8429C147.629 94.4001 148.81 94.7549 150.036 94.8835C154.082 95.7579 158.36 95.2341 161.97 93.4223C161.444 95.6597 161.129 96.7556 160.551 98.9473C156.649 100.448 152.281 100.769 148.144 99.8605C146.116 99.5366 144.184 98.8586 142.466 97.8675C140.748 96.8765 139.279 95.593 138.149 94.0947C137.019 92.5964 136.25 90.9145 135.89 89.1508C135.529 87.3871 135.585 85.5782 136.053 83.8336Z" fill="#C800FF"/>
<path d="M173.115 62.3271C176.164 62.0075 177.689 61.7792 180.843 61.3226C179.634 72.2356 178.793 77.3039 176.847 87.0297C183.201 81.8245 189.204 76.3056 194.827 70.5004C199.214 69.4258 203.531 68.1454 207.759 66.6649C202.029 72.3725 199.137 75.1579 193.512 80.3632C196.562 85.6222 200.594 90.4054 205.446 94.5181C200.189 96.0706 197.876 96.7098 193.197 97.8057C190.319 94.3963 187.952 90.6833 186.152 86.7557C182.745 89.6795 179.109 92.3952 175.27 94.8834C174.797 97.1664 174.534 98.3079 174.009 100.5C170.697 100.5 169.12 100.774 165.965 100.774C169.522 88.1437 171.913 75.2874 173.115 62.3271Z" fill="#C800FF"/>
<path d="M211.597 89.1759C211.999 87.7164 212.808 86.3654 213.955 85.2425C215.101 84.1196 216.548 83.2593 218.168 82.7377C221.848 81.2309 224.739 81.6418 224.687 84.0619C224.331 85.64 223.502 87.1087 222.284 88.3194C221.065 89.5301 219.5 90.4398 217.747 90.9566C214.067 92.3265 211.439 91.5959 211.597 89.1759ZM214.909 52.6471C219.062 51.186 221.217 50.4097 225.423 48.629C224.897 57.7612 224.634 62.3272 223.951 71.8247C219.692 73.6968 217.59 74.5644 213.437 76.1168C214.33 66.8933 214.541 62.1903 214.909 52.6471Z" fill="#C800FF"/>
<path d="M30.8063 94.6551C37.09 93.7297 43.474 93.4234 49.8368 93.7419C49.4688 95.8423 49.2586 96.8925 48.8906 98.9929C43.0821 98.6849 37.2522 99.0224 31.5423 99.9974C22.1322 101.687 17.3482 103.879 17.2431 105.705C17.2431 110.545 51.7294 99.0386 49.7317 109.267C48.6277 114.7 40.9524 117.668 27.8098 121.275C22.027 122.828 13.5106 124.883 6.30843 126.298C6.30843 123.741 6.30843 122.463 6.30843 119.906C13.1639 119.152 19.9343 117.9 26.5481 116.161C36.0634 113.696 39.6907 112.6 40.0061 110.591C40.7421 106.025 4.31075 121.093 4.52104 109.358C4.52104 103.331 16.3494 96.9838 30.8063 94.6551ZM30.8063 93.6049C14.4569 96.2532 2.6285 103.513 2.57593 109.952C2.57593 118.125 18.3471 113.467 28.8612 111.595C33.0143 110.773 38.9547 109.952 38.8496 110.865C38.7444 111.778 35.3274 112.965 26.9687 115.111C20.4581 116.806 13.7923 118.013 7.04442 118.718H4.52104V120.362C4.52104 122.965 4.52104 124.243 4.52104 126.8V127.851L5.8353 127.577C12.9849 126.115 21.6065 124.015 27.7572 122.326C47.9969 116.664 50.31 112.326 50.9934 109.13C52.4128 102.098 40.4793 102.554 29.9652 104.153C25.9698 104.792 18.9254 106.162 18.9779 105.248C19.0305 104.335 20.3973 103.011 31.332 101.002C36.9577 100.056 42.6944 99.7032 48.4174 99.9518H50.0997L50.3625 98.7646C50.7305 96.6642 50.9408 95.6596 51.3088 93.5592V92.783H50.1522C43.6885 92.4253 37.199 92.701 30.8063 93.6049Z" fill="#C800FF"/>
<path d="M83.4297 93.9245C91.4204 95.203 93.4707 99.4495 90.1587 108.445C88.8445 112.006 88.2136 113.833 86.8994 117.577C84.6011 116.934 82.2446 116.461 79.8549 116.161C81.0115 112.646 81.5897 110.956 82.7463 107.577C84.9542 101.23 83.64 98.445 78.0149 97.8057C72.3899 97.1665 66.2391 101.596 64.3466 108.947C63.6632 111.413 63.3478 112.646 62.7169 115.157C59.405 115.157 57.7227 115.157 54.2005 115.613C56.2507 106.253 57.3547 101.915 59.4575 92.783C63.6632 92.783 65.6609 92.783 69.5511 93.057C68.1317 96.5729 67.4483 98.3536 65.9763 101.961H66.502C67.6921 99.0029 70.104 96.534 73.2702 95.0324C76.4364 93.5309 80.1317 93.1035 83.64 93.8332L83.4297 93.9245ZM83.9028 92.9656C81.4 92.4446 78.7885 92.4634 76.296 93.0206C73.8035 93.5777 71.5059 94.6562 69.6037 96.1619C70.1294 94.9291 70.3396 94.3355 70.8128 93.1939L71.1808 92.1894H69.7614C65.8711 91.9611 63.8735 91.8698 59.6678 91.9154H57.8279V92.8743C55.9879 102.007 54.8839 106.344 52.8862 115.705V116.664H54.2005C57.6701 116.39 59.4575 116.298 62.6643 116.207H63.8735L64.1363 115.248C64.7672 112.737 65.0826 111.504 65.766 109.038C67.606 102.28 72.5476 98.171 77.9624 98.7646C82.1154 99.2212 84.1131 100.865 81.8526 107.486C80.696 110.865 80.1178 112.6 79.0138 116.116C78.8847 116.414 78.7793 116.719 78.6984 117.029H79.8023C82.1676 117.34 84.5042 117.798 86.7942 118.399L87.7931 118.673C87.9222 118.375 88.0276 118.07 88.1085 117.76C89.4227 114.015 90.1062 112.235 91.4204 108.627C94.7324 99.4952 92.9975 94.4725 83.9028 92.9656Z" fill="#C800FF"/>
<path d="M114.971 103.148C116.566 103.489 118.057 104.128 119.338 105.02C120.62 105.912 121.663 107.036 122.393 108.314C123.124 109.592 123.525 110.993 123.569 112.419C123.613 113.845 123.298 115.262 122.647 116.572C120.859 121.138 120.018 123.239 118.441 127.805L111.922 125.476C113.394 122.919 114.13 121.641 115.655 119.129H115.287C111.817 123.695 106.613 124.38 99.5157 122.052C96.0986 120.956 91.0518 118.718 92.8392 113.924C95.0997 107.76 108.61 111.55 116.338 113.924C117.547 110.773 115.97 108.947 111.397 107.257C107.577 105.985 103.497 105.41 99.4105 105.568L101.093 101.002C105.851 101.102 110.55 101.937 114.971 103.468V103.148ZM114.971 116.755C109.714 115.202 101.093 112.417 99.9888 115.339C99.4631 116.709 100.83 118.079 103.511 119.038C108.137 120.636 113.447 120.408 114.971 116.755ZM114.971 102.6C110.433 101.038 105.606 100.202 100.725 100.134H99.9888L99.8837 100.454L98.2014 105.02L97.7283 106.299H99.3054C103.246 106.143 107.181 106.687 110.871 107.897C115.024 109.404 115.865 110.819 115.392 112.463C107.033 110.043 94.3638 106.755 91.6301 113.467C90.5787 116.344 91.1044 120.18 99.0425 122.6C101.062 123.465 103.283 123.916 105.535 123.916C107.787 123.916 110.008 123.465 112.027 122.6C111.554 123.467 111.291 123.924 110.766 124.791L110.24 125.704L111.397 126.115L117.915 128.398L118.914 128.764L119.177 127.942C120.754 123.376 121.648 121.138 123.383 116.664C124.074 115.239 124.404 113.702 124.35 112.157C124.297 110.612 123.862 109.095 123.074 107.709C122.286 106.323 121.164 105.101 119.784 104.125C118.404 103.149 116.799 102.442 115.077 102.052L114.971 102.6ZM103.669 118.17C102.092 117.622 100.409 116.664 100.777 115.659C101.461 113.878 108.4 115.659 112.501 117.029L113.342 117.257C111.607 119.495 107.349 119.449 103.669 118.17Z" fill="#C800FF"/>
<path d="M145.884 113.056C149.96 113.842 153.901 115.085 157.607 116.755L156.03 121.915C152.381 119.813 148.345 118.268 144.096 117.349C138.419 116.024 134.108 117.349 132.741 121.23C131.374 125.111 134.16 128.673 140.311 130.362C144.684 131.519 149.371 131.407 153.664 130.042L152.455 135.019C147.944 136.041 143.197 135.962 138.734 134.791C128.746 132.234 123.804 125.659 126.222 119.221C128.641 112.782 136.211 110.819 145.989 113.056H145.884ZM146.304 112.143C135.79 109.86 127.852 112.143 125.276 118.901C122.7 125.659 127.694 132.873 138.524 135.613C143.167 136.865 148.121 136.96 152.823 135.887H153.664V135.293L154.978 130.362L155.399 128.764L153.296 129.403C149.225 130.701 144.778 130.814 140.627 129.723C135.37 128.353 132.583 125.157 133.793 121.823C135.002 118.49 139.05 117.257 143.833 118.536C147.901 119.383 151.775 120.818 155.294 122.782L156.871 123.65C156.871 123.056 157.134 122.782 157.292 122.143C157.922 120.088 158.185 119.084 158.816 116.983V116.39L158.185 116.116C154.358 114.399 150.295 113.11 146.094 112.28L146.304 112.143Z" fill="#C800FF"/>
<path d="M175.112 106.253C173.325 114.335 172.326 118.216 170.591 125.933C177.753 122.24 184.589 118.088 191.041 113.513C196.243 112.689 201.385 111.607 206.444 110.271C201.167 114.215 195.657 117.919 189.937 121.367C194.562 126.355 199.605 131.041 205.025 135.385C198.979 136.298 196.088 136.663 190.568 137.165C187.339 133.708 184.338 130.095 181.578 126.344C176.321 129.129 174.008 130.362 169.172 132.599C168.699 134.7 168.488 135.75 168.12 137.805C164.283 137.805 162.39 137.576 158.815 137.257C161.496 125.157 163.442 119.358 166.806 106.573C169.597 106.6 172.387 106.493 175.165 106.253H175.112ZM176.637 105.02H175.322C172.563 105.26 169.79 105.367 167.016 105.34C166.633 105.385 166.243 105.385 165.86 105.34L165.597 106.299C162.18 119.038 160.34 124.791 157.448 136.846C157.448 137.211 157.448 137.394 157.448 137.759H158.763C162.39 138.124 164.02 138.261 168.068 138.398H169.54C169.518 138.079 169.518 137.759 169.54 137.439C169.908 135.522 170.065 134.563 170.486 132.645C174.534 130.727 176.637 129.677 181 127.394C183.537 130.974 186.293 134.434 189.254 137.759L189.674 138.216H190.673C196.193 137.713 199.084 137.394 205.13 136.48L208.494 135.933L206.812 134.608C201.602 130.486 196.719 126.062 192.198 121.367C198.243 117.577 201.345 115.522 207.653 110.865L211.544 107.988L206.76 109.267C201.733 110.605 196.626 111.702 191.462 112.554H190.936L190.463 112.874C184.821 116.88 178.866 120.542 172.641 123.832C174.218 116.846 175.06 113.376 176.637 106.116V105.02Z" fill="#C800FF"/>
<path d="M227.946 92.9199C227.473 102.052 227.263 106.299 226.737 115.202C221.48 116.755 219.114 117.44 214.278 118.627C214.278 110.317 214.541 106.116 214.698 97.76C219.955 96.0705 222.426 95.1117 227.946 92.9199ZM219.798 125.248C224.161 124.198 227.683 124.974 227.683 127.394C227.683 129.814 224.214 132.462 219.535 133.467C214.856 134.471 211.965 133.467 212.122 130.91C212.28 128.353 215.539 126.344 219.798 125.248ZM229.839 91.0022L227.946 91.7784C222.689 93.9701 219.798 94.9747 214.751 96.6641L213.069 97.2577V98.3536C213.069 106.664 212.701 110.819 212.543 119.129V120.134L214.33 119.723C219.167 118.536 221.638 117.851 226.842 116.344L228.787 115.75V114.655L229.839 92.1894V91.0022ZM219.85 124.152C214.593 125.476 210.44 128.444 210.23 131.275C210.02 134.106 213.91 135.841 219.482 134.563C225.055 133.284 229.996 129.997 229.996 126.892C229.996 123.787 225.58 122.828 220.113 124.152H219.85Z" fill="#C800FF"/>
<path d="M27.4422 135.887C32.6516 134.269 38.108 133.331 43.6339 133.102C43.2134 135.659 42.9505 136.983 42.5299 139.586C37.4749 139.652 32.4668 140.439 27.7051 141.914C19.7143 144.471 15.7716 147.165 15.7716 149.174C15.351 154.562 44.9482 139.266 43.1082 152.508C42.0568 159.539 35.0649 163.831 23.8674 167.302C18.0362 169.007 12.0831 170.38 6.046 171.411C6.046 168.717 6.046 167.393 6.046 164.699C11.7745 164.049 17.4001 162.839 22.816 161.092C30.8593 158.443 34.0661 156.982 34.3815 154.471C35.0649 148.718 4.36375 165.886 4.67917 153.786C4.67917 147.531 14.8779 139.814 27.2319 135.887H27.4422ZM27.2319 134.837C13.4584 139.266 3.36491 147.941 3.25977 154.517C3.25977 162.827 16.2973 157.896 24.8137 155.704C28.3359 154.745 33.4352 153.695 33.2775 154.791C33.1198 155.886 30.2284 157.53 23.1314 159.813C17.8648 161.503 12.3993 162.682 6.83456 163.329L4.73174 163.603V165.293C4.73174 167.987 4.73174 169.311 4.73174 172.005V172.872H5.78315C11.9401 171.818 18.0151 170.43 23.9726 168.717C41.3208 163.421 43.6865 156.617 44.2648 152.416C45.5265 143.284 35.1701 144.745 26.4434 147.028C23.0789 147.896 17.1384 149.768 17.2435 148.718C17.3487 147.668 18.4526 146.206 27.7576 143.238C32.3541 141.803 37.1762 140.987 42.0568 140.818H43.5288L43.7916 139.357C44.2122 136.709 44.4751 135.43 44.9482 132.828C44.9188 132.539 44.9188 132.249 44.9482 131.96H43.8968C38.2669 132.214 32.708 133.167 27.3896 134.791L27.2319 134.837Z" fill="#C800FF"/>
<path d="M73.0206 130.134C80.1176 130.91 81.905 135.065 80.065 146.845C79.3816 151.412 79.0662 153.969 78.6982 159.128C76.2713 158.611 73.7845 158.335 71.2858 158.306C71.7589 153.512 72.0743 151.229 72.7577 146.845C74.1771 138.49 73.0732 135.522 68.079 135.339C63.0848 135.156 57.5649 141.275 55.9877 151.092C55.5146 154.38 55.3043 156.069 54.9363 159.539C51.8347 159.905 50.3101 160.133 47.1033 160.681C48.5227 148.124 49.9421 141.092 51.7821 131.184C54.6914 130.82 57.623 130.606 60.5614 130.545C59.2471 134.563 58.4586 137.257 57.1443 142.005H57.8277C60.3511 134.334 65.6082 129.449 73.2309 130.179L73.0206 130.134ZM73.2309 129.175C70.7515 128.892 68.2308 129.232 65.9669 130.154C63.703 131.077 61.7907 132.543 60.4562 134.38L61.6128 130.636C61.6128 130.179 61.6128 129.951 61.9808 129.54H60.7191C57.7797 129.618 54.8481 129.846 51.9398 130.225H50.7307C50.7307 130.636 50.7307 130.864 50.7307 131.275C48.9433 141.184 47.4713 148.261 46.1045 160.818C46.1045 161.32 46.1045 161.594 46.1045 162.096H47.261C50.4678 161.548 52.045 161.32 55.094 160.909H56.198C56.198 160.407 56.198 160.133 56.198 159.631C56.566 156.16 56.7763 154.517 57.2494 151.183C58.6163 142.051 63.1373 136.572 68.0264 136.709C71.6538 136.709 73.2834 138.353 71.9166 147.028C71.1806 151.594 70.8652 153.74 70.3921 158.58C70.3921 159.083 70.3921 159.357 70.3921 159.859H71.4435C73.9403 159.872 76.4272 160.132 78.8559 160.635H79.9599C79.9599 160.133 79.9599 159.905 79.9599 159.402C80.3279 154.288 80.6433 151.823 81.3267 147.165C83.1667 135.202 81.5896 130.134 73.4937 129.266L73.2309 129.175Z" fill="#C800FF"/>
<path d="M103.459 136.983C106.984 137.869 110.008 139.856 111.949 142.562C113.89 145.267 114.611 148.501 113.973 151.64C113.599 156.398 113.599 161.173 113.973 165.932L106.245 164.379C106.718 160.772 107.034 159.037 107.77 155.749H107.296C105.351 161.822 100.567 164.105 92.7344 162.553C90.1531 162.366 87.7608 161.303 86.0775 159.593C84.3941 157.883 83.5559 155.665 83.7449 153.421C84.6386 145.156 98.7801 147.713 106.823 149.311C107.139 145.43 105.246 143.467 100.515 142.051C96.6749 140.976 92.5759 140.803 88.6339 141.549C89.0019 139.266 89.2648 138.124 89.7379 135.887C94.3639 135.397 99.0578 135.834 103.459 137.165V136.983ZM106.403 152.69C100.567 151.594 91.6305 149.585 91.2625 153.512C91.2625 155.384 92.8922 156.891 95.8361 157.53C101.093 158.672 105.982 157.53 106.35 152.69H106.403ZM103.617 136.252C99.128 134.839 94.3179 134.37 89.5802 134.882H88.8442V135.567C88.3711 137.805 88.1082 138.901 87.6877 141.229L87.4248 142.873L88.9494 142.508C92.7501 141.736 96.7159 141.831 100.462 142.782C104.773 144.06 105.719 145.567 105.719 147.804C96.9401 146.024 83.5872 143.923 82.5883 152.964C82.4061 154.242 82.5222 155.539 82.9296 156.777C83.337 158.015 84.0274 159.17 84.9596 160.171C85.8918 161.173 87.0467 162.001 88.3554 162.606C89.6641 163.211 91.0997 163.582 92.5767 163.694C94.81 164.379 97.2232 164.488 99.5265 164.01C101.83 163.533 103.925 162.487 105.562 161C105.562 162.188 105.246 162.781 105.089 163.968C104.931 165.156 105.089 164.745 105.089 165.293L106.35 165.567L113.658 167.165H114.762C114.788 166.784 114.788 166.403 114.762 166.023C114.389 161.28 114.389 156.52 114.762 151.777C115.423 148.406 114.652 144.941 112.592 142.026C110.532 139.112 107.324 136.946 103.564 135.933L103.617 136.252ZM95.8361 156.389C94.1013 156.023 92.1562 155.064 92.2613 153.74C92.2613 151.366 99.7789 152.553 104.142 153.329H105.036C103.985 156.343 99.7789 157.119 95.8361 156.206V156.389Z" fill="#C800FF"/>
<path d="M136.683 147.165C141.343 148.303 145.814 149.96 149.984 152.097C149.984 154.197 149.984 155.247 149.984 157.348C145.671 154.861 140.934 152.981 135.947 151.777C129.586 150.27 125.433 152.051 125.433 156.343C125.607 158.774 126.753 161.076 128.672 162.852C130.592 164.627 133.165 165.765 135.947 166.069C140.606 167.208 145.535 167.208 150.194 166.069C150.194 168.215 150.457 169.311 150.772 171.548C145.907 172.482 140.865 172.482 136 171.548C125.223 169.63 117.495 162.416 117.916 154.608C118.336 146.8 125.591 144.608 136.578 147.302L136.683 147.165ZM136.683 146.115C125.118 143.284 117.285 145.75 116.812 154.014C117.048 158.534 119.104 162.838 122.62 166.176C126.136 169.514 130.89 171.674 136.052 172.279C141.128 173.236 146.38 173.236 151.455 172.279H152.244C152.244 172.005 152.244 171.868 152.244 171.639C151.929 169.402 151.823 168.306 151.613 166.114C151.613 165.43 151.613 165.064 151.613 164.379L149.563 164.973C145.163 166.052 140.505 166.052 136.105 164.973C130.112 163.786 126.379 160.407 126.537 156.48C126.695 152.553 130.27 151.229 135.842 152.508C140.644 153.654 145.204 155.457 149.353 157.85L151.35 158.946V157.393C151.35 155.247 151.35 154.197 151.35 152.142V151.549C151.088 151.454 150.841 151.332 150.614 151.183C146.246 148.972 141.562 147.268 136.683 146.115Z" fill="#C800FF"/>
<path d="M168.226 143.512C166.983 149.939 166.736 156.48 167.49 162.964C174.85 159.448 178.004 157.758 187.257 153.01C193.095 152.885 198.921 152.488 204.71 151.822C197.193 155.932 194.196 157.53 187.888 160.635C195.247 166.891 199.348 170.087 207.286 176.708C201.293 176.708 198.349 176.708 192.724 176.708C187.467 171.731 184.681 169.311 179.792 164.516L168.226 169.904C168.226 172.096 168.647 173.192 169.067 175.429C164.914 175.064 162.864 174.79 158.869 174.288C156.583 163.895 156.583 153.22 158.869 142.827C162.549 143.193 164.441 143.33 168.331 143.512H168.226ZM169.961 142.645H168.489C164.599 142.645 162.706 142.371 159.026 142.005H157.712C157.712 142.371 157.712 142.508 157.712 142.873C155.425 153.266 155.425 163.941 157.712 174.333C157.712 174.744 157.712 174.927 157.712 175.338H159.184C163.127 175.84 165.177 176.068 169.33 176.479H170.855C170.855 176.114 170.855 175.886 170.855 175.475C170.487 173.42 170.329 172.416 170.066 170.406L179.687 165.84C184.208 170.406 186.626 172.461 191.515 177.027L192.093 177.575H193.092C198.717 177.575 201.608 177.575 207.602 177.575H210.913L208.968 176.023C201.398 169.722 197.508 166.891 190.358 160.772C196.299 157.758 199.401 156.206 206.13 152.416L210.388 150.042L205.131 150.681C197.771 151.457 194.301 151.685 187.73 151.914H187.099L186.626 152.188C178.688 156.297 175.691 157.804 169.172 160.955C168.604 155.116 168.905 149.238 170.066 143.467C170.066 143.101 170.066 142.919 170.066 142.553L169.961 142.645Z" fill="#C800FF"/>
<path d="M228.839 137.394C228.418 146.115 228.156 150.681 227.84 159.813C222.583 160.59 219.692 160.909 214.54 161.457C213.751 153.147 213.541 148.992 213.541 140.59C219.376 139.631 222.478 139.038 228.839 137.622V137.394ZM221.059 168.854C225.475 168.443 229.049 169.767 229.049 172.187C229.049 174.607 225.895 176.754 221.374 177.027C216.853 177.301 213.856 175.795 213.699 173.42C213.541 171.046 216.695 169.265 221.059 168.854ZM231.047 135.978L228.839 136.481C222.478 137.896 219.429 138.535 213.594 139.54L211.596 139.86V140.955C211.479 147.861 211.813 154.767 212.595 161.64V162.69H214.487C219.744 162.188 222.268 161.868 227.788 161.137L229.838 160.818V159.722C230.258 150.59 230.469 146.343 230.889 137.348V136.161L231.047 135.978ZM221.006 167.941C215.434 168.489 211.596 170.863 211.806 173.74C212.016 176.617 216.117 178.671 221.427 178.306C226.736 177.941 231.31 174.881 231.31 171.776C231.31 168.672 226.841 167.21 221.216 167.53L221.006 167.941Z" fill="#C800FF"/>
<path d="M22.9208 185.566C27.7623 184.502 32.7563 184.056 37.7457 184.242C37.7457 187.301 37.7457 188.808 37.7457 192.004C33.0613 191.527 28.3183 191.728 23.7094 192.598C16.5072 194.059 13.1953 195.977 13.1953 198.123C13.1953 203.876 39.7434 191.73 40.3216 208.122C40.6371 216.844 33.5926 220.907 22.5002 220.999C16.6872 221.019 10.8942 220.406 5.25711 219.172V212.004C10.2419 213.321 15.463 213.832 20.6603 213.51C28.3356 212.962 31.5949 211.821 31.5424 208.944C31.5424 202.095 3.8377 212.78 3.94284 200.406C3.94284 194.059 12.0387 188.351 22.8682 185.703L22.9208 185.566ZM22.8682 184.379C10.5142 187.21 2.73372 193.922 2.68115 200.634C2.68115 209.036 13.9312 208.077 21.9745 207.803C25.2865 207.803 30.2807 207.803 30.3332 208.899C30.3858 209.994 27.4419 211.547 20.7128 212.141C15.685 212.48 10.6278 212.032 5.78281 210.816L3.99542 210.451V219.903L4.94168 220.131C10.574 221.525 16.3835 222.307 22.2374 222.46C39.5857 222.46 41.5308 213.328 41.3205 208.031C40.8474 196.616 30.5435 197.209 22.5528 197.986C19.4511 198.305 14.2467 198.945 14.2467 197.986C14.2467 197.575 15.0878 195.794 23.4991 194.104C28.0355 193.329 32.6856 193.19 37.2726 193.694H38.7445V191.776C38.7445 188.625 38.7445 187.21 38.7445 183.968V182.826H38.0611C32.9786 182.638 27.8925 183.116 22.9734 184.242L22.8682 184.379Z" fill="#C800FF"/>
<path d="M67.028 178.625C74.5981 178.214 77.9627 183.694 80.5386 200.999C81.59 207.894 82.2209 211.547 83.9557 219.264H75.0187C73.6519 212.095 73.1262 208.716 72.3376 202.232C70.7605 189.995 68.6577 186.205 63.2955 186.662C57.9333 187.118 53.2545 195.063 54.3059 208.168C54.6739 212.734 54.8842 214.835 55.4625 219.446H46.5781C45.3141 207.028 44.9629 194.553 45.5266 182.096C49.0489 181.548 50.7837 181.319 54.2533 180.908C53.7276 186.707 53.5174 189.721 53.2545 195.977H53.7276C54.5688 185.84 58.9847 179.219 67.028 178.625ZM67.028 177.164C64.2596 177.457 61.6485 178.441 59.5115 179.997C57.3745 181.553 55.8035 183.615 54.9893 185.931C54.9893 183.922 54.9893 182.918 55.4099 180.954C55.4099 180.315 55.4099 179.995 55.4099 179.356H54.1482C50.7311 179.767 48.8912 179.995 45.4215 180.543H44.265C44.265 181.091 44.265 181.411 44.265 181.959C43.6427 194.352 43.9412 206.767 45.1587 219.127C45.1587 219.812 45.1587 220.131 45.1587 220.816H56.7242V219.172C56.1985 214.606 55.9356 212.232 55.5676 207.803C54.5688 195.657 58.091 188.351 63.3481 187.895C67.3434 187.575 69.5514 189.31 71.1285 202.004C71.917 208.488 72.4427 211.867 73.757 218.99C73.757 219.72 73.757 220.086 74.0724 220.862H85.6905C85.6905 220.131 85.4277 219.766 85.27 219.035C83.5351 211.364 82.8517 207.757 81.8003 200.771C79.0666 183.237 75.597 176.434 67.028 176.89V177.164Z" fill="#C800FF"/>
<path d="M101.987 181.822C111.87 183.192 116.549 189.356 119.283 198.899C121.175 205.89 123.474 212.794 126.169 219.583H117.39C116.128 214.104 115.603 211.547 114.762 206.57H114.236C115.13 215.702 110.924 220.862 101.303 220.816C97.7093 220.905 94.2156 219.78 91.5581 217.676C88.9006 215.572 87.2869 212.655 87.0569 209.538C84.6386 197.301 101.409 197.529 110.556 197.392C110.399 195.202 109.302 193.143 107.482 191.621C105.662 190.1 103.251 189.226 100.725 189.173C96.1971 188.845 91.6626 189.738 87.7403 191.73C87.3197 188.397 87.1094 186.799 86.8466 183.648C91.5761 181.929 96.7509 181.345 101.829 181.959L101.987 181.822ZM111.765 202.506C105.089 202.506 94.3642 202.506 95.6784 208.077C96.0123 209.417 96.882 210.611 98.1331 211.446C99.3842 212.282 100.936 212.706 102.513 212.643C103.994 212.81 105.5 212.643 106.885 212.156C108.27 211.669 109.487 210.88 110.418 209.865C111.348 208.85 111.961 207.644 112.197 206.362C112.434 205.081 112.285 203.768 111.765 202.552V202.506ZM101.671 180.68C96.4823 180.004 91.1792 180.556 86.3209 182.278L85.5849 182.552C85.5849 182.963 85.5849 183.146 85.5849 183.557C85.8477 186.707 86.0055 188.351 86.426 191.684C86.426 192.598 86.426 193.054 86.7414 194.013L88.3186 193.191C92.1103 191.25 96.493 190.358 100.883 190.634C102.724 190.574 104.53 191.075 105.99 192.051C107.449 193.027 108.47 194.416 108.874 195.977C98.8327 195.977 83.0615 195.977 85.69 209.675C85.9642 213.174 87.7337 216.458 90.6514 218.882C93.5691 221.307 97.4245 222.697 101.461 222.78C104.52 223.213 107.653 222.605 110.209 221.083C112.765 219.56 114.546 217.241 115.182 214.606C115.55 216.433 115.76 217.3 116.181 219.172C116.181 219.949 116.181 220.314 116.602 221.136H128.272L127.641 219.492C124.863 212.751 122.476 205.894 120.492 198.945C117.18 187.575 111.45 181.776 101.829 180.406L101.671 180.68ZM102.092 210.953C99.9892 210.953 97.3607 210.086 96.835 208.168C95.9939 204.652 104.563 204.287 109.662 204.15H110.714C110.784 205.13 110.599 206.111 110.173 207.02C109.746 207.929 109.089 208.743 108.251 209.401C107.412 210.059 106.413 210.545 105.329 210.822C104.244 211.098 103.102 211.159 101.987 210.999L102.092 210.953Z" fill="#C800FF"/>
<path d="M139.207 187.21C144.876 187.939 150.365 189.482 155.451 191.776C156.292 194.424 156.713 195.748 157.712 198.534C152.543 195.803 146.811 193.973 140.837 193.146C134.16 192.506 131.059 195.885 133.266 202.004C134.336 205.065 136.453 207.77 139.336 209.76C142.219 211.75 145.731 212.931 149.406 213.145C154.02 213.638 158.67 212.521 162.338 210.04C163.6 212.963 164.283 214.606 165.755 217.529C161.991 219.889 157.405 221.05 152.77 220.816C146.394 220.451 140.303 218.388 135.327 214.907C130.35 211.426 126.73 206.697 124.96 201.365C121.491 190.406 127.641 185.429 139.207 186.845V187.21ZM138.892 185.703C126.748 184.151 120.071 189.539 123.751 201.273C125.616 207.014 129.473 212.116 134.798 215.883C140.123 219.65 146.656 221.899 153.506 222.323C158.244 222.66 162.969 221.545 166.859 219.172L167.49 218.853L167.069 217.94C165.65 214.88 164.966 213.374 163.705 210.497C163.284 209.584 163.127 209.081 162.706 208.168L161.129 209.264C157.556 211.538 153.116 212.535 148.722 212.049C145.507 211.894 142.423 210.888 139.886 209.166C137.348 207.443 135.479 205.087 134.528 202.415C132.53 196.981 135.369 194.15 141.257 194.698C146.969 195.472 152.452 197.21 157.396 199.812L159.867 201.045C159.604 200.223 159.447 199.812 159.131 198.99C158.132 196.205 157.712 194.881 156.923 192.233L156.66 191.502L155.714 191.091C150.463 188.624 144.779 186.927 138.892 186.068V185.703Z" fill="#C800FF"/>
<path d="M170.066 181.593C171.648 189.326 173.844 196.954 176.637 204.424C181.488 200.228 186.766 196.422 192.408 193.054C198.612 193.328 201.766 193.42 208.179 193.465C202.239 196.844 199.505 198.397 194.458 201.684C202.502 209.127 206.602 212.871 213.647 220.36H202.659C197.402 214.652 194.196 211.821 188.413 206.159C185.381 208.271 182.551 210.592 179.949 213.099C181.106 215.885 181.684 217.3 182.946 220.177H173.851C167.324 207.534 162.627 194.236 159.867 180.589C163.862 181.091 165.913 181.274 170.066 181.685V181.593ZM171.38 180.817H169.855C165.702 180.406 163.652 180.178 159.657 179.676H158.185C158.16 180.025 158.16 180.376 158.185 180.726C160.944 194.449 165.696 207.812 172.326 220.496L172.957 221.821H184.628L184.102 220.542C182.946 217.894 182.42 216.615 181.368 214.058C183.569 211.981 185.903 210.015 188.36 208.168C193.617 213.419 196.404 216.022 201.503 221.273L202.081 221.866H216.591L214.961 220.086C208.285 212.962 204.447 209.401 196.824 202.323C201.503 199.264 204.079 197.757 209.651 194.652L213.068 192.689H208.285C201.766 192.689 198.559 192.689 192.513 192.278H191.935L191.567 192.506C186.584 195.458 181.857 198.724 177.426 202.278C175.075 195.626 173.197 188.856 171.801 182.004C171.776 181.67 171.776 181.334 171.801 181L171.38 180.817Z" fill="#C800FF"/>
<path d="M229.103 182.278C228.787 191.137 228.682 195.566 228.577 204.424H218.063C216.749 195.703 216.17 191.411 215.119 182.963C220.376 182.963 223.373 182.644 229.155 182.233L229.103 182.278ZM223.898 212.78C224.618 212.684 225.352 212.718 226.055 212.881C226.758 213.044 227.415 213.332 227.983 213.727C228.551 214.122 229.019 214.615 229.357 215.175C229.694 215.735 229.894 216.35 229.944 216.981C229.962 217.57 229.836 218.157 229.573 218.701C229.31 219.244 228.917 219.734 228.42 220.135C227.922 220.537 227.332 220.842 226.689 221.03C226.045 221.219 225.363 221.286 224.687 221.227C223.264 221.264 221.875 220.848 220.781 220.058C219.687 219.267 218.964 218.157 218.746 216.935C218.378 214.469 220.639 212.734 224.003 212.78H223.898ZM231.416 180.817H229.418C223.635 181.228 220.849 181.411 215.329 181.594H213.489V182.689C214.593 191.137 215.224 195.429 216.643 204.104V205.2H218.168C222.321 205.2 224.371 205.2 228.682 205.2H230.259V204.104C230.522 194.972 230.68 190.771 231.048 181.822V180.68L231.416 180.817ZM223.951 211.501C219.693 211.501 216.906 213.739 217.432 216.798C217.731 218.326 218.647 219.711 220.014 220.707C221.382 221.702 223.113 222.243 224.897 222.232C225.712 222.256 226.524 222.141 227.287 221.892C228.051 221.644 228.75 221.267 229.346 220.784C229.942 220.3 230.422 219.72 230.759 219.075C231.096 218.43 231.284 217.734 231.311 217.026C231.232 216.243 230.974 215.481 230.551 214.786C230.128 214.091 229.55 213.476 228.849 212.978C228.148 212.48 227.34 212.109 226.472 211.887C225.603 211.665 224.693 211.596 223.793 211.684L223.951 211.501Z" fill="#C800FF"/>
</g>
<defs>
<clipPath id="clip0">
<rect width="231.1" height="222.46" fill="white"/>
</clipPath>
</defs>
</svg>
