<svg width="101" height="101" viewBox="0 0 101 101" fill="none" xmlns="http://www.w3.org/2000/svg">
<g clip-path="url(#clip0)">
<path d="M50.137 0L56.7101 7.93729L65.4788 2.4633L69.3117 12.0428L79.4494 9.57949L80.2684 19.9801L90.6792 20.5275L87.9366 30.6544L97.5246 34.4862L92.0427 43.2446L99.986 50.0871L92.0389 56.6559L97.5159 65.4143L87.9258 69.246L90.6627 79.3729L80.2515 80.194L79.4267 90.5946L69.2905 87.8576L65.4522 97.4371L56.6866 91.9631L50.109 99.9004L43.2619 91.9631L34.4933 97.4371L30.6603 87.8576L20.5226 90.5946L19.9775 80.194L9.56682 79.3729L12.0354 69.246L2.44744 65.4143L7.92934 56.6559L-0.0140248 50.0871L7.9331 43.2446L2.4561 34.4862L12.0462 30.6544L9.58329 20.5275L19.9944 19.9801L20.5453 9.57949L30.6816 12.0428L34.5199 2.4633L43.2855 7.93729L50.137 0Z" fill="#C800FF"/>
<path d="M38.0057 47.124H47.9237L47.9238 46.863C45.1689 46.631 44.386 46.167 44.3865 44.456L44.3903 31H44.2163L38.0095 33.668L38.0964 33.958C39.0245 33.61 39.6336 33.436 40.0976 33.436C41.1416 33.436 41.5184 33.987 41.5181 35.205L41.5155 44.456C41.515 46.196 40.7609 46.631 38.0058 46.863L38.0057 47.124Z" fill="white"/>
<path d="M58.8613 44.427L53.8444 44.079C52.4235 43.963 51.6986 43.586 51.6988 42.716C51.699 41.962 52.2792 41.498 53.2942 41.324C54.0771 41.643 54.9761 41.817 55.9911 41.817C59.3841 41.817 61.5596 39.787 61.5604 36.974C61.5609 35.292 60.7493 33.871 59.3575 33.03H62.6345L62.6347 32.595H58.4877C57.7627 32.305 56.9218 32.16 55.9938 32.16C52.5718 32.16 50.4252 34.219 50.4244 36.974C50.4239 38.801 51.3225 40.28 52.8883 41.121C51.2352 41.527 50.3358 42.716 50.3355 44.05C50.3351 45.355 51.0598 46.254 52.2197 46.631C50.3056 47.182 49.3193 48.313 49.3189 49.734C49.3182 51.909 51.5508 53.359 55.5238 53.359C60.4828 53.359 62.8616 50.749 62.8624 47.791C62.8631 45.442 61.1523 44.601 58.8613 44.427ZM55.9937 32.566C57.5887 32.595 58.7483 34.045 58.7474 37.061C58.7466 39.99 57.5862 41.44 55.9912 41.44C54.3672 41.44 53.2366 39.99 53.2374 37.061C53.2383 34.045 54.3697 32.537 55.9937 32.566ZM56.5101 52.431C53.3781 52.431 51.3485 51.068 51.3491 48.951C51.3494 47.936 51.6975 47.327 52.6547 46.747L53.2347 46.834L58.9765 47.269C60.8325 47.414 61.7024 47.762 61.702 49.241C61.7015 50.865 60.0191 52.431 56.5101 52.431Z" fill="white"/>
<path d="M37.1608 67.5385C38.6558 67.5385 39.618 66.6415 39.6184 65.3675C39.6186 64.4835 39.1508 63.9895 38.2669 63.6385L36.876 63.0665C36.1871 62.8065 35.9402 62.4165 35.9403 61.9745C35.9405 61.4025 36.3176 60.9605 37.2016 60.9605C38.1246 60.9605 38.8915 61.4675 39.0861 62.8455H39.2031L39.4376 61.0775C38.9697 60.8045 38.1897 60.6355 37.5137 60.6355C35.9147 60.6355 35.1084 61.5455 35.1081 62.6245C35.108 63.3005 35.3808 63.9505 36.3297 64.3405L37.7335 64.9125C38.4354 65.1725 38.7993 65.4975 38.7992 66.0565C38.799 66.6935 38.3439 67.1875 37.4729 67.1875C36.3679 67.1875 35.4711 66.3295 35.3285 64.9775H35.2245L34.9899 66.9405C35.5618 67.3045 36.4198 67.5385 37.1608 67.5385Z" fill="white"/>
<path d="M46.271 66.3295L46.2725 60.6875L44.1274 61.0645L44.1274 61.1555C44.8034 61.1035 44.9724 61.2335 44.9722 62.0005L44.971 66.0175C44.7499 66.5115 44.2818 66.8365 43.7358 66.8625C42.9168 66.8755 42.423 66.2905 42.4233 65.2375L42.4245 60.6875L40.2274 61.0775L40.2274 61.1685C40.9424 61.1165 41.1244 61.2335 41.1242 62.0005L41.1232 65.3935C41.1228 66.8495 41.8636 67.5385 43.0596 67.5385C43.9826 67.5385 44.6978 66.9275 44.971 66.2125L44.9707 67.3435H47.1807L47.1807 67.2525C46.5437 67.1875 46.2708 66.9925 46.271 66.3295Z" fill="white"/>
<path d="M51.983 66.1345L49.734 65.9785C49.097 65.9265 48.7721 65.7575 48.7722 65.3675C48.7723 65.0295 49.0324 64.8215 49.4874 64.7435C49.8383 64.8865 50.2413 64.9645 50.6963 64.9645C52.2173 64.9645 53.1926 64.0545 53.1929 62.7935C53.1931 62.0395 52.8293 61.4025 52.2054 61.0255H53.6744L53.6745 60.8305H51.8155C51.4905 60.7005 51.1135 60.6355 50.6975 60.6355C49.1635 60.6355 48.2013 61.5585 48.2009 62.7935C48.2007 63.6125 48.6035 64.2755 49.3054 64.6525C48.5644 64.8345 48.1612 65.3675 48.161 65.9655C48.1609 66.5505 48.4858 66.9535 49.0057 67.1225C48.1476 67.3695 47.7055 67.8765 47.7053 68.5135C47.705 69.4885 48.7059 70.1385 50.4869 70.1385C52.7099 70.1385 53.7762 68.9685 53.7766 67.6425C53.7769 66.5895 53.01 66.2125 51.983 66.1345ZM50.6975 60.8175C51.4125 60.8305 51.9323 61.4805 51.9319 62.8325C51.9315 64.1455 51.4114 64.7955 50.6964 64.7955C49.9684 64.7955 49.4615 64.1455 49.4619 62.8325C49.4623 61.4805 49.9695 60.8045 50.6975 60.8175ZM50.929 69.7225C49.525 69.7225 48.6152 69.1115 48.6154 68.1625C48.6155 67.7075 48.7716 67.4345 49.2007 67.1745L49.4607 67.2135L52.0346 67.4085C52.8666 67.4735 53.2566 67.6295 53.2564 68.2925C53.2562 69.0205 52.502 69.7225 50.929 69.7225Z" fill="white"/>
<path d="M60.6912 66.1605C60.535 66.6935 60.2619 66.9015 59.9629 66.9015C59.6509 66.9015 59.456 66.6155 59.4562 66.1475L59.457 63.1575C59.4574 61.5715 58.7297 60.6355 57.2087 60.6355C55.8307 60.6355 54.8944 61.5195 54.7251 62.9235L54.8161 62.9365C55.0373 61.9095 55.7005 61.3895 56.6105 61.3895C57.7155 61.3895 58.1703 62.0395 58.17 63.2615L58.1699 63.5995L56.8308 63.8595C55.3747 64.1585 54.5295 64.8475 54.5292 65.9655C54.529 66.8235 55.1398 67.5385 56.2968 67.5385C57.3498 67.5385 58.039 66.8365 58.1821 66.2255L58.1951 66.4205C58.2339 67.0965 58.6108 67.5385 59.2868 67.5385C60.0798 67.5385 60.5869 67.0315 60.7951 66.1735L60.6912 66.1605ZM56.9209 66.9145C56.1279 66.9145 55.8031 66.2645 55.8033 65.5885C55.8035 65.0295 55.9337 64.2755 57.2728 64.0025L58.1698 63.8335L58.1692 66.0305C57.922 66.6675 57.5059 66.9145 56.9209 66.9145Z" fill="white"/>
<path d="M65.3896 60.6355C64.2586 60.6355 63.5433 61.4675 63.4258 63.2615H63.3738L63.3745 60.6875L61.2294 61.2725L61.2294 61.3635C61.9444 61.3245 62.1393 61.4675 62.1391 62.2475L62.1379 66.5245C62.1378 67.0315 61.8907 67.1615 61.2277 67.2525L61.2277 67.3435H64.5947L64.5947 67.2525C63.6457 67.1875 63.4248 67.0445 63.4249 66.5245L63.4256 64.1845C63.4261 62.3905 63.9852 61.8575 64.8432 61.8575C65.0902 61.8575 65.2982 61.8965 65.4152 61.9485H65.4802L65.4806 60.6355H65.3896Z" fill="white"/>
</g>
<defs>
<clipPath id="clip0">
<rect width="100.002" height="100" fill="white" transform="matrix(1 0 -0.000280007 1 0.485107 0.355469)"/>
</clipPath>
</defs>
</svg>
