<svg width="207" height="45" viewBox="0 0 207 45" fill="none" xmlns="http://www.w3.org/2000/svg">
<g clip-path="url(#clip0)">
<path d="M17.2502 45C26.9002 45 33.5502 41.05 33.5502 32V10H26.8002L27.4502 18.1H26.7002C25.5002 12.2 19.8502 9.2 13.7002 9.2C6.5502 9.2 0.700195 14.45 0.700195 22.3C0.700195 30.4 6.5002 35.55 14.7502 35.55C20.5502 35.55 25.5502 32.7 27.0502 27.55L26.9002 30.9C26.7002 36.55 24.0002 39.55 16.7002 39.55C11.7502 39.55 6.85019 38.35 4.4502 36.65V42.8C8.3502 44.15 11.5002 45 17.2502 45ZM16.5502 30.3C11.4002 30.3 7.6502 27.3 7.6502 22.4C7.6502 17.6 11.4002 14.65 16.5502 14.65C21.3002 14.65 25.5002 17.6 25.5002 22.4C25.5002 27.3 21.2502 30.3 16.5502 30.3Z" fill="#C800FF"/>
<path d="M39.9396 35H47.0396V0H39.9396V35Z" fill="#C800FF"/>
<path d="M67.608 35.8C77.058 35.8 83.308 30.5 83.308 22.5C83.308 14.5 77.058 9.2 67.608 9.2C58.208 9.2 51.958 14.5 51.958 22.5C51.958 30.5 58.208 35.8 67.608 35.8ZM67.608 30.3C62.208 30.3 58.558 27.15 58.558 22.5C58.558 17.8 62.208 14.65 67.608 14.65C73.058 14.65 76.708 17.8 76.708 22.5C76.708 27.15 73.058 30.3 67.608 30.3Z" fill="#C800FF"/>
<path d="M87.7736 35H94.8736V28.1C94.8736 19.9 98.3236 14.55 103.724 14.55C108.574 14.55 110.574 17.45 110.574 25V35H117.674V24.15C117.674 13.25 114.324 9.3 107.274 9.2C99.7236 9.2 96.0236 13.65 94.9736 20.3H94.5736L95.5736 10H87.7736V35Z" fill="#C800FF"/>
<path d="M152.905 10H145.805V16.9C145.805 25.1 142.405 30.45 137.005 30.45C132.155 30.45 130.105 27.5 130.105 20V10H123.005V20.85C123.005 31.7 126.355 35.7 133.455 35.8C140.955 35.8 144.655 31.3 145.755 24.7H146.105L145.105 35H152.905V10Z" fill="#C800FF"/>
<path d="M168.471 35.5C171.171 35.5 173.171 35.2 175.271 34.5V30.75C174.221 30.8 173.371 30.85 172.621 30.85C168.071 30.85 168.071 29.6 168.071 24.5V15.15H175.271V10H168.071V3L161.271 4V10H157.371V15.15H160.971V26C160.971 33.15 161.971 35.5 168.471 35.5Z" fill="#C800FF"/>
<path d="M192.638 35.8C201.438 35.8 207.338 33.35 207.338 27.55C207.338 16.65 185.138 22.1 185.138 17.4C185.138 15.65 187.688 14.8 193.588 14.8C197.338 14.8 201.788 15.5 205.338 16.25V10.6C200.988 9.75 195.838 9.2 192.838 9.2C184.038 9.2 178.138 11.9 178.138 17.5C178.138 28.35 200.388 22.8 200.388 27.55C200.388 29.65 197.688 30.3 191.538 30.3C187.138 30.3 183.438 29.5 179.238 27.9V33.85C183.388 35.05 188.788 35.8 192.638 35.8Z" fill="#C800FF"/>
</g>
<defs>
<clipPath id="clip0">
<rect width="207" height="45" fill="white"/>
</clipPath>
</defs>
</svg>
