<svg width="334" height="134" viewBox="0 0 334 134" fill="none" xmlns="http://www.w3.org/2000/svg">
<rect x="1.91745" y="21.187" width="104" height="49" transform="rotate(-4 1.91745 21.187)" fill="white" stroke="#C800FF"/>
<path d="M46.7042 39.3511C45.3156 39.4482 44.5092 40.5311 44.5195 42.7437L44.4557 42.7482L44.2347 39.5879L41.6514 40.4903L41.6592 40.6021C42.5337 40.4928 42.7854 40.6516 42.8523 41.6093L43.2195 46.8605C43.2631 47.4829 42.971 47.6638 42.1648 47.8324L42.1726 47.9441L46.3065 47.6551L46.2987 47.5433C45.1279 47.545 44.8443 47.3884 44.7997 46.75L44.5988 43.877C44.4448 41.6744 45.0853 40.972 46.1388 40.8983C46.442 40.8771 46.7007 40.9071 46.8489 40.9609L46.9287 40.9553L46.8159 39.3433L46.7042 39.3511ZM55.6895 45.5394C55.5437 46.2072 55.2264 46.486 54.8593 46.5117C54.4763 46.5384 54.2123 46.204 54.1721 45.6294L53.9154 41.9584C53.7792 40.0112 52.8051 38.9245 50.9376 39.0551C49.2457 39.1734 48.1724 40.3391 48.0855 42.0774L48.1983 42.0855C48.3815 40.8056 49.1509 40.1103 50.2681 40.0321C51.6248 39.9373 52.2393 40.6963 52.3442 42.1966L52.3732 42.6116L50.7515 43.0458C48.9896 43.5379 48.0113 44.4563 48.1072 45.829C48.1809 46.8824 48.9925 47.7078 50.413 47.6085C51.7058 47.5181 52.4915 46.597 52.6146 45.8346L52.6473 46.0729C52.7532 46.8995 53.2541 47.4098 54.084 47.3518C55.0577 47.2837 55.6366 46.6177 55.8183 45.5464L55.6895 45.5394ZM51.1256 46.7888C50.1519 46.8569 49.6971 46.0867 49.6391 45.2567C49.5911 44.5704 49.6859 43.6335 51.3065 43.1834L52.3933 42.8989L52.5819 45.5963C52.3333 46.3996 51.8438 46.7386 51.1256 46.7888ZM65.8507 38.2528L65.8597 38.3805C66.5482 38.3644 66.8705 38.6146 66.8995 39.0296C66.9184 39.3009 66.8691 39.5128 66.7511 39.89L65.3573 44.2699L63.3629 40.0628C63.2118 39.7365 63.1312 39.5016 63.1167 39.2941C63.0866 38.8631 63.356 38.5877 64.0561 38.5066L64.0471 38.3789L60.3442 38.6379L60.3531 38.7656C60.8683 38.7937 61.2188 39.2183 61.6109 40.0088L61.9644 40.7059L60.7093 44.5468L58.7353 40.4024C58.5831 40.0602 58.4854 39.8104 58.472 39.6189C58.4408 39.1719 58.6657 38.9477 59.2518 38.8426L59.2429 38.7149L55.5718 38.9716L55.5808 39.0993C56.1598 39.1229 56.5753 39.559 57.0071 40.4591L60.1484 46.8475L60.2282 46.8419L62.1872 41.1394L64.8888 46.516L64.9686 46.5105L67.1891 39.7311C67.5178 38.6976 67.785 38.3902 68.3017 38.2097L68.2928 38.0821L65.8507 38.2528Z" fill="#C800FF"/>
<rect x="116.346" y="12.1988" width="104" height="49" transform="rotate(6 116.346 12.1988)" fill="white" stroke="#C800FF"/>
<path d="M147.723 45.3203L147.819 45.3303L151.326 39.0545C151.842 38.1274 152.112 37.8501 152.734 37.7546L152.747 37.6273L150.233 37.363L150.219 37.4903C151.012 37.6058 151.234 37.9348 151.193 38.3327C151.161 38.635 151.023 38.8779 150.881 39.1526L148.661 43.1343L147.309 38.6967C147.214 38.381 147.179 38.1038 147.199 37.9129C147.249 37.4355 147.606 37.2479 148.31 37.2896L148.323 37.1623L144.52 36.7626L144.507 36.8899C145.038 37.0422 145.314 37.4735 145.612 38.47L147.723 45.3203ZM159.198 43.5017C158.551 44.9138 157.631 45.0907 156.692 44.992C154.99 44.813 153.988 43.3242 154.182 41.0119L159.418 41.5621C159.709 39.4047 158.617 38.0029 156.867 37.819C154.639 37.5848 153.174 39.2809 152.908 41.811C152.627 44.4843 154.006 46.061 155.899 46.2601C157.411 46.4189 158.719 45.6072 159.307 43.5293L159.198 43.5017ZM156.48 38.1322C157.451 38.2343 158.129 39.1261 157.858 41.0925L154.214 40.7095C154.441 39.0119 155.334 38.0118 156.48 38.1322ZM165.255 45.5059L162.522 45.0256C161.749 44.88 161.373 44.6313 161.423 44.154C161.467 43.7402 161.812 43.5191 162.379 43.4822C162.79 43.7023 163.273 43.8497 163.83 43.9082C165.692 44.1039 167.003 43.1154 167.165 41.5719C167.262 40.649 166.898 39.8225 166.183 39.2808L167.981 39.4697L168.006 39.2311L165.731 38.9919C165.35 38.791 164.896 38.6629 164.387 38.6094C162.51 38.412 161.213 39.4181 161.054 40.9297C160.949 41.9322 161.357 42.7956 162.168 43.3474C161.237 43.4748 160.676 44.0754 160.599 44.8073C160.523 45.5234 160.869 46.0585 161.484 46.3322C160.402 46.5242 159.796 47.0879 159.714 47.8676C159.588 49.061 160.73 49.9854 162.91 50.2146C165.631 50.5005 167.086 49.2056 167.257 47.5825C167.393 46.2936 166.502 45.7335 165.255 45.5059ZM164.364 38.8322C165.237 38.9401 165.79 39.8026 165.616 41.4575C165.447 43.0646 164.727 43.7933 163.852 43.7013C162.961 43.6077 162.424 42.7468 162.593 41.1397C162.767 39.4848 163.474 38.7226 164.364 38.8322ZM163.505 49.7622C161.786 49.5816 160.751 48.7166 160.873 47.555C160.931 46.9981 161.158 46.684 161.716 46.421L162.029 46.5022L165.155 47.072C166.165 47.2586 166.622 47.4997 166.537 48.3112C166.443 49.2023 165.43 49.9646 163.505 49.7622ZM175.911 46.658C175.651 47.2904 175.29 47.5098 174.924 47.4714C174.543 47.4312 174.341 47.0561 174.401 46.4832L174.785 42.8234C174.99 40.8821 174.219 39.6427 172.357 39.4471C170.67 39.2698 169.411 40.2314 169.024 41.9282L169.133 41.9558C169.536 40.7272 170.414 40.176 171.528 40.293C172.881 40.4352 173.354 41.2893 173.197 42.7851L173.153 43.1988L171.481 43.3448C169.66 43.5235 168.537 44.2581 168.393 45.6266C168.283 46.6768 168.939 47.6306 170.355 47.7794C171.644 47.9149 172.578 47.1443 172.831 46.4148L172.822 46.6552C172.783 47.4876 173.188 48.0771 174.015 48.1641C174.986 48.2661 175.671 47.7108 176.036 46.6873L175.911 46.658ZM171.199 47.0959C170.229 46.9939 169.914 46.1565 170.001 45.329C170.073 44.6448 170.329 43.7386 172.004 43.5767L173.123 43.4853L172.841 46.1744C172.456 46.9224 171.915 47.1712 171.199 47.0959ZM184.032 47.962L184.52 43.3156C184.682 41.7721 184.042 40.6751 182.45 40.5079C181.177 40.3741 180.156 41.0551 179.784 41.9973L179.961 40.3106L177.197 40.744L177.185 40.8554C178.083 40.8854 178.291 41.0521 178.192 41.9909L177.635 47.2897C177.57 47.9103 177.251 48.0376 176.427 48.0637L176.416 48.1751L180.123 48.5648L180.135 48.4534C179.365 48.276 179.142 48.1077 179.205 47.503L179.762 42.2042C180.068 41.5928 180.656 41.0433 181.579 41.1403C182.646 41.2524 183.048 42.0186 182.909 43.3393L182.436 47.8425C182.372 48.4472 182.118 48.5653 181.328 48.5788L181.317 48.6902L185.04 49.0816L185.052 48.9702C184.252 48.7735 183.967 48.5826 184.032 47.962Z" fill="#C800FF"/>
<rect x="227.973" y="9.66715" width="104" height="49" transform="rotate(9 227.973 9.66715)" fill="white" stroke="#C800FF"/>
<path d="M259.763 44.57L263.54 45.1682L263.558 45.0576C262.735 44.8301 262.489 44.6453 262.584 44.0448L264.261 33.4568L261.476 33.7607L261.455 33.8871C262.335 33.9616 262.547 34.1572 262.407 35.0421L261.027 43.7496C260.93 44.3659 260.604 44.4764 259.781 44.4594L259.763 44.57ZM265.863 45.5361L268.408 45.9391L268.423 45.8443C267.914 45.6827 267.582 45.3223 267.03 44.4088L264.687 40.2794L266.996 38.8956C267.462 38.613 268.313 38.1484 269.091 38.0448L269.109 37.9342L266.201 37.4736L266.183 37.5843C266.826 37.7185 267.028 37.9773 266.983 38.2617C266.941 38.5304 266.774 38.7632 266.028 39.1796L263.177 40.8177L265.863 45.5361ZM275.795 44.2256C275.075 45.6019 274.147 45.7304 273.215 45.5827C271.524 45.3149 270.601 43.7756 270.917 41.4767L276.116 42.3002C276.52 40.161 275.503 38.704 273.765 38.4287C271.552 38.0782 270 39.6954 269.602 42.208C269.182 44.8629 270.476 46.5097 272.357 46.8075C273.858 47.0453 275.207 46.3032 275.903 44.2589L275.795 44.2256ZM273.362 38.7213C274.326 38.8739 274.957 39.8 274.583 41.7496L270.965 41.1764C271.28 39.493 272.224 38.541 273.362 38.7213ZM281.319 46.3317C280.956 46.987 280.551 47.2954 279.903 47.1928C279.271 47.0927 279.056 46.5078 279.181 45.7177L280.097 39.9338L281.883 40.2166L281.92 39.9796L280.135 39.6967L280.515 37.2947L280.436 37.2822C279.723 38.611 278.763 39.2527 277.46 39.4027L277.442 39.5133L278.533 39.686L277.574 45.7385C277.391 46.8922 277.866 47.6801 278.972 47.8553C280.062 48.028 280.897 47.4636 281.425 46.3809L281.319 46.3317ZM285.624 48.9088C287.978 49.2818 289.731 47.7288 290.111 45.3267C290.494 42.9089 289.307 40.8904 286.953 40.5174C284.582 40.142 282.83 41.695 282.447 44.1128C282.066 46.5149 283.253 48.5334 285.624 48.9088ZM285.681 48.5454C284.164 48.3051 283.747 46.8459 284.138 44.3806C284.531 41.8996 285.378 40.6406 286.895 40.8809C288.397 41.1187 288.813 42.5779 288.42 45.0589C288.03 47.5242 287.183 48.7831 285.681 48.5454Z" fill="#C800FF"/>
<rect x="0.901934" y="79.0198" width="104" height="49" transform="rotate(-7 0.901934 79.0198)" fill="white" stroke="#C800FF"/>
<path d="M23.715 104.441L20.9442 104.588C20.1583 104.62 19.7359 104.462 19.6774 103.986C19.6267 103.573 19.9131 103.28 20.4572 103.116C20.9075 103.239 21.4115 103.273 21.9673 103.205C23.8253 102.977 24.8799 101.719 24.6908 100.179C24.5777 99.2576 24.0375 98.534 23.2186 98.1671L25.0132 97.9467L24.9839 97.7085L22.713 97.9873C22.2964 97.8773 21.8262 97.8544 21.318 97.9168C19.444 98.1469 18.4073 99.4187 18.5926 100.927C18.7154 101.928 19.3071 102.677 20.2213 103.033C19.3433 103.366 18.931 104.078 19.0207 104.808C19.1084 105.523 19.5659 105.966 20.2265 106.095C19.2154 106.525 18.7515 107.211 18.847 107.989C18.9933 109.18 20.3136 109.824 22.4893 109.557C25.2049 109.223 26.3316 107.634 26.1327 106.014C25.9748 104.728 24.9813 104.383 23.715 104.441ZM21.3453 98.1391C22.2207 98.0478 22.9534 98.7638 23.1562 100.415C23.3531 102.019 22.8154 102.891 21.9419 102.999C21.0526 103.108 20.3358 102.39 20.1388 100.786C19.936 99.1343 20.454 98.2325 21.3453 98.1391ZM22.9668 108.982C21.2517 109.193 20.0484 108.583 19.906 107.424C19.8378 106.868 19.9874 106.511 20.4725 106.129L20.796 106.138L23.9696 105.99C24.9957 105.944 25.4955 106.077 25.595 106.886C25.7042 107.776 24.8884 108.746 22.9668 108.982ZM29.266 104.243L27.9654 93.6509L25.3712 94.711L25.3868 94.838C26.2525 94.6672 26.5102 94.7968 26.6194 95.6861L27.6938 104.436C27.7698 105.056 27.4876 105.252 26.6913 105.462L26.705 105.573L30.5005 105.107L30.4868 104.996C29.6633 104.984 29.342 104.863 29.266 104.243ZM38.2458 102.899L37.3996 96.0067L34.8358 96.789L34.8494 96.9002C35.6674 96.7353 35.8934 96.8687 36.0084 97.8057L36.6109 102.713C36.4151 103.349 35.8921 103.817 35.229 103.93C34.2305 104.069 33.5393 103.428 33.3813 102.142L32.6989 96.5839L30.0735 97.3899L30.0872 97.501C30.9528 97.3303 31.1927 97.4459 31.3077 98.3828L31.8167 102.528C32.035 104.306 33.0436 105.037 34.5046 104.858C35.6321 104.719 36.4139 103.865 36.6402 102.951L36.8098 104.333L39.5096 104.001L39.4959 103.89C38.708 103.906 38.3453 103.709 38.2458 102.899ZM44.7321 101.716C44.5638 102.446 44.2593 102.854 43.6081 102.934C42.9729 103.012 42.6049 102.509 42.5074 101.715L41.7937 95.9024L43.5882 95.6821L43.559 95.4439L41.7645 95.6642L41.4681 93.2504L41.3887 93.2601C41.0699 94.7339 40.3238 95.6154 39.1121 96.1189L39.1258 96.23L40.2215 96.0955L40.9683 102.178C41.1107 103.337 41.7841 103.964 42.8957 103.827C43.9915 103.693 44.6382 102.92 44.8471 101.734L44.7321 101.716ZM51.7289 99.6314C51.4159 101.153 50.5598 101.532 49.6228 101.647C47.9236 101.856 46.6125 100.63 46.2821 98.3336L51.5068 97.692C51.3052 95.5245 49.9264 94.4041 48.1795 94.6186C45.9562 94.8916 44.91 96.8739 45.22 99.3989C45.5476 102.067 47.2457 103.293 49.1355 103.061C50.6442 102.876 51.7361 101.791 51.842 99.6337L51.7289 99.6314ZM47.873 95.0109C48.8417 94.892 49.7035 95.6083 49.8817 97.5853L46.245 98.0318C46.084 96.3267 46.7296 95.1513 47.873 95.0109ZM60.4907 100.409L59.9214 95.7723C59.7322 94.2318 58.861 93.3071 57.273 93.5021C56.0025 93.6581 55.1611 94.5513 55.01 95.5532L54.8034 93.8698L52.2073 94.914L52.2209 95.0251C53.1024 94.8524 53.3423 94.9681 53.4574 95.905L54.1067 101.193C54.1827 101.813 53.9005 102.009 53.1042 102.219L53.1179 102.33L56.8181 101.876L56.8044 101.765C56.0146 101.765 55.7588 101.651 55.6847 101.048L55.0354 95.7596C55.1956 95.0951 55.6456 94.4273 56.5667 94.3142C57.6307 94.1836 58.1948 94.8397 58.3567 96.1578L58.9085 100.652C58.9826 101.256 58.7619 101.428 57.9955 101.619L58.0091 101.73L61.7252 101.273L61.7116 101.162C60.888 101.151 60.5668 101.029 60.4907 100.409ZM62.1171 96.5988L66.6749 96.0392L66.6027 95.4516L62.0449 96.0112L62.1171 96.5988ZM70.5497 88.5834C69.0252 88.7706 68.0846 89.6437 68.3322 91.6606L68.42 92.3752L67.3718 92.5039L67.4011 92.7421L68.4492 92.6134L69.274 99.331C69.3501 99.9503 69.0678 100.146 68.2716 100.357L68.2852 100.468L72.3983 99.9629L72.3847 99.8518C71.2156 99.9147 70.9242 99.7732 70.8462 99.1379L70.0214 92.4204L71.5777 92.2293L71.5485 91.9911L69.881 92.1958C69.3539 91.8414 69.1187 91.3706 69.0368 90.7036C68.9608 90.0842 69.2068 89.1997 70.1914 89.0788C71.1443 88.9618 71.7759 89.6419 71.9645 90.5214L72.0617 90.5256L72.2183 88.7815C71.7425 88.582 71.1373 88.5113 70.5497 88.5834ZM77.4632 91.0231C76.0816 91.1927 75.3329 92.3163 75.4591 94.5254L75.3956 94.5332L75.0095 91.3888L72.4769 92.4252L72.4906 92.5363C73.3582 92.3815 73.6178 92.5269 73.7348 93.4797L74.3763 98.7045C74.4524 99.3239 74.1701 99.5197 73.3739 99.7303L73.3875 99.8415L77.5006 99.3365L77.487 99.2253C76.3179 99.2882 76.0265 99.1467 75.9485 98.5115L75.5975 95.6529C75.3284 93.4614 75.9314 92.7264 76.9795 92.5977C77.2812 92.5607 77.5412 92.5771 77.6919 92.6231L77.7713 92.6134L77.5744 91.0094L77.4632 91.0231ZM85.3358 95.505C85.0229 97.0265 84.1668 97.4057 83.2298 97.5207C81.5306 97.7294 80.2195 96.504 79.8891 94.2071L85.1138 93.5656C84.9122 91.398 83.5334 90.2777 81.7865 90.4922C79.5632 90.7652 78.517 92.7475 78.827 95.2725C79.1546 97.9405 80.8527 99.1667 82.7425 98.9346C84.2512 98.7494 85.343 97.6642 85.449 95.5073L85.3358 95.505ZM81.48 90.8845C82.4487 90.7655 83.3105 91.4819 83.4887 93.4589L79.852 93.9054C79.691 92.2003 80.3366 91.0249 81.48 90.8845ZM92.873 94.5796C92.5601 96.1011 91.7039 96.4802 90.7669 96.5953C89.0677 96.8039 87.7566 95.5786 87.4262 93.2817L92.651 92.6402C92.4493 90.4726 91.0705 89.3523 89.3236 89.5668C87.1003 89.8398 86.0541 91.822 86.3641 94.3471C86.6917 97.015 88.3898 98.2412 90.2796 98.0092C91.7883 97.824 92.8802 96.7388 92.9861 94.5818L92.873 94.5796ZM89.0172 89.959C89.9859 89.8401 90.8476 90.5564 91.0259 92.5334L87.3892 92.98C87.2282 91.2749 87.8737 90.0994 89.0172 89.959Z" fill="#C800FF"/>
<rect x="109.322" y="84.8254" width="104" height="49" transform="rotate(-13 109.322 84.8254)" fill="white" stroke="#C800FF"/>
<path d="M141.328 106.185L138.587 106.621C137.809 106.735 137.373 106.622 137.265 106.154C137.171 105.749 137.425 105.428 137.949 105.208C138.41 105.283 138.915 105.264 139.46 105.138C141.284 104.717 142.202 103.356 141.853 101.844C141.644 100.94 141.031 100.277 140.178 99.9972L141.94 99.5905L141.886 99.3567L139.657 99.8714C139.231 99.8055 138.761 99.8319 138.262 99.9471C136.422 100.372 135.524 101.745 135.866 103.226C136.093 104.208 136.76 104.892 137.706 105.149C136.868 105.573 136.532 106.324 136.697 107.041C136.859 107.742 137.361 108.136 138.031 108.194C137.071 108.728 136.681 109.458 136.857 110.222C137.127 111.392 138.508 111.894 140.643 111.401C143.309 110.785 144.264 109.087 143.897 107.497C143.605 106.234 142.581 105.994 141.328 106.185ZM138.312 100.165C139.173 99.9829 139.977 100.618 140.351 102.24C140.715 103.814 140.271 104.738 139.414 104.936C138.541 105.137 137.753 104.498 137.389 102.924C137.015 101.302 137.436 100.351 138.312 100.165ZM141.058 110.78C139.375 111.168 138.114 110.688 137.851 109.549C137.725 109.004 137.837 108.633 138.279 108.203L138.602 108.177L141.743 107.699C142.759 107.546 143.269 107.625 143.453 108.42C143.655 109.294 142.945 110.344 141.058 110.78ZM147.629 97.7844C146.273 98.0976 145.646 99.2933 146.002 101.477L145.94 101.491L145.227 98.4047L142.817 99.7001L142.842 99.8092C143.689 99.5645 143.962 99.682 144.178 100.617L145.362 105.746C145.503 106.354 145.242 106.579 144.472 106.871L144.498 106.981L148.535 106.048L148.51 105.939C147.354 106.124 147.05 106.014 146.906 105.39L146.258 102.584C145.761 100.433 146.284 99.6386 147.313 99.4011C147.609 99.3327 147.869 99.3218 148.024 99.3518L148.102 99.3338L147.738 97.7592L147.629 97.7844ZM157.472 102.491C157.432 103.173 157.163 103.498 156.804 103.581C156.43 103.667 156.117 103.378 155.987 102.817L155.159 99.2316C154.72 97.3296 153.588 96.4087 151.764 96.8298C150.112 97.2113 149.234 98.5306 149.42 100.261L149.533 100.251C149.513 98.9587 150.165 98.1515 151.256 97.8996C152.581 97.5936 153.307 98.2472 153.645 99.7126L153.738 100.118L152.205 100.8C150.541 101.562 149.719 102.622 150.028 103.963C150.266 104.992 151.197 105.68 152.584 105.36C153.847 105.068 154.479 104.036 154.481 103.264L154.551 103.494C154.785 104.294 155.359 104.719 156.17 104.532C157.121 104.313 157.588 103.564 157.6 102.478L157.472 102.491ZM153.16 104.439C152.209 104.658 151.639 103.969 151.452 103.158C151.297 102.488 151.244 101.548 152.774 100.85L153.803 100.399L154.412 103.033C154.292 103.866 153.861 104.277 153.16 104.439ZM158.147 94.3709C158.724 94.2377 159.044 93.704 158.918 93.1583C158.792 92.6127 158.271 92.2734 157.694 92.4065C157.133 92.5361 156.809 93.0542 156.938 93.6154C157.064 94.1611 157.586 94.5004 158.147 94.3709ZM160.851 102.171L159.246 95.2174L156.773 96.5272L156.798 96.6364C157.661 96.388 157.911 96.478 158.12 97.3822L159.308 102.527C159.448 103.135 159.188 103.359 158.418 103.652L158.443 103.761L162.169 102.901L162.144 102.792C161.324 102.866 160.992 102.779 160.851 102.171ZM170.005 100.057L168.954 95.5049C168.605 93.9927 167.642 93.1641 166.083 93.524C164.836 93.8119 164.093 94.7882 164.047 95.8004L163.666 94.1478L161.193 95.4577L161.218 95.5668C162.077 95.3029 162.327 95.3928 162.54 96.3126L163.738 101.504C163.879 102.112 163.618 102.336 162.848 102.629L162.874 102.738L166.506 101.9L166.481 101.79C165.695 101.873 165.429 101.787 165.292 101.194L164.094 96.003C164.184 95.3255 164.561 94.6143 165.466 94.4055C166.51 94.1644 167.14 94.7579 167.439 96.0519L168.457 100.464C168.594 101.056 168.392 101.251 167.65 101.52L167.675 101.63L171.323 100.787L171.298 100.678C170.478 100.753 170.146 100.665 170.005 100.057ZM171.224 96.0974L175.699 95.0644L175.566 94.4876L171.091 95.5206L171.224 96.0974ZM178.773 87.2444C177.276 87.59 176.432 88.5566 176.889 90.5366L177.051 91.2381L176.022 91.4757L176.076 91.7095L177.105 91.472L178.628 98.0665C178.768 98.6745 178.508 98.8988 177.738 99.1915L177.763 99.3006L181.801 98.3684L181.776 98.2593C180.62 98.4441 180.315 98.3338 180.171 97.7102L178.649 91.1156L180.177 90.7629L180.123 90.5291L178.486 90.907C177.924 90.6096 177.641 90.1659 177.49 89.5112C177.35 88.9031 177.502 87.9977 178.468 87.7745C179.404 87.5586 180.103 88.1689 180.383 89.024L180.48 89.018L180.453 87.2671C179.959 87.1184 179.35 87.1113 178.773 87.2444ZM185.904 88.9481C184.547 89.2612 183.92 90.4569 184.277 92.6407L184.214 92.6551L183.502 89.5683L181.091 90.8637L181.116 90.9729C181.963 90.7281 182.237 90.8456 182.452 91.781L183.637 96.9101C183.777 97.5181 183.517 97.7424 182.747 98.0351L182.772 98.1442L186.81 97.212L186.785 97.1029C185.629 97.2877 185.324 97.1774 185.18 96.5538L184.532 93.7476C184.035 91.5962 184.558 90.8022 185.587 90.5647C185.883 90.4963 186.144 90.4855 186.298 90.5155L186.376 90.4975L186.013 88.9229L185.904 88.9481ZM194.202 92.5826C194.05 94.1284 193.238 94.595 192.318 94.8074C190.65 95.1925 189.218 94.1109 188.649 91.8612L193.778 90.677C193.351 88.5424 191.863 87.5723 190.148 87.9682C187.965 88.4721 187.132 90.5529 187.704 93.0317C188.309 95.6508 190.126 96.6928 191.981 96.2645C193.462 95.9226 194.435 94.7292 194.314 92.573L194.202 92.5826ZM189.884 88.3904C190.835 88.1709 191.767 88.7932 192.151 90.7407L188.581 91.5649C188.242 89.886 188.762 88.6495 189.884 88.3904ZM201.601 90.8744C201.449 92.4202 200.637 92.8868 199.717 93.0991C198.049 93.4843 196.617 92.4027 196.048 90.1529L201.177 88.9688C200.75 86.8342 199.262 85.8641 197.547 86.26C195.364 86.7639 194.531 88.8447 195.103 91.3235C195.708 93.9426 197.525 94.9846 199.38 94.5563C200.861 94.2143 201.834 93.021 201.714 90.8648L201.601 90.8744ZM197.283 86.6822C198.234 86.4626 199.166 87.085 199.55 89.0325L195.98 89.8567C195.641 88.1778 196.161 86.9413 197.283 86.6822Z" fill="#C800FF"/>
<rect x="225.833" y="68.0612" width="104" height="49" transform="rotate(5 225.833 68.0612)" fill="white" stroke="#C800FF"/>
<path d="M253.989 100.378C255.822 100.539 257.098 99.5421 257.234 97.9801C257.329 96.8962 256.808 96.2403 255.762 95.7152L254.118 94.8646C253.301 94.4719 253.04 93.9673 253.087 93.4253C253.149 92.724 253.658 92.2225 254.742 92.3174C255.874 92.4164 256.76 93.1203 256.851 94.8307L256.995 94.8433L257.471 92.7007C256.927 92.3157 255.989 92.0249 255.16 91.9523C253.199 91.7808 252.113 92.8101 251.998 94.133C251.925 94.9619 252.19 95.7881 253.312 96.3681L254.972 97.22C255.805 97.6141 256.216 98.0516 256.156 98.737C256.088 99.518 255.477 100.075 254.409 99.9815C253.054 99.8629 252.046 98.7147 252.016 97.0417L251.889 97.0306L251.391 99.4123C252.053 99.9199 253.08 100.299 253.989 100.378ZM261.939 101.074C264.314 101.282 265.953 99.6102 266.165 97.1875C266.379 94.7488 265.054 92.818 262.679 92.6102C260.288 92.401 258.648 94.0725 258.435 96.5111C258.223 98.9339 259.548 100.865 261.939 101.074ZM261.971 100.707C260.441 100.573 259.923 99.1469 260.14 96.6604C260.359 94.1579 261.117 92.8429 262.647 92.9768C264.161 93.1093 264.679 94.5358 264.46 97.0383C264.242 99.5248 263.485 100.84 261.971 100.707ZM267.283 104.754C268.399 104.851 269.554 104.503 270.605 102.218L273.989 95.4789C274.444 94.5068 274.727 94.2103 275.348 94.088L275.359 93.9605L272.92 93.7471L272.909 93.8746C273.509 93.9914 273.835 94.3089 273.789 94.8349C273.769 95.0581 273.682 95.3235 273.545 95.6006L271.299 99.9815L270.002 95.1621C269.917 94.8495 269.861 94.5716 269.882 94.3325C269.921 93.8862 270.194 93.7013 270.949 93.7031L270.96 93.5756L267.118 93.2395L267.107 93.367C267.675 93.481 268.032 93.994 268.302 94.9492L270.402 101.975L270.249 102.251C269.663 103.259 268.889 103.481 267.916 103.396C267.358 103.347 266.8 103.121 266.521 102.824L266.441 102.817L266.035 104.339C266.414 104.597 266.837 104.715 267.283 104.754ZM283.347 91.142C281.817 91.0081 280.716 91.6666 280.538 93.6909L280.476 94.4081L279.424 94.3161L279.403 94.5552L280.455 94.6472L279.865 101.389C279.811 102.011 279.494 102.144 278.671 102.184L278.661 102.296L282.79 102.657L282.799 102.546C281.643 102.364 281.387 102.165 281.443 101.528L282.033 94.7853L283.595 94.9219L283.616 94.6828L281.942 94.5364C281.5 94.0802 281.368 93.5707 281.427 92.9013C281.481 92.2796 281.906 91.4656 282.894 91.552C283.85 91.6357 284.327 92.4322 284.328 93.3318L284.422 93.3561L284.938 91.6827C284.514 91.3886 283.937 91.1936 283.347 91.142ZM289.602 94.9657C288.216 94.8444 287.25 95.7878 286.914 97.9748L286.85 97.9693L287.126 94.8133L284.434 95.3005L284.424 95.412C285.305 95.4409 285.528 95.6372 285.445 96.5935L284.986 101.837C284.932 102.459 284.615 102.592 283.792 102.632L283.782 102.744L287.911 103.105L287.92 102.994C286.764 102.812 286.508 102.613 286.564 101.976L286.815 99.1065C287.007 96.9069 287.75 96.3134 288.802 96.4054C289.105 96.4319 289.356 96.502 289.494 96.5783L289.573 96.5853L289.714 94.9755L289.602 94.9657ZM296.371 100.987C295.749 102.41 294.833 102.603 293.892 102.52C292.187 102.371 291.159 100.9 291.313 98.5846L296.557 99.0434C296.811 96.8812 295.695 95.4987 293.942 95.3453C291.71 95.1501 290.275 96.8715 290.053 99.4059C289.819 102.084 291.225 103.636 293.121 103.802C294.636 103.934 295.929 103.1 296.481 101.012L296.371 100.987ZM293.56 95.6653C294.533 95.7504 295.227 96.6302 294.99 98.6011L291.34 98.2817C291.537 96.5804 292.413 95.5649 293.56 95.6653ZM303.936 101.648C303.314 103.072 302.397 103.264 301.457 103.182C299.751 103.033 298.724 101.562 298.878 99.2464L304.122 99.7052C304.376 97.5431 303.26 96.1606 301.507 96.0072C299.275 95.8119 297.84 97.5334 297.618 100.068C297.384 102.745 298.79 104.298 300.686 104.464C302.201 104.596 303.494 103.762 304.046 101.674L303.936 101.648ZM301.125 96.3271C302.097 96.4122 302.791 97.292 302.555 99.2629L298.905 98.9436C299.102 97.2423 299.978 96.2267 301.125 96.3271Z" fill="#C800FF"/>
</svg>
