<svg width="137" height="132" viewBox="0 0 137 132" fill="none" xmlns="http://www.w3.org/2000/svg">
<g clip-path="url(#clip0)">
<path d="M13.9303 6.77343C17.5004 6.96079 21.0454 7.41401 24.5263 8.12811C25.0249 9.61826 25.2743 10.3769 25.7106 11.8128C22.3142 11.1073 18.851 10.672 15.3639 10.5124C10.2217 10.5124 7.97785 10.9458 8.10251 12.0567C8.44532 14.9557 27.7363 12.2463 29.4192 18.9656C30.3229 22.4877 25.3989 23.436 16.7663 23.436C12.2006 23.4039 7.64159 23.1234 3.11616 22.5961C3.11616 21.0789 3.11616 20.3202 3.11616 18.7759C7.19967 19.6268 11.3829 20.0632 15.582 20.0764C21.5033 20.0764 23.8095 19.8867 23.5602 18.5862C22.5629 15.6872 1.80724 19.1281 1.62025 12.0838C1.62025 8.45324 6.60661 6.66506 14.0861 6.66506L13.9303 6.77343ZM14.0861 5.98772C5.51584 5.93353 0.59182 8.12811 0.654149 12.1109C0.654149 16.9877 9.59842 17.1232 15.769 17.5296C18.3557 17.6922 22.002 18.0173 22.2513 18.5862C22.5006 19.1552 20.3191 19.5074 15.1457 19.4532C11.0897 19.4247 7.05176 18.9791 3.11616 18.1257L1.80724 17.8276V18.9656C1.80724 20.4828 1.80724 21.2685 1.80724 22.8128V23.3005H2.58636C7.28182 23.794 12.0056 24.0563 16.7351 24.0862C30.3229 24.0591 30.8839 21.133 30.3229 18.9656C29.1698 14.3596 21.2229 13.3572 15.3016 12.9237C13.0265 12.734 9.06862 12.5173 9.06862 11.9212C9.06862 11.3252 9.3491 10.8375 15.582 11.0542C19.025 11.2402 22.4442 11.6752 25.8041 12.3547L26.926 12.5986C26.8246 12.3229 26.7414 12.0425 26.6767 11.7587C26.1469 10.2956 25.8976 9.56407 25.3989 8.12811L25.1808 7.55915H24.464C20.9476 6.88239 17.3717 6.46547 13.7745 6.31284L14.0861 5.98772Z" fill="#C800FF"/>
<path d="M45.0952 8.12809C50.6425 8.56159 54.7251 12.165 56.8443 19.7783C57.5425 22.1883 58.0835 24.6306 58.4648 27.0936L53.4162 26.2537C53.0245 24.0824 52.5044 21.9302 51.8579 19.8054C50.362 14.7389 47.7754 12.3005 43.9109 11.9483C40.0465 11.5961 38.2701 15.1182 39.6414 20.2118C40.1088 21.9458 40.327 22.9212 40.701 24.4384C38.3013 24.1675 37.0859 24.032 34.468 23.8153C33.4053 18.4006 31.8632 13.0654 29.8557 7.85715L36.0886 8.18228C36.9612 11.1084 37.304 12.4902 37.865 15.1453H38.2078C37.6468 10.8374 39.2051 7.80297 45.0952 8.12809ZM44.7524 7.31528C40.8568 7.09853 38.5194 8.34484 37.678 10.6749C37.3975 9.72661 37.2729 9.23893 36.9612 8.26356C36.9612 7.93843 36.9612 7.77587 36.7119 7.45075H35.8081L29.5752 7.12563H28.7649C28.7649 7.42366 28.7649 7.55912 29.0142 7.83006C31.0417 13.0114 32.6148 18.3189 33.7201 23.7069C33.7052 23.9144 33.7052 24.1225 33.7201 24.3301H34.6239C37.117 24.5468 38.3013 24.6552 40.701 24.9532H41.5736C41.5588 24.7547 41.5588 24.5556 41.5736 24.3572C41.1996 22.7044 40.9815 21.8645 40.514 20.1305C39.2362 15.3892 40.514 12.165 44.1914 12.4902C47.0586 12.7611 49.4894 14.2512 51.0165 19.5074C51.6599 21.6236 52.18 23.7667 52.5747 25.9286C52.5896 26.1361 52.5896 26.3442 52.5747 26.5517L53.4162 26.6872L58.4648 27.5542H59.1505C59.1505 27.2833 59.1505 27.1749 59.1505 26.9039C58.7617 24.4688 58.2207 22.0539 57.5299 19.67C55.4107 11.8941 51.0165 7.58622 44.7212 7.12563L44.7524 7.31528Z" fill="#C800FF"/>
<path d="M68.2816 9.45565C74.5146 9.80787 78.1608 14.3596 79.0646 20.1034C79.6522 23.6957 80.006 27.3139 80.1242 30.9409L75.7611 30.1552C75.917 27.8251 75.9793 26.633 75.9793 24.0862H75.6988C75.2937 28.7734 72.3954 30.0739 67.5025 29.1527C65.8537 28.9888 64.3063 28.3769 63.0809 27.4039C61.8554 26.431 61.0143 25.1467 60.6774 23.734C59.6178 18.6675 68.8737 18.9655 74.2029 18.9655C74.0998 17.6575 73.4264 16.433 72.3203 15.5418C71.2141 14.6506 69.7585 14.16 68.2505 14.1699C65.6132 14.0438 62.9857 14.54 60.6463 15.6059C60.0853 13.8719 59.8048 12.8965 59.1504 11.1355C61.9953 9.94758 65.127 9.37147 68.2816 9.45565V9.45565ZM74.5146 21.8645C70.7748 21.8645 64.8223 21.133 65.321 23.6798C65.5391 24.8719 66.8792 25.7389 68.7491 26.064C71.8656 26.6059 74.982 25.4951 74.5146 21.8645V21.8645ZM68.0011 8.53447C64.7651 8.47258 61.5591 9.08576 58.6517 10.3226L58.2466 10.4852C58.2466 10.729 58.2466 10.8374 58.4336 11.0813C59.1192 12.9236 59.3997 13.7906 59.9295 15.5246C60.0853 16.0123 60.1788 16.2561 60.3035 16.7438L61.1449 16.2561C63.4471 15.2797 66.0087 14.8586 68.5621 15.0369C71.6786 15.3079 72.8317 16.3916 73.3615 18.1798C67.5025 18.1798 58.8699 18.1798 60.0541 23.5985C60.3794 25.1946 61.2841 26.6581 62.6357 27.7747C63.9873 28.8912 65.7147 29.602 67.5648 29.8029C71.2423 30.5345 73.7978 29.9926 75.2002 27.9335C75.2002 28.7463 75.2002 29.1256 75.2002 29.9113C75.2002 30.2364 75.2002 30.399 75.2002 30.7241L75.9481 30.8867L80.3112 31.6995H80.9657C80.9501 31.4468 80.9501 31.1936 80.9657 30.9409C80.8576 27.3144 80.5142 23.6962 79.9372 20.1034C78.9088 13.2217 74.4211 8.77831 68.1881 8.45319L68.0011 8.53447ZM68.7491 25.3325C67.6583 25.1428 66.2871 24.6552 66.1312 23.7611C65.8508 22.2167 70.5878 22.4877 73.4238 22.6231H74.0159C73.8601 24.9803 71.3669 25.7389 68.7491 25.3325Z" fill="#C800FF"/>
<path d="M91.6242 10.5394C94.5067 10.6051 97.3117 11.3648 99.727 12.734C99.914 15.0099 99.9763 16.0936 100.101 18.1527C97.8046 16.5793 94.9835 15.6953 92.0605 15.633C88.1338 15.4163 86.1704 18.3424 86.5444 22.1084C86.3456 23.5752 86.7199 25.0575 87.6071 26.317C88.4944 27.5766 89.843 28.5402 91.4362 29.0529C93.0294 29.5657 94.7747 29.5978 96.3914 29.1442C98.0082 28.6906 99.4025 27.7775 100.35 26.5517C100.35 28.4754 100.35 29.4236 100.35 31.2389C99.4113 32.0537 98.275 32.676 97.0241 33.0603C95.7733 33.4447 94.4395 33.5814 93.1201 33.4606C87.1365 32.7832 82.9916 28.3128 82.1813 21.7291C81.371 15.1453 84.768 10.3227 91.7489 10.5394H91.6242ZM91.7489 9.53694C84.1447 9.2931 80.4984 14.6305 81.371 21.6749C82.2436 28.7192 86.5132 33.5419 92.9643 34.2463C94.3251 34.3813 95.7034 34.2494 96.9977 33.8602C98.2921 33.471 99.4697 32.8345 100.444 31.9975L100.849 31.7537C100.833 31.5733 100.833 31.3922 100.849 31.2118C100.849 29.3695 100.849 28.5025 101.005 26.4975V24.899L99.9764 25.8473C99.2042 26.7339 98.1815 27.4319 97.0074 27.8734C95.8334 28.3149 94.5479 28.485 93.2759 28.367C91.5769 28.1913 90.0158 27.4672 88.9018 26.3382C87.7879 25.2091 87.2023 23.7575 87.2612 22.2709C86.9495 18.803 88.7882 16.5 92.1852 16.6897C94.9742 16.7148 97.6815 17.512 99.914 18.9655C100.252 19.2087 100.606 19.4348 100.974 19.6429C100.974 19.0197 100.974 18.7217 100.974 18.0714C100.974 15.931 100.818 14.8473 100.631 12.6527C100.631 12.3818 100.631 12.2734 100.631 12.0025L100.195 11.7586C97.6398 10.2947 94.6527 9.50432 91.593 9.48276L91.7489 9.53694Z" fill="#C800FF"/>
<path d="M107.737 1.02956C108.488 7.592 108.8 14.1869 108.671 20.7808C112.318 16.3645 114.188 14.0345 118.021 9.67241L125.345 8.85961C122.384 11.8128 120.919 13.3842 118.021 16.5271C120.074 20.3848 122.395 24.1306 124.971 27.7438C122.353 28.5296 121.075 28.8818 118.738 29.5049C116.992 26.2537 116.151 24.5197 114.312 20.7537L108.484 27.0936C108.484 28.9901 108.329 29.803 108.173 31.7537C106.303 32.0246 105.399 32.1601 103.592 32.3768C104.483 21.9315 104.107 11.4335 102.47 1.05665H107.737V1.02956ZM108.422 0H101.566V1.08374C103.272 11.4364 103.701 21.9179 102.844 32.3498C102.844 32.6749 102.844 32.8374 102.844 33.1626H103.498C105.306 32.9458 106.209 32.8103 108.079 32.5123H108.765C108.765 32.1872 108.765 32.0246 108.765 31.6995C108.765 30.0468 108.952 29.2069 109.045 27.4729C110.946 25.4409 111.913 24.3842 113.845 22.2709C115.497 25.6576 116.276 27.2562 117.834 30.2365L118.021 30.5887H118.457C120.95 29.9655 122.197 29.6133 124.69 28.8005L126.124 28.367L125.656 27.0936C123.186 23.6842 120.959 20.1463 118.987 16.5C121.698 13.5739 123.07 12.1108 125.843 9.37438C126.498 8.69704 126.84 8.37192 127.526 7.72167L125.376 7.99261C122.259 8.31773 120.919 8.4532 117.99 8.72414H117.709L117.522 8.96798C114.188 12.7882 112.567 14.7931 109.388 18.6675C109.446 12.7791 109.154 6.89196 108.516 1.02956C108.516 0.623153 108.516 0.406404 108.516 0H108.422Z" fill="#C800FF"/>
<path d="M134.632 0.731527C134.632 6.31281 134.414 9.10345 134.195 14.7118L129.022 15.9852C129.022 10.0788 129.022 7.07143 128.773 0.812808H134.632V0.731527ZM131.297 20.835C133.105 20.266 134.414 20.835 134.414 22.4064C134.312 23.2579 133.94 24.0682 133.34 24.7474C132.741 25.4265 131.936 25.9479 131.017 26.2537C129.209 26.9039 127.9 26.2537 127.9 24.5468C127.96 23.7345 128.285 22.9539 128.837 22.2965C129.389 21.6391 130.145 21.1321 131.017 20.835H131.297ZM135.442 0H127.994C127.994 0.325123 127.994 0.514778 127.994 0.839901C128.212 7.1798 128.243 10.2143 128.212 16.1749V16.9335L128.96 16.7438C131.017 16.2562 132.076 15.9852 134.133 15.4163L134.912 15.1995V14.4951C135.13 9.07635 135.224 6.36699 135.349 0.731527V0H135.442ZM131.328 20.1034C130.207 20.4645 129.229 21.0984 128.51 21.9295C127.792 22.7606 127.364 23.7538 127.277 24.7906C127.277 26.8227 128.742 27.798 131.079 26.9581C132.233 26.5711 133.241 25.9125 133.99 25.0561C134.738 24.1996 135.198 23.179 135.317 22.1084C135.317 20.2389 133.603 19.399 131.328 20.1034Z" fill="#C800FF"/>
<path d="M17.2964 32.2142C21.4086 32.1422 25.5195 32.4052 29.5753 32.9999C29.5753 34.2733 29.7934 34.8965 29.9181 36.1428C26.1021 35.5647 22.2267 35.3377 18.356 35.4654C12.4659 35.7635 9.34941 36.6847 9.34941 37.7413C9.50523 40.6403 32.5671 36.2512 31.8815 42.3743C31.5387 45.6255 26.3965 46.8177 17.3587 47.9285C13.4008 48.4162 7.51069 48.9581 2.5555 49.229C2.5555 47.6847 2.5555 46.926 2.5555 45.3817C7.17943 45.4821 11.8054 45.2738 16.3926 44.7586C22.8749 44.027 25.3057 43.6748 25.4304 42.4556C25.742 39.7191 1.30892 46.059 1.24659 38.9063C1.24659 35.2216 8.28981 32.5122 17.2964 32.2142ZM17.2964 31.5911C7.01206 31.9433 0 35.2216 0 39.096C0 43.9999 10.8453 42.4827 17.6704 42.1305C20.5064 41.995 24.5266 41.9679 24.4954 42.5098C24.4643 43.0517 22.1893 43.5122 16.4861 44.1354C12.0422 44.6186 7.56166 44.7998 3.0853 44.6773H1.37125V50.096H2.27502C7.16788 49.8251 13.1827 49.2561 17.3587 48.7142C31.3828 46.926 32.6606 44.4876 32.9411 42.5369C33.4086 38.3374 24.7759 37.8497 17.9509 38.0122C15.333 38.0122 10.6895 38.3374 10.6583 37.7955C10.6272 37.2536 11.4374 36.6034 18.5118 36.2241C22.3089 36.0977 26.1107 36.3156 29.8558 36.8743L31.0089 37.0369C31.0243 36.8023 31.0243 36.5671 31.0089 36.3324C31.0089 35.0861 30.853 34.463 30.6972 33.2167C30.6972 33.027 30.6972 32.9187 30.6972 32.729H29.9181C25.8024 32.1093 21.6286 31.8281 17.4522 31.8891L17.2964 31.5911Z" fill="#C800FF"/>
<path d="M51.4218 34.6527C56.8133 35.7094 59.1195 38.5813 58.3404 44.1897C58.0909 46.0119 57.7268 47.8208 57.2496 49.6084C55.4733 49.1207 54.5383 48.9039 52.6373 48.5246C53.0736 46.5197 53.2606 45.5172 53.5722 43.4852C54.0085 39.6379 52.5438 37.7143 48.8352 37.0911C45.1266 36.468 42.4464 38.8522 41.792 43.2414C41.605 44.7044 41.4803 45.436 41.1998 46.899C38.9871 46.7094 37.834 46.6281 35.4655 46.5739C36.1983 42.0808 36.1983 37.5202 35.4655 33.0271C38.1769 33.2167 39.5169 33.3522 42.0724 33.6773C42.0724 35.899 41.8854 36.9828 41.6361 39.0961H41.9478C42.6646 35.7094 45.5629 33.6773 51.2972 34.6256L51.4218 34.6527ZM51.2972 34.0566C49.8535 33.6429 48.3088 33.5729 46.8235 33.8541C45.3382 34.1352 43.9667 34.7571 42.8516 35.6552C42.8516 34.9236 42.8516 34.5714 42.8516 33.8128V33.1897H41.9166C39.3299 32.8645 38.021 32.7291 35.2785 32.5123H34.3748C34.3748 32.7291 34.3748 32.8645 34.3748 33.0813C35.0997 37.5749 35.0997 42.1345 34.3748 46.6281C34.3748 46.8448 34.3748 46.9532 34.3748 47.197H35.2474C37.6159 47.197 38.769 47.197 40.9817 47.4951H41.792C41.792 47.2783 41.792 47.17 41.792 46.9532C42.0724 45.5172 42.1971 44.7857 42.4152 43.3227C43.0074 39.2857 45.0331 37.0099 48.6482 37.633C51.3907 38.0936 53.1047 39.3399 52.6684 43.3227C52.3568 45.3818 52.1698 46.3842 51.7335 48.3892C51.7335 48.5788 51.7335 48.6872 51.7335 48.9039L52.4503 49.0394C54.0078 49.3328 55.5472 49.6946 57.0627 50.1232L57.686 50.2857C57.7037 50.1145 57.7037 49.9422 57.686 49.7709C58.2044 47.9882 58.5895 46.1782 58.839 44.3522C59.6182 38.6355 57.3431 35.2759 51.2349 34.0837L51.2972 34.0566Z" fill="#C800FF"/>
<path d="M72.2084 39.4754C73.2956 39.6975 74.3211 40.1056 75.225 40.6759C76.129 41.2461 76.8934 41.9671 77.4735 42.7968C78.0537 43.6264 78.438 44.5482 78.6042 45.5084C78.7703 46.4685 78.715 47.4479 78.4413 48.3892C78.0169 50.9411 77.3604 53.4596 76.4779 55.9212C74.9508 55.4335 74.1717 55.1626 72.6447 54.6207C73.4861 53.0493 73.8912 52.2365 74.6392 50.5567H74.3899C72.6447 53.5912 69.5282 54.0247 65.0405 52.5616C62.9213 51.8572 59.7425 50.4754 60.3658 47.5764C61.2072 43.8917 69.7152 45.8695 74.3899 46.872C74.7015 44.6232 73.5173 43.404 70.5566 42.5641C68.1774 41.9779 65.6871 41.8121 63.2329 42.0764C63.2329 40.8301 63.2329 40.2069 63.4199 38.9065C66.2881 38.6631 69.1832 38.8836 71.959 39.5567L72.2084 39.4754ZM74.2341 48.7685C70.9306 48.0099 65.6326 46.4656 65.2275 48.2808C65.0093 49.1207 65.9754 49.9877 67.6271 50.5296C70.4943 51.4779 73.8601 51.3695 74.2341 48.7685ZM72.2395 38.7981C69.3775 38.1293 66.3978 37.9272 63.4511 38.202H63.0148V38.6084C63.0148 39.8818 63.0148 40.5321 62.8278 41.7513C62.8278 42.1035 62.8278 42.2661 62.8278 42.6183H63.7627C66.1345 42.3617 68.5415 42.5277 70.8371 43.106C73.5173 43.8917 74.2029 44.7858 74.1717 46.0863C69.0296 44.9754 60.9579 43.3769 60.0853 47.3326C59.6801 49.0936 60.3346 51.3695 65.2275 53.0222C66.4215 53.5914 67.7613 53.8897 69.1231 53.8897C70.4848 53.8897 71.8246 53.5914 73.0186 53.0222C72.7382 53.5641 72.6135 53.835 72.3019 54.3769C71.9902 54.9188 72.146 54.702 72.0214 54.9459L72.6758 55.1626L76.5091 56.4902L77.1012 56.6799L77.257 56.138C78.1383 53.6652 78.805 51.1384 79.2516 48.5789C79.8046 46.4922 79.3882 44.3001 78.0927 42.4788C76.7973 40.6576 74.7275 39.3543 72.333 38.8523L72.2395 38.7981ZM67.7518 50.0148C66.7857 49.6897 65.6638 49.0936 65.8196 48.4705C66.1001 47.3597 70.432 48.4705 72.9563 49.0666L73.4549 49.202C72.6758 50.8005 70.058 50.7734 67.7518 50.0148V50.0148Z" fill="#C800FF"/>
<path d="M91.6241 43.7562C93.9505 43.9929 96.1922 44.6579 98.1998 45.7069C97.9193 47.3325 97.7635 48.1182 97.4519 49.6626C95.567 48.368 93.3181 47.5355 90.9384 47.2512C90.2431 47.0962 89.5177 47.0726 88.811 47.1822C88.1044 47.2917 87.433 47.5318 86.8422 47.8862C86.2513 48.2406 85.7549 48.7011 85.3863 49.2365C85.0177 49.772 84.7855 50.37 84.7055 50.9901C84.5227 51.6048 84.4925 52.2463 84.6171 52.8718C84.7416 53.4974 85.018 54.0927 85.4278 54.6182C85.8377 55.1437 86.3716 55.5872 86.9939 55.9193C87.6163 56.2514 88.3129 56.4645 89.0374 56.5443C91.4403 57.0436 93.9719 56.7237 96.1118 55.6502C95.8001 56.9778 95.6131 57.6552 95.2703 58.9286C92.9713 59.826 90.3923 60.0263 87.9466 59.4975C86.7407 59.313 85.5912 58.9152 84.5693 58.3288C83.5475 57.7423 82.675 56.9797 82.0059 56.0882C81.3369 55.1967 80.8855 54.1952 80.6798 53.1458C80.474 52.0965 80.5183 51.0216 80.8099 49.9877C80.9599 48.921 81.3744 47.8953 82.025 46.9815C82.6755 46.0677 83.5465 45.2876 84.5777 44.6951C85.6089 44.1026 86.7758 43.7117 87.9978 43.5496C89.2198 43.3875 90.4676 43.458 91.6552 43.7562H91.6241ZM91.6552 43.0788C90.3825 42.7695 89.0478 42.704 87.7431 42.8869C86.4385 43.0698 85.195 43.4967 84.0987 44.1382C83.0023 44.7796 82.0792 45.6203 81.393 46.6021C80.7068 47.584 80.2739 48.6836 80.1243 49.8251C79.804 50.9263 79.7465 52.0728 79.9553 53.194C80.1642 54.3153 80.6349 55.3874 81.3386 56.3444C82.0423 57.3014 82.964 58.123 84.0469 58.7585C85.1298 59.3939 86.3509 59.8299 87.635 60.0394C90.192 60.6717 92.9215 60.5186 95.3638 59.6059H95.769V59.2266C96.1118 57.9261 96.2676 57.2488 96.6104 55.9212L96.8597 54.8374L95.769 55.3522C93.7471 56.3801 91.3471 56.6906 89.0686 56.2192C88.4252 56.1619 87.8035 55.9853 87.2455 55.7012C86.6874 55.4171 86.206 55.0321 85.8337 54.5724C85.4615 54.1126 85.2071 53.5888 85.0877 53.0362C84.9684 52.4837 84.9868 51.9153 85.1418 51.3695C85.2173 50.8223 85.428 50.2958 85.7595 49.8261C86.0911 49.3564 86.5356 48.9546 87.0626 48.6483C87.5896 48.342 88.1865 48.1385 88.8125 48.0517C89.4385 47.9648 90.0787 47.9968 90.6891 48.1453C92.9726 48.43 95.1257 49.2442 96.9221 50.5025L97.7635 51.0714C97.7635 50.6108 97.7635 50.367 97.9817 49.9064C98.3245 48.3621 98.4803 47.5493 98.7296 45.9236V45.4631L98.3868 45.3005C96.2979 44.2296 93.9719 43.5556 91.5617 43.3227L91.6552 43.0788Z" fill="#C800FF"/>
<path d="M107.269 36.5222C106.583 43.0246 106.053 46.0591 104.9 51.8571C108.658 48.7424 112.217 45.45 115.558 41.9951C118.146 41.359 120.694 40.6084 123.194 39.7463C119.797 43.133 118.114 44.7586 114.779 47.8744C116.565 51.0076 118.946 53.8563 121.823 56.3005C119.446 57.0682 117.022 57.7194 114.561 58.2512C112.88 56.2436 111.478 54.07 110.385 51.7759C108.364 53.5093 106.208 55.1206 103.934 56.5985C103.654 57.9532 103.529 58.6305 103.217 59.931C101.254 60.0665 100.319 60.0936 98.4491 60.0936C100.603 52.5469 102.072 44.8648 102.843 37.1182C104.651 36.9286 105.555 36.8202 107.393 36.5222H107.269ZM108.172 35.6281H107.487C105.617 35.9261 104.713 36.0345 102.937 36.2241H102.282C102.282 36.5222 102.282 36.6847 102.282 37.0098C101.563 44.7012 100.136 52.3299 98.0128 59.8227L97.8569 60.3916H98.5426C100.134 60.426 101.726 60.3807 103.311 60.2561H104.028V59.6601C104.308 58.468 104.433 57.8448 104.682 56.5985C106.579 55.3967 108.381 54.0841 110.073 52.6699C111.078 54.7383 112.365 56.694 113.907 58.4951L114.094 58.7389H114.592C117.052 58.2266 119.476 57.5934 121.854 56.8424L123.537 56.3276L122.726 55.6231C119.958 53.3202 117.642 50.6385 115.87 47.6847C118.987 44.8128 120.576 43.2685 123.755 40.0985L125.687 38.1749L123.35 38.9877C120.233 40.0443 118.675 40.4778 115.745 41.2364H115.465L115.216 41.4803C111.476 45.2463 109.637 47.0345 105.866 50.1773C106.864 44.8941 107.3 42.0492 107.923 36.3325C107.923 36.0345 107.923 35.8719 107.923 35.5468L108.172 35.6281Z" fill="#C800FF"/>
<path d="M133.759 28.9902C133.447 34.5444 133.291 37.3079 132.917 42.8079C130.362 43.9458 129.146 44.4606 126.684 45.3547C126.965 39.936 127.121 37.2266 127.339 31.3744C129.801 30.5345 131.047 30.0468 133.572 28.9902H133.759ZM129.333 49.3104C131.515 48.4163 133.26 48.6872 133.229 50.1232C133.013 51.0547 132.52 51.9205 131.798 52.6338C131.076 53.3471 130.151 53.8828 129.115 54.1872C126.934 55 125.375 54.5394 125.469 53.1035C125.709 52.2453 126.186 51.4511 126.86 50.79C127.533 50.1289 128.382 49.621 129.333 49.3104V49.3104ZM134.663 27.9335L133.79 28.2857C131.172 29.3424 129.926 29.803 127.557 30.6429L126.716 30.9409C126.731 31.1846 126.731 31.4288 126.716 31.6724C126.497 37.4163 126.342 40.2069 125.999 45.734V46.4113L126.871 46.0862C129.24 45.165 130.486 44.6503 133.104 43.3769L134.039 42.9434V42.266C134.382 36.8473 134.507 34.1379 134.787 28.5296V27.798L134.663 27.9335ZM129.365 48.7685C128.213 49.1754 127.188 49.8115 126.37 50.6255C125.553 51.4396 124.967 52.4089 124.659 53.4557C124.659 55.2168 126.404 55.8941 129.209 54.8646C130.511 54.4633 131.672 53.7758 132.579 52.869C133.485 51.9622 134.107 50.867 134.382 49.6897C134.382 47.8744 132.232 47.5222 129.489 48.633L129.365 48.7685Z" fill="#C800FF"/>
<path d="M18.6987 56.3547C22.3724 55.8131 26.1067 55.6494 29.8245 55.867C29.6063 57.1134 29.5128 57.7365 29.2635 58.9828C25.8539 58.7891 22.4297 58.9712 19.0727 59.5247C13.5565 60.5001 10.7517 61.7735 10.6894 62.8572C10.627 65.7562 31.1646 59.037 29.7933 65.0247C29.1389 68.2488 24.62 70.0099 16.9223 72.0961C13.5565 73.0173 8.57017 74.1823 4.45643 74.9951C4.45643 73.4779 4.45643 72.7193 4.45643 71.1749C8.46628 70.7528 12.4279 70.0368 16.299 69.0345C21.8152 67.734 23.9967 67.0838 24.1837 65.8646C24.62 63.1552 3.30334 71.9606 3.428 64.9976C3.428 61.3941 10.3777 57.7094 18.8234 56.3547H18.6987ZM18.8234 55.7316C9.34929 57.2488 2.33723 61.5296 2.2749 65.3498C2.2749 70.1996 11.6243 67.4902 17.4833 66.4065C19.9141 65.9459 23.4046 65.4853 23.3111 66.0271C23.2176 66.569 21.2542 67.2735 16.3613 68.4927C12.5982 69.4237 8.75125 70.0762 4.86157 70.4434L3.39683 70.606V71.5542C3.39683 73.0986 3.39683 73.8572 3.39683 75.4015V75.8621H4.05129C8.19619 75.0222 13.4007 73.803 16.86 72.8276C28.7961 69.5222 30.1985 66.9483 30.6036 65.0247C31.4451 60.8252 24.3707 61.0961 18.2936 61.9902C15.9562 62.3424 11.8425 63.1552 11.8736 62.5863C11.9048 62.0173 12.7151 61.2858 19.135 60.1207C22.4218 59.5902 25.7718 59.4173 29.1077 59.606H30.105L30.2608 58.8744C30.4789 57.6281 30.6036 57.0321 30.8218 55.7858V55.2981H30.2296C26.4418 55.0556 22.6344 55.2011 18.8857 55.7316H18.8234Z" fill="#C800FF"/>
<path d="M49.8634 56.0024C54.5381 56.7881 55.7224 59.3079 53.759 64.6724C52.9799 66.8128 52.5747 67.8965 51.8268 70.0911C50.467 69.7352 49.0825 69.4547 47.6819 69.2512C48.3675 67.165 48.7103 66.1354 49.4271 64.1305C50.7048 60.3374 49.9569 58.7118 46.6534 58.3054C43.35 57.899 39.7349 60.5542 38.5818 64.9162L37.3975 68.6551C35.4653 68.6551 34.468 68.6551 32.4112 68.899C33.6577 63.3448 34.3122 60.7709 35.5276 55.3522C37.9896 55.3522 39.1739 55.3522 41.4489 55.5147C40.6075 57.628 40.2023 58.6847 39.3297 60.9335H39.6102C40.2986 59.1447 41.734 57.6456 43.6325 56.7325C45.5311 55.8195 47.7545 55.5589 49.8634 56.0024ZM50.0192 55.4876C48.5448 55.1878 47.0088 55.2037 45.543 55.5341C44.0773 55.8644 42.7258 56.4993 41.6047 57.3842L42.3215 55.6231L42.5397 55.0271H41.6982C39.4232 54.8916 38.239 54.8374 35.7769 54.8374H34.9355V55.4064C33.8447 60.8251 33.1903 63.5345 31.9749 68.9532V69.5221H32.7228C34.7797 69.3325 35.8393 69.3054 37.7092 69.2512H38.3948L38.5506 68.6822L39.1427 65.0246C40.2335 60.9877 43.163 58.5763 46.3418 58.9285C48.7726 59.1995 49.9569 60.2019 48.6168 64.1305C47.9312 66.1625 47.5572 67.165 46.9027 69.2783C46.8262 69.455 46.7637 69.636 46.7158 69.8202H47.339C48.7397 70.0236 50.1241 70.3042 51.484 70.6601L52.0761 70.7955C52.0761 70.6059 52.0761 70.4975 52.2631 70.2808C53.011 68.0591 53.4162 66.9753 54.1953 64.862C56.221 59.4433 55.2237 56.4359 49.8634 55.5147L50.0192 55.4876Z" fill="#C800FF"/>
<path d="M68.2505 61.5024C69.1962 61.7037 70.0797 62.0826 70.839 62.6125C71.5983 63.1423 72.2149 63.8103 72.6456 64.5694C73.0763 65.3286 73.3105 66.1605 73.3319 67.0068C73.3533 67.853 73.1613 68.6931 72.7693 69.4679C71.7409 72.1773 71.2111 73.4778 70.2762 76.1871L66.4117 74.8054C67.2844 73.2881 67.7518 72.5295 68.6556 71.0393H68.4063C66.3806 73.7487 63.2953 74.1822 59.0569 72.8275C57.0312 72.1773 54.0394 70.8497 55.099 67.9778C56.439 64.3201 64.4484 66.5418 68.9672 67.8423C69.684 65.9728 68.7803 64.862 66.0689 63.8595C63.8865 63.1138 61.5575 62.7456 59.2127 62.7758L60.2411 60.0664C63.0417 60.101 65.8105 60.5879 68.4063 61.5024H68.2505ZM68.4063 69.4137C65.2898 68.4926 60.21 66.8398 59.5555 68.6009C59.2439 69.4137 60.0853 70.2536 61.6435 70.7955C64.3549 71.7438 67.5337 71.6083 68.4063 69.4137V69.4137ZM68.4063 60.9876C65.7214 60.076 62.8735 59.5808 59.9918 59.5246H59.5555V59.8768L58.5271 62.5861L58.2466 63.3448H59.2127C61.5384 63.2508 63.8616 63.5736 66.0378 64.293C68.4998 65.1871 68.9672 65.9999 68.7179 67.0024C63.7939 65.5935 56.2521 63.6428 54.6627 67.6526C54.0394 69.3595 54.351 71.6625 59.0257 73.0714C60.2206 73.5911 61.5384 73.8618 62.8746 73.8618C64.2107 73.8618 65.5285 73.5911 66.7234 73.0714C66.4117 73.5861 66.2559 73.8571 65.9754 74.3719L65.6638 74.9137L66.3183 75.1576L70.2138 76.5393L70.7748 76.729C70.7748 76.5393 70.7748 76.431 70.9618 76.2413C71.8656 73.532 72.3954 72.1773 73.4238 69.5221C73.8075 68.6877 73.9846 67.7923 73.9435 66.8944C73.9024 65.9965 73.644 65.1162 73.1853 64.311C72.7266 63.5057 72.0778 62.7935 71.2812 62.2209C70.4846 61.6483 69.5581 61.228 68.5621 60.9876H68.4063ZM61.6747 70.2807C60.7709 69.9556 59.7425 69.3866 59.9607 68.7906C60.3658 67.7068 64.4795 68.7906 66.9104 69.5763L67.409 69.7118C66.3494 71.0664 63.8562 71.0393 61.6747 70.2807Z" fill="#C800FF"/>
<path d="M86.5447 67.3547C88.955 67.8089 91.2827 68.5473 93.4632 69.5493C93.0892 70.7956 92.9023 71.3916 92.5594 72.6108C90.3904 71.3731 87.9996 70.4574 85.4851 69.9015C82.1193 69.1158 79.5638 69.9015 78.7535 72.2315C77.9432 74.5616 79.5949 76.6749 83.2412 77.6502C85.8368 78.328 88.6157 78.2519 91.157 77.4335L90.3779 80.4409C87.7039 81.047 84.8893 81.0002 82.2439 80.3054C76.3226 78.8153 73.3932 74.8867 74.8267 71.0665C76.2603 67.2463 80.7169 66.0271 86.5447 67.3547V67.3547ZM86.7316 66.8128C80.4987 65.4581 75.824 66.8128 74.2658 70.8498C72.7075 74.8867 75.6682 79.1946 82.0881 80.8202C84.845 81.5456 87.7792 81.5925 90.5649 80.9557H91.0324V80.6034C91.3129 79.4113 91.4687 78.8424 91.8115 77.6502C91.8115 77.2709 91.8115 77.0813 92.0608 76.702L90.7831 77.0813C88.3834 77.8656 85.7516 77.9323 83.3035 77.2709C80.1871 76.4581 78.5353 74.5616 79.2521 72.6108C79.9689 70.6601 82.3686 69.9015 85.2046 70.6059C87.6017 71.1199 89.886 71.971 91.9673 73.1256L92.9023 73.6675C92.9023 73.2882 93.0581 73.1256 93.1827 72.7463C93.5255 71.5271 93.7125 70.931 94.0865 69.6847V69.3325L93.7125 69.17C91.4492 68.1397 89.039 67.3744 86.5447 66.8941L86.7316 66.8128Z" fill="#C800FF"/>
<path d="M103.872 63.2906C102.781 68.0862 102.189 70.3891 101.16 75.0222C105.41 72.8534 109.473 70.4175 113.315 67.734C116.377 67.2448 119.405 66.6025 122.383 65.8103C119.271 68.165 116.015 70.3719 112.629 72.4212C115.364 75.361 118.343 78.1229 121.542 80.6847C117.958 81.2266 116.244 81.4433 112.972 81.7143C111.057 79.6537 109.278 77.5008 107.643 75.266C104.526 76.9187 103.155 77.6502 100.288 79.0049L99.7267 82.1207C97.4517 82.1207 96.3609 81.9581 94.2417 81.7685C95.8311 74.5345 96.9842 71.0936 98.9787 63.4803C100.911 63.4803 101.877 63.4803 103.934 63.2906H103.872ZM104.807 62.6404H104.059C102.423 62.791 100.779 62.8633 99.1346 62.8571H98.4178V63.4261C96.3921 71.0123 95.3013 74.4532 93.6184 81.633C93.6038 81.8134 93.6038 81.9945 93.6184 82.1749H94.3975C96.5167 82.3645 97.514 82.4458 99.9137 82.5271H100.755C100.755 82.3103 100.755 82.202 100.755 81.9581C100.973 80.8202 101.098 80.2512 101.316 79.2488C103.747 78.1108 104.962 77.4877 107.549 76.1059C108.98 78.1687 110.529 80.1671 112.193 82.0936L112.442 82.3645H113.003C116.275 82.0936 117.989 81.9039 121.573 81.3621L123.537 81.064L122.57 80.2512C119.472 77.7848 116.577 75.1321 113.907 72.3128C117.081 70.3723 120.139 68.2924 123.069 66.0813C123.973 65.431 124.44 65.0788 125.344 64.3744L122.539 65.133C119.569 65.9236 116.552 66.5748 113.501 67.0837H113.159L112.878 67.2734C109.531 69.6347 106.012 71.8066 102.345 73.7758C103.248 69.6305 103.747 67.5443 104.713 63.2364V62.6404H104.807Z" fill="#C800FF"/>
<path d="M135.13 55.4064C134.849 60.8251 134.725 63.399 134.413 68.7094C131.297 69.6035 129.894 70.0099 127.058 70.7143C127.058 65.7291 127.058 63.2636 127.308 58.2512C130.424 57.2488 131.858 56.6798 135.13 55.4064ZM130.331 74.67C132.917 74.0468 134.974 74.67 134.974 75.9705C134.974 77.2709 132.917 79.0049 130.144 79.5739C127.37 80.1429 125.687 79.5739 125.78 78.0567C125.874 76.5394 127.775 75.3473 130.331 74.67V74.67ZM136.252 54.1872L135.13 54.6478C132.013 55.9483 130.331 56.5172 127.339 57.5197L126.31 57.8719V58.5222C126.154 63.5074 126.092 65.9729 125.967 70.9039V71.5271L127.027 71.2833C129.863 70.5788 131.359 70.1995 134.413 69.2783L135.566 68.9532V68.2759C135.815 62.8571 135.94 60.2833 136.189 54.8916V54.1872H136.252ZM130.331 73.9384C127.214 74.7241 124.752 76.4581 124.659 78.165C124.565 79.8719 126.84 80.8744 130.144 80.1429C133.447 79.4113 136.189 77.4335 136.189 75.5911C136.189 73.7488 133.572 73.1527 130.331 73.9384V73.9384Z" fill="#C800FF"/>
<path d="M16.7356 80.9015C19.7476 79.9893 22.8981 79.4689 26.085 79.3572C25.8045 80.9015 25.6799 81.6872 25.3994 83.2587C22.4498 83.2578 19.521 83.6883 16.7356 84.5321C12.0297 86.0222 9.66122 87.5937 9.56772 88.8129C9.34957 92.1183 26.7706 83.069 25.711 90.9804C25.1501 95.207 21.1298 97.7538 14.5541 99.7316C11.1399 100.709 7.65133 101.479 4.1139 102.035C4.1139 100.436 4.1139 99.6232 4.1139 98.0247C7.47754 97.6887 10.7834 97.0066 13.9619 95.9927C18.699 94.4754 20.6624 93.6355 20.8493 92.1183C21.2545 88.6774 3.30362 98.7291 3.52177 91.468C3.52177 87.7291 9.50539 83.2045 16.7356 80.9286V80.9015ZM16.7356 80.2784C8.57045 82.8252 2.64916 87.9459 2.55566 91.8744C2.55566 96.8597 10.1599 94.0419 15.0215 92.7685C17.1096 92.2538 20.0702 91.6306 20.0079 92.3079C19.9456 92.9853 18.2003 93.9065 14.0554 95.2611C10.9679 96.2429 7.75557 96.8979 4.48788 97.2119L3.30362 97.3744V98.404C3.30362 100.003 3.30362 100.788 3.30362 102.387V102.956H3.92691C7.52703 102.394 11.0779 101.615 14.5541 100.626C24.6826 97.537 26.085 93.3646 26.4278 90.8449C27.1758 85.4262 21.0987 86.2119 15.9876 87.5124C14.0243 88.0271 10.5338 89.0838 10.5962 88.4607C10.6585 87.8375 11.3129 86.9705 16.8291 85.2636C19.5487 84.4521 22.3996 84.0222 25.2747 83.9902H26.1162V83.0961C26.3967 81.5247 26.5213 80.7661 26.8018 79.2217V78.6528H26.459C23.1699 78.8002 19.9194 79.338 16.7979 80.2513L16.7356 80.2784Z" fill="#C800FF"/>
<path d="M43.4438 77.6502C47.6199 78.1108 48.7106 80.6034 47.651 87.6748C47.2459 90.3842 47.0589 91.9285 46.8719 95.0443C45.4373 94.7155 43.9613 94.5425 42.4777 94.5295C42.727 91.6576 42.914 90.2758 43.3191 87.6206C44.1294 82.6625 43.3191 80.8743 40.5455 80.7659C37.7718 80.6576 34.3125 84.3152 33.4399 90.1674C33.1594 92.1452 33.0348 93.1748 32.8166 95.2339C31.0091 95.4507 30.1053 95.5861 28.2043 95.9113C28.7977 89.9768 29.7338 84.0719 31.0091 78.2191C32.7134 78.0118 34.4306 77.8942 36.1513 77.8669C35.2786 80.5763 34.8735 81.9039 34.1256 84.7487H34.2814C35.7773 80.1428 38.8937 77.2167 43.3503 77.6773L43.4438 77.6502ZM43.5061 77.0541C42.0407 76.9092 40.5581 77.1273 39.2291 77.6834C37.9002 78.2395 36.7792 79.1108 35.9954 80.197C36.2759 79.2758 36.4006 78.8152 36.6811 77.9482C36.6811 77.6502 36.6811 77.5147 36.9304 77.2438H36.1824C34.4618 77.271 32.7446 77.3887 31.0402 77.596H30.3235C30.3235 77.8398 30.3235 77.9482 30.3235 78.2462C28.9834 84.9383 28.3601 88.4063 27.5498 95.9383C27.5498 96.2635 27.5498 96.3989 27.5498 96.7241H28.2354C30.1053 96.3989 31.0091 96.2635 32.8166 96.0467H33.5023C33.5023 95.7216 33.5023 95.5861 33.5023 95.261C33.7204 93.2019 33.8451 92.1994 34.1256 90.2216C34.9047 84.8029 37.5848 81.4704 40.3585 81.5517C42.5089 81.5517 43.475 82.527 42.6647 87.729C42.2284 90.4384 42.0414 91.7659 41.7921 94.6649C41.7921 94.963 41.7921 95.0984 41.7921 95.4236H42.4154C43.8966 95.4406 45.3709 95.6042 46.8096 95.9113H47.464C47.464 95.6132 47.464 95.4507 47.464 95.1526C47.6822 92.064 47.838 90.6009 48.2432 87.8103C49.2716 80.6305 48.2432 77.596 43.5996 76.9728L43.5061 77.0541Z" fill="#C800FF"/>
<path d="M61.4255 81.7685C63.5203 82.3058 65.314 83.4952 66.4638 85.1096C67.6136 86.7239 68.0389 88.65 67.6585 90.5197C67.4543 93.3708 67.4543 96.2302 67.6585 99.0813L63.3266 98.133C63.607 95.9926 63.7629 94.9631 64.168 92.9582H63.9187C62.7968 96.5887 59.9608 97.9705 55.3172 97.0764C54.5302 97.0255 53.7627 96.8383 53.0601 96.5258C52.3574 96.2134 51.7337 95.7819 51.2256 95.2569C50.7174 94.7319 50.3352 94.1238 50.1013 93.4685C49.8673 92.8132 49.7865 92.1238 49.8634 91.4409C50.3621 86.4828 58.7454 88 63.4824 88.9212C63.7005 86.5912 62.5786 85.4261 59.7426 84.6133C57.4552 84.0115 55.0253 83.9461 52.6994 84.4237C52.9487 83.0419 53.0734 82.3646 53.3539 81.037C56.0836 80.7377 58.8559 80.988 61.4567 81.7685H61.4255ZM63.2642 91.0616C59.805 90.4385 54.507 89.2463 54.32 91.6035C54.32 92.7143 55.3172 93.6084 57.0313 93.9877C60.1478 94.6651 63.0461 93.9877 63.2642 91.0616V91.0616ZM61.5813 81.2808C58.9121 80.4735 56.0642 80.2138 53.2604 80.5222H52.8552V80.9286C52.5436 82.2562 52.4189 82.9335 52.1696 84.3153L52.0138 85.2907L52.9799 85.0739C55.2198 84.6071 57.5608 84.6538 59.7738 85.2094C62.3605 85.9409 62.8903 86.8621 63.0461 88.1897C57.8416 87.1601 49.9258 85.9138 49.3648 91.3325C49.2568 92.098 49.3273 92.8746 49.572 93.6159C49.8166 94.3571 50.2305 95.048 50.7889 95.6473C51.3473 96.2465 52.0388 96.7418 52.8222 97.1037C53.6055 97.4657 54.4647 97.6867 55.3484 97.7537C56.6673 98.1592 58.0942 98.2187 59.4517 97.9248C60.8092 97.631 62.0375 96.9968 62.9838 96.101C62.9838 96.8055 62.8279 97.1577 62.7344 97.8892C62.7344 98.1872 62.7344 98.3498 62.7344 98.6749L63.4824 98.8375L67.8454 99.7587H68.4687C68.4843 99.5331 68.4843 99.3069 68.4687 99.0813C68.2497 96.2397 68.2497 93.3885 68.4687 90.5468C68.7874 88.5412 68.2674 86.5029 67.0035 84.8024C65.7395 83.1019 63.8155 81.8523 61.5813 81.2808V81.2808ZM57.0313 93.3104C56.034 93.0936 54.8498 92.5247 54.9121 91.7389C54.9121 90.303 59.3375 90.9803 61.9553 91.468H62.4851C61.8618 93.2833 59.3686 93.771 57.0313 93.2291V93.3104Z" fill="#C800FF"/>
<path d="M81.0282 87.702C83.8048 88.3795 86.4663 89.3724 88.9441 90.6552C88.9441 91.8744 88.9441 92.4976 88.9441 93.771C86.3724 92.2842 83.5416 91.1681 80.5608 90.4655C76.821 89.5985 74.3278 90.6552 74.3278 93.1749C74.3278 95.6946 76.3224 98.1059 80.7478 98.9729C83.4865 99.7217 86.4235 99.7217 89.1622 98.9729C89.1622 100.273 89.3804 100.951 89.5674 102.278C86.6849 102.847 83.6925 102.847 80.8101 102.278C77.9502 101.924 75.3206 100.717 73.3709 98.8638C71.4211 97.0106 70.2722 94.6263 70.1206 92.1183C70.3387 87.4852 74.6083 86.1035 81.1217 87.6749L81.0282 87.702ZM81.1217 87.1601C74.2655 85.4803 69.6531 86.9976 69.4038 91.9286C69.5202 94.6672 70.7536 97.2804 72.8833 99.3007C75.0131 101.321 77.9003 102.617 81.0282 102.956C84.0352 103.538 87.1526 103.538 90.1595 102.956H90.627C90.627 102.793 90.627 102.712 90.627 102.576C90.44 101.222 90.3465 100.571 90.2218 99.271C90.2218 98.8646 90.2218 98.6478 90.2218 98.2414L89.0064 98.5936C86.4075 99.291 83.6271 99.291 81.0282 98.5936C77.1015 97.8079 75.2316 95.8843 75.3251 93.5542C75.4186 91.2242 77.5066 90.3843 80.8101 91.1429C83.6593 91.8165 86.3641 92.887 88.8194 94.3128L90.0348 94.9631C90.0348 94.5838 90.0348 94.4212 90.0348 94.0419C90.0348 92.7685 90.0348 92.1453 90.0348 90.899V90.5468C89.8795 90.4909 89.7329 90.418 89.5985 90.3301C87.0381 89.0245 84.2934 88.0136 81.4334 87.3227L81.1217 87.1601Z" fill="#C800FF"/>
<path d="M99.7272 85.5074C99.0055 89.3502 98.8901 93.2606 99.3844 97.1305C103.747 94.9901 106.023 93.9064 111.04 91.1699C114.48 91.1053 117.913 90.8792 121.324 90.4926C117.117 92.8768 115.091 93.8793 111.445 95.7487C115.808 99.4877 118.208 101.384 122.945 105.367C119.392 105.367 117.678 105.367 114.343 105.367C111.227 102.387 109.575 100.924 106.646 98.0788L99.7272 101.276C99.9142 102.576 100.039 103.227 100.257 104.581C97.8262 104.337 96.6108 104.202 94.2422 103.904C92.7723 97.6534 92.6877 91.2165 93.9929 84.9384C96.1433 85.1822 97.1094 85.2635 99.6026 85.3719L99.7272 85.5074ZM100.569 84.8571H99.6961C97.3899 84.8571 96.2679 84.6675 94.0864 84.4507H93.3073C93.3073 84.6675 93.3073 84.7758 93.3073 84.9926C91.9856 91.2129 92.0491 97.596 93.4943 103.796C93.4943 104.039 93.4943 104.175 93.4943 104.392H94.3669C96.7043 104.69 97.9197 104.825 100.382 105.042H101.285C101.285 104.798 101.285 104.69 101.285 104.446C101.036 103.227 100.943 102.603 100.787 101.411L106.459 98.7019C109.077 101.601 110.51 102.956 113.409 105.665L113.751 105.99H114.343C117.647 105.99 119.361 105.99 122.914 105.99H124.815L123.724 105.042C119.205 101.276 116.899 99.4606 112.692 95.9113C116.182 94.1231 118.021 93.2019 122.041 90.9532L124.534 89.5714L121.418 89.9236C118.007 90.3175 114.574 90.5526 111.134 90.6281H110.76L110.448 90.7635C105.773 93.229 104.215 94.1231 100.226 95.9926C99.8577 92.5137 100.004 89.008 100.662 85.5616C100.647 85.3812 100.647 85.2001 100.662 85.0197L100.569 84.8571Z" fill="#C800FF"/>
<path d="M135.66 81.9311C135.411 87.3498 135.286 89.8966 135.099 95.1798C131.983 95.6404 130.268 95.803 127.246 96.101C126.787 91.9771 126.579 87.8351 126.622 83.6921C130.082 83.1232 131.889 82.771 135.66 81.9311V81.9311ZM131.079 100.544C133.697 100.301 135.785 101.113 135.816 102.576C135.847 104.039 133.915 105.286 131.297 105.448C128.679 105.611 126.84 104.69 126.747 103.281C126.653 101.872 128.523 100.788 131.079 100.571V100.544ZM137.125 80.9557L135.816 81.2537C132.045 82.0936 130.268 82.4458 126.778 83.0419L125.625 83.2316V83.9902C125.566 88.1153 125.774 92.24 126.248 96.3449V96.968H127.37C130.487 96.67 131.951 96.5074 135.193 96.0739L136.408 95.8843V95.234C136.626 89.8153 136.751 87.1059 137 81.8769V81.1724L137.125 80.9557ZM131.203 99.9212C128.087 100.219 125.656 101.655 125.812 103.362C125.968 105.069 128.336 106.315 131.484 106.071C134.632 105.828 137.125 104.31 137.125 102.441C137.125 100.571 134.476 99.5961 131.172 99.8941L131.203 99.9212Z" fill="#C800FF"/>
<path d="M3.6463 130.618V126.446C6.57764 127.286 9.66546 127.635 12.7464 127.475C17.2653 127.204 19.1975 126.527 19.1663 124.766C19.1663 120.675 2.80485 126.852 2.89835 119.347C2.89835 115.5 7.63538 112.167 13.993 110.65C16.8583 110.054 19.8102 109.835 22.7503 110C22.7503 111.842 22.7503 112.709 22.7503 114.66C20.0011 114.338 17.2092 114.42 14.4916 114.904C10.2532 115.744 8.25868 116.855 8.25868 118.128C8.25868 121.623 23.841 114.498 24.3085 124.36C24.5266 129.616 20.3506 132 13.7748 132C10.3444 131.919 6.94028 131.455 3.6463 130.618V130.618Z" fill="#C800FF"/>
<path d="M27.3312 108.781C29.4192 108.456 30.4477 108.32 32.5045 108.103C32.1929 111.571 32.0682 113.522 31.9747 117.153H32.2552C32.6915 111.057 35.3717 107.047 40.0464 106.749C44.7211 106.451 46.5598 109.837 48.2115 120.296C48.866 124.441 49.2711 126.636 50.3307 131.133H45.0327C44.1913 126.825 43.8485 124.793 43.3187 120.865C42.3214 113.495 41.0436 111.246 37.8648 111.49C34.686 111.734 31.9747 116.503 32.6603 124.387C32.8785 127.096 33.0343 128.397 33.3771 131.187L28.048 131.241C27.2419 123.776 27.0024 116.273 27.3312 108.781V108.781Z" fill="#C800FF"/>
<path d="M52.2318 125.254C50.6736 117.911 60.6151 117.993 66.0689 117.857C65.9682 116.548 65.3081 115.319 64.2182 114.412C63.1283 113.504 61.6875 112.984 60.1788 112.953C57.4964 112.758 54.8121 113.309 52.5123 114.525C52.2006 112.52 52.1072 111.571 51.9202 109.675C54.7156 108.628 57.7832 108.254 60.8021 108.591C66.6299 109.404 69.4659 113.089 71.1488 118.833C72.3543 123.032 73.8106 127.174 75.5118 131.241H70.2762C69.497 127.963 69.1854 126.392 68.6244 123.411H68.3128C68.9049 129.02 66.4741 132.027 60.7398 132.027C58.5875 132.08 56.4961 131.402 54.9082 130.138C53.3203 128.874 52.3605 127.122 52.2318 125.254ZM66.8169 120.919C62.859 121.108 56.4702 120.919 57.3117 124.333C57.5217 125.127 58.0448 125.833 58.7904 126.328C59.536 126.823 60.4571 127.075 61.3942 127.042C62.2817 127.126 63.1791 127.011 64.0004 126.706C64.8216 126.402 65.539 125.919 66.0836 125.304C66.6282 124.689 66.9817 123.963 67.1101 123.195C67.2385 122.427 67.1376 121.643 66.8169 120.919V120.919Z" fill="#C800FF"/>
<path d="M74.5461 120.377C72.3646 113.766 76.0108 110.759 82.8359 111.571C86.2159 112.06 89.4801 113.031 92.4969 114.443C92.9956 116.042 93.2761 116.855 93.8994 118.507C90.8269 116.887 87.4167 115.81 83.8643 115.337C79.9064 114.958 78.0989 117.017 79.4701 120.756C80.1153 122.579 81.3867 124.188 83.1137 125.364C84.8406 126.541 86.9404 127.231 89.1312 127.34C90.4588 127.496 91.8094 127.411 93.097 127.089C94.3847 126.767 95.5812 126.216 96.6107 125.47C97.3898 127.231 97.7949 128.18 98.6987 129.968C96.5279 131.419 93.828 132.14 91.0945 132C87.3043 131.754 83.6901 130.51 80.7336 128.434C77.7772 126.357 75.6188 123.547 74.5461 120.377V120.377Z" fill="#C800FF"/>
<path d="M95.021 107.616C97.3895 107.914 98.5738 108.049 101.036 108.266C102.02 112.891 103.363 117.454 105.056 121.921C107.901 119.378 111.033 117.09 114.405 115.094C118.052 115.256 119.922 115.31 123.755 115.337C120.233 117.342 118.644 118.291 115.714 120.241C120.483 124.685 122.882 126.961 127.027 131.431H120.42C117.304 128.017 115.434 126.31 112.006 122.924C110.236 124.214 108.589 125.628 107.082 127.15C107.767 128.803 108.141 129.643 108.92 131.377H103.56C99.6042 123.791 96.7363 115.81 95.021 107.616V107.616Z" fill="#C800FF"/>
<path d="M129.645 129.426C129.427 127.936 130.736 126.906 132.761 126.906C133.183 126.861 133.611 126.892 134.019 126.996C134.427 127.1 134.806 127.275 135.132 127.511C135.459 127.747 135.727 128.039 135.92 128.368C136.112 128.697 136.225 129.057 136.252 129.426C136.273 129.779 136.205 130.132 136.053 130.461C135.901 130.789 135.668 131.084 135.372 131.327C135.075 131.569 134.722 131.752 134.335 131.864C133.949 131.975 133.54 132.013 133.135 131.973C132.296 131.994 131.476 131.746 130.833 131.277C130.19 130.807 129.767 130.149 129.645 129.426ZM127.588 109.106C130.705 109.106 132.419 108.943 135.816 108.699C135.816 114.118 135.597 116.638 135.535 121.894C133.042 121.894 131.795 121.894 129.302 121.894C128.554 116.719 128.211 114.172 127.588 109.106V109.106Z" fill="#C800FF"/>
</g>
<defs>
<clipPath id="clip0">
<rect width="137" height="132" fill="white"/>
</clipPath>
</defs>
</svg>
