<svg width="137" height="132" viewBox="0 0 137 132" fill="none" xmlns="http://www.w3.org/2000/svg">
<g clip-path="url(#clip0)">
<path d="M3.11651 21.9459C3.11651 20.4015 3.11651 19.6429 3.11651 18.0986C7.13716 18.95 11.2573 19.3955 15.3954 19.4262C21.2855 19.4262 23.5917 19.2365 23.3112 17.9631C22.4075 15.037 1.77643 18.4508 1.62061 11.4065C1.62061 7.77591 6.51346 5.98773 13.7748 5.98773C17.322 6.17835 20.8451 6.62238 24.3085 7.31532C24.8071 8.83256 25.0565 9.56409 25.5239 11.0542C22.1522 10.3285 18.7084 9.88393 15.2396 9.72665C10.1286 9.72665 7.91587 10.1601 8.04053 11.2981C8.38334 14.3055 27.5496 11.569 29.2637 18.2882C30.1675 21.8646 25.2746 22.8129 16.7978 22.7858C12.2222 22.7425 7.65368 22.462 3.11651 21.9459V21.9459Z" fill="#C800FF"/>
<path d="M29.5752 7.12563L35.8081 7.45075C36.7119 10.3769 37.0859 11.7857 37.678 14.468H37.9897C37.3664 10.133 38.9246 6.96306 44.7524 7.34237C50.5802 7.72168 54.4446 11.4064 56.6573 19.0739C57.3772 21.466 57.9494 23.8898 58.3714 26.335L53.2915 25.5222C52.7929 23.0296 52.4501 21.7291 51.6398 19.0197C50.0816 13.899 47.4637 11.4335 43.6305 11.1355C39.3297 10.8374 38.0208 14.3596 39.4856 19.5074C39.953 21.2414 40.1712 22.2168 40.5452 23.7611C38.1767 23.4902 36.9612 23.3547 34.4681 23.1379C33.3318 17.6954 31.6956 12.3409 29.5752 7.12563V7.12563Z" fill="#C800FF"/>
<path d="M60.5215 22.9754C59.3996 17.9089 68.562 18.1798 74.047 18.1798C73.9514 16.8526 73.2748 15.6076 72.1562 14.7006C71.0375 13.7936 69.5618 13.2934 68.0322 13.303C65.3749 13.187 62.7324 13.7121 60.3969 14.8202C59.8359 13.0591 59.5242 12.1108 58.8386 10.2956C61.6862 9.07843 64.8287 8.47442 68.001 8.53449C74.3898 8.85961 77.9738 13.4384 78.9087 19.3719C79.5497 23.0063 79.9451 26.6702 80.093 30.3448L75.6987 29.5862C75.8546 27.2291 75.8857 26.0099 75.8857 23.4631H75.5741C75.2313 28.2315 72.4576 29.5591 67.4089 28.6379C65.7081 28.4752 64.1149 27.8341 62.8717 26.8119C61.6285 25.7898 60.8032 24.4427 60.5215 22.9754V22.9754ZM74.5145 21.0517C70.7435 21.0517 64.7911 20.3744 65.1651 22.9212C65.3873 23.5832 65.8385 24.1697 66.4573 24.6011C67.0762 25.0325 67.8328 25.2878 68.6243 25.3325C72.0213 25.8473 75.1066 24.7094 74.5145 21.0517V21.0517Z" fill="#C800FF"/>
<path d="M81.9634 20.8621C81.0908 14.1971 84.4255 9.32025 91.4687 9.53699C94.4114 9.56431 97.2812 10.3363 99.7273 11.7587C99.9455 14.0345 100.008 15.1454 100.132 17.3129C97.8186 15.7257 94.976 14.8322 92.0296 14.7661C88.1029 14.5764 86.1395 17.4754 86.5447 21.3227C86.4255 22.7632 86.85 24.1982 87.7537 25.41C88.6574 26.6218 89.991 27.5443 91.5523 28.0376C93.1136 28.5309 94.8174 28.5681 96.4052 28.1435C97.9929 27.7189 99.3781 26.8556 100.351 25.6848C100.351 27.6355 100.351 28.5838 100.351 30.4262C99.4169 31.2474 98.2812 31.8739 97.0289 32.2587C95.7767 32.6435 94.4403 32.7766 93.1204 32.6478C87.0121 32.0247 82.8361 27.5 81.9634 20.8621Z" fill="#C800FF"/>
<path d="M102.345 0H107.643C108.423 6.60635 108.766 13.2462 108.671 19.8867C112.318 15.4704 114.188 13.1404 118.021 8.77832C120.95 8.50739 122.415 8.37192 125.407 8.0468C122.29 10.9458 120.95 12.5172 118.052 15.6601C120.114 19.584 122.435 23.4014 125.002 27.0936C122.415 27.8522 121.137 28.2044 118.769 28.8276C117.024 25.5493 116.182 23.7882 114.312 19.9951L108.516 26.1453C108.516 28.0419 108.516 28.8547 108.235 30.8054C106.365 31.1034 105.461 31.2389 103.654 31.4557C104.48 20.9594 104.041 10.4169 102.345 0V0Z" fill="#C800FF"/>
<path d="M128.087 23.7882C128.145 22.9788 128.47 22.201 129.023 21.5477C129.575 20.8943 130.332 20.393 131.204 20.1034C133.011 19.5616 134.32 20.1034 134.32 21.702C134.229 22.5495 133.865 23.3576 133.27 24.0333C132.674 24.7091 131.872 25.2251 130.954 25.5222C129.334 26.1453 128.025 25.4409 128.087 23.7882ZM128.773 0H134.632C134.632 5.60837 134.414 8.39901 134.195 13.9803C132.107 14.5222 131.079 14.766 129.022 15.2266C129.053 9.2931 128.991 6.28571 128.773 0Z" fill="#C800FF"/>
<path d="M17.2341 31.5912C21.3511 31.5664 25.4617 31.8748 29.513 32.5124C29.513 33.7858 29.7311 34.4089 29.8558 35.6552C26.0534 35.0542 22.1866 34.818 18.3248 34.9508C12.2477 35.2217 9.34941 36.0345 9.34941 37.1183C9.34941 39.9902 32.6294 35.6552 31.975 41.7784C31.6322 45.0296 26.49 46.2217 17.4211 47.1971C13.4632 47.6848 7.54186 48.1996 2.58667 48.4434C2.58667 46.8991 2.58667 46.1404 2.58667 44.5961C7.21935 44.7132 11.8556 44.523 16.455 44.0271C22.9684 43.3227 25.3992 42.9705 25.5239 41.7513C25.742 39.0419 1.27775 45.138 1.21542 38.1207C1.21542 34.4902 8.19632 31.8079 17.2029 31.4828L17.2341 31.5912ZM17.2029 30.8867C6.98089 31.2932 0 34.5444 0 38.4188C0 43.3498 10.8453 41.8326 17.7015 41.5074C20.5375 41.372 24.5889 41.3449 24.5266 41.8868C24.4643 42.4286 22.2516 42.8892 16.5485 43.5124C12.092 43.9732 7.60155 44.1362 3.11647 44.0001H1.37125V44.9754C1.37125 46.5198 1.37125 47.2784 1.37125 48.8227V49.3375H2.27502C7.19905 49.0666 13.245 48.5247 17.4211 48.0099C31.4763 46.2759 32.7229 43.8375 33.0034 41.8868C33.4709 37.6602 24.7136 37.1996 17.9197 37.3079C15.2707 37.3079 10.6583 37.606 10.6272 37.0641C10.596 36.5222 11.3751 35.8991 18.4495 35.5468C22.2466 35.4192 26.0485 35.6372 29.7935 36.1971L30.9777 36.3868C30.9623 36.1521 30.9623 35.9169 30.9777 35.6823C30.9777 34.436 30.7907 33.8129 30.6349 32.5395C30.618 32.3772 30.618 32.214 30.6349 32.0518H29.8246C25.7122 31.4071 21.5367 31.1167 17.3587 31.1848L17.2029 30.8867Z" fill="#C800FF"/>
<path d="M51.3907 34.0837C56.7822 35.2217 59.213 37.931 58.4027 43.6478C58.1752 45.4691 57.8319 47.2781 57.3743 49.0665C55.8483 48.6379 54.2985 48.2762 52.7308 47.9827C53.143 46.3103 53.4447 44.6187 53.6345 42.9162C54.0397 39.069 52.5438 37.1182 48.804 36.4951C45.0643 35.8719 42.5711 38.2561 41.8855 42.6453C41.6673 44.1355 41.5738 44.867 41.2933 46.3029C39.0806 46.0591 37.9275 46.0591 35.559 46.0591C36.3036 41.5667 36.3036 37.0047 35.559 32.5123C38.3015 32.7291 39.6104 32.8645 42.1971 33.1896C42.1971 35.4113 42.0101 36.4951 41.792 38.6084H42.1036C42.8204 35.1946 45.6875 33.0542 51.453 34.1108L51.3907 34.0837ZM51.453 33.5419C50.0054 33.12 48.4537 33.0458 46.9616 33.3271C45.4696 33.6085 44.0926 34.235 42.9762 35.1404C42.9762 34.4089 42.9762 34.0566 42.9762 33.298C42.9607 33.0905 42.9607 32.8824 42.9762 32.6749H42.0101C39.4234 32.3497 38.1145 32.2143 35.372 31.9975H34.4683C34.4683 32.2414 34.4683 32.3497 34.4683 32.5936C35.1932 37.0872 35.1932 41.6468 34.4683 46.1404C34.451 46.3297 34.451 46.52 34.4683 46.7094H35.3409C37.7094 46.7094 38.8625 46.7094 41.0752 47.0345H41.8855C41.9005 46.8541 41.9005 46.673 41.8855 46.4926C42.1659 45.0566 42.2906 44.3251 42.4776 42.835C43.0697 38.798 45.0019 36.5493 48.7105 37.1724C51.453 37.633 53.1671 38.8793 52.7931 42.8892C52.6033 44.5826 52.3016 46.2652 51.8893 47.9286C51.8893 48.1453 51.8893 48.2537 51.8893 48.4704L52.6061 48.6059C54.5072 48.9852 55.4421 49.202 57.2185 49.6896L57.8418 49.8522L57.9976 49.3645C58.4645 47.5765 58.8183 45.7675 59.0572 43.9458C59.8052 38.202 57.499 34.8153 51.3284 33.6502L51.453 33.5419Z" fill="#C800FF"/>
<path d="M72.2396 38.8251C73.3447 39.039 74.3899 39.4417 75.3143 40.01C76.2388 40.5783 77.024 41.3007 77.6243 42.1352C78.2246 42.9697 78.628 43.8997 78.8111 44.871C78.9942 45.8424 78.9532 46.8357 78.6907 47.7931C78.2753 50.3707 77.6293 52.9162 76.7584 55.4064L72.9252 54.1872C73.7666 52.5887 74.1718 51.7759 74.9197 50.0961H74.6704C72.9252 53.1576 69.8399 53.5911 65.321 52.1281C63.1706 51.4236 59.9918 50.0419 60.6151 47.1429C61.3943 43.431 69.9645 45.3818 74.6081 46.3571C74.8886 44.0813 73.7043 42.8621 70.7437 42.0493C68.3546 41.4572 65.8507 41.3004 63.3888 41.5887C63.3888 40.3424 63.3888 39.6921 63.5446 38.3916C66.4194 38.1437 69.322 38.3456 72.1149 38.9877L72.2396 38.8251ZM74.2341 48.3892C70.8995 47.6305 65.6327 46.1133 65.1963 47.9286C65.0094 48.7956 65.9755 49.6355 67.6272 50.2044C70.5255 51.1527 73.8601 50.9902 74.2341 48.3892V48.3892ZM72.1461 38.3645C69.2714 37.7052 66.2816 37.5123 63.3265 37.7956H62.9213C62.9059 37.9307 62.9059 38.0668 62.9213 38.202C62.9213 39.5025 62.9213 40.1256 62.9213 41.3719C62.9213 41.7241 62.9213 41.9138 62.9213 42.2389H63.8563C66.2255 41.9595 68.6358 42.1164 70.9307 42.6995C73.6108 43.4581 74.2964 44.3793 74.2964 45.6798C69.1231 44.5961 61.0514 42.9704 60.21 47.0074C59.8672 48.7685 60.5216 51.0714 65.4145 52.6971C66.6112 53.2591 67.9499 53.5533 69.3101 53.5533C70.6702 53.5533 72.009 53.2591 73.2057 52.6971L72.5201 54.0517L72.2084 54.6207L72.894 54.8374C74.4211 55.3793 75.2002 55.6503 76.7273 56.1379L77.2882 56.3276C77.3318 56.1513 77.3945 55.9789 77.4752 55.8128C78.3171 53.3086 78.9524 50.7553 79.3763 48.1724C79.9367 46.0743 79.5163 43.8686 78.2074 42.0398C76.8985 40.2109 74.8081 38.9086 72.3954 38.4187L72.1461 38.3645ZM67.783 49.6626C66.7857 49.3374 65.695 48.7414 65.8196 48.1182C66.1001 47.0074 70.4009 48.1182 72.9252 48.6872L73.4238 48.8227C72.6447 50.4212 70.0892 50.4212 67.783 49.6626V49.6626Z" fill="#C800FF"/>
<path d="M91.7489 43.0789C94.0709 43.3153 96.3105 43.9705 98.3246 45.0025C98.0441 46.6281 97.9195 47.4409 97.6078 48.9853C95.7085 47.6995 93.4496 46.8765 91.0632 46.601C90.3656 46.4459 89.6377 46.4231 88.9291 46.5343C88.2204 46.6454 87.5476 46.8878 86.9563 47.2451C86.365 47.6024 85.8691 48.0661 85.5022 48.6048C85.1354 49.1435 84.9062 49.7445 84.8303 50.3671C84.6529 50.9887 84.6284 51.6359 84.7584 52.2663C84.8884 52.8967 85.17 53.4962 85.5847 54.0256C85.9995 54.5549 86.538 55.0022 87.1653 55.3382C87.7925 55.6742 88.4942 55.8913 89.2245 55.9754C91.6213 56.465 94.1428 56.1352 96.2677 55.0542C95.9561 56.3818 95.7691 57.0592 95.4263 58.3597C93.1273 59.2571 90.5482 59.4574 88.1026 58.9286C86.9031 58.7308 85.7624 58.323 84.7499 57.7301C83.7373 57.1371 82.8739 56.3714 82.2123 55.4794C81.5506 54.5874 81.1044 53.5878 80.9009 52.5413C80.6973 51.4948 80.7407 50.4232 81.0282 49.3917C81.1658 48.3178 81.5714 47.283 82.2167 46.3595C82.8619 45.4361 83.7313 44.6462 84.764 44.045C85.7968 43.4439 86.968 43.046 88.196 42.8791C89.4239 42.7122 90.679 42.7804 91.8735 43.0789H91.7489ZM91.8735 42.3744C90.5931 42.0975 89.2598 42.0593 87.9612 42.2623C86.6626 42.4654 85.4281 42.9051 84.339 43.5526C83.2498 44.2 82.3306 45.0406 81.6418 46.0189C80.953 46.9973 80.5102 48.0913 80.3426 49.2291C80.0125 50.3444 79.9489 51.5067 80.1557 52.6443C80.3626 53.7818 80.8354 54.8704 81.5451 55.8428C82.2548 56.8153 83.1862 57.6509 84.2819 58.2981C85.3776 58.9454 86.6143 59.3905 87.9156 59.606C90.4554 60.1551 93.1339 59.9452 95.5198 59.0099H95.9249V58.6306C96.2677 57.3301 96.4236 56.6799 96.7664 55.3252C96.7664 54.8917 96.9222 54.6749 97.0157 54.1872L95.8938 54.7562C93.8848 55.7878 91.4927 56.0988 89.2245 55.6232C88.5772 55.5659 87.9515 55.3885 87.3897 55.103C86.828 54.8175 86.3432 54.4306 85.968 53.9684C85.5929 53.5062 85.3362 52.9794 85.2152 52.4235C85.0942 51.8677 85.1117 51.2958 85.2666 50.7464C85.3429 50.1987 85.5539 49.6718 85.885 49.2012C86.2162 48.7307 86.6599 48.3276 87.1861 48.0192C87.7122 47.7109 88.3085 47.5045 88.9344 47.414C89.5603 47.3236 90.2013 47.3513 90.8139 47.4951C93.0951 47.7693 95.2487 48.5744 97.0468 49.8252L97.8571 50.3941L98.1064 49.2291C98.4181 47.6577 98.5739 46.8449 98.8232 45.2193V44.7587L98.4804 44.5961C96.3822 43.5216 94.0451 42.8475 91.6242 42.6183L91.8735 42.3744Z" fill="#C800FF"/>
<path d="M107.362 35.7365C106.677 42.2932 106.178 45.3276 105.025 51.1528C108.765 48.0213 112.312 44.7203 115.652 41.2636C118.582 40.505 120.078 40.0715 123.256 39.0148C119.891 42.4015 118.208 44.0271 114.873 47.1429C116.658 50.2938 119.027 53.168 121.885 55.6503C119.514 56.4055 117.101 57.0566 114.655 57.601C112.984 55.5634 111.593 53.3629 110.51 51.0444C108.482 52.8049 106.327 54.4519 104.059 55.9754C103.81 57.3301 103.654 58.0074 103.342 59.335C101.41 59.4705 100.444 59.4976 98.6051 59.4976C100.72 51.8855 102.138 44.1395 102.843 36.3326C104.62 36.1429 105.524 36.0345 107.394 35.7365H107.362ZM108.141 34.8424H107.456C105.617 35.1404 104.713 35.2488 102.906 35.4385H102.251C102.251 35.7636 102.251 35.8991 102.251 36.2242C101.573 43.9893 100.155 51.6923 98.0129 59.2537C98.0129 59.4705 98.0129 59.5789 98.0129 59.8227H98.6674C100.537 59.8227 101.472 59.8227 103.436 59.6601H104.152V59.0641C104.402 57.872 104.526 57.2488 104.776 56.0025C106.667 54.7549 108.468 53.4066 110.167 51.9656C111.154 54.0612 112.431 56.0446 113.969 57.872L114.156 58.1158H114.624C117.084 57.584 119.508 56.9328 121.885 56.1651L123.537 55.6503L122.758 54.9459C119.972 52.5904 117.664 49.8423 115.933 46.8178C119.049 43.9459 120.607 42.4015 123.786 39.2316L125.718 37.3079L123.381 38.0936C120.903 38.9553 118.375 39.7059 115.808 40.3424H115.527L115.278 40.5592C111.57 44.3252 109.731 45.9779 106.085 49.2833C107.051 43.8646 107.487 41.1552 108.11 35.3843C108.11 35.0863 108.11 34.9237 108.11 34.5986L108.141 34.8424Z" fill="#C800FF"/>
<path d="M133.79 28.2857C133.479 33.8399 133.323 36.6034 132.918 42.1034C130.393 43.2414 129.178 43.729 126.84 44.6502C127.121 39.2315 127.277 36.3596 127.464 30.6428C129.926 29.8029 131.172 29.3423 133.697 28.2857H133.79ZM129.365 48.7685C131.546 47.9015 133.26 48.1453 133.229 49.5813C133.021 50.5146 132.535 51.384 131.818 52.1021C131.101 52.8202 130.18 53.3617 129.147 53.6724C126.965 54.5123 125.407 54.0517 125.5 52.6157C125.731 51.7477 126.204 50.9425 126.878 50.2714C127.553 49.6004 128.406 49.0841 129.365 48.7685V48.7685ZM134.694 27.3916L133.79 27.7167C131.204 28.7463 129.957 29.2069 127.557 30.0468L126.716 30.3177V31.0763C126.498 36.8202 126.342 39.6108 125.999 45.1379V45.8423L126.872 45.4901C129.24 44.596 130.456 44.0813 133.105 42.9433L134.039 42.5369V41.8325C134.382 36.4138 134.538 33.7044 134.787 28.096V27.3916H134.694ZM129.396 48.1182C128.236 48.5179 127.202 49.1512 126.378 49.9661C125.555 50.7809 124.966 51.754 124.659 52.8054C124.659 54.5665 126.373 55.2438 129.178 54.2143C130.477 53.8045 131.633 53.1105 132.533 52.1993C133.434 51.2881 134.049 50.1905 134.32 49.0123C134.32 47.2241 132.17 46.8719 129.458 47.9827L129.396 48.1182Z" fill="#C800FF"/>
<path d="M18.8858 55.7315C22.583 55.2084 26.3378 55.063 30.0739 55.298C29.8557 56.5172 29.7311 57.1404 29.5129 58.4138C26.0852 58.1976 22.6398 58.3615 19.2597 58.9015C13.7124 59.8498 10.9076 61.1502 10.8453 62.2069C10.8453 65.1059 31.1335 58.468 29.9181 64.5098C29.2636 67.734 24.7136 69.4951 16.9847 71.5542C13.6189 72.4483 8.60142 73.6133 4.36302 74.399C4.36302 72.8818 4.36302 72.1231 4.36302 70.6059C8.38209 70.1921 12.354 69.4852 16.2368 68.4926C21.8153 67.0837 23.9656 66.4606 24.1526 65.2685C24.5889 62.5591 3.17876 71.2832 3.33459 64.3202C3.33459 60.7438 10.2843 57.0591 18.7611 55.7315H18.8858ZM18.7611 55.1084C9.34937 56.5985 2.33732 60.8522 2.30615 64.6724C2.30615 69.5222 11.6556 66.867 17.5457 65.7833C20.0077 65.3498 23.4981 64.8892 23.4047 65.431C23.3112 65.9729 21.3478 66.6502 16.4238 67.8695C12.6508 68.8089 8.7935 69.4705 4.89282 69.8473L3.39692 70.0098V70.9852C3.39692 72.5025 3.39692 73.2611 3.39692 74.8054V75.2931L4.14487 75.1576C8.3521 74.3448 13.4943 73.1256 17.0159 72.1773C29.0143 68.9261 30.4167 66.3522 30.7907 64.4286C31.6633 60.2562 24.5577 60.5 18.3248 61.3941C15.9875 61.7192 11.8425 62.5049 11.8737 61.9631C11.9049 61.4212 12.7152 60.6626 19.1663 59.5246C22.4724 58.9825 25.8434 58.8004 29.2013 58.9828H30.1986V58.2783C30.4479 57.032 30.5725 56.4089 30.7907 55.1897V54.702H30.0739C26.2765 54.478 22.4623 54.6143 18.6988 55.1084H18.7611Z" fill="#C800FF"/>
<path d="M49.8636 55.4877C54.5694 56.3005 55.7537 58.8202 53.7903 64.1576C53.0112 66.298 52.606 67.3818 51.8581 69.5764C50.502 69.2017 49.1169 68.9119 47.7132 68.7094C48.3988 66.6232 48.7416 65.5936 49.4272 63.6158C50.7362 59.8227 49.957 58.197 46.6847 57.7906C43.4125 57.3842 39.735 60.0123 38.5508 64.3744C38.1768 65.8374 37.9586 66.569 37.5847 68.0862C35.9089 68.0806 34.234 68.153 32.5671 68.303C33.8137 62.8842 34.4994 60.1749 35.6836 54.7562C38.1456 54.7562 39.3299 54.7562 41.6049 54.9458C40.7946 57.0591 40.3583 58.1158 39.5169 60.3645H39.7974C40.4838 58.6129 41.8929 57.1448 43.7522 56.244C45.6115 55.3432 47.789 55.0737 49.8636 55.4877V55.4877ZM50.0194 54.9729C48.5475 54.6695 47.0129 54.6811 45.5473 55.0067C44.0817 55.3323 42.7289 55.9622 41.6049 56.8424L42.2905 55.0813L42.5398 54.4852H41.6984C39.3922 54.1872 38.208 54.1872 35.7459 54.1872H34.9045V54.7291C33.8137 60.1478 33.1593 62.8571 31.9438 68.2759V68.8719H32.6918C34.7487 68.7094 35.8083 68.6552 37.6782 68.6281H38.3949V68.0591C38.7689 66.569 38.9871 65.8374 39.3922 64.3744C40.483 60.3645 43.4125 57.9261 46.5913 58.3054C49.0221 58.5764 50.2064 59.5788 48.8663 63.5074C48.1807 65.5123 47.8378 66.5419 47.1522 68.6281V69.17H47.7755C49.1762 69.3734 50.5606 69.6539 51.9204 70.0099L52.5126 70.1724C52.5605 69.9883 52.623 69.8072 52.6995 69.6305C53.4475 67.4089 53.8526 66.3522 54.6318 64.2118C56.6263 58.7931 55.629 55.7857 50.2687 54.8645L50.0194 54.9729Z" fill="#C800FF"/>
<path d="M68.562 60.9876C69.506 61.1955 70.3865 61.5798 71.1422 62.1137C71.898 62.6476 72.5108 63.3183 72.938 64.0791C73.3651 64.8399 73.5964 65.6725 73.6157 66.519C73.635 67.3654 73.4419 68.2053 73.0497 68.9802C72.0213 71.6896 71.4915 72.963 70.5565 75.6724L66.6921 74.3177C67.5647 72.7733 68.0322 72.0418 68.936 70.5246L68.562 70.4433C66.5363 73.1527 63.451 73.5862 59.2126 72.2044C57.1869 71.5541 54.1951 70.1995 55.2547 67.3546C56.6259 63.697 64.6041 65.9458 69.1541 67.3546C69.8709 65.4852 68.936 64.3743 66.2246 63.3719C63.9914 62.6178 61.6075 62.2585 59.2126 62.3152L60.241 59.6059C63.0478 59.6472 65.8236 60.1243 68.4373 61.0147L68.562 60.9876ZM68.4373 68.9532C65.3209 68.032 60.2722 66.2438 59.5866 68.1132C59.2749 68.9531 60.1164 69.766 61.6746 70.3078C64.4171 71.2561 67.5647 71.1477 68.4373 68.9532V68.9532ZM68.562 60.4999C65.8814 59.5756 63.0308 59.0799 60.1475 59.0369H59.7112V59.362C59.3061 60.4729 59.0879 61.0147 58.6828 62.0714C58.6828 62.3694 58.527 62.532 58.4023 62.83H59.3372C61.6621 62.7496 63.9821 63.0719 66.1623 63.7783C68.6243 64.6995 69.2788 65.5123 68.8425 66.4876C63.9184 65.0788 56.3766 63.1009 54.8184 67.1108C54.1639 68.8177 54.4755 71.1206 59.1502 72.5295C60.3472 73.0432 61.6642 73.3104 62.9991 73.3104C64.334 73.3104 65.6509 73.0432 66.8479 72.5295C66.5363 73.0443 66.3804 73.2881 66.1 73.8029L65.7883 74.3719L66.4428 74.5886L70.3072 75.9704L70.8993 76.1871L71.0552 75.6724C71.9901 72.963 72.5199 71.6354 73.5483 68.9802C73.925 68.142 74.0929 67.2438 74.0411 66.345C73.9892 65.4461 73.7188 64.5671 73.2476 63.7657C72.7765 62.9644 72.1152 62.259 71.3076 61.6961C70.4999 61.1332 69.5641 60.7255 68.562 60.4999V60.4999ZM61.8616 69.7931C60.9266 69.4679 59.8982 68.8719 60.1475 68.2758C60.5527 67.2192 64.6352 68.2758 67.0661 69.0886L67.5647 69.2241C66.5363 70.5517 64.0119 70.5517 61.8616 69.7931V69.7931Z" fill="#C800FF"/>
<path d="M86.7313 66.8128C89.1277 67.279 91.4433 68.0169 93.6187 69.0074C93.2447 70.2537 93.0577 70.8768 92.7149 72.096C90.5519 70.8487 88.1592 69.9323 85.6405 69.3867C82.3059 68.601 79.7504 69.5221 78.9401 71.7438C78.1299 73.9655 79.7504 76.1872 83.3967 77.1625C85.9923 77.8403 88.7712 77.7642 91.3125 76.9458C90.9697 78.1108 90.8139 78.7069 90.5022 79.8719C87.8446 80.5351 85.0259 80.5351 82.3683 79.8719C76.4781 78.3817 73.5487 74.4532 75.0134 70.633C76.4781 66.8128 80.9347 65.6207 86.7313 66.8941V66.8128ZM86.9183 66.3793C80.6854 65.0246 76.0107 66.3793 74.4524 70.4433C72.8942 74.5074 75.8237 78.7611 82.2436 80.3867C85.0028 81.0769 87.93 81.0769 90.6892 80.3867H91.1879V80.0615L91.967 77.0813C91.967 76.7019 91.967 76.5123 92.2475 76.133L90.9697 76.5394C88.5704 77.3185 85.9439 77.3946 83.4902 76.7561C80.3737 75.9433 78.7532 74.0468 79.4699 72.0689C80.1867 70.0911 82.5864 69.3596 85.4224 70.064C87.8164 70.5608 90.0937 71.4132 92.154 72.5837L93.0889 73.0985C93.0889 72.7463 93.2447 72.5566 93.3694 72.2044C93.7122 70.9852 93.8992 70.362 94.2732 69.1157V68.7635L93.8992 68.601C91.6539 67.5631 89.2512 66.8061 86.7625 66.3522L86.9183 66.3793Z" fill="#C800FF"/>
<path d="M103.997 62.6946C102.906 67.5172 102.345 69.8473 101.286 74.4532C105.525 72.2327 109.576 69.7519 113.409 67.0296C116.459 66.5206 119.476 65.8694 122.446 65.0788C119.338 67.435 116.093 69.6506 112.723 71.7167C115.422 74.6839 118.37 77.4732 121.543 80.0616C117.959 80.6305 116.276 80.8202 113.003 81.1182C111.102 79.0556 109.333 76.9029 107.705 74.6699C104.589 76.3498 103.249 77.0813 100.382 78.436L99.7273 81.5517C97.4523 81.5517 96.3615 81.4163 94.2112 81.2266C95.8317 74.0197 97.016 70.5517 99.0105 62.9113C100.655 62.9175 102.299 62.8452 103.935 62.6946H103.997ZM104.807 62.0714H104.059C102.034 62.234 100.943 62.2611 99.1352 62.2882H98.4496L98.2938 62.8571C96.3304 70.4434 95.1461 73.9655 93.4944 81.2808C93.4797 81.4612 93.4797 81.6423 93.4944 81.8227H94.2735C96.3927 82.0123 97.39 82.0936 99.7585 82.1749H100.6C100.6 81.9581 100.6 81.8498 100.6 81.633C100.818 80.4951 100.912 79.9261 101.161 78.7611C103.561 77.6232 104.807 77 107.394 75.6182C108.877 77.6479 110.479 79.6103 112.193 81.4975L112.443 81.7685H113.003C116.12 81.4975 117.99 81.2808 121.574 80.7389L123.537 80.4138L122.54 79.6281C119.469 77.1641 116.595 74.5209 113.938 71.7167C117.522 69.468 119.33 68.2217 123.07 65.4581L125.345 63.7241L122.54 64.5098C119.57 65.3086 116.553 65.9688 113.502 66.4877H113.19L112.91 66.6773C109.553 69.0191 106.035 71.1815 102.376 73.1527C103.28 68.9803 103.81 66.8941 104.745 62.5591V61.9901L104.807 62.0714Z" fill="#C800FF"/>
<path d="M135.13 54.7291C134.881 60.1478 134.725 62.7217 134.445 68.0321C131.328 68.9533 129.926 69.3597 127.09 70.0641C127.09 65.106 127.09 62.6133 127.339 57.601C130.456 56.5986 131.889 56.0296 135.13 54.7291ZM130.331 74.0197C132.918 73.3966 134.974 73.8572 134.974 75.3202C134.974 76.7833 132.918 78.3276 130.175 78.9237C127.433 79.5197 125.719 78.9237 125.812 77.4064C125.906 75.8892 127.807 74.6971 130.331 74.0197V74.0197ZM136.252 53.5912L135.13 54.0518C132.014 55.3523 130.362 55.9483 127.37 56.9508L126.373 57.303V57.9533C126.373 62.9385 126.155 65.404 126.061 70.3621V70.9853L127.121 70.7143C129.957 70.0099 131.422 69.6035 134.476 68.7094L135.629 68.3572V67.734C135.878 62.3153 136.034 59.7414 136.252 54.3498V53.6454V53.5912ZM130.362 73.3695C127.246 74.1552 124.815 75.9163 124.69 77.6232C124.565 79.3301 126.872 80.3326 130.144 79.5739C133.416 78.8153 136.19 76.8646 136.19 74.9951C136.19 73.1257 133.603 72.5567 130.362 73.3695V73.3695Z" fill="#C800FF"/>
<path d="M16.798 80.2512C19.8779 79.3287 23.0844 78.7639 26.3344 78.5714C26.1163 79.9261 25.9293 80.8744 25.6488 82.4458C22.6873 82.4547 19.7485 82.8943 16.9538 83.7463C12.248 85.2093 9.84829 86.8079 9.7548 88C9.50548 91.2241 26.8954 82.2832 25.8358 90.1404C25.2437 94.3399 21.1922 96.8867 14.6165 98.8916C11.1891 99.8755 7.69111 100.663 4.14515 101.249C4.14515 99.6502 4.14515 98.8374 4.14515 97.2389C7.51808 96.8838 10.8329 96.1929 14.0244 95.1798C18.7302 93.6355 20.6313 92.7955 20.8183 91.2783C21.2546 87.8374 3.17904 97.9162 3.3972 90.6823C3.3972 86.9433 9.41198 82.5542 16.6734 80.1699L16.798 80.2512ZM16.6734 79.5468C8.6017 82.1749 2.64924 87.2414 2.58691 91.197C2.58691 96.1552 10.2223 93.3103 15.2086 92.0369C17.2967 91.4951 20.2573 90.8719 20.195 91.5492C20.1326 92.2266 18.3563 93.1478 14.2113 94.5025C11.1157 95.5025 7.89301 96.1757 4.61262 96.5074L3.3972 96.6699V97.6995C3.3972 99.298 3.3972 100.084 3.3972 101.682V102.224H4.02049C7.64094 101.638 11.2121 100.841 14.71 99.8399C24.932 96.6428 26.1786 92.6059 26.5214 90.0862C27.3005 84.6675 21.1922 85.4803 16.0812 86.7808C14.0867 87.2955 10.5962 88.3522 10.6586 87.7291C10.7209 87.1059 11.3754 86.266 16.8915 84.532C19.6415 83.7142 22.5243 83.2843 25.4306 83.2586H26.2721L26.4279 82.3916C26.7084 80.8202 26.8954 79.8719 27.1135 78.5172V78.0295H26.5837C23.2725 78.1637 19.9993 78.7018 16.8603 79.6281L16.6734 79.5468Z" fill="#C800FF"/>
<path d="M43.6309 77.0271C47.8069 77.5148 48.8665 79.9803 47.7758 86.9975C47.3706 89.7069 47.1836 91.2241 46.9655 94.2857C45.525 93.9833 44.0525 93.8108 42.5713 93.7709C42.8518 91.0616 43.0387 89.5714 43.475 86.9433C44.3165 82.0123 43.662 80.2241 40.7326 80.1157C37.8031 80.0074 34.4996 83.6108 33.5647 89.4359C33.2842 91.3867 33.1595 92.3891 32.9414 94.4483C31.1338 94.665 30.1989 94.8005 28.329 95.1256C29.1705 87.6478 30.0431 83.5024 31.165 77.596C32.8693 77.3887 34.5865 77.2711 36.3072 77.2438C35.528 79.6552 35.0606 81.1995 34.2815 84.0172H34.5308C36.0267 79.4384 39.1432 76.5936 43.6309 77.0271ZM43.6309 76.431C42.1734 76.2646 40.6915 76.4645 39.3606 77.007C38.0296 77.5496 36.9052 78.4121 36.1202 79.4926C36.4007 78.5714 36.5253 78.0837 36.8058 77.2709C36.8058 77.0271 36.8058 76.8916 37.024 76.6207H36.276C34.5458 76.6624 32.8192 76.78 31.1027 76.9729H30.3859C30.3859 77.2167 30.3859 77.3251 30.3859 77.5689C29.2639 83.4753 28.4225 87.6478 27.5811 95.1256C27.5811 95.4507 27.5811 95.5862 27.5811 95.9113H28.2667C30.1677 95.5862 31.0715 95.4507 32.8791 95.234H33.5335C33.5335 94.9359 33.5335 94.7734 33.5335 94.4483C33.7517 92.4162 33.8763 91.4138 34.188 89.4359C34.9671 84.0172 37.6473 80.766 40.4209 80.8473C42.6024 80.8473 43.5374 81.8497 42.6959 87.0246C42.2596 89.734 42.0726 91.0074 41.7922 93.8793C41.7922 94.1773 41.7922 94.3399 41.7922 94.6379H42.4154C43.899 94.651 45.375 94.8239 46.8097 95.1527H47.433C47.433 94.8547 47.433 94.7192 47.433 94.4212C47.6511 91.3596 47.8069 89.8965 48.2432 87.133C49.334 80.0074 48.3991 77 43.662 76.4581L43.6309 76.431Z" fill="#C800FF"/>
<path d="M61.5814 81.2807C63.6486 81.834 65.4099 83.0285 66.5304 84.637C67.6508 86.2455 68.0523 88.1558 67.6585 90.0049C67.3851 92.8253 67.333 95.6586 67.5026 98.4851L63.2019 97.5369C63.4824 95.3965 63.6694 94.3669 64.0745 92.4162H63.8252C62.6721 96.0467 59.8361 97.3743 55.1926 96.4531C53.6703 96.3359 52.263 95.7008 51.2766 94.686C50.2903 93.6712 49.8048 92.3588 49.9258 91.0344C50.4244 86.1034 58.7765 87.6477 63.5136 88.596C63.7317 86.2659 62.641 85.1009 59.805 84.261C57.5256 83.6727 55.1099 83.6074 52.7929 84.0714C53.0422 82.7167 53.1669 82.0393 53.4785 80.7118C56.2107 80.4232 58.9825 80.6827 61.5814 81.4704V81.2807ZM63.2642 90.6822C59.8361 90.059 54.5693 88.8669 54.3511 91.197C54.3511 92.3078 55.3172 93.2019 57.0313 93.5812C60.1478 94.2585 63.0149 93.5812 63.2642 90.6822ZM61.706 80.9285C59.0442 80.0938 56.1961 79.8063 53.385 80.0886H52.9799V80.5221C52.6994 81.8497 52.5436 82.4999 52.2943 83.8817C52.2943 84.261 52.2943 84.4507 52.1073 84.8571L53.0111 84.6674C55.2522 84.1967 57.597 84.2528 59.805 84.83C62.3605 85.5615 62.9214 86.4827 62.9214 87.7832C57.7481 86.7265 49.8323 85.4802 49.2713 90.8719C49.1587 91.6287 49.2233 92.3976 49.4612 93.1322C49.699 93.8668 50.1052 94.5521 50.6554 95.1468C51.2055 95.7415 51.8883 96.2334 52.6626 96.5929C53.437 96.9524 54.2869 97.1721 55.1614 97.2388C56.4739 97.6543 57.8982 97.7243 59.2562 97.44C60.6142 97.1557 61.8457 96.5297 62.7968 95.6403C62.7968 96.3448 62.641 96.697 62.5475 97.4285C62.5324 97.6812 62.5324 97.9344 62.5475 98.1871L63.2954 98.3497L67.6273 99.298H68.2818C68.2818 99.027 68.2818 98.8916 68.2818 98.6477C68.0608 95.8242 68.0608 92.9909 68.2818 90.1674C68.692 88.1694 68.2507 86.1099 67.0403 84.3744C65.8299 82.639 63.9335 81.3464 61.706 80.7388V80.9285ZM57.0625 92.9039C56.0652 92.66 54.9121 92.1182 54.9744 91.3324C54.9744 89.8965 59.3998 90.6009 61.9865 91.0886H62.5163C61.893 92.8768 59.3998 93.3374 57.0625 92.7955V92.9039Z" fill="#C800FF"/>
<path d="M81.2151 87.1873C83.9625 87.851 86.5939 88.8353 89.0374 90.1134C89.0374 91.3326 89.0374 91.9557 89.0374 93.2291C86.481 91.7537 83.6728 90.6382 80.7164 89.9237C76.9767 89.0567 74.4835 90.0863 74.4835 92.6331C74.4835 95.1799 76.4469 97.5641 80.7164 98.4311C83.4581 99.1628 86.3892 99.1628 89.1309 98.4311C89.1309 99.7316 89.3179 100.382 89.4737 101.709C86.5911 102.277 83.599 102.277 80.7164 101.709C77.8821 101.353 75.2752 100.16 73.3342 98.3289C71.3931 96.4984 70.2363 94.1426 70.0581 91.6577C70.3386 87.0518 74.6081 85.6971 81.1216 87.2956L81.2151 87.1873ZM81.1216 86.7538C74.2653 85.101 69.6218 86.5641 69.3413 91.468C69.4743 94.1475 70.6864 96.701 72.7658 98.6821C74.8451 100.663 77.6594 101.946 80.7164 102.305C83.7129 102.887 86.82 102.887 89.8165 102.305H90.284C90.284 102.143 90.284 102.062 90.284 101.926C90.097 100.599 90.0347 99.9212 89.91 98.6478C89.91 98.2414 89.91 98.0247 89.91 97.6183L88.6946 97.9705C86.0934 98.6547 83.3176 98.6547 80.7164 97.9705C76.8208 97.1577 74.951 95.2611 75.0444 92.9311C75.1379 90.601 77.2883 89.7882 80.5606 90.5469C83.3997 91.2214 86.0941 92.292 88.5388 93.7168L89.7542 94.3671C89.7542 93.9878 89.7542 93.7981 89.7542 93.4188C89.7542 92.1725 89.7542 91.5493 89.7542 90.303V89.9779L89.2867 89.7611C86.7829 88.4582 84.1031 87.4298 81.3085 86.6996L81.1216 86.7538Z" fill="#C800FF"/>
<path d="M99.7269 84.9384C98.9694 88.7765 98.8017 92.6851 99.2283 96.5616C103.591 94.4483 105.461 93.4458 110.977 90.5739C114.417 90.4985 117.85 90.2633 121.262 89.8694C116.836 92.335 115.029 93.2832 111.289 95.1527C115.652 98.8645 118.052 100.788 122.758 104.717C119.205 104.717 117.491 104.717 114.156 104.717C111.04 101.764 109.419 100.328 106.49 97.4828L99.7269 100.68C99.8827 101.98 100.007 102.658 100.226 103.985C97.7635 103.741 96.5793 103.606 94.2108 103.308C92.8548 97.1048 92.8548 90.7351 94.2108 84.532C96.3923 84.7488 97.5142 84.83 99.8204 84.9384H99.7269ZM100.787 84.4236H99.7269C97.4207 84.4236 96.2988 84.234 94.1484 84.0172L93.494 83.9901C93.494 84.2069 93.494 84.3153 93.494 84.532C92.1368 90.7259 92.1368 97.0869 93.494 103.281C93.494 103.525 93.494 103.633 93.494 103.877H94.3354C96.7039 104.175 97.9194 104.31 100.35 104.554H101.285C101.27 104.356 101.27 104.157 101.285 103.958C101.067 102.739 100.973 102.143 100.818 100.924C103.03 99.9212 104.152 99.4064 106.521 98.2143C109.201 100.924 110.635 102.17 113.502 104.906L113.845 105.204H114.437C117.771 105.204 119.485 105.204 123.038 105.204H124.97C124.503 104.852 124.285 104.663 123.848 104.283C119.33 100.544 117.023 98.7291 112.816 95.1798C116.338 93.3916 118.176 92.4704 122.165 90.2217L124.69 88.7857L121.573 89.165C117.241 89.6256 115.185 89.7611 111.289 89.8965H110.635L110.354 90.032C105.679 92.4975 103.872 93.4187 100.007 95.2882C99.7067 91.8123 99.9056 88.3173 100.6 84.8842C100.582 84.6949 100.582 84.5046 100.6 84.3153L100.787 84.4236Z" fill="#C800FF"/>
<path d="M135.66 81.2808C135.411 86.6995 135.255 89.2734 135.099 94.5296C131.827 94.9901 130.269 95.1798 127.214 95.5049C126.747 90.5468 126.654 88.0813 126.622 83.069C130.113 82.4729 131.889 82.1207 135.66 81.2808ZM131.048 99.9212C133.697 99.6773 135.785 100.463 135.785 101.926C135.785 103.389 133.915 104.635 131.266 104.798C128.617 104.961 126.809 104.066 126.716 102.658C126.622 101.249 128.492 100.165 131.048 99.9483V99.9212ZM137.125 80.2783L135.816 80.5764C132.076 81.4433 130.269 81.7956 126.809 82.3916L125.656 82.6084V83.2586C125.578 87.3827 125.765 91.5074 126.217 95.6133V96.2094H127.339C130.456 95.9113 131.951 95.7488 135.193 95.2882L136.408 95.0985V94.4483C136.626 89.0296 136.751 86.4557 137 81.0911V80.3867L137.125 80.2783ZM131.172 99.2438C128.056 99.569 125.625 100.978 125.75 102.685C125.874 104.392 128.274 105.638 131.453 105.394C134.632 105.15 137.125 103.633 137.125 101.764C137.125 99.8941 134.476 98.9187 131.141 99.2438H131.172Z" fill="#C800FF"/>
<path d="M14.024 109.892C16.8851 109.27 19.8353 109.014 22.7813 109.133C22.7813 110.975 22.7813 111.842 22.7813 113.793C20.028 113.503 17.2388 113.604 14.5226 114.091C10.2531 114.958 8.28968 116.069 8.28968 117.369C8.28968 120.837 23.872 113.631 24.2772 123.411C24.4642 128.64 20.3192 131.052 13.7435 131.133C10.3728 131.078 7.02296 130.659 3.7708 129.887V125.714C6.71267 126.507 9.79811 126.82 12.8709 126.635C17.3898 126.31 19.322 125.633 19.2908 123.926C19.2908 119.835 2.92935 126.202 3.02284 118.751C3.02284 114.931 7.79104 111.544 14.1486 110L14.024 109.892ZM14.1486 109.214C6.91843 111.002 2.21256 114.931 2.1814 118.968C2.1814 124.034 8.81948 123.465 13.5565 123.303C15.5199 123.303 18.4805 123.303 18.5117 123.98C18.5429 124.658 16.7976 125.579 12.8397 125.904C9.86735 126.108 6.87721 125.832 4.02011 125.091L2.96051 124.874V130.591L3.52148 130.727C6.85304 131.541 10.2849 132.005 13.7435 132.108C23.9967 132.108 25.1186 126.69 24.994 123.465C24.7135 116.665 18.761 116.99 13.8993 117.451C12.0918 117.613 9.00647 117.993 9.00647 117.315C9.00647 116.638 9.5051 115.988 14.4603 115.012C17.1285 114.552 19.8647 114.47 22.5631 114.768H23.4357C23.4357 114.335 23.4357 114.118 23.4357 113.685C23.4357 111.788 23.4357 110.975 23.4357 109.025C23.4357 108.754 23.4357 108.591 23.4357 108.32H22.9682C19.9672 108.202 16.9626 108.476 14.0551 109.133L14.1486 109.214Z" fill="#C800FF"/>
<path d="M40.0158 105.855C44.4723 105.665 46.498 108.916 48.0563 119.212C48.6796 123.33 49.0535 125.498 50.082 130.049C47.9628 130.049 46.9655 130.049 44.8151 130.049C44.0049 125.796 43.662 123.764 43.1634 119.889C42.2285 112.601 41.013 110.352 37.8342 110.596C34.6554 110.84 31.913 115.608 32.5674 123.411C32.7856 126.121 32.9102 127.394 33.253 130.185L28.0485 130.212C27.2741 122.799 27.0555 115.351 27.3941 107.914C29.4821 107.589 30.5105 107.453 32.5362 107.236C32.2246 110.677 32.0999 112.493 31.9753 116.204H32.2246C32.7232 110.163 35.3411 106.234 40.0469 105.882L40.0158 105.855ZM40.0469 105.015C38.4102 105.181 36.8662 105.764 35.608 106.689C34.3497 107.614 33.4331 108.841 32.9725 110.217C32.9725 109.025 32.9725 108.429 33.2219 107.264C33.2219 106.884 33.2219 106.695 33.2219 106.288H32.4739L27.3317 106.966H26.6461C26.6461 107.318 26.6461 107.48 26.6461 107.833C26.3001 115.242 26.4979 122.662 27.2382 130.049C27.2382 130.429 27.2382 130.645 27.2382 131.052H28.0485H33.3154H34.2815L34.001 130.049C33.6582 127.34 33.5335 125.904 33.3154 123.276C32.6921 116.015 34.7801 111.653 37.8654 111.409C40.2339 111.219 41.5117 112.249 42.4778 119.808C42.9453 123.682 43.2569 125.687 44.0672 129.941C44.0672 130.401 44.0672 130.618 44.2542 131.079H51.1104C51.1104 130.645 51.1104 130.401 50.8611 129.968C49.8015 125.416 49.3963 123.276 48.773 119.131C47.1525 108.672 45.0645 104.581 40.0469 104.852V105.015Z" fill="#C800FF"/>
<path d="M60.6777 107.805C66.5055 108.618 69.2791 112.276 70.8997 117.993C72.0638 122.143 73.468 126.239 75.1069 130.266H69.9336C69.1856 127.042 68.874 125.497 68.3442 122.544H68.0325C68.5623 127.963 66.1003 131.052 60.4283 131.025C58.2979 131.07 56.2303 130.395 54.6608 129.142C53.0913 127.889 52.1424 126.155 52.0139 124.305C50.518 117.017 60.4283 117.153 65.851 117.071C65.0096 113.766 63.389 112.547 60.0544 112.167C57.3762 111.976 54.696 112.515 52.3879 113.712C52.1074 111.734 51.9827 110.759 51.8269 108.889C54.6204 107.871 57.6774 107.525 60.6777 107.887V107.805ZM66.5678 120.106C62.641 120.268 56.2834 120.106 57.0626 123.438C57.2661 124.231 57.7832 124.936 58.5235 125.431C59.2639 125.926 60.1806 126.18 61.114 126.148C61.9935 126.244 62.8867 126.141 63.707 125.849C64.5273 125.557 65.2468 125.085 65.7956 124.48C66.3444 123.875 66.7039 123.156 66.8392 122.395C66.9745 121.633 66.881 120.854 66.5678 120.133V120.106ZM60.5842 107.128C57.5182 106.727 54.3843 107.054 51.5152 108.076L51.0789 108.239C51.0789 108.483 51.0789 108.591 51.0789 108.835C51.2348 110.731 51.3594 111.544 51.6087 113.658C51.6087 114.227 51.6087 114.497 51.7957 115.066L52.6995 114.579C54.9291 113.412 57.5227 112.882 60.1167 113.062C61.2092 113.02 62.2834 113.316 63.15 113.896C64.0165 114.476 64.6199 115.303 64.8537 116.231C58.9324 116.231 49.6142 116.231 51.2036 124.36C51.3587 126.441 52.4044 128.396 54.1348 129.84C55.8652 131.284 58.1549 132.113 60.553 132.163C62.3425 132.391 64.1647 132.019 65.6515 131.124C67.1383 130.229 68.1787 128.876 68.5623 127.34C68.7805 128.397 68.9051 128.938 69.1545 130.049L69.4038 131.214H76.3223C76.1354 130.808 76.073 130.618 75.9172 130.239C73.8292 124.983 72.9877 122.544 71.6476 117.993C69.6843 111.246 66.2873 107.778 60.6153 106.965L60.5842 107.128ZM60.8647 125.145C59.6181 125.145 58.091 124.63 57.7482 123.493C57.2495 121.406 62.3294 121.19 65.3212 121.081H65.9445C65.9913 121.661 65.8862 122.243 65.6372 122.783C65.3882 123.322 65.0017 123.806 64.5068 124.197C64.0119 124.588 63.4214 124.877 62.7798 125.041C62.1382 125.205 61.4621 125.241 60.8023 125.145H60.8647Z" fill="#C800FF"/>
<path d="M82.6485 110.867C86.0164 111.393 89.2669 112.381 92.2784 113.793C92.777 115.364 93.0263 116.177 93.6185 117.83C90.5607 116.198 87.1601 115.111 83.6146 114.633C79.6567 114.227 77.8491 116.259 79.1581 120.052C79.7883 121.87 81.0423 123.477 82.7522 124.658C84.462 125.84 86.5461 126.539 88.7256 126.663C90.091 126.808 91.4763 126.702 92.7917 126.352C94.107 126.002 95.3231 125.415 96.361 124.63C97.1089 126.392 97.5141 127.34 98.3867 129.101C96.1693 130.506 93.4587 131.195 90.7202 131.052C86.9395 130.822 83.3318 129.586 80.3877 127.511C77.4436 125.436 75.3059 122.624 74.2652 119.456C72.1772 112.926 75.8234 109.973 82.6485 110.813V110.867ZM82.4615 110.135C75.2936 109.214 71.3357 112.411 73.5484 119.401C74.6509 122.814 76.9354 125.849 80.0913 128.093C83.2472 130.338 87.1215 131.683 91.1876 131.946C93.99 132.134 96.7796 131.463 99.0723 130.049L99.4463 129.832L99.1658 129.318C98.3243 127.502 97.9192 126.608 97.1713 124.874C96.9219 124.305 96.8284 124.034 96.5791 123.493L95.6442 124.143C94.615 124.834 93.4356 125.337 92.1769 125.621C90.9182 125.905 89.6063 125.964 88.3205 125.796C86.4143 125.703 84.5863 125.106 83.082 124.084C81.5778 123.062 80.4694 121.665 79.906 120.079C78.7217 116.828 80.3735 115.148 83.8639 115.473C87.2695 115.868 90.5464 116.864 93.4938 118.399C94.0859 118.67 94.3976 118.805 94.9586 119.103C94.8027 118.616 94.7092 118.372 94.5222 117.884C93.9301 116.231 93.6808 115.446 93.1822 113.874C93.1999 113.73 93.1999 113.585 93.1822 113.441L92.6212 113.197C89.509 111.726 86.1399 110.71 82.6485 110.19L82.4615 110.135Z" fill="#C800FF"/>
<path d="M100.911 107.643C101.852 112.231 103.153 116.757 104.807 121.19C107.674 118.683 110.804 116.416 114.156 114.416C117.834 114.579 119.704 114.633 123.506 114.66C119.953 116.665 118.332 117.613 115.372 119.564C120.14 123.98 122.571 126.229 126.716 130.699H120.202C117.086 127.286 115.216 125.606 111.788 122.219C109.989 123.491 108.312 124.886 106.77 126.392C107.456 128.017 107.799 128.884 108.578 130.591H103.186C99.3022 123.054 96.5072 115.127 94.8654 106.993C97.234 107.291 98.4494 107.426 100.911 107.643V107.643ZM101.691 107.128H100.787C98.3247 106.884 97.1093 106.749 94.7408 106.451H93.8993C93.8845 106.658 93.8845 106.866 93.8993 107.074C95.5289 115.244 98.3458 123.201 102.283 130.754L102.657 131.566H109.7C109.544 131.241 109.482 131.106 109.357 130.781C108.671 129.236 108.36 128.451 107.736 126.961C109.016 125.699 110.402 124.522 111.881 123.438C114.998 126.554 116.618 128.126 119.641 131.241L119.984 131.594H128.43L127.464 130.537C123.506 126.283 121.231 124.143 116.743 119.943C119.517 118.128 121.013 117.234 124.316 115.337L126.342 114.199H123.506C119.641 114.199 117.771 114.199 114.156 113.956H113.814H113.595C110.645 115.709 107.852 117.657 105.243 119.781C103.853 115.824 102.74 111.798 101.909 107.724C101.896 107.516 101.896 107.309 101.909 107.101L101.691 107.128Z" fill="#C800FF"/>
<path d="M135.816 108.022C135.816 113.441 135.598 115.961 135.535 121.217C132.98 121.217 131.733 121.217 129.303 121.217C128.523 116.015 128.181 113.441 127.557 108.401C130.674 108.401 132.419 108.212 135.847 107.968L135.816 108.022ZM132.731 126.202C133.155 126.149 133.587 126.172 134 126.271C134.413 126.37 134.798 126.541 135.132 126.775C135.465 127.009 135.74 127.3 135.938 127.631C136.136 127.961 136.254 128.323 136.283 128.695C136.294 129.045 136.219 129.394 136.063 129.718C135.908 130.042 135.675 130.334 135.381 130.574C135.087 130.815 134.737 130.999 134.356 131.113C133.974 131.228 133.569 131.272 133.167 131.241C132.301 131.252 131.461 130.979 130.815 130.478C130.169 129.976 129.762 129.282 129.677 128.532C129.427 127.069 130.798 126.039 132.793 126.066L132.731 126.202ZM137.156 107.101H135.972C132.575 107.372 130.892 107.453 127.651 107.562H126.56V108.212C127.215 113.224 127.588 115.798 128.43 120.973V121.623H129.334C131.765 121.623 133.011 121.623 135.567 121.623H136.502V120.973C136.657 115.554 136.751 113.007 136.969 107.697V106.993L137.156 107.101ZM132.731 125.416C130.237 125.416 128.586 126.744 128.897 128.559C129.067 129.466 129.603 130.291 130.408 130.886C131.212 131.482 132.235 131.809 133.292 131.81C133.775 131.828 134.257 131.764 134.711 131.62C135.165 131.475 135.582 131.255 135.939 130.971C136.295 130.686 136.583 130.344 136.786 129.962C136.99 129.581 137.105 129.169 137.125 128.749C137.078 128.284 136.925 127.832 136.675 127.419C136.424 127.007 136.081 126.642 135.666 126.347C135.25 126.051 134.771 125.831 134.256 125.699C133.742 125.567 133.202 125.526 132.668 125.579L132.731 125.416Z" fill="#C800FF"/>
</g>
<defs>
<clipPath id="clip0">
<rect width="137" height="132" fill="white"/>
</clipPath>
</defs>
</svg>
