<svg width="137" height="132" viewBox="0 0 137 132" fill="none" xmlns="http://www.w3.org/2000/svg">
<g clip-path="url(#clip0)">
<path d="M13.931 6.7463C17.4952 6.90243 21.0389 7.31017 24.527 7.96552C25.0257 9.45566 25.2438 10.2143 25.7113 11.6502C22.3145 10.9466 18.8515 10.5113 15.3646 10.3498C10.2224 10.3498 7.97858 10.7832 8.10324 11.8941C8.44605 14.8744 27.737 12.1921 29.3887 18.9655C30.2925 22.4877 25.3685 23.436 16.9229 23.436C12.304 23.3463 7.69465 23.0297 3.11689 22.4877C3.11689 20.9704 3.11689 20.2118 3.11689 18.6675C7.19995 19.5206 11.3835 19.957 15.5828 19.968C21.5041 19.968 23.8414 19.7783 23.5609 18.5049C22.5637 15.6059 1.80798 18.9655 1.62099 12.0296C1.62099 8.39901 6.60734 6.61084 14.0869 6.7463H13.931ZM14.0869 6.06896C5.51657 5.9064 0.592552 8.12808 0.654882 12.0296C0.654882 16.9064 9.59915 17.0419 15.7698 17.4483C18.3253 17.6108 22.0027 17.936 22.2209 18.5049C22.439 19.0739 20.2886 19.399 15.1153 19.3719C11.0707 19.3279 7.0452 18.8824 3.11689 18.0443L1.80798 17.7463V18.7217C1.80798 20.266 1.80798 21.0246 1.80798 22.5419V23.0566H2.61826C7.3117 23.5722 12.0364 23.8436 16.767 23.8695C30.3237 23.9236 30.8535 21.0246 30.3237 18.9655C29.1394 14.3054 21.1924 13.33 15.3023 12.8695C12.9961 12.7069 9.06935 12.4631 9.06935 11.8941C9.06935 11.3251 9.34983 10.8374 15.5828 11C19.0276 11.1704 22.4483 11.6056 25.8048 12.3005L26.9267 12.5443C26.9267 12.1921 26.9267 12.0296 26.6774 11.7044C26.2099 10.2414 25.9918 9.50985 25.462 7.99261C25.462 7.77586 25.462 7.66749 25.275 7.42364L24.5582 7.28818C21.0386 6.63223 17.4638 6.2245 13.8687 6.06896H14.0869Z" fill="#C800FF"/>
<path d="M45.0647 8.12807C50.612 8.56157 54.6946 12.165 56.8138 19.7241C57.5289 22.0866 58.0804 24.4841 58.4655 26.9039L53.3856 26.064C52.9905 23.9112 52.4705 21.7771 51.8274 19.6699C50.3315 14.6034 47.7448 12.165 43.8804 11.8399C40.016 11.5148 38.2396 14.9828 39.642 19.968C40.1095 21.6749 40.2965 22.5148 40.6705 24.1675C38.2708 23.8695 37.0553 23.7611 34.4375 23.5443C33.3764 18.2029 31.8448 12.9403 29.8563 7.80295L36.0892 8.15517C36.9619 11.0542 37.3047 12.436 37.8656 15.0911H38.2084C37.6163 10.8374 39.1745 7.74876 45.0647 8.12807ZM44.7219 7.34236C40.8263 7.09852 38.4889 8.34482 37.6475 10.6749C37.3982 9.7266 37.2423 9.23891 36.9619 8.26354L36.7125 7.45073H35.8088L29.5758 7.1527H28.7344C28.7344 7.42364 28.7344 7.55911 29.0149 7.85714C31.0326 13.0114 32.5954 18.2919 33.6896 23.6527C33.6896 23.8965 33.6896 24.032 33.6896 24.2759H34.5933C37.0865 24.5197 38.3019 24.6281 40.6705 24.899H41.5431C41.5554 24.6914 41.5554 24.4834 41.5431 24.2759C41.1691 22.6502 40.9821 21.8103 40.4835 20.0763C39.2057 15.3621 40.4835 12.165 44.1609 12.4901C47.0281 12.7611 49.4589 14.2512 50.986 19.4803C51.7651 22.1896 52.0767 23.4089 52.5754 25.8473C52.558 26.0638 52.558 26.281 52.5754 26.4975H53.3856L58.4343 27.3374L59.1511 27.4729C59.1511 27.202 59.1511 27.0665 59.1511 26.7956C58.7593 24.3698 58.2184 21.9641 57.5306 19.5887C55.4114 11.867 51.0171 7.5862 44.753 7.12561L44.7219 7.34236Z" fill="#C800FF"/>
<path d="M68.2823 9.42857C74.5152 9.75369 78.1615 14.2783 79.0341 20.0222C79.6347 23.6136 79.9989 27.232 80.1248 30.8596L75.7306 30.0739C75.9176 27.7709 75.9488 26.5788 75.9799 24.032H75.6683C75.2943 28.6921 72.3648 30.0197 67.472 29.0714C65.8198 28.9156 64.2676 28.3064 63.0404 27.3321C61.8132 26.3578 60.9749 25.0691 60.6469 23.6527C59.5873 18.5862 68.8744 18.9655 74.2035 18.9655C74.1232 17.6455 73.4588 16.4036 72.3494 15.4997C71.24 14.5958 69.7715 14.0999 68.2511 14.1158C65.6064 13.9777 62.968 14.4645 60.6157 15.5246C60.0859 13.7906 59.7743 12.8153 59.1198 11.0813C61.9733 9.8892 65.1188 9.32182 68.2823 9.42857V9.42857ZM74.7957 21.6749C71.0247 21.6749 65.0723 20.9433 65.4463 23.4901C65.6758 24.1411 66.1257 24.7167 66.7372 25.1421C67.3487 25.5674 68.0935 25.8226 68.8744 25.8744C71.9909 26.4163 75.1073 25.2783 74.671 21.6749H74.7957ZM67.9706 8.50739C64.737 8.43602 61.5309 9.03994 58.6212 10.2685L58.2161 10.4581L58.4342 11.0271C59.0887 12.8424 59.3692 13.7364 59.9301 15.4704C59.9301 15.9581 60.1483 16.1749 60.2729 16.6626L61.1144 16.2562C63.419 15.252 65.9909 14.803 68.5627 14.9557C71.6792 15.2266 72.8323 16.3103 73.3933 18.0985C67.5343 18.0985 58.8705 18.0985 60.0548 23.5172C60.3665 25.1264 61.2648 26.6059 62.617 27.7376C63.9693 28.8693 65.704 29.5933 67.5655 29.803C71.2429 30.5074 73.7984 29.9655 75.2008 27.9335C75.2008 28.7192 75.2008 29.1256 75.2008 29.8842C75.2175 30.164 75.2175 30.4444 75.2008 30.7241H75.9799L80.343 31.5369H80.9663V30.7783C80.8622 27.1507 80.5084 23.5317 79.9067 19.9409C78.8782 13.1133 74.4217 8.66995 68.1576 8.37192L67.9706 8.50739ZM68.7497 25.2241C67.6278 25.0345 66.2877 24.5197 66.1007 23.6798C65.8202 22.1084 70.5884 22.3793 73.4244 22.5148H73.9854C73.9854 24.8719 71.3676 25.6034 68.7497 25.2241Z" fill="#C800FF"/>
<path d="M91.6245 10.5123C94.5489 10.5365 97.4041 11.2886 99.852 12.6798C100.039 14.9286 100.101 16.0123 100.226 18.0985C97.9118 16.5566 95.0996 15.6848 92.1854 15.6059C88.2587 15.4163 86.2953 18.3153 86.6693 22.0542C86.5737 23.477 87.0095 24.8885 87.9117 26.0784C88.814 27.2683 90.1344 28.1729 91.6762 28.6572C93.218 29.1416 94.8985 29.1798 96.4673 28.7662C98.0361 28.3526 99.4091 27.5093 100.382 26.3621C100.382 28.2857 100.382 29.234 100.226 31.0493C99.2907 31.8673 98.1539 32.4899 96.9014 32.8701C95.6489 33.2503 94.3134 33.3781 92.9957 33.2439C87.0121 32.5936 82.8672 28.1232 82.0569 21.5665C81.2466 15.0099 84.6124 10.2143 91.6245 10.4581V10.5123ZM91.6245 9.42858C84.1449 9.26602 80.4675 14.5493 81.3713 21.6749C82.2751 28.8005 86.5135 33.4606 92.9646 34.1921C94.3255 34.3291 95.7044 34.1981 96.9991 33.8088C98.2939 33.4195 99.4713 32.782 100.444 31.9434L100.849 31.6995C100.849 31.4828 100.849 31.3744 100.849 31.1576C100.849 29.3153 100.849 28.4483 101.005 26.4705V24.7906C100.6 25.17 100.413 25.3596 99.9766 25.7118C99.206 26.6014 98.1844 27.3032 97.0107 27.7493C95.8369 28.1955 94.5507 28.3709 93.2762 28.2586C91.5801 28.077 90.0231 27.3512 88.9105 26.2235C87.7979 25.0958 87.2098 23.6476 87.2614 22.1626C86.9498 18.6946 88.7573 16.4458 92.1854 16.7438C94.9668 16.757 97.6721 17.5347 99.9143 18.9655L100.974 19.6429C100.974 19.0197 100.974 18.7217 100.974 18.0714C100.974 15.931 100.787 14.8473 100.631 12.6527C100.631 12.4089 100.631 12.2734 100.631 12.0296L100.195 11.7857C97.6401 10.3218 94.6529 9.53142 91.5933 9.50986L91.6245 9.42858Z" fill="#C800FF"/>
<path d="M107.736 1.02956C108.487 7.55577 108.799 14.1146 108.671 20.6724C112.193 16.2562 114.187 13.9803 118.02 9.61823C120.919 9.34729 122.383 9.18473 125.344 8.80542C122.383 11.7315 120.919 13.303 118.02 16.4458C120.08 20.2834 122.4 24.0109 124.97 27.6084C122.352 28.3941 121.106 28.7463 118.737 29.3695C116.992 26.1182 116.151 24.3842 114.312 20.6453L108.609 26.8768C108.609 28.7463 108.453 29.5862 108.297 31.4828C106.458 31.7808 105.523 31.9163 103.716 32.133C104.558 21.7649 104.14 11.3485 102.469 1.05665H107.736V1.02956ZM108.422 0H101.565C101.565 0.433498 101.565 0.650246 101.565 1.05665C103.285 11.3628 103.714 21.8007 102.843 32.1872C102.843 32.5123 102.843 32.6749 102.843 33H103.498C105.305 32.7833 106.24 32.6749 108.079 32.3768H108.764C108.764 32.0517 108.764 31.8892 108.764 31.564C109.076 29.803 109.076 28.8818 109.076 27.0936C110.977 25.0616 111.943 24.032 113.875 21.9187C115.558 25.3054 116.306 26.8768 117.896 29.8571L118.083 30.2094H118.488C120.981 29.5862 122.259 29.234 124.721 28.4212L126.154 27.9877L125.656 27.0936C123.185 23.7031 120.958 20.1833 118.986 16.5542C121.698 13.6552 123.069 12.1921 125.843 9.45567L127.526 7.83005L125.375 8.12808C122.259 8.4532 120.919 8.61576 117.989 8.8867H117.709L117.522 9.10345C114.187 12.8966 112.567 14.9015 109.388 18.7759C109.388 12.1379 109.232 8.64286 108.515 1.11084C108.515 0.731527 108.515 0.514778 108.515 0.108374L108.422 0Z" fill="#C800FF"/>
<path d="M134.631 0.704433C134.631 6.28571 134.413 9.07636 134.195 14.6305C132.076 15.1724 131.078 15.4433 129.022 15.9039C129.022 10.0246 129.022 7.01724 128.772 0.812808H134.631V0.704433ZM131.297 20.7266C133.104 20.1847 134.413 20.7266 134.413 22.298C134.309 23.1457 133.936 23.9517 133.337 24.6261C132.737 25.3006 131.934 25.8171 131.016 26.1182C129.209 26.7685 127.9 26.1182 127.9 24.4384C127.963 23.6271 128.29 22.8479 128.841 22.1911C129.393 21.5342 130.147 21.0265 131.016 20.7266H131.297ZM135.442 0H127.993C127.993 0.325123 127.993 0.487685 127.993 0.839901C128.211 7.12562 128.242 10.1601 128.211 16.0936V16.8522L128.959 16.6626C131.016 16.1749 132.076 15.9039 134.133 15.335L134.912 15.1182V14.4409C135.13 9.02217 135.223 6.31281 135.348 0.731527V0H135.442ZM131.328 19.9951C130.211 20.3543 129.236 20.984 128.518 21.8099C127.8 22.6357 127.369 23.6231 127.276 24.6552C127.276 26.6872 128.772 27.6626 131.078 26.8227C132.235 26.4344 133.245 25.7761 133.999 24.9204C134.752 24.0646 135.219 23.0447 135.348 21.9729C135.348 20.1305 133.603 19.2635 131.328 19.9951V19.9951Z" fill="#C800FF"/>
<path d="M17.2964 32.0517C21.3993 31.9883 25.4999 32.2604 29.5441 32.8645C29.5441 34.1108 29.7623 34.734 29.8869 35.9803C26.0849 35.3741 22.2197 35.1198 18.356 35.2217C12.2789 35.4926 9.34941 36.4138 9.38057 37.4705C9.38057 40.3424 32.5983 36.0074 31.9438 42.0764C31.601 45.3276 26.4588 46.5197 17.3899 47.4951C13.432 47.9828 7.54186 48.5246 2.58667 48.7685C2.58667 47.2512 2.58667 46.4926 2.58667 44.9483C7.22015 45.0567 11.8564 44.8575 16.455 44.3522C22.9372 43.6207 25.3681 43.2685 25.4616 42.0493C25.7109 39.3399 1.27775 45.4902 1.21542 38.5C1.24659 35.2217 8.25864 32.5123 17.2964 32.0517ZM17.2964 31.4557C7.01206 31.7808 0 35.032 0 38.9064C0 43.7833 10.8453 42.266 17.6704 41.9409C20.5064 41.7783 24.5578 41.7512 24.4955 42.2931C24.4331 42.835 22.2204 43.2956 16.5173 43.9187C12.0723 44.39 7.59199 44.5621 3.11647 44.4335H1.37125V49.8522H2.27502C7.16788 49.5542 13.2138 48.9852 17.3899 48.4705C31.414 46.7094 32.6918 44.2709 32.9722 42.3473C33.3462 37.931 24.6513 37.5246 17.8574 37.6601C15.2084 37.6601 10.5648 37.9852 10.5337 37.4434C10.5025 36.9015 11.3128 36.2512 18.4183 35.899C22.2037 35.7782 25.9935 35.9869 29.7311 36.5222L30.9154 36.7118C30.9154 36.4138 30.9154 36.2783 30.9154 36.0074C30.9154 34.7611 30.7284 34.1379 30.5726 32.8916C30.5726 32.702 30.5726 32.6207 30.5726 32.404H29.7935C25.6779 31.7827 21.504 31.5014 17.3276 31.564L17.2964 31.4557Z" fill="#C800FF"/>
<path d="M51.4211 34.5173C56.8126 35.5468 59.15 38.4187 58.3708 44C58.1213 45.8222 57.7572 47.6312 57.2801 49.4187C55.5037 48.931 54.5999 48.7143 52.6677 48.3079C53.104 46.3301 53.3533 45.3276 53.6026 43.2956C54.0389 39.4754 52.543 37.5517 48.8344 36.9286C45.1258 36.3054 42.4457 38.6897 41.8224 43.0517C41.6354 44.5148 41.5107 45.2463 41.2303 46.6823C39.0176 46.4926 37.8645 46.4113 35.496 46.3572C36.2501 41.8653 36.2501 37.3022 35.496 32.8104C38.2384 33.0271 39.5474 33.1626 42.134 33.4877C42.134 35.6823 41.9159 36.766 41.6666 38.9064H42.0094C42.7262 35.5197 45.5933 33.4877 51.3588 34.4631L51.4211 34.5173ZM51.3588 33.8941C49.9127 33.4774 48.365 33.4033 46.875 33.6795C45.3851 33.9557 44.0068 34.5722 42.882 35.4655C42.882 34.7611 42.882 34.3818 42.882 33.6503C42.882 33.4064 42.882 33.2709 42.882 33.0271H41.947C39.3604 32.702 38.0203 32.5665 35.309 32.3498H34.374C34.374 32.5936 34.374 32.702 34.374 32.9458C35.1093 37.4388 35.1093 41.9996 34.374 46.4926C34.374 46.7094 34.374 46.8177 34.374 47.0616H35.2466C37.6463 47.0616 38.7682 47.1971 40.9809 47.3867H41.7912C41.8063 47.2063 41.8063 47.0252 41.7912 46.8448C42.0717 45.3818 42.1964 44.6773 42.4145 43.2143C42.9755 39.1773 44.97 36.9557 48.6475 37.5517C51.3899 38.0123 53.104 39.2586 52.6989 43.2414C52.4962 44.9262 52.1841 46.5996 51.7639 48.2537C51.7817 48.4249 51.7817 48.5972 51.7639 48.7685L52.4807 48.9039C54.4129 49.3104 55.3167 49.5271 57.0931 49.9877L57.7475 50.1773C57.7475 49.9606 57.7475 49.8793 57.7475 49.6626C58.2436 47.8784 58.608 46.0685 58.8383 44.2439C59.6486 38.5271 57.3424 35.1675 51.203 34.0025L51.3588 33.8941Z" fill="#C800FF"/>
<path d="M72.2082 39.3128C73.2921 39.5351 74.3144 39.9423 75.2159 40.5108C76.1175 41.0792 76.8802 41.7975 77.46 42.6242C78.0398 43.4508 78.4251 44.3693 78.5935 45.3263C78.7619 46.2834 78.7101 47.26 78.4411 48.1995C78.026 50.7505 77.3799 53.269 76.5089 55.7315L72.6756 54.431C73.5171 52.8596 73.9222 52.0468 74.6702 50.367H74.4208C72.6756 53.4015 69.5592 53.835 65.0714 52.3719C62.9211 51.6675 59.7423 50.2857 60.3967 47.3867C61.1759 43.702 69.7461 45.7069 74.3897 46.6823C74.7013 44.4335 73.4859 43.2414 70.5564 42.4015C68.1694 41.8011 65.6657 41.6351 63.2016 41.9138C63.2016 40.6675 63.3574 40.0443 63.3885 38.7438C66.2568 38.5304 69.1458 38.7504 71.9277 39.3941L72.2082 39.3128ZM73.9845 48.6872C70.6811 47.9557 65.4143 46.3842 64.9779 48.1995C64.7598 49.0665 65.7259 49.9064 67.4088 50.4483C70.2759 51.3965 73.6417 51.2611 73.9845 48.6872ZM71.9588 38.7709C69.0961 38.1063 66.1192 37.8952 63.1704 38.1478H62.7341V38.5542C62.7341 39.8276 62.7341 40.4778 62.5471 41.697C62.5471 42.0493 62.5471 42.2118 62.5471 42.564H63.482C65.8559 42.3178 68.2626 42.4929 70.5564 43.0788C73.2366 43.8374 73.891 44.7586 73.891 46.032C68.7489 44.9483 60.6461 43.3227 59.8046 47.2783C59.4306 49.0394 60.0851 51.3153 64.9779 52.968C66.1746 53.53 67.5134 53.8242 68.8735 53.8242C70.2337 53.8242 71.5724 53.53 72.7691 52.968L72.0523 54.3227C71.9719 54.5082 71.8782 54.6891 71.7719 54.8645L72.4575 55.1084L76.2596 56.4089L76.8517 56.5985L77.0075 56.0837C77.8893 53.6128 78.5458 51.0852 78.9709 48.5246C79.5046 46.4421 79.075 44.2606 77.7748 42.451C76.4745 40.6414 74.408 39.3488 72.0212 38.8522L71.9588 38.7709ZM67.8139 49.8522C66.8167 49.5271 65.7259 48.931 65.8817 48.3079C66.131 47.197 70.4629 48.3079 72.9873 48.9039L73.4859 49.0394C72.7068 50.6379 70.1201 50.6108 67.8139 49.8522Z" fill="#C800FF"/>
<path d="M91.6553 43.5936C93.9796 43.8212 96.2213 44.477 98.2311 45.5172C97.9506 47.1429 97.8259 47.9286 97.4831 49.4729C95.6014 48.1738 93.351 47.3406 90.9697 47.0616C90.2741 46.9018 89.5471 46.8748 88.8384 46.9823C88.1297 47.0899 87.4562 47.3295 86.864 47.6847C86.2719 48.0399 85.7752 48.5023 85.408 49.0401C85.0408 49.5779 84.8118 50.1785 84.7367 50.8005C84.574 51.4062 84.5593 52.0349 84.6937 52.6459C84.828 53.2568 85.1085 53.8364 85.5168 54.3472C85.9251 54.858 86.4523 55.2886 87.0641 55.611C87.676 55.9335 88.3589 56.1407 89.0686 56.2192C91.4708 56.7328 94.0086 56.4121 96.143 55.3251C95.8002 56.6798 95.6444 57.33 95.3016 58.6034C93.0025 59.5009 90.4235 59.7012 87.9779 59.1724C86.7753 58.9875 85.629 58.5905 84.6097 58.0058C83.5903 57.4211 82.7195 56.6611 82.0508 55.7727C81.3822 54.8843 80.9299 53.8862 80.7219 52.84C80.5138 51.7938 80.5544 50.7217 80.8412 49.6897C80.9807 48.6224 81.3879 47.5947 82.0341 46.6792C82.6802 45.7637 83.5496 44.9825 84.5808 44.3909C85.612 43.7992 86.78 43.4115 88.0024 43.255C89.2247 43.0985 90.4717 43.1771 91.6553 43.4852V43.5936ZM91.6553 42.8079C90.3868 42.4984 89.0561 42.4322 87.7552 42.6136C86.4543 42.7951 85.2142 43.22 84.1207 43.8589C83.0272 44.4978 82.1063 45.3356 81.4217 46.3142C80.7371 47.2929 80.3051 48.3891 80.1555 49.5271C79.845 50.6282 79.7958 51.7727 80.0109 52.8908C80.226 54.009 80.7009 55.0773 81.4067 56.0306C82.1124 56.9839 83.0342 57.8022 84.1158 58.4355C85.1973 59.0689 86.416 59.504 87.6974 59.7143C90.2439 60.274 92.9329 60.0736 95.3327 59.1453H95.7379V58.766C96.0807 57.4655 96.2365 56.8153 96.5793 55.4606L96.8286 54.3768L95.7067 54.9187C93.6935 55.9411 91.3017 56.2424 89.0375 55.7586C88.3968 55.7001 87.7778 55.5239 87.2213 55.2418C86.6648 54.9597 86.1835 54.578 85.8094 54.1221C85.4352 53.6662 85.1767 53.1464 85.0509 52.5972C84.9251 52.0479 84.9348 51.4817 85.0796 50.936C85.155 50.3888 85.3657 49.8623 85.6973 49.3926C86.0288 48.9229 86.4734 48.5211 87.0003 48.2148C87.5273 47.9085 88.1243 47.705 88.7503 47.6182C89.3763 47.5313 90.0164 47.5633 90.6269 47.7118C92.9044 47.9975 95.0546 48.8013 96.8598 50.0419L97.6701 50.6108C97.6701 50.1502 97.8259 49.9335 97.9194 49.4729C98.2311 47.9015 98.3869 47.1158 98.6674 45.4902V45.0296L98.3246 44.867C96.2185 43.8123 93.8841 43.1482 91.4683 42.9163L91.6553 42.8079Z" fill="#C800FF"/>
<path d="M107.3 36.3596C106.583 42.835 106.085 45.8695 104.931 51.6404C108.697 48.5418 112.256 45.2581 115.59 41.8054C118.488 41.0739 120.015 40.6133 123.194 39.5566C119.828 42.9163 118.114 44.569 114.811 47.6847C116.589 50.8138 118.971 53.6546 121.854 56.0837C119.486 56.8475 117.073 57.4987 114.624 58.0345C112.912 56.0103 111.498 53.8076 110.416 51.4778C108.414 53.2185 106.268 54.8303 103.996 56.3005C103.716 57.6552 103.56 58.3054 103.28 59.633C101.316 59.633 100.35 59.7956 98.5115 59.7956C100.639 52.2922 102.087 44.6555 102.843 36.9557C104.62 36.766 105.524 36.6576 107.393 36.3596H107.3ZM108.141 35.4655H107.456C105.617 35.7635 104.713 35.8719 102.906 36.0616H102.251C102.251 36.3596 102.251 36.5222 102.251 36.8473C101.533 44.5208 100.105 52.1316 97.9817 59.6059C97.9817 59.8227 97.9817 59.931 97.9817 60.1749H98.6361C100.238 60.2092 101.84 60.164 103.436 60.0394H104.152V59.4433C104.402 58.2241 104.557 57.6281 104.807 56.3818C106.68 55.1644 108.47 53.8526 110.167 52.4532C111.172 54.5131 112.459 56.4598 114 58.2512L114.187 58.4951H114.686C117.46 57.8719 118.893 57.4926 121.947 56.5714L123.599 56.0566L122.82 55.3522C120.043 53.0661 117.726 50.392 115.964 47.4409C119.08 44.569 120.638 43.0517 123.817 39.8818L125.594 37.931L123.287 38.7438C120.171 39.8005 118.582 40.234 115.683 40.9926H115.403L115.153 41.2365C111.414 44.9754 109.575 46.6552 105.804 49.9064C106.801 44.6502 107.238 41.9138 107.861 36.1158C107.861 35.8177 107.861 35.6552 107.861 35.33L108.141 35.4655Z" fill="#C800FF"/>
<path d="M133.759 28.8547C133.479 34.2734 133.292 36.9828 132.918 42.5911C130.393 43.7291 129.147 44.2168 126.685 45.1379C126.965 39.7192 127.09 37.0099 127.308 31.2389C129.77 30.3719 131.017 29.9113 133.541 28.8547H133.759ZM129.147 49.0665C131.297 48.1995 133.042 48.4434 133.011 49.8793C132.795 50.8108 132.302 51.6766 131.58 52.39C130.858 53.1033 129.933 53.639 128.897 53.9434C126.716 54.7562 125.158 54.3227 125.251 52.9138C125.485 52.0428 125.963 51.2357 126.643 50.5644C127.322 49.8931 128.183 49.3785 129.147 49.0665ZM134.445 27.798L133.572 28.1503C130.954 29.1798 129.708 29.6404 127.339 30.5074L126.529 30.7783V31.537C126.279 37.2266 126.124 40.0172 125.812 45.4902V46.1946L126.685 45.8424C129.053 44.9212 130.269 44.4335 132.918 43.2956L133.853 42.8621V42.1847C134.195 36.766 134.351 34.0567 134.6 28.6379V27.9064L134.445 27.798ZM129.178 48.4163C128.038 48.8497 127.033 49.5133 126.247 50.3521C125.461 51.1909 124.917 52.1805 124.659 53.2389C124.659 54.9729 126.373 55.6503 129.178 54.5936C130.481 54.2017 131.644 53.5206 132.552 52.6176C133.459 51.7147 134.079 50.6213 134.351 49.4458C134.351 47.6576 132.201 47.3054 129.489 48.4163H129.178Z" fill="#C800FF"/>
<path d="M4.36321 74.697C4.36321 73.1798 4.36321 72.4212 4.36321 70.9039C8.38356 70.4833 12.3557 69.7673 16.237 68.7635C21.8154 67.3547 23.9658 66.7315 24.1528 65.5394C24.5891 62.83 3.21011 71.5813 3.33477 64.6724C3.33477 61.0961 10.2845 57.4113 18.7613 56.0566C22.4483 55.5374 26.1912 55.3828 29.9183 55.5961C29.7001 56.8424 29.5754 57.4655 29.3573 58.6847C25.9373 58.4887 22.5025 58.6708 19.1353 59.2266C13.588 60.1749 10.8143 61.4754 10.752 62.532C10.565 65.431 30.9779 58.7389 29.7624 64.7808C29.108 67.9778 24.5891 69.7389 16.8602 71.798C13.588 72.7192 8.57044 73.8842 4.36321 74.697Z" fill="#C800FF"/>
<path d="M35.5594 55.0813C38.0214 55.0813 39.2056 55.0813 41.4807 55.2709C40.6704 57.3571 40.2341 58.4138 39.3615 60.6896H39.6731C40.3424 58.9013 41.7648 57.3992 43.6549 56.4847C45.545 55.5701 47.763 55.3107 49.864 55.7586C54.5387 56.5443 55.7541 59.0911 53.7907 64.4015C53.0116 66.5419 52.6376 67.5985 51.8585 69.8202C50.5034 69.4424 49.118 69.1527 47.7136 68.9532C48.3992 66.8941 48.7732 65.8645 49.4588 63.8596C50.7366 60.0936 49.9575 58.4409 46.6852 58.0887C43.4129 57.7364 39.7354 60.3103 38.5823 64.6453C38.2084 66.1084 37.9902 66.8399 37.6162 68.33C35.684 68.33 34.6868 68.33 32.6299 68.5739C33.7518 63.0468 34.4374 60.3916 35.5594 55.0813Z" fill="#C800FF"/>
<path d="M55.2857 67.5714C56.6258 63.9409 64.6351 66.1897 69.154 67.5714C69.8396 65.702 68.9358 64.5911 66.2245 63.6158C63.9974 62.8401 61.6106 62.4712 59.2124 62.532L60.2409 59.8227C63.0378 59.886 65.8007 60.3719 68.406 61.2586C69.3517 61.4599 70.2353 61.8388 70.9946 62.3687C71.7539 62.8985 72.3705 63.5665 72.8012 64.3257C73.2318 65.0848 73.4661 65.9167 73.4875 66.763C73.5088 67.6092 73.3168 68.4493 72.9249 69.2241C71.8965 71.9335 71.3667 73.1798 70.4317 75.8892L66.5673 74.5074L68.8112 70.7685H68.5618C66.5361 73.4778 63.4508 73.8842 59.2124 72.5296C57.1867 71.7438 54.2261 70.4434 55.2857 67.5714ZM68.406 69.1429C65.2896 68.2217 60.2409 66.5961 59.5553 68.33C59.2436 69.1429 60.0851 69.9557 61.6745 70.4975C64.3858 71.4458 67.5334 71.3374 68.5618 69.1429H68.406Z" fill="#C800FF"/>
<path d="M74.7947 70.7956C76.2595 67.0025 80.6849 65.8104 86.5127 67.1109C88.9215 67.5696 91.2486 68.3077 93.4312 69.3054L92.4963 72.3399C90.3165 71.1505 87.9264 70.281 85.4219 69.766C82.0873 68.9803 79.5318 69.766 78.7215 72.069C77.9112 74.372 79.5629 76.5123 83.2092 77.4877C85.793 78.1734 88.5651 78.0972 91.0939 77.271C90.7822 78.4631 90.6264 79.0321 90.3459 80.1971C87.6883 80.8603 84.8696 80.8603 82.2119 80.1971C76.4153 78.5715 73.4858 74.5616 74.7947 70.7956Z" fill="#C800FF"/>
<path d="M98.9797 63.2365C100.634 63.2515 102.288 63.1882 103.935 63.0468C102.844 67.8424 102.252 70.1453 101.224 74.7242C105.462 72.5234 109.514 70.0605 113.347 67.3547C116.407 66.8428 119.434 66.1916 122.416 65.404C119.303 67.7587 116.047 69.9655 112.661 72.0148C115.376 74.97 118.345 77.7416 121.543 80.3054C118.709 80.7848 115.848 81.1375 112.973 81.3621C111.072 79.3112 109.293 77.177 107.643 74.968C104.527 76.5936 103.187 77.3522 100.32 78.6798L99.7277 81.7956C97.4526 81.7956 96.3619 81.633 94.2427 81.4434C95.8321 74.2636 96.9852 70.8227 98.9797 63.2365Z" fill="#C800FF"/>
<path d="M125.78 77.6774C125.78 76.2956 127.806 74.968 130.331 74.3177C132.855 73.6675 134.974 74.1552 134.974 75.5911C134.974 77.0271 132.917 78.5985 130.175 79.1946C127.432 79.7907 125.718 79.0862 125.78 77.6774ZM127.308 58.0074C130.424 56.9778 131.858 56.4089 135.13 55.1355C134.881 60.5542 134.725 63.0739 134.444 68.3572C131.328 69.2783 129.894 69.6847 127.089 70.3892C127.152 65.431 127.214 62.9655 127.308 58.0074V58.0074Z" fill="#C800FF"/>
<path d="M16.766 80.468C19.8368 79.5334 23.0512 79.0037 26.3024 78.8966C26.0219 80.4138 25.8661 81.1995 25.6168 82.7439C22.6589 82.7354 19.7201 83.1566 16.9219 83.9902C12.216 85.4532 9.84747 87.0517 9.75398 88.2439C9.47349 91.4409 26.8634 82.5271 25.8038 90.3572C25.2117 94.5296 21.1914 97.0764 14.6157 99.0813C11.1882 100.065 7.6903 100.853 4.14433 101.438C4.14433 99.8399 4.14433 99.0271 4.14433 97.4286C7.50978 97.0864 10.816 96.3951 13.9924 95.3695C18.7294 93.8522 20.5993 92.9852 20.7863 91.4951C21.2226 88.0813 3.17823 98.1059 3.39638 90.899C3.39638 87.1872 9.41116 82.771 16.6414 80.4138L16.766 80.468ZM16.6414 79.7907C8.56972 82.3916 2.64843 87.4852 2.55493 91.3867C2.55493 96.3448 10.1903 93.5 15.1766 92.2266C17.2647 91.6847 20.2565 91.0616 20.163 91.7389C20.0695 92.4163 18.3554 93.3375 14.1794 94.6921C11.0945 95.6924 7.8821 96.3656 4.6118 96.6971L3.39638 96.8596V97.8621C3.39638 99.4606 3.39638 100.246 3.39638 101.845V102.36H4.01967C7.63774 101.776 11.2084 100.988 14.7092 100.002C24.9 96.9138 26.3336 92.8769 26.6764 90.3843C27.4244 84.9655 21.3161 85.8054 16.2051 87.1059C14.2105 87.6207 10.7201 88.6774 10.7824 88.0542C10.8447 87.4311 11.5304 86.5912 17.0153 84.8572C19.7553 84.0417 22.6274 83.6119 25.5233 83.5838H26.3959L26.5517 82.7168C26.8011 81.1453 26.9569 80.3867 27.2374 78.8695C27.2374 78.6256 27.2374 78.5444 27.2374 78.3276H26.5517C23.2387 78.4488 19.9635 78.9873 16.8284 79.9261L16.6414 79.7907Z" fill="#C800FF"/>
<path d="M43.6302 77.2439C47.8063 77.7045 48.8659 80.1971 47.8063 87.1601C47.37 89.8695 47.183 91.3867 46.9649 94.4483C45.5345 94.1478 44.0725 93.9753 42.6018 93.9335C42.8511 91.0887 43.0381 89.734 43.4744 87.133C44.2847 82.202 43.6614 80.4409 40.7319 80.3325C37.8024 80.2242 34.499 83.8005 33.5952 89.6256C33.2835 91.5764 33.1589 92.5788 32.9407 94.6109C31.1332 94.8276 30.2294 94.9631 28.3595 95.2882C29.1698 87.8375 30.0424 83.665 31.1332 77.8128C32.8475 77.598 34.575 77.4713 36.3065 77.4335C35.5274 79.8448 35.0288 81.4163 34.2808 84.234H34.5301C36.026 79.6823 39.1425 76.8104 43.6302 77.271V77.2439ZM43.6302 76.6749C42.1681 76.5064 40.6811 76.7052 39.3447 77.2477C38.0084 77.7902 36.8784 78.6537 36.0884 79.7365C36.3689 78.8153 36.5247 78.3276 36.8052 77.5148C36.8633 77.2857 36.9362 77.0595 37.0233 76.8375H36.2754C34.5444 76.8655 32.8169 76.9831 31.102 77.1897H30.3852C30.4001 77.3972 30.4001 77.6053 30.3852 77.8128C29.3256 83.6921 28.453 87.8646 27.6116 95.3153C27.6116 95.6404 27.6116 95.7759 27.6116 96.101H28.2972C30.1671 95.7759 31.0709 95.6404 32.8784 95.4237H33.564C33.564 95.1257 33.564 94.9631 33.564 94.638C33.7822 92.6059 33.938 91.6035 34.2185 89.6527C34.9976 84.234 37.6778 81.0099 40.4514 81.0912C42.6018 81.0912 43.5679 82.0936 42.7265 87.2143C42.3213 89.9237 42.1343 91.1971 41.8538 94.069C41.8538 94.367 41.8538 94.5025 41.8538 94.8005H42.4771C43.9581 94.821 45.4319 94.9845 46.8714 95.2882H47.4947C47.4947 94.9902 47.4947 94.8276 47.4947 94.5567C47.6816 91.4951 47.8686 90.0591 48.2738 87.2685C49.3645 80.17 48.4296 77.1897 43.6614 76.6478L43.6302 76.6749Z" fill="#C800FF"/>
<path d="M61.5193 81.2808C63.6169 81.7961 65.4181 82.9729 66.5707 84.5813C67.7234 86.1896 68.1447 88.1138 67.7523 89.9779C67.547 92.8018 67.547 95.6342 67.7523 98.4582L63.2022 97.537C63.4827 95.4237 63.6697 94.3941 64.0748 92.4434H63.7944C62.6724 96.0468 59.8364 97.3744 55.1929 96.4803C53.6682 96.3629 52.2579 95.7288 51.2666 94.7149C50.2752 93.701 49.7825 92.3887 49.8949 91.0616C50.3935 86.1577 58.7457 87.6749 63.5139 88.6232C63.732 86.3202 62.6101 85.1552 59.7741 84.3153C57.5083 83.6821 55.0925 83.5701 52.7621 83.9902C53.0114 82.6355 53.136 81.9582 53.4165 80.6306C56.1486 80.3391 58.9213 80.5986 61.5193 81.3892V81.2808ZM63.2646 90.601C59.8364 89.9779 54.5385 88.7586 54.3515 91.0887C54.3515 92.1995 55.3176 93.0936 57.0316 93.4729C59.9923 94.1232 63.0152 93.4729 63.2646 90.601ZM61.6752 80.8473C59.0143 80.0089 56.1628 79.7304 53.3542 80.0345H52.9491C52.9344 80.1697 52.9344 80.3057 52.9491 80.4409C52.6374 81.7685 52.5127 82.4187 52.2634 83.8005C52.2634 84.1798 52.2634 84.3695 52.0764 84.7759L52.9802 84.5591C55.2229 84.1012 57.5638 84.1572 59.7741 84.7217C62.3608 85.4803 62.8906 86.3744 62.8906 87.702C57.7173 86.6453 49.8014 85.399 49.2405 90.7636C49.1325 91.5205 49.2015 92.2885 49.4433 93.0216C49.6852 93.7548 50.0949 94.4379 50.6479 95.0299C51.2009 95.622 51.8857 96.1109 52.6614 96.4672C53.437 96.8235 54.2875 97.0399 55.1617 97.1035C56.4724 97.5152 57.8926 97.5858 59.2487 97.3067C60.6048 97.0276 61.8379 96.4109 62.7971 95.532C62.7971 96.2365 62.6413 96.5887 62.5478 97.2931C62.4543 97.9976 62.5478 97.7537 62.5478 98.0517L63.2957 98.2143L67.6276 99.1626L68.2821 99.2981C68.2976 99.0815 68.2976 98.8643 68.2821 98.6478C68.062 95.8333 68.062 93.0091 68.2821 90.1946C68.691 88.2002 68.2486 86.1445 67.0378 84.4135C65.8271 82.6825 63.9313 81.3952 61.7063 80.7931L61.6752 80.8473ZM57.0628 92.7956C56.0655 92.5517 54.8813 92.0099 54.9436 91.2242C54.9436 89.8153 59.4001 90.5197 61.9868 90.9803H62.5166C61.8933 92.7685 59.4001 93.2291 57.0628 92.6872V92.7956Z" fill="#C800FF"/>
<path d="M81.1839 87.3497C83.9345 88.03 86.5738 89.0133 89.0374 90.2758C89.0374 91.5222 89.0374 92.1182 89.0374 93.3916C86.4777 91.9213 83.6705 90.8061 80.7164 90.0862C76.9767 89.2192 74.4835 90.2488 74.4835 92.7956C74.4835 95.3424 76.4469 97.6995 80.7164 98.5936C83.4575 99.3287 86.3898 99.3287 89.1309 98.5936C89.1309 99.8941 89.3179 100.544 89.5049 101.872C86.6206 102.426 83.6319 102.426 80.7476 101.872C77.8983 101.552 75.2682 100.374 73.3151 98.5422C71.362 96.7105 70.2094 94.3414 70.0581 91.8473C70.3074 87.2685 74.577 85.9138 81.0904 87.4852L81.1839 87.3497ZM81.0904 86.9704C74.2342 85.2906 69.6218 86.7808 69.3413 91.6576C69.4803 94.3354 70.6945 96.8861 72.7727 98.8661C74.851 100.846 77.6619 102.13 80.7164 102.495C83.7145 103.064 86.8184 103.064 89.8165 102.495H90.3151C90.3151 102.333 90.3151 102.251 90.3151 102.116C90.1282 100.788 90.0347 100.138 89.9412 98.8374C89.9412 98.431 89.9412 98.2143 89.9412 97.8079L88.7257 98.1601C86.1246 98.8443 83.3487 98.8443 80.7476 98.1601C76.852 97.3473 74.9821 95.4507 75.0756 93.1207C75.1691 90.7906 77.2883 90.0049 80.5918 90.7635C83.4286 91.4434 86.1221 92.5136 88.5699 93.9335L89.7853 94.5837C89.7853 94.2044 89.7853 94.0148 89.7853 93.6355C89.7853 92.3892 89.7853 91.766 89.7853 90.5468V90.1946L89.349 89.9778C86.8096 88.6741 84.0858 87.6631 81.2462 86.9704H81.0904Z" fill="#C800FF"/>
<path d="M99.7267 85.1552C98.9796 88.9763 98.8224 92.8669 99.2592 96.7242C103.653 94.6109 105.492 93.6355 110.977 90.7906C114.428 90.7154 117.871 90.4802 121.293 90.0862C116.836 92.5246 115.06 93.4729 111.32 95.3153C115.714 99.0271 118.114 100.924 122.82 104.852C119.267 104.852 117.553 104.852 114.187 104.852C111.071 101.899 109.45 100.463 106.552 97.6182C103.716 98.9729 102.344 99.569 99.7267 100.761C99.9136 102.062 100.007 102.712 100.256 104.067C97.7944 103.823 96.579 103.687 94.2417 103.389C92.872 97.2145 92.872 90.8692 94.2417 84.6946C96.392 84.9113 97.3581 84.9926 99.8513 85.101L99.7267 85.1552ZM100.786 84.5862H99.7267C97.3893 84.5862 96.2985 84.3966 94.117 84.1798H93.3379C93.3379 84.3966 93.3379 84.5049 93.3379 84.7217C91.9821 90.8884 91.9821 97.2225 93.3379 103.389C93.3379 103.633 93.3379 103.741 93.3379 103.985H94.2105C96.579 104.283 97.7633 104.419 100.225 104.663H101.129C101.129 104.419 101.129 104.31 101.129 104.067C100.911 102.847 100.817 102.224 100.662 101.032C102.843 100.03 103.996 99.5148 106.334 98.3227C109.014 101.032 110.447 102.278 113.346 104.961L113.688 105.286H114.249C117.584 105.286 119.298 105.286 122.851 105.286H124.783L123.661 104.365C119.173 100.626 116.867 98.9458 112.629 95.2882C116.15 93.5271 117.989 92.5788 121.978 90.3572L124.503 88.9483L121.386 89.3276C117.023 89.7882 114.966 89.9237 111.102 90.0591H110.634L110.323 90.2217C105.679 92.6601 103.872 93.5813 100.038 95.4237C99.7067 91.9602 99.8742 88.4742 100.537 85.0468C100.552 84.8664 100.552 84.6853 100.537 84.5049L100.786 84.5862Z" fill="#C800FF"/>
<path d="M135.66 81.5246C135.411 86.6995 135.255 89.4089 135.099 94.8276C131.827 95.2882 130.268 95.4778 127.214 95.803C126.747 90.8719 126.622 88.4064 126.622 83.4212C130.081 82.8522 131.889 82.5 135.66 81.6601V81.5246ZM131.048 100.192C133.697 99.9483 135.785 100.734 135.816 102.17C135.847 103.606 133.915 104.879 131.266 105.042C128.617 105.204 126.809 104.31 126.716 102.901C126.622 101.493 128.492 100.436 131.048 100.192ZM136.969 80.6847L135.66 80.9827C131.92 81.8227 130.113 82.1749 126.653 82.7709L125.469 82.9877V83.6379C125.416 87.7353 125.614 91.8322 126.061 95.9113V96.5345H127.183C130.3 96.2364 131.796 96.0468 135.037 95.6133L136.252 95.4236V94.7734C136.47 89.3547 136.595 86.835 136.844 81.4975V80.7931L136.969 80.6847ZM131.016 99.6502C127.9 99.9754 125.469 101.384 125.594 103.091C125.718 104.798 128.149 106.017 131.297 105.8C134.445 105.584 137.125 103.768 137.125 101.926C137.125 100.084 134.476 99.2167 131.141 99.4064L131.016 99.6502Z" fill="#C800FF"/>
<path d="M14.024 110C16.8878 109.392 19.8357 109.136 22.7812 109.241C22.7812 111.084 22.7812 111.951 22.7812 113.874C20.028 113.584 17.2388 113.685 14.5226 114.172C10.253 115.039 8.28966 116.15 8.28966 117.451C8.28966 120.892 23.872 113.712 24.2772 123.465C24.4641 128.64 20.3192 131.052 13.7435 131.133C10.3388 131.141 6.94646 130.776 3.64613 130.049V125.741C6.588 126.534 9.67344 126.847 12.7462 126.663C17.2651 126.337 19.1973 125.66 19.1661 123.953C19.1661 119.862 2.80468 126.202 2.89817 118.805C2.89817 114.985 7.63521 111.626 14.024 110.081V110ZM14.024 109.296C6.79376 111.084 2.11906 114.931 2.08789 118.914C2.08789 123.953 8.72597 123.411 13.463 123.249C15.4264 123.249 18.387 123.249 18.4182 123.926C18.4494 124.603 16.7041 125.498 12.7462 125.823C9.77366 126.04 6.78063 125.764 3.92661 125.01L2.86701 124.793V130.483L3.42797 130.618C6.75953 131.432 10.1914 131.896 13.65 132C23.9032 132 25.0251 126.581 24.9004 123.411C24.62 116.611 18.6675 116.963 13.8058 117.397C11.9983 117.586 8.91296 117.938 8.91296 117.397C8.91296 116.855 9.41159 116.069 14.3668 115.094C17.035 114.634 19.7712 114.551 22.4696 114.85H23.3422C23.3422 114.416 23.3422 114.199 23.3422 113.766C23.3422 111.897 23.3422 111.057 23.3422 109.133C23.3273 108.898 23.3273 108.663 23.3422 108.429H22.9682C19.9677 108.325 16.9656 108.599 14.0551 109.241L14.024 109.296Z" fill="#C800FF"/>
<path d="M40.0155 105.963C44.5032 105.746 46.4977 109.025 48.056 119.293C48.6793 123.384 49.0844 125.525 50.0817 130.131C47.9625 130.131 46.9652 130.131 44.8148 130.131C44.0046 125.877 43.6929 123.845 43.1943 119.998C42.2593 112.736 41.0127 110.515 37.8339 110.759C34.6551 111.002 31.9438 115.744 32.5671 123.52C32.7853 126.229 32.9099 127.475 33.2527 130.239L28.0482 130.212C27.274 122.836 27.0553 115.423 27.3938 108.022L32.5359 107.345C32.2243 110.786 32.0996 112.574 31.975 116.286H32.2243C32.7229 110.271 35.3408 106.342 40.0466 105.99L40.0155 105.963ZM40.0466 105.15C38.4137 105.315 36.8725 105.893 35.6147 106.813C34.3569 107.733 33.438 108.955 32.9723 110.325C32.9723 109.133 32.9723 108.537 33.2216 107.372C33.2216 106.993 33.2216 106.803 33.2216 106.424H32.4736C30.4479 106.667 29.3572 106.803 27.3314 107.128H26.6147C26.6147 107.453 26.6147 107.616 26.6147 107.968C26.2841 115.341 26.4818 122.725 27.2068 130.076C27.2068 130.483 27.2068 130.672 27.2068 131.079H34.2812C34.2812 130.672 34.2812 130.456 34.2812 130.049C33.9072 127.34 33.7825 125.931 33.5644 123.303C32.9411 116.069 35.0291 111.734 38.1144 111.463C40.4829 111.301 41.7919 112.33 42.7268 119.835C43.1943 123.682 43.5059 125.714 44.3162 129.941C44.3162 130.374 44.3162 130.591 44.5032 131.052H51.3594C51.3594 130.618 51.3594 130.402 51.1101 129.968C50.0817 125.416 49.6765 123.276 49.0221 119.131C47.4327 108.727 45.3446 104.663 40.296 104.934L40.0466 105.15Z" fill="#C800FF"/>
<path d="M60.7087 107.914C66.5053 108.727 69.3102 112.384 70.9307 118.047C72.0837 122.188 73.4775 126.275 75.1068 130.293H69.9335C69.1855 127.069 68.8739 125.525 68.3752 122.599H68.0324C68.5622 128.017 66.1314 131.052 60.4282 131.025C58.3028 131.07 56.2396 130.399 54.6709 129.152C53.1023 127.904 52.15 126.177 52.0137 124.333C50.549 117.099 60.4594 117.234 65.882 117.126C65.7814 115.831 65.1278 114.616 64.0496 113.719C62.9714 112.821 61.5464 112.307 60.0542 112.276C57.3785 112.065 54.6947 112.596 52.3877 113.793C52.1072 111.815 52.0137 110.867 51.8268 108.998C54.6305 107.977 57.6982 107.631 60.7087 107.995V107.914ZM66.5988 120.16C62.6409 120.323 56.2833 120.16 57.0936 123.466C57.2857 124.263 57.7998 124.975 58.5428 125.472C59.2859 125.969 60.2089 126.218 61.145 126.175C62.0208 126.269 62.9098 126.166 63.7263 125.875C64.5429 125.584 65.2596 125.115 65.8074 124.513C66.3552 123.912 66.7158 123.198 66.8544 122.44C66.993 121.683 66.905 120.907 66.5988 120.187V120.16ZM60.6152 107.236C57.5387 106.849 54.399 107.176 51.5151 108.185L51.11 108.374C51.11 108.618 51.11 108.727 51.11 108.97C51.297 110.84 51.3904 111.68 51.6398 113.793C51.6398 114.335 51.6398 114.606 51.8268 115.175L52.7617 114.687C54.9968 113.533 57.5861 113.003 60.1789 113.17C63.2954 113.495 64.2926 114.525 64.8848 116.34C58.9635 116.34 49.6764 116.34 51.2346 124.468C51.3972 126.544 52.4462 128.493 54.1758 129.931C55.9055 131.37 58.191 132.195 60.584 132.244C62.383 132.469 64.2126 132.085 65.6965 131.173C67.1805 130.261 68.206 128.889 68.5622 127.34C68.7804 128.397 68.905 128.911 69.1543 130.049C69.1543 130.51 69.3102 130.727 69.4037 131.214H76.3222C76.1352 130.808 76.0729 130.618 75.9171 130.239C74.2718 126.257 72.8572 122.206 71.6787 118.101C69.7153 111.382 66.2872 107.941 60.6464 107.128L60.6152 107.236ZM60.8645 125.2C59.6491 125.2 58.0909 124.685 57.7481 123.52C57.2806 121.434 62.3293 121.244 65.3522 121.135H65.9755C66.0114 121.716 65.8978 122.295 65.643 122.832C65.3883 123.369 64.9988 123.85 64.503 124.239C64.0073 124.629 63.4178 124.917 62.7775 125.083C62.1372 125.249 61.4624 125.289 60.8022 125.2H60.8645Z" fill="#C800FF"/>
<path d="M82.6794 111.084C86.0377 111.525 89.2906 112.44 92.3093 113.793C92.8079 115.365 93.0572 116.177 93.6493 117.803C90.5903 116.179 87.1894 115.101 83.6455 114.633C79.6876 114.227 77.88 116.232 79.1889 119.889C79.8108 121.704 81.0591 123.309 82.7648 124.486C84.4705 125.664 86.5513 126.357 88.7253 126.473C90.0753 126.637 91.4498 126.559 92.7633 126.242C94.0768 125.925 95.3013 125.376 96.3607 124.631C97.1086 126.365 97.5138 127.34 98.3864 129.074C96.1649 130.469 93.4547 131.149 90.7199 130.998C86.9538 130.776 83.3574 129.552 80.4192 127.492C77.4809 125.432 75.3431 122.636 74.2961 119.483C72.208 112.953 75.8543 110.027 82.6794 110.867V111.084ZM82.4924 110.163C75.2933 109.268 71.3666 112.466 73.5481 119.401C74.6574 122.806 76.9454 125.831 80.1013 128.066C83.2571 130.3 87.1278 131.636 91.1873 131.892C93.9822 132.095 96.7712 131.444 99.072 130.049L99.446 129.86C99.3495 129.684 99.2663 129.503 99.1967 129.318C98.324 127.502 97.9189 126.608 97.2021 124.901C96.9528 124.36 96.8281 124.089 96.61 123.52L95.6439 124.197C94.6243 124.893 93.4496 125.396 92.1941 125.676C90.9387 125.956 89.6301 126.006 88.3513 125.823C86.4436 125.738 84.6115 125.147 83.1015 124.13C81.5916 123.113 80.4763 121.718 79.9057 120.133C78.7526 116.909 80.4043 115.229 83.8948 115.554C87.2877 115.943 90.5538 116.93 93.4935 118.453L94.9583 119.158C94.7713 118.67 94.6778 118.426 94.522 117.938C93.9298 116.313 93.6805 115.5 93.1819 113.956C93.1997 113.812 93.1997 113.666 93.1819 113.522L92.6209 113.278C89.5027 111.819 86.1358 110.804 82.6482 110.271L82.4924 110.163Z" fill="#C800FF"/>
<path d="M100.942 107.778C101.879 112.367 103.181 116.893 104.838 121.325C107.705 118.828 110.835 116.569 114.187 114.579C117.833 114.741 119.703 114.796 123.537 114.823C120.015 116.828 118.394 117.776 115.434 119.7C120.171 124.116 122.602 126.337 126.747 130.781H120.202C117.085 127.394 115.216 125.714 111.787 122.355C109.992 123.61 108.324 124.997 106.801 126.5C107.456 128.126 107.798 128.966 108.577 130.672H103.186C99.3226 123.168 96.5383 115.279 94.8962 107.182C97.2647 107.48 98.4801 107.616 100.942 107.86V107.778ZM101.69 107.318H100.786L94.7715 106.667H93.8989C93.9137 106.866 93.9137 107.065 93.8989 107.264C95.5597 115.401 98.3757 123.328 102.282 130.862C102.282 131.187 102.5 131.35 102.656 131.648H109.699L109.357 130.889C108.671 129.318 108.359 128.559 107.767 127.069C109.037 125.817 110.412 124.648 111.881 123.574C114.997 126.663 116.618 128.207 119.641 131.323L119.984 131.675H128.429L127.463 130.618C123.537 126.392 121.23 124.278 116.743 120.079C119.516 118.264 121.043 117.369 124.316 115.527L126.341 114.362H123.537C119.672 114.362 117.771 114.362 114.187 114.145H113.751L113.502 114.281C110.574 116.041 107.794 117.978 105.181 120.079C103.773 116.145 102.659 112.135 101.846 108.076V107.453L101.69 107.318Z" fill="#C800FF"/>
<path d="M135.815 108.158C135.815 113.414 135.597 116.042 135.535 121.298H129.302C128.523 116.123 128.18 113.576 127.557 108.564C130.673 108.564 132.45 108.374 135.847 108.131L135.815 108.158ZM132.73 126.256C133.154 126.203 133.586 126.227 133.999 126.325C134.413 126.424 134.798 126.596 135.131 126.829C135.465 127.063 135.739 127.355 135.937 127.685C136.135 128.015 136.253 128.377 136.283 128.749C136.294 129.099 136.219 129.447 136.063 129.769C135.907 130.092 135.674 130.382 135.379 130.621C135.085 130.859 134.735 131.04 134.353 131.152C133.972 131.263 133.567 131.303 133.166 131.268C132.329 131.284 131.513 131.034 130.871 130.565C130.229 130.097 129.804 129.442 129.676 128.722C129.458 127.259 130.798 126.229 132.793 126.256H132.73ZM137.156 107.291H135.971C132.574 107.535 130.891 107.616 127.682 107.751H126.56V108.401C127.214 113.414 127.588 115.961 128.429 121.108V121.759H129.333C131.764 121.759 133.011 121.759 135.566 121.759H136.501V121.108C136.657 115.69 136.75 113.197 136.969 107.887V107.209L137.156 107.291ZM132.73 125.498C130.237 125.498 128.585 126.825 128.897 128.64C129.074 129.542 129.612 130.361 130.416 130.951C131.22 131.541 132.239 131.865 133.291 131.865C133.777 131.883 134.262 131.817 134.718 131.671C135.174 131.525 135.592 131.302 135.949 131.015C136.305 130.728 136.593 130.382 136.794 129.998C136.996 129.614 137.108 129.198 137.124 128.776C137.078 128.311 136.925 127.859 136.674 127.447C136.424 127.034 136.08 126.669 135.665 126.374C135.25 126.078 134.771 125.858 134.256 125.726C133.741 125.595 133.201 125.554 132.668 125.606L132.73 125.498Z" fill="#C800FF"/>
</g>
<defs>
<clipPath id="clip0">
<rect width="137" height="132" fill="white"/>
</clipPath>
</defs>
</svg>
