<svg width="137" height="132" viewBox="0 0 137 132" fill="none" xmlns="http://www.w3.org/2000/svg">
<g clip-path="url(#clip0)">
<path d="M13.9303 6.74633C17.4945 6.90246 21.0381 7.3102 24.5263 7.96555C25.0249 9.4557 25.2431 10.2143 25.7106 11.6503C22.3138 10.9466 18.8508 10.5113 15.3639 10.3498C10.2217 10.3498 7.97785 10.7833 8.10251 11.8941C8.44532 14.8744 27.7363 12.1921 29.388 18.9656C30.2918 22.4877 25.3678 23.436 16.9221 23.436C12.3033 23.3463 7.69392 23.0297 3.11616 22.4877C3.11616 20.9705 3.11616 20.2119 3.11616 18.6675C7.19922 19.5206 11.3827 19.9571 15.582 19.968C21.5033 19.968 23.8407 19.7784 23.5602 18.505C22.5629 15.6059 1.80724 18.9655 1.62025 12.0296C1.62025 8.39904 6.60661 6.61087 14.0861 6.74633H13.9303ZM14.0861 6.06899C5.51584 5.90643 0.59182 8.12811 0.654149 12.0296C0.654149 16.9064 9.59842 17.0419 15.769 17.4483C18.3245 17.6109 22.002 17.936 22.2201 18.505C22.4383 19.0739 20.2879 19.399 15.1146 19.372C11.07 19.3279 7.04447 18.8825 3.11616 18.0444L1.80724 17.7463V18.7217C1.80724 20.266 1.80724 21.0247 1.80724 22.5419V23.0567H2.61752C7.31097 23.5722 12.0356 23.8436 16.7663 23.8695C30.3229 23.9237 30.8527 21.0247 30.3229 18.9656C29.1387 14.3055 21.1917 13.3301 15.3016 12.8695C12.9954 12.7069 9.06862 12.4631 9.06862 11.8941C9.06862 11.3252 9.3491 10.8375 15.582 11C19.0268 11.1704 22.4475 11.6056 25.8041 12.3005L26.926 12.5444C26.926 12.1921 26.926 12.0296 26.6767 11.7045C26.2092 10.2414 25.991 9.50988 25.4612 7.99264C25.4612 7.77589 25.4612 7.66752 25.2743 7.42367L24.5575 7.28821C21.0379 6.63226 17.4631 6.22453 13.868 6.06899H14.0861Z" fill="#C800FF"/>
<path d="M45.0639 8.12809C50.6113 8.56159 54.6938 12.165 56.813 19.7241C57.5281 22.0866 58.0797 24.4841 58.4648 26.9039L53.3849 26.064C52.9898 23.9112 52.4697 21.7771 51.8267 19.67C50.3308 14.6035 47.7441 12.165 43.8797 11.8399C40.0153 11.5148 38.2389 14.9828 39.6413 19.968C40.1088 21.6749 40.2957 22.5148 40.6697 24.1675C38.27 23.8695 37.0546 23.7611 34.4368 23.5443C33.3757 18.203 31.8441 12.9404 29.8556 7.80297L36.0885 8.15518C36.9611 11.0542 37.3039 12.436 37.8649 15.0911H38.2077C37.6156 10.8374 39.1738 7.74878 45.0639 8.12809ZM44.7211 7.34237C40.8255 7.09853 38.4882 8.34484 37.6467 10.6749C37.3974 9.72661 37.2416 9.23893 36.9611 8.26356L36.7118 7.45075H35.808L29.5751 7.15272H28.7336C28.7336 7.42366 28.7336 7.55912 29.0141 7.85715C31.0319 13.0114 32.5947 18.2919 33.6888 23.6527C33.6888 23.8966 33.6888 24.032 33.6888 24.2759H34.5926C37.0858 24.5197 38.3012 24.6281 40.6697 24.899H41.5423C41.5547 24.6914 41.5547 24.4834 41.5423 24.2759C41.1684 22.6503 40.9814 21.8104 40.4827 20.0764C39.205 15.3621 40.4827 12.165 44.1602 12.4902C47.0273 12.7611 49.4582 14.2512 50.9852 19.4803C51.7643 22.1897 52.076 23.4089 52.5746 25.8473C52.5572 26.0638 52.5572 26.2811 52.5746 26.4975H53.3849L58.4336 27.3374L59.1504 27.4729C59.1504 27.202 59.1504 27.0665 59.1504 26.7956C58.7586 24.3698 58.2176 21.9641 57.5298 19.5887C55.4106 11.867 51.0164 7.58622 44.7523 7.12563L44.7211 7.34237Z" fill="#C800FF"/>
<path d="M68.2818 9.42863C74.5147 9.75375 78.161 14.2784 79.0336 20.0222C79.6342 23.6137 79.9984 27.2321 80.1243 30.8597L75.7301 30.0739C75.9171 27.771 75.9483 26.5789 75.9794 24.0321H75.6678C75.2938 28.6922 72.3643 30.0198 67.4715 29.0715C65.8193 28.9157 64.2671 28.3065 63.0399 27.3322C61.8128 26.3579 60.9744 25.0691 60.6464 23.6528C59.5868 18.5863 68.8739 18.9656 74.2031 18.9656C74.1227 17.6456 73.4583 16.4037 72.3489 15.4998C71.2395 14.5959 69.771 14.1 68.2506 14.1158C65.6059 13.9778 62.9675 14.4646 60.6153 15.5247C60.0855 13.7907 59.7738 12.8153 59.1193 11.0813C61.9728 9.88926 65.1183 9.32188 68.2818 9.42863V9.42863ZM74.7952 21.6749C71.0243 21.6749 65.0718 20.9434 65.4458 23.4902C65.6753 24.1411 66.1252 24.7168 66.7367 25.1421C67.3482 25.5674 68.093 25.8226 68.8739 25.8744C71.9904 26.4163 75.1068 25.2784 74.6705 21.6749H74.7952ZM67.9701 8.50745C64.7365 8.43608 61.5304 9.04 58.6207 10.2685L58.2156 10.4582L58.4337 11.0272C59.0882 12.8424 59.3687 13.7365 59.9296 15.4705C59.9296 15.9582 60.1478 16.1749 60.2724 16.6626L61.1139 16.2562C63.4185 15.2521 65.9904 14.803 68.5623 14.9557C71.6787 15.2267 72.8318 16.3104 73.3928 18.0986C67.5338 18.0986 58.87 18.0986 60.0543 23.5173C60.366 25.1264 61.2643 26.6059 62.6165 27.7376C63.9688 28.8694 65.7035 29.5934 67.565 29.803C71.2424 30.5074 73.7979 29.9656 75.2003 27.9336C75.2003 28.7193 75.2003 29.1257 75.2003 29.8843C75.217 30.1641 75.217 30.4444 75.2003 30.7242H75.9794L80.3425 31.537H80.9658V30.7784C80.8617 27.1508 80.5079 23.5318 79.9062 19.9409C78.8778 13.1134 74.4212 8.67001 68.1571 8.37198L67.9701 8.50745ZM68.7492 25.2242C67.6273 25.0345 66.2872 24.5198 66.1002 23.6799C65.8198 22.1084 70.588 22.3794 73.4239 22.5148H73.9849C73.9849 24.872 71.3671 25.6035 68.7492 25.2242Z" fill="#C800FF"/>
<path d="M91.6245 10.5123C94.5489 10.5364 97.4041 11.2886 99.852 12.6798C100.039 14.9285 100.101 16.0123 100.226 18.0985C97.9118 16.5566 95.0996 15.6848 92.1854 15.6059C88.2587 15.4162 86.2953 18.3152 86.6693 22.0541C86.5737 23.4769 87.0095 24.8885 87.9117 26.0784C88.814 27.2683 90.1344 28.1728 91.6762 28.6572C93.218 29.1415 94.8985 29.1798 96.4673 28.7662C98.0361 28.3526 99.4091 27.5093 100.382 26.362C100.382 28.2857 100.382 29.234 100.226 31.0492C99.2907 31.8672 98.1539 32.4899 96.9014 32.87C95.6489 33.2502 94.3134 33.378 92.9957 33.2438C87.0121 32.5936 82.8672 28.1231 82.0569 21.5665C81.2466 15.0098 84.6124 10.2142 91.6245 10.4581V10.5123ZM91.6245 9.42853C84.1449 9.26597 80.4675 14.5492 81.3713 21.6748C82.2751 28.8005 86.5135 33.4606 92.9646 34.1921C94.3255 34.329 95.7044 34.198 96.9991 33.8088C98.2939 33.4195 99.4713 32.7819 100.444 31.9433L100.849 31.6995C100.849 31.4827 100.849 31.3743 100.849 31.1576C100.849 29.3152 100.849 28.4482 101.005 26.4704V24.7906C100.6 25.1699 100.413 25.3596 99.9766 25.7118C99.206 26.6014 98.1844 27.3031 97.0107 27.7493C95.8369 28.1954 94.5507 28.3708 93.2762 28.2586C91.5801 28.0769 90.0231 27.3511 88.9105 26.2235C87.7979 25.0958 87.2098 23.6475 87.2614 22.1625C86.9498 18.6945 88.7573 16.4458 92.1854 16.7438C94.9668 16.757 97.6721 17.5346 99.9143 18.9655L100.974 19.6428C100.974 19.0197 100.974 18.7216 100.974 18.0714C100.974 15.931 100.787 14.8473 100.631 12.6527C100.631 12.4088 100.631 12.2734 100.631 12.0295L100.195 11.7857C97.6401 10.3217 94.6529 9.53137 91.5933 9.50981L91.6245 9.42853Z" fill="#C800FF"/>
<path d="M107.737 1.02956C108.488 7.55577 108.8 14.1146 108.671 20.6724C112.193 16.2562 114.188 13.9803 118.021 9.61823C120.919 9.34729 122.384 9.18473 125.345 8.80542C122.384 11.7315 120.919 13.303 118.021 16.4458C120.08 20.2834 122.401 24.0109 124.971 27.6084C122.353 28.3941 121.106 28.7463 118.738 29.3695C116.992 26.1182 116.151 24.3842 114.312 20.6453L108.609 26.8768C108.609 28.7463 108.453 29.5862 108.297 31.4828C106.459 31.7808 105.524 31.9163 103.716 32.133C104.558 21.7649 104.141 11.3485 102.47 1.05665H107.737V1.02956ZM108.422 0H101.566C101.566 0.433498 101.566 0.650246 101.566 1.05665C103.286 11.3628 103.714 21.8007 102.844 32.1872C102.844 32.5123 102.844 32.6749 102.844 33H103.498C105.306 32.7833 106.241 32.6749 108.079 32.3768H108.765C108.765 32.0517 108.765 31.8892 108.765 31.564C109.077 29.803 109.077 28.8818 109.077 27.0936C110.978 25.0616 111.944 24.032 113.876 21.9187C115.559 25.3054 116.307 26.8768 117.896 29.8571L118.083 30.2094H118.488C120.982 29.5862 122.259 29.234 124.721 28.4212L126.155 27.9877L125.656 27.0936C123.186 23.7031 120.959 20.1833 118.987 16.5542C121.698 13.6552 123.07 12.1921 125.843 9.45567L127.526 7.83005L125.376 8.12808C122.259 8.4532 120.919 8.61576 117.99 8.8867H117.709L117.522 9.10345C114.188 12.8966 112.567 14.9015 109.388 18.7759C109.388 12.1379 109.232 8.64286 108.516 1.11084C108.516 0.731527 108.516 0.514778 108.516 0.108374L108.422 0Z" fill="#C800FF"/>
<path d="M134.632 0.704433C134.632 6.28571 134.414 9.07636 134.195 14.6305C132.076 15.1724 131.079 15.4433 129.022 15.9039C129.022 10.0246 129.022 7.01724 128.773 0.812808H134.632V0.704433ZM131.297 20.7266C133.105 20.1847 134.414 20.7266 134.414 22.298C134.309 23.1457 133.937 23.9517 133.337 24.6261C132.737 25.3006 131.934 25.8171 131.017 26.1182C129.209 26.7685 127.9 26.1182 127.9 24.4384C127.964 23.6271 128.29 22.8479 128.842 22.1911C129.393 21.5342 130.147 21.0265 131.017 20.7266H131.297ZM135.442 0H127.994C127.994 0.325123 127.994 0.487685 127.994 0.839901C128.212 7.12562 128.243 10.1601 128.212 16.0936V16.8522L128.96 16.6626C131.017 16.1749 132.076 15.9039 134.133 15.335L134.912 15.1182V14.4409C135.13 9.02217 135.224 6.31281 135.349 0.731527V0H135.442ZM131.328 19.9951C130.211 20.3543 129.236 20.984 128.518 21.8099C127.8 22.6357 127.37 23.6231 127.277 24.6552C127.277 26.6872 128.773 27.6626 131.079 26.8227C132.235 26.4344 133.246 25.7761 133.999 24.9204C134.752 24.0646 135.219 23.0447 135.349 21.9729C135.349 20.1305 133.603 19.2635 131.328 19.9951V19.9951Z" fill="#C800FF"/>
<path d="M17.2964 32.0517C21.3993 31.9882 25.4999 32.2604 29.5441 32.8645C29.5441 34.1108 29.7623 34.734 29.8869 35.9803C26.0849 35.3741 22.2197 35.1198 18.356 35.2217C12.2789 35.4926 9.34941 36.4138 9.38057 37.4704C9.38057 40.3423 32.5983 36.0074 31.9438 42.0763C31.601 45.3276 26.4588 46.5197 17.3899 47.4951C13.432 47.9827 7.54186 48.5246 2.58667 48.7685C2.58667 47.2512 2.58667 46.4926 2.58667 44.9483C7.22015 45.0567 11.8564 44.8574 16.455 44.3522C22.9372 43.6207 25.3681 43.2685 25.4616 42.0492C25.7109 39.3399 1.27775 45.4901 1.21542 38.5C1.24659 35.2217 8.25864 32.5123 17.2964 32.0517ZM17.2964 31.4556C7.01206 31.7808 0 35.032 0 38.9064C0 43.7832 10.8453 42.266 17.6704 41.9409C20.5064 41.7783 24.5578 41.7512 24.4955 42.2931C24.4331 42.835 22.2204 43.2955 16.5173 43.9187C12.0723 44.3899 7.59199 44.562 3.11647 44.4335H1.37125V49.8522H2.27502C7.16788 49.5542 13.2138 48.9852 17.3899 48.4704C31.414 46.7093 32.6918 44.2709 32.9722 42.3473C33.3462 37.931 24.6513 37.5246 17.8574 37.6601C15.2084 37.6601 10.5648 37.9852 10.5337 37.4433C10.5025 36.9015 11.3128 36.2512 18.4183 35.899C22.2037 35.7781 25.9935 35.9869 29.7311 36.5221L30.9154 36.7118C30.9154 36.4138 30.9154 36.2783 30.9154 36.0074C30.9154 34.7611 30.7284 34.1379 30.5726 32.8916C30.5726 32.7019 30.5726 32.6207 30.5726 32.4039H29.7935C25.6779 31.7826 21.504 31.5014 17.3276 31.564L17.2964 31.4556Z" fill="#C800FF"/>
<path d="M51.4219 34.5173C56.8133 35.5468 59.1507 38.4187 58.3716 44C58.1221 45.8222 57.7579 47.6312 57.2808 49.4187C55.5044 48.931 54.6007 48.7143 52.6684 48.3079C53.1047 46.3301 53.3541 45.3276 53.6034 43.2956C54.0397 39.4754 52.5438 37.5517 48.8352 36.9286C45.1266 36.3054 42.4464 38.6897 41.8231 43.0517C41.6361 44.5148 41.5115 45.2463 41.231 46.6823C39.0183 46.4926 37.8652 46.4113 35.4967 46.3572C36.2508 41.8653 36.2508 37.3022 35.4967 32.8104C38.2392 33.0271 39.5481 33.1626 42.1348 33.4877C42.1348 35.6823 41.9166 36.766 41.6673 38.9064H42.0101C42.7269 35.5197 45.5941 33.4877 51.3595 34.4631L51.4219 34.5173ZM51.3595 33.8941C49.9134 33.4774 48.3657 33.4033 46.8758 33.6795C45.3858 33.9557 44.0075 34.5722 42.8827 35.4655C42.8827 34.7611 42.8827 34.3818 42.8827 33.6503C42.8827 33.4064 42.8827 33.2709 42.8827 33.0271H41.9478C39.3611 32.702 38.021 32.5665 35.3097 32.3498H34.3748C34.3748 32.5936 34.3748 32.702 34.3748 32.9458C35.11 37.4388 35.11 41.9996 34.3748 46.4926C34.3748 46.7094 34.3748 46.8177 34.3748 47.0616H35.2474C37.6471 47.0616 38.769 47.1971 40.9817 47.3867H41.792C41.807 47.2063 41.807 47.0252 41.792 46.8448C42.0724 45.3818 42.1971 44.6773 42.4153 43.2143C42.9762 39.1773 44.9708 36.9557 48.6482 37.5517C51.3907 38.0123 53.1047 39.2586 52.6996 43.2414C52.497 44.9262 52.1848 46.5996 51.7647 48.2537C51.7824 48.4249 51.7824 48.5972 51.7647 48.7685L52.4815 48.9039C54.4137 49.3104 55.3174 49.5271 57.0938 49.9877L57.7483 50.1773C57.7483 49.9606 57.7483 49.8793 57.7483 49.6626C58.2444 47.8784 58.6087 46.0685 58.839 44.2439C59.6493 38.5271 57.3431 35.1675 51.2037 34.0025L51.3595 33.8941Z" fill="#C800FF"/>
<path d="M72.2089 39.3129C73.2928 39.5352 74.3152 39.9424 75.2167 40.5108C76.1182 41.0793 76.881 41.7976 77.4608 42.6243C78.0405 43.4509 78.4258 44.3694 78.5942 45.3264C78.7626 46.2835 78.7108 47.2601 78.4418 48.1996C78.0267 50.7505 77.3807 53.269 76.5096 55.7316L72.6764 54.4311C73.5178 52.8597 73.923 52.0469 74.6709 50.3671H74.4216C72.6764 53.4016 69.5599 53.8351 65.0722 52.372C62.9218 51.6676 59.743 50.2858 60.3975 47.3868C61.1766 43.702 69.7469 45.707 74.3904 46.6823C74.7021 44.4336 73.4867 43.2415 70.5572 42.4016C68.1702 41.8012 65.6664 41.6352 63.2023 41.9139C63.2023 40.6676 63.3581 40.0444 63.3893 38.7439C66.2575 38.5305 69.1466 38.7505 71.9284 39.3942L72.2089 39.3129ZM73.9853 48.6873C70.6818 47.9557 65.415 46.3843 64.9787 48.1996C64.7605 49.0666 65.7266 49.9065 67.4095 50.4484C70.2767 51.3966 73.6425 51.2612 73.9853 48.6873ZM71.9596 38.771C69.0969 38.1064 66.1199 37.8953 63.1711 38.1479H62.7348V38.5543C62.7348 39.8277 62.7348 40.4779 62.5478 41.6971C62.5478 42.0493 62.5478 42.2119 62.5478 42.5641H63.4828C65.8567 42.3179 68.2634 42.493 70.5572 43.0789C73.2373 43.8375 73.8918 44.7587 73.8918 46.0321C68.7496 44.9483 60.6468 43.3227 59.8053 47.2784C59.4314 49.0395 60.0858 51.3153 64.9787 52.9681C66.1754 53.5301 67.5141 53.8243 68.8743 53.8243C70.2344 53.8243 71.5732 53.5301 72.7699 52.9681L72.0531 54.3227C71.9726 54.5083 71.879 54.6892 71.7726 54.8646L72.4582 55.1085L76.2603 56.4089L76.8524 56.5986L77.0083 56.0838C77.8901 53.6129 78.5465 51.0853 78.9716 48.5247C79.5053 46.4421 79.0757 44.2606 77.7755 42.451C76.4753 40.6414 74.4088 39.3489 72.0219 38.8523L71.9596 38.771ZM67.8147 49.8523C66.8174 49.5272 65.7266 48.9311 65.8825 48.308C66.1318 47.1971 70.4637 48.308 72.988 48.904L73.4867 49.0395C72.7075 50.638 70.1209 50.6109 67.8147 49.8523Z" fill="#C800FF"/>
<path d="M91.6553 43.5936C93.9796 43.8212 96.2213 44.477 98.2311 45.5172C97.9506 47.1428 97.8259 47.9285 97.4831 49.4729C95.6014 48.1737 93.351 47.3406 90.9697 47.0615C90.2741 46.9018 89.5471 46.8747 88.8384 46.9823C88.1297 47.0899 87.4562 47.3295 86.864 47.6847C86.2719 48.0399 85.7752 48.5022 85.408 49.0401C85.0408 49.5779 84.8118 50.1784 84.7367 50.8005C84.574 51.4062 84.5593 52.0349 84.6937 52.6458C84.828 53.2568 85.1085 53.8364 85.5168 54.3472C85.9251 54.858 86.4523 55.2885 87.0641 55.611C87.676 55.9335 88.3589 56.1407 89.0686 56.2192C91.4708 56.7328 94.0086 56.4121 96.143 55.3251C95.8002 56.6798 95.6444 57.33 95.3016 58.6034C93.0025 59.5008 90.4235 59.7012 87.9779 59.1724C86.7753 58.9875 85.629 58.5905 84.6097 58.0058C83.5903 57.4211 82.7195 56.6611 82.0508 55.7727C81.3822 54.8842 80.9299 53.8862 80.7219 52.84C80.5138 51.7938 80.5544 50.7217 80.8412 49.6896C80.9807 48.6224 81.3879 47.5947 82.0341 46.6792C82.6802 45.7636 83.5496 44.9825 84.5808 44.3908C85.612 43.7992 86.78 43.4115 88.0024 43.255C89.2247 43.0985 90.4717 43.1771 91.6553 43.4852V43.5936ZM91.6553 42.8079C90.3868 42.4984 89.0561 42.4321 87.7552 42.6136C86.4543 42.795 85.2142 43.2199 84.1207 43.8589C83.0272 44.4978 82.1063 45.3355 81.4217 46.3142C80.7371 47.2928 80.3051 48.389 80.1555 49.5271C79.845 50.6281 79.7958 51.7727 80.0109 52.8908C80.226 54.009 80.7009 55.0773 81.4067 56.0306C82.1124 56.9839 83.0342 57.8022 84.1158 58.4355C85.1973 59.0688 86.416 59.5039 87.6974 59.7143C90.2439 60.2739 92.9329 60.0736 95.3327 59.1453H95.7379V58.766C96.0807 57.4655 96.2365 56.8152 96.5793 55.4606L96.8286 54.3768L95.7067 54.9187C93.6935 55.9411 91.3017 56.2423 89.0375 55.7586C88.3968 55.7 87.7778 55.5239 87.2213 55.2417C86.6648 54.9596 86.1835 54.578 85.8094 54.1221C85.4352 53.6662 85.1767 53.1464 85.0509 52.5971C84.9251 52.0479 84.9348 51.4817 85.0796 50.9359C85.155 50.3888 85.3657 49.8623 85.6973 49.3925C86.0288 48.9228 86.4734 48.5211 87.0003 48.2148C87.5273 47.9085 88.1243 47.705 88.7503 47.6181C89.3763 47.5313 90.0164 47.5633 90.6269 47.7118C92.9044 47.9975 95.0546 48.8013 96.8598 50.0418L97.6701 50.6108C97.6701 50.1502 97.8259 49.9335 97.9194 49.4729C98.2311 47.9014 98.3869 47.1157 98.6674 45.4901V45.0295L98.3246 44.867C96.2185 43.8123 93.8841 43.1481 91.4683 42.9162L91.6553 42.8079Z" fill="#C800FF"/>
<path d="M107.3 36.3596C106.583 42.8349 106.085 45.8694 104.931 51.6403C108.697 48.5418 112.256 45.2581 115.59 41.8054C118.488 41.0738 120.015 40.6133 123.194 39.5566C119.828 42.9162 118.114 44.5689 114.811 47.6847C116.589 50.8137 118.971 53.6545 121.854 56.0837C119.486 56.8474 117.073 57.4986 114.624 58.0344C112.912 56.0103 111.498 53.8075 110.416 51.4778C108.414 53.2185 106.268 54.8303 103.996 56.3004C103.716 57.6551 103.56 58.3054 103.28 59.633C101.316 59.633 100.35 59.7955 98.5115 59.7955C100.639 52.2921 102.087 44.6555 102.843 36.9556C104.62 36.766 105.524 36.6576 107.393 36.3596H107.3ZM108.141 35.4655H107.456C105.617 35.7635 104.713 35.8719 102.906 36.0615H102.251C102.251 36.3596 102.251 36.5221 102.251 36.8472C101.533 44.5208 100.105 52.1316 97.9817 59.6059C97.9817 59.8226 97.9817 59.931 97.9817 60.1748H98.6361C100.238 60.2092 101.84 60.164 103.436 60.0394H104.152V59.4433C104.402 58.2241 104.557 57.628 104.807 56.3817C106.68 55.1643 108.47 53.8525 110.167 52.4532C111.172 54.513 112.459 56.4598 114 58.2512L114.187 58.495H114.686C117.46 57.8719 118.893 57.4926 121.947 56.5714L123.599 56.0566L122.82 55.3522C120.043 53.066 117.726 50.392 115.964 47.4408C119.08 44.5689 120.638 43.0517 123.817 39.8817L125.594 37.931L123.287 38.7438C120.171 39.8004 118.582 40.2339 115.683 40.9926H115.403L115.153 41.2364C111.414 44.9753 109.575 46.6551 105.804 49.9064C106.801 44.6502 107.238 41.9137 107.861 36.1157C107.861 35.8177 107.861 35.6551 107.861 35.33L108.141 35.4655Z" fill="#C800FF"/>
<path d="M133.759 28.8547C133.479 34.2734 133.292 36.9828 132.918 42.5912C130.393 43.7291 129.147 44.2168 126.685 45.1379C126.965 39.7192 127.09 37.0099 127.308 31.2389C129.77 30.3719 131.017 29.9113 133.541 28.8547H133.759ZM129.147 49.0665C131.297 48.1995 133.042 48.4434 133.011 49.8793C132.795 50.8108 132.302 51.6767 131.58 52.39C130.858 53.1033 129.933 53.639 128.897 53.9434C126.716 54.7562 125.158 54.3227 125.251 52.9138C125.485 52.0429 125.963 51.2357 126.643 50.5644C127.322 49.8931 128.183 49.3785 129.147 49.0665ZM134.445 27.798L133.572 28.1503C130.954 29.1798 129.708 29.6404 127.339 30.5074L126.529 30.7783C126.513 31.031 126.513 31.2843 126.529 31.537C126.279 37.2266 126.124 40.0173 125.812 45.4902V46.1946L126.685 45.8424C129.053 44.9212 130.269 44.4335 132.918 43.2956L133.853 42.8621V42.1847C134.195 36.766 134.351 34.0567 134.6 28.6379V27.9064L134.445 27.798ZM129.178 48.4163C128.038 48.8497 127.033 49.5133 126.247 50.3521C125.461 51.1909 124.917 52.1805 124.659 53.2389C124.659 54.9729 126.373 55.6503 129.178 54.5936C130.481 54.2017 131.644 53.5206 132.552 52.6176C133.459 51.7147 134.079 50.6213 134.351 49.4458C134.351 47.6577 132.201 47.3054 129.489 48.4163H129.178Z" fill="#C800FF"/>
<path d="M18.8546 56.0567C22.5417 55.5374 26.2845 55.3829 30.0116 55.5961C29.7934 56.8424 29.6688 57.4655 29.4506 58.6847C26.0306 58.4887 22.5958 58.6708 19.2286 59.2266C13.6813 60.1749 10.9076 61.4754 10.8453 62.532C10.6583 65.431 31.0712 58.7389 29.8557 64.7808C29.2013 67.9778 24.6824 69.7389 16.9536 71.798C13.5878 72.7192 8.57026 73.8842 4.48768 74.6971C4.48768 73.1798 4.48768 72.4212 4.48768 70.904C8.50804 70.4833 12.4802 69.7673 16.3614 68.7636C21.9399 67.3547 24.0903 66.7315 24.2773 65.5394C24.7136 62.8301 3.33459 71.5813 3.45925 64.6724C3.45925 61.0961 10.409 57.4113 18.8858 56.0567H18.8546ZM18.8858 55.4606C9.34937 56.8966 2.33732 61.2044 2.30615 65.0246C2.30615 69.8202 11.6556 67.165 17.5145 66.0813C19.9765 65.6207 23.4358 65.1601 23.3735 65.702C23.3112 66.2439 21.3166 66.9212 16.3926 68.1675C12.6203 69.1094 8.76278 69.7711 4.86166 70.1453L3.39692 70.4434V71.4187C3.39692 72.936 3.39692 73.6946 3.39692 75.2118V75.7266L4.14487 75.5641C8.32094 74.7512 13.4943 73.532 16.9847 72.5567C28.952 69.3054 30.3544 66.7586 30.7595 64.835C31.601 60.6897 24.5266 60.9335 18.2936 61.8276C15.9563 62.1798 11.8114 62.9655 11.8425 62.4237C11.8737 61.8818 12.7152 61.1232 19.1351 59.9581C22.4327 59.4295 25.7914 59.2476 29.139 59.4163H30.1362V58.7118C30.3855 57.4655 30.5102 56.8695 30.7284 55.6232V55.1626H30.0427C26.2446 54.92 22.4268 55.0655 18.6676 55.5961L18.8858 55.4606Z" fill="#C800FF"/>
<path d="M49.8633 55.7587C54.5691 56.5715 55.7534 59.0912 53.79 64.4015C53.0109 66.5419 52.6369 67.5986 51.8578 69.8203C50.5027 69.4425 49.1173 69.1527 47.7129 68.9533C48.3985 66.8941 48.7725 65.8646 49.4581 63.8597C50.7359 60.0937 49.9568 58.4409 46.6845 58.0887C43.4122 57.7365 39.7347 60.3104 38.5816 64.6454C38.2077 66.1084 37.9895 66.84 37.6155 68.3301C35.6833 68.3301 34.6861 68.3301 32.6292 68.5739C33.8446 63.1552 34.5302 60.4459 35.7457 55.0272C38.2077 55.0272 39.3919 55.0272 41.667 55.2168C40.8567 57.303 40.4204 58.3597 39.5478 60.6355H39.8594C40.545 58.8952 41.9443 57.4357 43.7899 56.536C45.6355 55.6363 47.7978 55.3595 49.8633 55.7587ZM49.8633 55.271C48.3939 54.964 46.8608 54.9713 45.3953 55.2921C43.9298 55.613 42.5757 56.2379 41.4488 57.1134L42.1656 55.3794L42.3837 54.7833H41.5423C39.2673 54.6208 38.083 54.5937 35.5898 54.5937H34.7796V55.1355C33.6888 60.5542 33.0343 63.2636 31.6631 68.6823V69.2784H32.4422C34.4991 69.1158 35.5587 69.0616 37.3974 69.0345H38.1142V68.4656C38.4882 66.9754 38.7063 66.2439 39.0803 64.7808C40.2022 60.771 43.1005 58.3597 46.3105 58.739C48.7413 59.0099 49.8944 59.9853 48.5855 63.9139C47.8999 65.9188 47.5571 66.9212 46.8715 69.0074C46.8715 69.2242 46.8715 69.3326 46.6845 69.5493H47.3389C48.7287 69.7555 50.1026 70.036 51.4527 70.3892L52.0448 70.5518C52.1213 70.3751 52.1838 70.194 52.2318 70.0099C53.0109 67.8153 53.3849 66.7316 54.164 64.5912C56.1585 59.1725 55.1613 56.1922 49.8321 55.2981L49.8633 55.271Z" fill="#C800FF"/>
<path d="M68.3442 61.2587C69.2899 61.46 70.1734 61.8389 70.9327 62.3687C71.692 62.8986 72.3087 63.5665 72.7393 64.3257C73.17 65.0848 73.4043 65.9168 73.4256 66.763C73.447 67.6093 73.255 68.4493 72.8631 69.2242C71.8346 71.9335 71.3048 73.1798 70.3699 75.8892L66.5055 74.5074L68.7493 70.7685H68.5C66.4743 73.4779 63.389 73.8843 59.1506 72.5296C57.1249 71.8523 54.1643 70.5247 55.2239 67.6798C56.5639 64.0493 64.5733 66.2981 69.0922 67.6798C69.7778 65.8104 68.874 64.6996 66.1627 63.7242C63.9639 62.9187 61.5988 62.513 59.2129 62.5321L60.2414 59.8227C63.0383 59.8861 65.8012 60.372 68.4065 61.2587H68.3442ZM68.4065 69.1429C65.2901 68.2217 60.2414 66.5961 59.5558 68.3301C59.2441 69.1429 60.0856 69.9557 61.675 70.4976C64.3863 71.4459 67.5339 71.3375 68.4065 69.1429ZM68.4065 60.771C65.7377 59.844 62.8968 59.3482 60.0232 59.3079H59.5869V59.6601L58.5585 62.3695L58.278 63.1281H59.2129C61.5398 63.0578 63.8595 63.3893 66.038 64.1035C68.5 64.9976 68.9987 65.8104 68.7182 66.8128C63.7942 65.404 56.2523 63.4261 54.6941 67.4089C54.0708 69.1158 54.3824 71.4188 59.026 72.8276C60.2229 73.3413 61.5399 73.6085 62.8748 73.6085C64.2097 73.6085 65.5266 73.3413 66.7236 72.8276C66.4432 73.3424 66.2873 73.5863 65.9757 74.101L65.664 74.6429L66.3497 74.8867L70.2141 76.2685L70.775 76.4582C70.8513 76.2999 70.9138 76.1369 70.962 75.9705C71.897 73.2611 72.3956 71.9335 73.424 69.2784C73.8127 68.4462 73.9936 67.5517 73.9547 66.6542C73.9158 65.7567 73.6579 64.8766 73.1983 64.0723C72.7386 63.2679 72.0876 62.5576 71.2884 61.9885C70.4892 61.4194 69.56 61.0044 68.5624 60.771H68.4065ZM61.7373 70.0099C60.8023 69.6848 59.8051 69.0887 60.0232 68.5197C60.4284 67.436 64.5109 68.5197 66.9418 69.3055L67.4404 69.468C66.412 70.7956 63.9188 70.7685 61.7373 70.0099V70.0099Z" fill="#C800FF"/>
<path d="M86.6382 67.1108C89.047 67.5695 91.3741 68.3076 93.5567 69.3054L92.6218 72.3398C90.442 71.1504 88.0519 70.2809 85.5474 69.7659C82.2128 68.9802 79.6573 69.766 78.847 72.0689C78.0367 74.3719 79.6884 76.5123 83.3347 77.4876C85.9185 78.1733 88.6906 78.0971 91.2194 77.2709C90.9077 78.463 90.7519 79.032 90.4714 80.197C87.8138 80.8602 84.9951 80.8602 82.3374 80.197C76.4161 78.7068 73.4867 74.7783 74.9202 70.9852C76.3538 67.1921 80.8104 65.9999 86.6382 67.3004V67.1108ZM86.8252 66.7856C80.5922 65.431 75.9175 66.7856 74.3593 70.7955C72.801 74.8054 75.7617 79.0862 82.1816 80.7118C84.9432 81.3877 87.8657 81.3877 90.6272 80.7118H91.1259V80.3866C91.4064 79.1945 91.5622 78.6256 91.8738 77.4334L92.1232 76.4852L90.8766 76.8645C88.4772 77.6436 85.8507 77.7197 83.397 77.0812C80.2806 76.2684 78.6288 74.3719 79.3456 72.4211C80.0624 70.4704 82.4621 69.7118 85.2981 70.4433C87.6982 70.9359 89.9848 71.7787 92.0608 72.9359L92.9958 73.4778L93.2451 72.5837C93.6191 71.3645 93.7749 70.7413 94.1489 69.5221V69.1699L93.7749 69.0073C91.5274 67.9738 89.1255 67.2169 86.6382 66.7586L86.8252 66.7856Z" fill="#C800FF"/>
<path d="M103.934 63.0468C102.844 67.8424 102.252 70.1453 101.223 74.7242C105.462 72.5234 109.513 70.0605 113.346 67.3547C116.406 66.8428 119.433 66.1916 122.415 65.404C119.303 67.7587 116.047 69.9655 112.661 72.0148C115.375 74.97 118.344 77.7416 121.542 80.3054C118.708 80.7848 115.848 81.1375 112.972 81.3621C111.071 79.3112 109.293 77.177 107.643 74.968C104.527 76.5936 103.186 77.3522 100.319 78.6798L99.7272 81.7956C97.4522 81.7956 96.3614 81.633 94.2422 81.4434C95.8316 74.2636 96.9847 70.8227 98.9792 63.2365C100.634 63.2515 102.288 63.1882 103.934 63.0468ZM104.807 62.3966H104.059C102.033 62.532 100.943 62.5862 99.135 62.5862C98.8971 62.6132 98.6562 62.6132 98.4183 62.5862V63.1552C96.4237 70.7143 95.3018 74.1552 93.6189 81.2808C93.6189 81.4976 93.6189 81.6059 93.6189 81.8227H94.398C96.5484 82.0123 97.5145 82.0936 99.9142 82.1749H100.756C100.756 81.9581 100.756 81.8498 100.756 81.6059C100.974 80.468 101.098 79.899 101.317 78.8966C103.747 77.7315 104.963 77.1084 107.55 75.7537C108.978 77.8175 110.528 79.816 112.193 81.7414L112.442 82.0123H113.003C115.869 81.7783 118.719 81.4166 121.542 80.9286L123.506 80.6306L122.54 79.8448C119.445 77.4035 116.559 74.7684 113.907 71.9606C117.46 69.7389 119.299 68.4926 123.038 65.7291C123.942 65.0788 124.41 64.7266 125.313 64.0222L122.509 64.7808C119.543 65.5924 116.525 66.2528 113.471 66.7586H113.128L112.879 66.9483C109.524 69.3008 106.006 71.4723 102.345 73.4508C103.249 69.3054 103.747 67.2463 104.714 62.9384V62.3424L104.807 62.3966Z" fill="#C800FF"/>
<path d="M135.13 55.1354C134.881 60.5542 134.725 63.0739 134.444 68.3571C131.328 69.2783 129.894 69.6847 127.09 70.3891C127.09 65.431 127.09 62.9655 127.308 58.0074C130.424 56.9778 131.858 56.4088 135.13 55.1354ZM130.331 74.3177C132.917 73.6946 134.974 74.1552 134.974 75.5911C134.974 77.0271 132.917 78.5985 130.175 79.1946C127.432 79.7906 125.718 79.1946 125.781 77.6773C125.843 76.1601 127.806 74.968 130.331 74.3177V74.3177ZM136.252 53.9975L135.13 54.4581C132.014 55.7586 130.331 56.3276 127.339 57.3571L126.342 57.6822V58.3325C126.342 63.2906 126.123 65.7561 126.03 70.6601V71.2832L127.058 71.0394C129.926 70.335 131.39 69.9286 134.444 69.0345L135.597 68.6822V68.0049C135.847 62.5862 135.971 60.0394 136.221 54.7019V53.9975H136.252ZM130.362 73.6675C127.245 74.4532 124.783 76.1872 124.69 77.8941C124.596 79.601 126.84 80.6034 130.144 79.8448C133.447 79.0862 136.19 77.1355 136.19 75.2931C136.19 73.4507 133.603 72.8547 130.362 73.6675V73.6675Z" fill="#C800FF"/>
<path d="M4.14493 101.493C4.14493 99.8941 4.14493 99.0813 4.14493 97.4827C7.51039 97.1406 10.8166 96.4493 13.993 95.4236C18.73 93.9064 20.5999 93.0394 20.7869 91.5493C21.2232 88.1355 3.17883 98.1601 3.39698 90.9532C3.39698 87.2414 9.41177 82.8251 16.642 80.468C19.7128 79.5334 22.9272 79.0037 26.1784 78.8965C25.8979 80.4138 25.7421 81.1995 25.4928 82.7438C22.5766 82.7473 19.6811 83.1684 16.9225 83.9901C12.2166 85.4532 9.84807 87.0517 9.75458 88.2438C9.4741 91.4409 26.864 82.5271 25.8044 90.3571C25.2123 94.5295 21.192 97.0763 14.6163 99.0813C11.1903 100.083 7.69234 100.889 4.14493 101.493V101.493Z" fill="#C800FF"/>
<path d="M31.165 77.8128C32.8794 77.598 34.6068 77.4713 36.3384 77.4335C35.5592 79.8448 35.0606 81.4162 34.3127 84.234H34.562C36.0579 79.6823 39.2055 76.7832 43.6621 77.2709C48.1186 77.7586 48.8977 80.2241 47.8381 87.1872C47.4018 89.8965 47.2148 91.4138 46.9967 94.4754C45.5663 94.1748 44.1044 94.0023 42.6336 93.9606C42.8829 91.1158 43.0699 89.7611 43.5062 87.1601C44.3165 82.229 43.6932 80.468 40.7637 80.3596C37.8343 80.2512 34.5308 83.8276 33.627 89.6527C33.3154 91.6034 33.1907 92.6059 32.9726 94.6379C31.165 94.8547 30.2612 94.9901 28.3914 95.3153C29.1081 87.8374 29.9808 83.665 31.165 77.8128Z" fill="#C800FF"/>
<path d="M49.8636 90.9261C50.3623 86.0222 58.7144 87.5394 63.4826 88.4877C63.7008 86.1847 62.5788 85.0197 59.7429 84.1798C57.4733 83.5962 55.069 83.5309 52.762 83.9901C53.0113 82.6354 53.1359 81.9581 53.4164 80.6305C56.1485 80.339 58.9212 80.5986 61.5192 81.3891C63.6168 81.9044 65.418 83.0812 66.5706 84.6896C67.7233 86.2979 68.1446 88.2222 67.7522 90.0862C67.5469 92.9101 67.5469 95.7425 67.7522 98.5665L63.2021 97.5369C63.4826 95.4236 63.6696 94.3941 64.0747 92.4433H63.7943C62.6723 96.0468 59.8363 97.3744 55.1928 96.4803C54.4207 96.426 53.6688 96.2384 52.981 95.9286C52.2933 95.6187 51.6835 95.1928 51.1873 94.6756C50.6911 94.1585 50.3185 93.5605 50.0912 92.9167C49.8639 92.2729 49.7866 91.5962 49.8636 90.9261V90.9261ZM63.2333 90.601C59.8052 89.9778 54.5072 88.7586 54.3202 91.0886C54.3202 92.1995 55.2863 93.0936 57.0004 93.4729C59.9922 94.1231 63.0151 93.3645 63.2645 90.601H63.2333Z" fill="#C800FF"/>
<path d="M70.1519 91.7118C70.4012 87.133 74.6707 85.7783 81.1842 87.3498C83.9348 88.03 86.5741 89.0133 89.0377 90.2759C89.0377 91.5222 89.0377 92.1182 89.0377 93.3916C86.478 91.9213 83.6708 90.8061 80.7167 90.0862C76.9769 89.2192 74.4837 90.2488 74.4837 92.7956C74.4837 95.3424 76.4471 97.6995 80.7167 98.5936C83.4578 99.3287 86.3901 99.3287 89.1312 98.5936C89.1312 99.8941 89.3181 100.544 89.5051 101.872C86.6208 102.426 83.6321 102.426 80.7479 101.872C77.8903 101.53 75.2623 100.325 73.3248 98.4669C71.3874 96.6091 70.264 94.2176 70.1519 91.7118Z" fill="#C800FF"/>
<path d="M94.0863 84.7488C96.2367 84.9656 97.2028 85.0469 99.696 85.1552C98.9489 88.9763 98.7917 92.867 99.2285 96.7242C103.623 94.6109 105.461 93.6355 110.946 90.7907C114.397 90.7154 117.84 90.4803 121.262 90.0863C116.805 92.5247 115.029 93.473 111.289 95.3153C115.683 99.0272 118.083 100.924 122.789 104.852C119.236 104.852 117.522 104.852 114.156 104.852C111.04 101.899 109.419 100.463 106.521 97.6183C103.685 98.973 102.314 99.569 99.696 100.761C99.883 102.062 99.9765 102.712 100.226 104.067C97.7638 103.823 96.5484 103.687 94.211 103.389C92.8082 97.239 92.7659 90.9128 94.0863 84.7488V84.7488Z" fill="#C800FF"/>
<path d="M126.715 102.766C126.715 101.384 128.492 100.301 131.047 100.057C133.603 99.8129 135.784 100.599 135.815 102.035C135.847 103.47 133.914 104.744 131.265 104.906C128.616 105.069 126.809 104.175 126.715 102.766ZM126.715 83.2858C130.175 82.7168 131.982 82.3646 135.753 81.5247C135.41 86.6996 135.254 89.4089 135.099 94.8276C131.826 95.2882 130.268 95.4779 127.214 95.803C126.746 90.7365 126.622 88.271 126.622 83.2858H126.715Z" fill="#C800FF"/>
<path d="M14.024 110C16.8878 109.392 19.8357 109.136 22.7812 109.241C22.7812 111.084 22.7812 111.951 22.7812 113.874C20.028 113.584 17.2388 113.685 14.5226 114.172C10.253 115.039 8.28966 116.15 8.28966 117.451C8.28966 120.892 23.872 113.712 24.2772 123.465C24.4641 128.64 20.3192 131.052 13.7435 131.133C10.3388 131.141 6.94646 130.776 3.64613 130.049V125.741C6.588 126.534 9.67344 126.847 12.7462 126.663C17.2651 126.337 19.1973 125.66 19.1661 123.953C19.1661 119.862 2.80468 126.202 2.89817 118.805C2.89817 114.985 7.63521 111.626 14.024 110.081V110ZM14.024 109.296C6.79376 111.084 2.11906 114.931 2.08789 118.914C2.08789 123.953 8.72597 123.411 13.463 123.249C15.4264 123.249 18.387 123.249 18.4182 123.926C18.4494 124.603 16.7041 125.498 12.7462 125.823C9.77366 126.04 6.78063 125.764 3.92661 125.01L2.86701 124.793V130.483L3.42797 130.618C6.75953 131.432 10.1914 131.896 13.65 132C23.9032 132 25.0251 126.581 24.9004 123.411C24.62 116.611 18.6675 116.963 13.8058 117.397C11.9983 117.586 8.91296 117.938 8.91296 117.397C8.91296 116.855 9.41159 116.069 14.3668 115.094C17.035 114.634 19.7712 114.551 22.4696 114.85H23.3422C23.3422 114.416 23.3422 114.199 23.3422 113.766C23.3422 111.897 23.3422 111.057 23.3422 109.133C23.3273 108.898 23.3273 108.663 23.3422 108.429H22.9682C19.9677 108.325 16.9656 108.599 14.0551 109.241L14.024 109.296Z" fill="#C800FF"/>
<path d="M40.0155 105.963C44.5032 105.746 46.4977 109.025 48.056 119.293C48.6793 123.384 49.0844 125.525 50.0817 130.131C47.9625 130.131 46.9652 130.131 44.8148 130.131C44.0046 125.877 43.6929 123.845 43.1943 119.998C42.2593 112.736 41.0127 110.515 37.8339 110.759C34.6551 111.002 31.9438 115.744 32.5671 123.52C32.7853 126.229 32.9099 127.475 33.2527 130.239L28.0482 130.212C27.274 122.836 27.0553 115.423 27.3938 108.022L32.5359 107.345C32.2243 110.786 32.0996 112.574 31.975 116.286H32.2243C32.7229 110.271 35.3408 106.342 40.0466 105.99L40.0155 105.963ZM40.0466 105.15C38.4137 105.315 36.8725 105.893 35.6147 106.813C34.3569 107.733 33.438 108.955 32.9723 110.325C32.9723 109.133 32.9723 108.537 33.2216 107.372C33.2216 106.993 33.2216 106.803 33.2216 106.424H32.4736C30.4479 106.667 29.3572 106.803 27.3314 107.128H26.6147C26.6147 107.453 26.6147 107.616 26.6147 107.968C26.2841 115.341 26.4818 122.725 27.2068 130.076C27.2068 130.483 27.2068 130.672 27.2068 131.079H34.2812C34.2812 130.672 34.2812 130.456 34.2812 130.049C33.9072 127.34 33.7825 125.931 33.5644 123.303C32.9411 116.069 35.0291 111.734 38.1144 111.463C40.4829 111.301 41.7919 112.33 42.7268 119.835C43.1943 123.682 43.5059 125.714 44.3162 129.941C44.3162 130.374 44.3162 130.591 44.5032 131.052H51.3594C51.3594 130.618 51.3594 130.401 51.1101 129.968C50.0817 125.416 49.6765 123.276 49.0221 119.131C47.4327 108.727 45.3446 104.663 40.296 104.934L40.0466 105.15Z" fill="#C800FF"/>
<path d="M60.7087 107.914C66.5053 108.727 69.3102 112.384 70.9307 118.047C72.0837 122.188 73.4775 126.275 75.1068 130.293H69.9335C69.1855 127.069 68.8739 125.525 68.3752 122.599H68.0324C68.5622 128.017 66.1314 131.052 60.4282 131.025C58.3028 131.07 56.2396 130.399 54.6709 129.152C53.1023 127.904 52.15 126.177 52.0137 124.333C50.549 117.099 60.4594 117.234 65.882 117.126C65.7814 115.831 65.1278 114.616 64.0496 113.719C62.9714 112.821 61.5464 112.307 60.0542 112.276C57.3785 112.065 54.6947 112.596 52.3877 113.793C52.1072 111.815 52.0137 110.867 51.8268 108.998C54.6305 107.977 57.6982 107.631 60.7087 107.995V107.914ZM66.5988 120.16C62.6409 120.323 56.2833 120.16 57.0936 123.466C57.2857 124.263 57.7998 124.975 58.5428 125.472C59.2859 125.969 60.2089 126.218 61.145 126.175C62.0208 126.269 62.9098 126.166 63.7263 125.875C64.5429 125.584 65.2596 125.115 65.8074 124.513C66.3552 123.912 66.7158 123.198 66.8544 122.44C66.993 121.683 66.905 120.907 66.5988 120.187V120.16ZM60.6152 107.236C57.5387 106.849 54.399 107.176 51.5151 108.185L51.11 108.374C51.11 108.618 51.11 108.727 51.11 108.97C51.297 110.84 51.3904 111.68 51.6398 113.793C51.6398 114.335 51.6398 114.606 51.8268 115.175L52.7617 114.687C54.9968 113.533 57.5861 113.003 60.1789 113.17C63.2954 113.495 64.2926 114.525 64.8848 116.34C58.9635 116.34 49.6764 116.34 51.2346 124.468C51.3972 126.544 52.4462 128.493 54.1758 129.931C55.9055 131.37 58.191 132.195 60.584 132.244C62.383 132.469 64.2126 132.085 65.6965 131.173C67.1805 130.261 68.206 128.889 68.5622 127.34C68.7804 128.397 68.905 128.911 69.1543 130.049C69.1543 130.51 69.3102 130.727 69.4037 131.214H76.3222C76.1352 130.808 76.0729 130.618 75.9171 130.239C74.2718 126.257 72.8572 122.206 71.6787 118.101C69.7153 111.382 66.2872 107.941 60.6464 107.128L60.6152 107.236ZM60.8645 125.2C59.6491 125.2 58.0909 124.685 57.7481 123.52C57.2806 121.434 62.3293 121.244 65.3522 121.135H65.9755C66.0114 121.716 65.8978 122.295 65.643 122.832C65.3883 123.369 64.9988 123.85 64.503 124.239C64.0073 124.629 63.4178 124.917 62.7775 125.083C62.1372 125.249 61.4624 125.289 60.8022 125.2H60.8645Z" fill="#C800FF"/>
<path d="M82.6799 111.084C86.0382 111.525 89.2911 112.44 92.3097 113.793C92.8084 115.364 93.0577 116.177 93.6498 117.803C90.5908 116.179 87.1898 115.101 83.646 114.633C79.688 114.227 77.8805 116.231 79.1894 119.889C79.8113 121.704 81.0596 123.309 82.7653 124.486C84.471 125.664 86.5517 126.357 88.7258 126.473C90.0758 126.637 91.4502 126.559 92.7637 126.242C94.0773 125.925 95.3018 125.376 96.3612 124.63C97.1091 126.364 97.5142 127.34 98.3869 129.074C96.1654 130.469 93.4552 131.149 90.7203 130.997C86.9543 130.776 83.3579 129.552 80.4196 127.492C77.4814 125.432 75.3436 122.636 74.2966 119.483C72.2085 112.953 75.8548 110.027 82.6799 110.867V111.084ZM82.4929 110.163C75.2938 109.268 71.3671 112.465 73.5486 119.401C74.6579 122.806 76.9459 125.831 80.1018 128.066C83.2576 130.3 87.1283 131.636 91.1878 131.892C93.9827 132.095 96.7717 131.444 99.0725 130.049L99.4465 129.86C99.35 129.684 99.2667 129.503 99.1971 129.318C98.3245 127.502 97.9194 126.608 97.2026 124.901C96.9533 124.36 96.8286 124.089 96.6105 123.52L95.6444 124.197C94.6248 124.893 93.45 125.396 92.1946 125.676C90.9392 125.956 89.6306 126.006 88.3518 125.823C86.4441 125.738 84.612 125.147 83.102 124.13C81.5921 123.113 80.4768 121.718 79.9062 120.133C78.7531 116.909 80.4048 115.229 83.8953 115.554C87.2882 115.943 90.5543 116.93 93.494 118.453L94.9587 119.158C94.7718 118.67 94.6783 118.426 94.5224 117.938C93.9303 116.313 93.681 115.5 93.1824 113.956C93.2001 113.812 93.2001 113.666 93.1824 113.522L92.6214 113.278C89.5032 111.819 86.1363 110.804 82.6487 110.271L82.4929 110.163Z" fill="#C800FF"/>
<path d="M100.942 107.778C101.879 112.367 103.181 116.893 104.838 121.325C107.705 118.828 110.835 116.569 114.187 114.579C117.833 114.741 119.703 114.796 123.537 114.823C120.015 116.828 118.394 117.776 115.434 119.7C120.171 124.116 122.602 126.337 126.747 130.781H120.202C117.085 127.394 115.216 125.714 111.787 122.355C109.992 123.61 108.324 124.997 106.801 126.5C107.456 128.126 107.798 128.966 108.577 130.672H103.186C99.3226 123.168 96.5383 115.279 94.8962 107.182C97.2647 107.48 98.4801 107.616 100.942 107.86V107.778ZM101.69 107.318H100.786L94.7715 106.667H93.8989C93.9137 106.866 93.9137 107.065 93.8989 107.264C95.5597 115.401 98.3757 123.328 102.282 130.862C102.282 131.187 102.5 131.35 102.656 131.648H109.699L109.357 130.889C108.671 129.318 108.359 128.559 107.767 127.069C109.037 125.817 110.412 124.648 111.881 123.574C114.997 126.663 116.618 128.207 119.641 131.323L119.984 131.675H128.429L127.463 130.618C123.537 126.392 121.23 124.278 116.743 120.079C119.516 118.264 121.043 117.369 124.316 115.527L126.341 114.362H123.537C119.672 114.362 117.771 114.362 114.187 114.145H113.751L113.502 114.281C110.574 116.041 107.794 117.978 105.181 120.079C103.773 116.145 102.659 112.135 101.846 108.076V107.453L101.69 107.318Z" fill="#C800FF"/>
<path d="M135.816 108.158C135.816 113.414 135.598 116.042 135.535 121.298H129.303C128.523 116.123 128.181 113.576 127.557 108.564C130.674 108.564 132.45 108.374 135.847 108.131L135.816 108.158ZM132.731 126.256C133.155 126.203 133.587 126.227 134 126.325C134.413 126.424 134.798 126.596 135.132 126.829C135.465 127.063 135.74 127.355 135.938 127.685C136.136 128.015 136.254 128.377 136.283 128.749C136.294 129.099 136.219 129.447 136.064 129.769C135.908 130.092 135.675 130.382 135.38 130.621C135.085 130.859 134.735 131.04 134.354 131.152C133.972 131.263 133.568 131.303 133.167 131.268C132.329 131.284 131.513 131.034 130.871 130.565C130.229 130.097 129.805 129.442 129.677 128.722C129.458 127.259 130.798 126.229 132.793 126.256H132.731ZM137.156 107.291H135.972C132.575 107.535 130.892 107.616 127.682 107.751H126.56V108.401C127.215 113.414 127.588 115.961 128.43 121.108V121.759H129.334C131.765 121.759 133.011 121.759 135.567 121.759H136.502V121.108C136.657 115.69 136.751 113.197 136.969 107.887V107.209L137.156 107.291ZM132.731 125.498C130.237 125.498 128.586 126.825 128.897 128.64C129.074 129.542 129.612 130.361 130.416 130.951C131.221 131.541 132.239 131.865 133.292 131.865C133.777 131.883 134.262 131.817 134.718 131.671C135.174 131.525 135.593 131.302 135.949 131.015C136.306 130.728 136.593 130.382 136.795 129.998C136.997 129.613 137.109 129.198 137.125 128.776C137.078 128.311 136.925 127.859 136.675 127.447C136.424 127.034 136.081 126.669 135.666 126.374C135.25 126.078 134.771 125.858 134.256 125.726C133.742 125.594 133.202 125.554 132.668 125.606L132.731 125.498Z" fill="#C800FF"/>
</g>
<defs>
<clipPath id="clip0">
<rect width="137" height="132" fill="white"/>
</clipPath>
</defs>
</svg>
