<svg width="137" height="132" viewBox="0 0 137 132" fill="none" xmlns="http://www.w3.org/2000/svg">
<g clip-path="url(#clip0)">
<path d="M13.4008 6.71921C16.9858 6.87325 20.5504 7.281 24.0591 7.93843C24.5578 9.45567 24.7759 10.1872 25.2122 11.6232C21.8069 10.9151 18.3321 10.4887 14.8344 10.3498C9.66106 10.3498 7.38603 10.7833 7.51069 11.8941C7.82234 14.8744 27.2379 12.165 28.8897 18.83C29.7623 22.3522 24.9318 23.3005 16.1433 23.3276C11.5176 23.2913 6.89798 23.029 2.30619 22.5419C2.30619 20.9975 2.30619 20.2389 2.30619 18.6946C6.39165 19.5328 10.5744 19.9601 14.7721 19.968C20.7245 19.968 23.0619 19.7512 22.8126 18.4778C22.0334 15.5788 1.09076 18.9655 0.99727 12.0296C0.99727 8.39902 6.04595 6.61084 13.4631 6.61084L13.4008 6.71921ZM13.4631 5.96059C4.95519 5.90641 0 8.12808 0 12.0567C0 16.9335 8.97543 17.0419 15.1772 17.4754C17.7639 17.6108 21.566 17.936 21.6906 18.5049C21.8153 19.0739 19.7273 19.399 14.5227 19.3719C10.4891 19.344 6.47293 18.9076 2.5555 18.0714L1.12193 17.7734V18.7488C1.12193 20.2931 1.12193 21.0517 1.12193 22.5961V23.1108H1.93221C6.6595 23.5958 11.4144 23.8491 16.1745 23.8695C29.7934 23.8966 30.3544 20.9975 29.8246 18.9655C28.6404 14.3596 20.6622 13.3842 14.7409 12.9507C12.4347 12.7882 8.50796 12.5443 8.50796 11.9754C8.50796 11.4064 8.88194 10.8374 14.9591 11C18.413 11.1633 21.8439 11.5894 25.2122 12.2734L26.3342 12.5172C26.2695 12.2334 26.1862 11.953 26.0848 11.6773C25.6485 10.2143 25.4304 9.48276 24.9318 8.12808C24.888 7.93417 24.8255 7.74383 24.7448 7.55912L23.9968 7.28818C20.4619 6.60364 16.8636 6.19561 13.245 6.06897L13.4631 5.96059Z" fill="#C800FF"/>
<path d="M44.6905 8.12809C50.269 8.56159 54.3827 12.165 56.5331 19.7241C57.2235 22.0808 57.7645 24.4686 58.1536 26.8769L52.9803 26.0099C52.5883 23.8565 52.0682 21.7223 51.4221 19.6158C49.8638 14.5764 47.3706 12.1379 43.6309 11.8128C39.299 11.4335 37.9277 14.9557 39.299 19.9409C39.7665 21.6478 39.9846 22.4877 40.3586 24.1404C37.9589 23.8695 36.7435 23.734 34.1256 23.5173C33.0036 18.183 31.4201 12.93 29.3886 7.80297L35.6216 8.12809C36.3509 10.4027 36.9439 12.7088 37.3979 15.037H37.7408C37.211 10.8374 38.7692 7.72168 44.6905 8.12809ZM44.3788 7.34237C40.4832 7.12563 38.1459 8.34484 37.2733 10.6749C36.9928 9.72661 36.8681 9.23893 36.5877 8.26356C36.5877 7.93843 36.4318 7.77587 36.3383 7.45075H35.4034L29.1705 7.12563H28.2979L28.5472 7.83006C30.5409 12.9793 32.093 18.2499 33.1907 23.5985C33.203 23.8061 33.203 24.0141 33.1907 24.2217H34.1256C36.6188 24.4384 37.8342 24.5468 40.3586 24.8448H41.2312C41.246 24.6464 41.246 24.4473 41.2312 24.2488C40.8572 22.5961 40.6702 21.7562 40.2028 20.0493C38.8938 15.3079 40.2028 12.1108 43.9114 12.4631C46.7785 12.734 49.2094 14.1971 50.7364 19.4261C51.5156 22.1355 51.8272 23.3547 52.3258 25.7931C52.3258 26.0641 52.3258 26.1724 52.3258 26.4434L53.1361 26.5788L58.2783 27.4458H58.9639C58.9639 27.1749 58.9639 27.0394 58.9639 26.7956C58.5751 24.3694 58.0341 21.9635 57.3433 19.5887C55.193 11.867 50.7676 7.58622 44.4723 7.12563L44.3788 7.34237Z" fill="#C800FF"/>
<path d="M68.0015 9.40142C74.3903 9.75364 77.943 14.2783 78.8156 19.995C79.4258 23.5861 79.8003 27.2044 79.9376 30.8325L75.5434 30.0467C75.6992 27.7438 75.7615 26.5246 75.7615 24.0049H75.4499C75.0759 28.665 72.1464 29.9655 67.2224 29.0443C65.5696 28.8818 64.0177 28.2709 62.787 27.2982C61.5563 26.3255 60.7092 25.0405 60.3662 23.6256C59.2131 18.5591 68.5625 18.9655 73.954 18.9655C73.8738 17.643 73.2105 16.3982 72.1019 15.49C70.9933 14.5817 69.5248 14.0798 68.0015 14.0886C65.347 13.9537 62.6996 14.4402 60.335 15.4975C59.8052 13.7635 59.4935 12.7881 58.8391 11.0541C61.7034 9.89007 64.8409 9.32411 68.0015 9.40142V9.40142ZM74.4214 21.6748C70.6193 21.6748 64.6669 20.9433 65.072 23.463C65.2822 24.1382 65.7333 24.7381 66.3605 25.1763C66.9878 25.6145 67.7587 25.8684 68.5625 25.9014C71.6789 26.4433 74.7954 25.3325 74.3591 21.729L74.4214 21.6748ZM67.721 8.48024C64.4854 8.42255 61.2806 9.03552 58.3716 10.2684L57.9353 10.431C58.022 10.6164 58.0949 10.8064 58.1535 10.9999C58.8079 12.8423 59.1196 13.7093 59.6494 15.4433C59.8052 15.931 59.8987 16.1477 60.0233 16.6354L60.8336 16.2561C63.1177 15.2546 65.666 14.7965 68.2196 14.9285C71.3361 15.2265 72.5204 16.2832 73.0502 18.0714C67.1601 18.0714 58.4651 18.0714 59.6805 23.4901C59.9927 25.1202 60.9065 26.6177 62.2839 27.7565C63.6613 28.8954 65.4275 29.6136 67.3159 29.8029C70.9933 30.5073 73.5488 29.9926 74.9824 27.9334C74.9824 28.7463 74.9824 29.1256 74.9824 29.9113C74.9824 30.2364 74.9824 30.399 74.9824 30.7241L75.7303 30.8596L80.0934 31.6724H80.7479C80.7634 31.4197 80.7634 31.1664 80.7479 30.9137C80.642 27.2872 80.2986 23.6689 79.7194 20.0763C78.691 13.2216 74.2033 8.77827 67.908 8.48024H67.721ZM68.5625 25.1699C67.4405 25.0073 66.0693 24.4926 65.9135 23.6256C65.6018 22.0812 70.4012 22.3522 73.2372 22.4876H73.8293C73.6735 24.8177 71.1803 25.5763 68.5625 25.197V25.1699Z" fill="#C800FF"/>
<path d="M91.4682 10.4852C94.4058 10.5152 97.2719 11.2769 99.7268 12.6798C99.945 14.9285 100.007 16.0394 100.101 18.0985C97.7904 16.5282 94.9608 15.6449 92.0292 15.5788C88.1024 15.362 86.139 18.1256 86.513 22C86.4521 23.6719 87.0966 25.3055 88.325 26.593C89.5534 27.8805 91.281 28.7331 93.1823 28.9901C94.5337 29.0989 95.8947 28.9073 97.1376 28.4334C98.3805 27.9595 99.4645 27.2187 100.288 26.2808C100.288 28.1773 100.288 29.1256 100.132 30.9679C99.1852 31.7784 98.0413 32.3939 96.7846 32.769C95.5279 33.1441 94.1904 33.2693 92.8706 33.1354C86.8558 32.5123 82.6798 28.1502 81.8695 21.6748C81.0592 15.1995 84.425 10.3226 91.4682 10.5394V10.4852ZM91.3124 9.48272C83.8328 9.23888 80.2489 14.5492 81.028 21.6748C81.8071 28.8005 86.2325 33.4606 92.6836 34.1921C94.047 34.3348 95.4299 34.2092 96.7299 33.8246C98.0299 33.4401 99.2139 32.8064 100.194 31.9704L100.599 31.7266C100.614 31.5552 100.614 31.3831 100.599 31.2118C100.599 29.3694 100.599 28.5024 100.755 26.4975V24.8177L99.7268 25.7389C98.9484 26.6248 97.919 27.3201 96.7392 27.757C95.5594 28.1939 94.2694 28.3574 92.9953 28.2315C91.3558 27.9958 89.8706 27.2505 88.8158 26.1342C87.761 25.0178 87.2085 23.6065 87.261 22.1625C86.9493 18.6945 88.788 16.4187 92.2161 16.7438C94.9213 16.8033 97.5413 17.5783 99.7268 18.9655L100.786 19.6157C100.786 18.9926 100.786 18.6945 100.786 18.0714C100.786 15.931 100.599 14.8202 100.412 12.6527C100.412 12.3817 100.412 12.2734 100.412 12.0024L99.945 11.7857C97.392 10.2941 94.3883 9.49282 91.3124 9.48272V9.48272Z" fill="#C800FF"/>
<path d="M107.643 1.02956C108.385 7.56526 108.687 14.1331 108.547 20.6995C112.193 16.2562 114.094 13.9803 117.927 9.64532C120.857 9.34729 122.321 9.18473 125.313 8.80542C122.197 11.7586 120.857 13.33 117.927 16.4729C119.999 20.3066 122.341 24.0255 124.939 27.6084C122.321 28.4212 121.044 28.7463 118.55 29.3695C116.805 26.1453 115.964 24.4113 114.125 20.6724L108.391 26.8768C108.391 28.7734 108.235 29.5862 108.079 31.5099C106.209 31.8079 105.305 31.9163 103.498 32.133C104.369 21.7677 103.982 11.3516 102.345 1.05665H107.643V1.02956ZM108.328 0H101.41L101.566 1.05665C103.275 11.3729 103.693 21.8198 102.812 32.2143C102.812 32.5394 102.812 32.702 102.812 33.0271H103.498C105.305 32.8103 106.209 32.6749 108.079 32.4039H108.765C108.781 32.1422 108.781 31.8799 108.765 31.6182C109.076 29.803 109.076 28.8818 109.076 27.0936L113.907 21.9187C115.559 25.3054 116.338 26.8768 117.927 29.8571L118.114 30.1823H118.519C121.013 29.5591 122.29 29.2069 124.752 28.3941L126.186 27.9606L125.625 27.0936C123.143 23.7135 120.905 20.2027 118.924 16.5813C121.542 13.5468 123.007 12.1108 125.781 9.37438L127.495 7.74877L125.313 7.99261C122.197 8.31773 120.857 8.4803 117.927 8.75123H117.647L117.429 8.99507C114.125 12.7882 112.473 14.766 109.263 18.6404C109.335 12.7614 109.054 6.88317 108.422 1.02956C108.422 0.623153 108.422 0.406404 108.422 0H108.328Z" fill="#C800FF"/>
<path d="M134.632 0.704433C134.476 6.28571 134.413 9.07635 134.164 14.6305C132.076 15.1724 131.048 15.4433 128.991 15.9039C128.991 10.0246 128.991 7.01724 128.742 0.812808H134.632V0.704433ZM131.297 20.7266C133.105 20.1847 134.413 20.7266 134.413 22.298C134.323 23.1456 133.959 23.9536 133.363 24.6294C132.768 25.3051 131.965 25.8212 131.048 26.1182C129.209 26.7685 127.931 26.1182 127.931 24.4384C128.011 23.6125 128.362 22.8239 128.942 22.166C129.522 21.5081 130.307 21.0086 131.204 20.7266H131.297ZM135.442 0H127.931C127.931 0.325123 127.931 0.487685 127.931 0.839901C128.181 7.12562 128.212 10.1872 128.181 16.1207V16.8522L128.928 16.6626C130.985 16.1749 132.045 15.9039 134.133 15.335L134.912 15.1182V14.4409C135.13 9.02217 135.193 6.31281 135.348 0.731527V0H135.442ZM131.297 19.9951C130.176 20.3562 129.197 20.9901 128.479 21.8212C127.761 22.6522 127.333 23.6454 127.246 24.6823C127.246 26.7143 128.742 27.6897 131.079 26.8498C132.231 26.4601 133.237 25.8008 133.985 24.9448C134.733 24.0889 135.194 23.0697 135.317 22C135.317 20.1305 133.572 19.2906 131.297 19.9951V19.9951Z" fill="#C800FF"/>
<path d="M1.77603 49.1478C1.77603 47.6034 1.77603 46.8448 1.77603 45.3005C6.45336 45.3836 11.1312 45.1572 15.769 44.6231C22.3136 43.8645 24.8067 43.4852 24.9002 42.266C25.1184 39.5566 0.43595 45.8694 0.404785 38.8251C0.43595 35.2217 7.5415 32.5123 16.6416 32.0788C20.8147 32.005 24.9869 32.2589 29.1075 32.8374C29.1075 34.1108 29.3256 34.734 29.4503 35.9532C25.5724 35.365 21.6359 35.1199 17.7012 35.2217C11.4683 35.5468 8.6011 36.468 8.66343 37.5246C8.66343 40.4236 32.0993 35.9532 31.4448 42.0492C31.102 45.3005 25.8975 46.5197 16.7662 47.6576C12.746 48.2808 6.79355 48.7685 1.77603 49.1478Z" fill="#C800FF"/>
<path d="M35.0602 32.8374C37.8339 33.0271 39.1428 33.1626 41.7606 33.4877C41.7606 35.6823 41.5425 36.766 41.3243 38.9064H41.636C42.3528 35.5197 45.2822 33.4877 50.9854 34.4631C56.6885 35.4384 58.7766 38.3374 58.0286 43.9458C57.7826 45.7685 57.4184 47.5776 56.9378 49.3645C55.4118 48.936 53.862 48.5743 52.2943 48.2808C52.724 46.6544 53.0465 45.0081 53.2604 43.3498C53.6967 39.5296 52.2008 37.5788 48.461 36.9557C44.7213 36.3325 42.0411 38.7438 41.4178 43.1059C41.1997 44.569 41.075 45.3005 40.8257 46.7635C38.5818 46.5739 37.4287 46.4926 35.0291 46.4384C35.7996 41.9302 35.8101 37.3483 35.0602 32.8374V32.8374Z" fill="#C800FF"/>
<path d="M60.3973 47.2242C61.2076 43.5394 69.7467 45.5444 74.4526 46.5468C74.7642 44.2981 73.58 43.1059 70.6193 42.2389C68.2193 41.6498 65.7081 41.484 63.2333 41.7513C63.2333 40.5049 63.2333 39.8818 63.4203 38.6084C66.2987 38.3648 69.2042 38.5852 71.9906 39.2586C73.092 39.4631 74.1353 39.857 75.0591 40.4172C75.9828 40.9774 76.7683 41.6925 77.3694 42.5205C77.9705 43.3486 78.375 44.2728 78.5592 45.2388C78.7433 46.2047 78.7034 47.193 78.4416 48.1453C78.0172 50.6972 77.3607 53.2158 76.4783 55.6774L72.645 54.3498C73.4865 52.7783 73.8916 51.9926 74.6396 50.3128H74.3902C72.6139 53.3202 69.5285 53.7537 65.0408 52.2907C62.984 51.4778 59.774 50.1232 60.3973 47.2242ZM74.0786 48.5517C70.744 47.7931 65.446 46.2217 65.0097 48.037C64.8227 48.904 65.7888 49.7439 67.4717 50.2857C70.3388 51.2611 73.6111 51.1256 74.0786 48.5517V48.5517Z" fill="#C800FF"/>
<path d="M80.6543 49.7439C81.5581 45.1109 85.5783 42.6996 91.5308 43.5666C93.8527 43.8205 96.0904 44.4843 98.1065 45.5173C97.826 47.1429 97.7014 47.9286 97.3897 49.473C95.481 48.1787 93.2123 47.3467 90.814 47.0616C90.1229 46.8973 89.399 46.8652 88.6923 46.9676C87.9855 47.0699 87.3127 47.3043 86.7202 47.6546C86.1277 48.0048 85.6297 48.4626 85.2604 48.9964C84.8911 49.5302 84.6593 50.1272 84.581 50.7464C84.3982 51.363 84.369 52.0065 84.4954 52.6338C84.6218 53.2611 84.9009 53.8576 85.314 54.3835C85.7271 54.9094 86.2647 55.3525 86.8907 55.6831C87.5168 56.0137 88.2169 56.2242 88.9441 56.3006C91.3424 56.8194 93.8787 56.5086 96.0185 55.4336C95.7068 56.7611 95.5198 57.4114 95.177 58.7119C92.864 59.6023 90.2745 59.7931 87.8222 59.2538C86.6197 59.0616 85.4746 58.6592 84.4562 58.0712C83.4378 57.4831 82.5672 56.7215 81.8971 55.8325C81.227 54.9435 80.7713 53.9455 80.5577 52.899C80.3441 51.8524 80.377 50.7791 80.6543 49.7439V49.7439Z" fill="#C800FF"/>
<path d="M102.626 36.9827C104.433 36.7931 105.337 36.6576 107.207 36.3867C106.49 42.8621 105.991 45.8694 104.838 51.6404C108.605 48.5518 112.164 45.2771 115.497 41.8325C118.098 41.1948 120.657 40.4351 123.163 39.5566C119.766 42.9433 118.052 44.596 114.718 47.6847C116.525 50.8052 118.916 53.6434 121.792 56.0837C118.675 57.0049 117.304 57.3842 114.531 58.0345C112.825 56.0115 111.421 53.8083 110.354 51.4778C108.334 53.2127 106.179 54.8241 103.903 56.3005C103.623 57.6552 103.467 58.3325 103.155 59.633C101.192 59.633 100.257 59.7956 98.3872 59.7956C100.496 52.3014 101.913 44.6729 102.626 36.9827V36.9827Z" fill="#C800FF"/>
<path d="M125.438 52.9139C125.676 52.0478 126.156 51.2462 126.836 50.5799C127.515 49.9136 128.373 49.4031 129.334 49.0937C131.515 48.1996 133.229 48.4434 133.198 49.8794C132.987 50.8158 132.496 51.6873 131.774 52.4056C131.051 53.124 130.124 53.6638 129.084 53.9705C126.903 54.7833 125.345 54.3498 125.438 52.9139ZM127.401 31.239C129.863 30.372 131.141 29.9114 133.634 28.8547C133.323 34.2735 133.167 36.9828 132.762 42.6183C130.237 43.7291 128.991 44.2439 126.529 45.1651C127.059 39.6922 127.183 36.9015 127.401 31.239V31.239Z" fill="#C800FF"/>
<path d="M18.2625 56.165C21.9876 55.6159 25.7721 55.4342 29.5442 55.6232C29.326 56.8695 29.2013 57.4926 28.9832 58.7389C25.5399 58.5561 22.0838 58.7564 18.6988 59.335C13.1204 60.3374 10.2844 61.6379 10.222 62.7217C10.222 65.5936 30.6661 58.766 29.4818 64.835C28.8274 68.0591 24.2773 69.8202 16.4862 71.9606C13.058 72.8818 8.00936 74.101 3.73979 74.9409C3.73979 73.4237 3.73979 72.665 3.73979 71.1478C7.80382 70.7009 11.8174 69.9577 15.7382 68.9261C21.379 67.4631 23.5294 66.8128 23.7164 65.6207C24.1527 62.9113 2.55553 71.8522 2.68019 64.8892C2.68019 61.3128 9.69225 57.5468 18.2625 56.165V56.165ZM18.2625 55.5419C8.57032 57.1133 1.55826 61.4212 1.5271 65.2414C1.5271 70.0911 10.8765 67.3276 17.1094 66.2168C19.5715 65.7291 23.0931 65.2414 23.0307 65.7833C22.9684 66.3251 20.9427 67.0296 15.9875 68.303C12.128 69.3086 8.17636 70.0247 4.1761 70.4434H2.68019V71.4187C2.68019 72.9631 2.68019 73.7217 2.68019 75.2389V75.8621L3.45931 75.6995C7.69771 74.8325 12.8087 73.5862 16.455 72.5838C28.4534 69.2241 29.8246 66.6503 30.2298 64.7537C31.0712 60.5813 23.9968 60.8522 17.7639 61.8005C15.3954 62.1798 11.2193 62.9926 11.2505 62.4507C11.2816 61.9089 12.0919 61.1232 18.5742 59.931C21.9092 59.3697 25.31 59.1604 28.7027 59.3079H29.7L29.8558 58.6035C30.074 57.3571 30.1986 56.7611 30.4168 55.5148V55.0542H29.7311C25.8993 54.842 22.0522 55.0056 18.2625 55.5419V55.5419Z" fill="#C800FF"/>
<path d="M49.4585 55.7315C54.1955 56.4902 55.4109 59.0099 53.4476 64.3473C52.6685 66.4606 52.2945 67.5443 51.5154 69.766C50.1529 69.3846 48.756 69.1037 47.3393 68.9261C48.0249 66.8399 48.3677 65.8374 49.0534 63.8325C50.3623 60.0665 49.5832 58.4138 46.2485 58.0345C42.9139 57.6552 39.2676 60.2833 38.1457 64.6453C37.7406 66.1084 37.5536 66.8399 37.1796 68.3301C35.2162 68.3301 34.219 68.3301 32.1309 68.601C33.3463 63.0468 34.0008 60.4729 35.2474 55.0542C37.7406 55.0542 38.9248 55.0542 41.231 55.2168C40.3896 57.303 39.9844 58.3596 39.1118 60.5H39.4235C40.129 58.7449 41.5588 57.2799 43.4358 56.3889C45.3128 55.4979 47.5034 55.2444 49.5832 55.6773L49.4585 55.7315ZM49.739 55.1626C48.2553 54.8534 46.7071 54.8646 45.2295 55.1952C43.7519 55.5257 42.3899 56.1657 41.2622 57.0591C41.5738 56.3276 41.6985 55.9754 41.979 55.298L42.1971 54.702H41.3557C39.0495 54.5665 37.8652 54.5123 35.3721 54.5394H34.2813V55.1084C33.1905 60.5271 32.5361 63.101 31.3518 68.6552V69.2241H32.1309C34.1878 69.0616 35.2474 69.0074 37.1484 68.9532H37.8652L38.021 68.3842C38.395 66.8941 38.582 66.1626 38.9872 64.6995C40.0779 60.6897 43.0074 58.2512 46.2174 58.6035C48.6794 58.8744 49.8636 59.8498 48.5236 63.7783C47.8379 65.7833 47.4951 66.8128 46.8407 68.899C46.7641 69.0757 46.7016 69.2568 46.6537 69.4409H47.3081C48.7103 69.6255 50.0955 69.8971 51.453 70.2537L52.0452 70.4163C52.1217 70.2396 52.1842 70.0585 52.2322 69.8744C53.0113 67.6527 53.4164 66.5961 54.1955 64.4557C56.1589 59.037 55.1305 56.0567 49.739 55.1626V55.1626Z" fill="#C800FF"/>
<path d="M68.1571 61.2044C69.1026 61.4067 69.9861 61.7858 70.7459 62.3152C71.5058 62.8446 72.1238 63.5116 72.5569 64.2698C72.99 65.0281 73.2278 65.8592 73.2537 66.7055C73.2797 67.5517 73.0932 68.3927 72.7071 69.1699C71.6475 71.8793 71.1489 73.1256 70.214 75.8349L66.3495 74.4532C67.2222 72.9359 67.6585 72.1773 68.5622 70.6872H68.3441C66.2872 73.3965 63.2019 73.8029 58.9947 72.4212C56.969 71.7709 53.9772 70.4433 55.0368 67.5985C56.3768 63.9409 64.3862 66.1896 68.9674 67.5985C69.6842 65.729 68.7492 64.6453 66.0379 63.6428C63.7738 62.8876 61.3549 62.5463 58.9323 62.6404L59.9296 59.931C62.7502 59.9905 65.5362 60.4859 68.1571 61.3941V61.2044ZM68.1571 69.2783C65.0406 68.3571 59.9296 66.7044 59.2752 68.4384C58.9635 69.2512 59.7738 70.064 61.3632 70.633C64.1057 71.5813 67.2533 71.4458 68.1571 69.2783ZM68.1571 60.8793C65.4666 59.9523 62.6052 59.4566 59.7115 59.4162H59.2752L59.2128 59.6059L58.2156 62.3152L57.9351 63.0739H58.87C61.2058 62.9816 63.5387 63.3043 65.7263 64.0221C68.1883 64.9162 68.6869 65.7561 68.4064 66.7315C63.4512 65.2955 55.9405 63.3448 54.32 67.3276C53.6967 69.0345 54.0083 71.3103 58.7142 72.7463C59.9112 73.26 61.2281 73.5272 62.563 73.5272C63.8979 73.5272 65.2149 73.26 66.4119 72.7463C66.1314 73.2611 65.9756 73.532 65.6639 74.0468L65.3523 74.5886L66.0379 74.8325L69.9023 76.1872L70.4945 76.4039L70.6503 75.9162C71.5852 73.2069 72.115 71.8793 73.1434 69.2241C73.553 68.3789 73.7486 67.467 73.717 66.5502C73.6854 65.6334 73.4273 64.7333 72.9603 63.9109C72.4932 63.0886 71.8281 62.3632 71.0101 61.784C70.1921 61.2048 69.2403 60.7854 68.2194 60.5542L68.1571 60.8793ZM61.4567 70.1182C60.5217 69.7931 59.5245 69.2241 59.7426 68.6281C60.1478 67.5714 64.2615 68.628 66.6924 69.4409L67.191 69.5763C66.1626 70.9039 63.6382 70.8768 61.4567 70.1182Z" fill="#C800FF"/>
<path d="M86.4821 67.0837C88.8984 67.55 91.2346 68.2877 93.4318 69.2783L92.4969 72.3399C90.3338 71.0926 87.9412 70.1762 85.4225 69.6306C82.0567 68.8448 79.5012 69.6305 78.6909 71.9335C77.8807 74.2365 79.5324 76.3498 83.1787 77.3522C85.7708 78.0387 88.5497 77.9721 91.0945 77.1626L90.3777 80.1158C87.7037 80.7219 84.8891 80.6751 82.2437 79.9803C76.3224 78.4631 73.3929 74.5616 74.8265 70.7414C76.2601 66.9212 80.7478 65.7562 86.5444 67.0837H86.4821ZM86.7314 66.5419C80.4985 65.1872 75.7926 66.5419 74.2655 70.5517C72.7385 74.5616 75.6991 78.8424 82.1191 80.468C84.8715 81.2109 87.8084 81.2672 90.5959 80.6306H91.0945V80.2783L91.8736 77.3522L92.1229 76.404L90.8763 76.7833C88.4628 77.5536 85.8265 77.6202 83.3656 76.9729C80.2492 76.1601 78.5974 74.2636 79.3142 72.2857C80.031 70.3079 82.4307 69.5764 85.2667 70.335C87.6779 70.8375 89.9746 71.6893 92.0606 72.8547L92.9955 73.3695C92.9955 73.0173 93.1514 72.8547 93.2449 72.4754C93.6188 71.2562 93.7747 70.6601 94.1486 69.4138V69.0616L93.7747 68.899C91.5055 67.8802 89.0971 67.1155 86.6068 66.6232L86.7314 66.5419Z" fill="#C800FF"/>
<path d="M103.809 63.0468C102.75 67.8424 102.158 70.1453 101.129 74.7241C105.375 72.5327 109.427 70.0694 113.252 67.3547C116.336 66.8658 119.385 66.2236 122.384 65.431C119.255 67.7714 115.989 69.9689 112.598 72.0148C115.34 74.9749 118.329 77.7551 121.542 80.3325C117.958 80.8744 116.244 81.0911 112.972 81.3892C111.058 79.3377 109.279 77.1939 107.643 74.968C104.526 76.6207 103.155 77.3522 100.288 78.6798C100.007 79.9261 99.8827 80.5493 99.6646 81.7685C97.3895 81.7685 96.2676 81.633 94.1484 81.4434C95.7378 74.2636 96.8909 70.8227 98.8854 63.2365C100.54 63.2526 102.194 63.1893 103.841 63.0468H103.809ZM104.713 62.3153H103.934C102.298 62.4578 100.654 62.5211 99.0101 62.5049C98.7826 62.532 98.552 62.532 98.3245 62.5049L98.1687 63.0739C96.143 70.633 95.0522 74.0468 93.3381 81.1995C93.3381 81.4163 93.3381 81.5246 93.3381 81.7414H94.1173C96.2676 81.9581 97.2337 82.0394 99.6334 82.1207H100.506C100.493 81.9312 100.493 81.7412 100.506 81.5517C100.724 80.4138 100.818 79.8448 101.067 78.7069C103.467 77.569 104.713 76.9458 107.3 75.5911C108.804 77.7153 110.437 79.7683 112.193 81.7414L112.442 82.0123H113.034C116.307 81.7143 118.021 81.5246 121.605 80.9828L123.599 80.6576L122.602 79.8719C119.513 77.4259 116.619 74.8008 113.938 72.0148C117.522 69.766 119.361 68.5468 123.1 65.7833L125.407 64.0764L122.571 64.835C119.591 65.6289 116.563 66.2801 113.502 66.7857H113.19L112.91 66.9754C109.565 69.3525 106.035 71.5252 102.345 73.4778C103.28 69.3325 103.778 67.2734 104.713 62.9655V62.3153Z" fill="#C800FF"/>
<path d="M135.13 55.1354C134.85 60.5542 134.725 63.0739 134.414 68.3571C131.297 69.2783 129.895 69.6847 127.028 70.3891C127.028 65.4581 127.183 62.9655 127.277 58.0074C130.393 57.0049 131.858 56.4359 135.13 55.1354V55.1354ZM130.3 74.3177C132.887 73.6946 134.975 74.1551 134.975 75.5911C134.975 77.0271 132.918 78.5985 130.144 79.1945C127.37 79.7906 125.656 79.1945 125.75 77.6773C125.843 76.1601 127.775 74.9679 130.3 74.3177V74.3177ZM136.252 53.9975L135.13 54.4581C132.014 55.7586 130.3 56.3547 127.308 57.3571L126.311 57.7093V58.3596C126.311 63.2906 126.093 65.7561 125.999 70.6872V71.2832L127.059 71.0394C129.926 70.3349 131.391 69.9285 134.476 69.0345L135.629 68.6822V68.032L136.252 54.7019V53.9975V53.9975ZM130.331 73.6675C127.215 74.4532 124.753 76.2143 124.628 77.8941C124.503 79.5739 126.809 80.6034 130.113 79.8448C133.416 79.0862 136.346 77.1354 136.346 75.2931C136.346 73.4507 133.728 72.8817 130.487 73.6675H130.331Z" fill="#C800FF"/>
<path d="M16.2684 80.6306C19.3566 79.6708 22.5912 79.1139 25.8671 78.9779C25.6178 80.4951 25.462 81.2808 25.2126 82.8252C22.2159 82.8647 19.247 83.3315 16.4242 84.2069C11.6872 85.7242 9.34981 87.3227 9.34981 88.5148C9.1005 91.7119 26.6462 82.6355 25.5555 90.4927C24.9322 94.6651 20.7873 97.2119 14.1492 99.271C10.6924 100.283 7.16324 101.097 3.58435 101.709C3.58435 100.111 3.58435 99.3252 3.58435 97.7267C6.98029 97.3407 10.3153 96.6227 13.5259 95.5863C18.2941 94.0148 20.1951 93.1478 20.3821 91.6577C20.7873 88.2439 2.58708 98.4311 2.77406 91.2513C2.77406 87.5395 8.82001 82.9606 16.1437 80.6306H16.2684ZM16.1437 80.0074C7.97857 82.6355 1.99495 87.7833 1.93262 91.6848C1.93262 96.6158 9.66146 93.6897 14.7101 92.3892C16.7982 91.8202 19.8212 91.1971 19.7277 91.8473C19.6342 92.4976 17.9201 93.473 13.7129 94.8276C10.5907 95.8302 7.35071 96.5299 4.05182 96.9138L2.80523 97.0764V98.0789C2.80523 99.6774 2.80523 100.463 2.80523 102.062V102.576H3.42852C7.07846 101.951 10.6798 101.127 14.2115 100.111C24.4959 96.968 25.8983 92.9311 26.2411 90.4385C26.989 85.0198 20.8496 85.8868 15.6762 87.2414C13.6817 87.7562 10.1601 88.867 10.2224 88.2439C10.2848 87.6207 10.9392 86.7537 16.4554 84.9927C19.1802 84.141 22.0389 83.6567 24.9322 83.5567H25.8048L25.9606 82.6897C26.2099 81.1183 26.3657 80.3597 26.6462 78.8153C26.6288 78.6441 26.6288 78.4718 26.6462 78.3005H26.0229C22.6854 78.451 19.39 79.0167 16.2372 79.9803L16.1437 80.0074Z" fill="#C800FF"/>
<path d="M43.2879 77.2167C47.4951 77.6773 48.5547 80.1428 47.4639 87.133C47.0588 89.8423 46.8718 91.3596 46.6537 94.4212C45.215 94.1141 43.7407 93.9505 42.2594 93.9335C42.5399 91.0886 42.7269 89.734 43.132 87.133C43.9735 82.1749 43.319 80.4138 40.3584 80.3054C37.3977 80.197 34.1254 83.8276 33.1905 89.6527C32.91 91.6034 32.7854 92.6059 32.5672 94.665C30.7285 94.8818 29.8247 95.0172 27.9237 95.3423C28.7651 87.8916 29.6066 83.7192 30.6973 77.8399C32.422 77.6238 34.1599 77.4972 35.9018 77.4606C35.1227 79.8448 34.6552 81.4433 33.8761 84.2611H34.2813C35.7772 79.7093 38.8936 76.8103 43.4125 77.2438L43.2879 77.2167ZM43.4125 76.6478C41.9427 76.48 40.4484 76.6817 39.1063 77.229C37.7643 77.7764 36.6306 78.6465 35.8395 79.7364L36.5251 77.5148C36.5251 77.2438 36.5251 77.1084 36.7433 76.8645H35.9953C34.2528 76.9106 32.5149 77.0463 30.7908 77.2709H30.074C30.074 77.5148 30.074 77.6502 30.074 77.8941C29.0144 83.7734 28.1418 87.9729 27.3315 95.4236C27.3315 95.7217 27.3315 95.8842 27.3315 96.1823H28.0172C29.9182 95.8571 30.8532 95.7217 32.6607 95.4778H33.3152C33.3152 95.1798 33.3152 95.0172 33.3152 94.7192C33.5333 92.6601 33.658 91.6847 33.9385 89.7069C34.7487 84.2882 37.4289 81.0369 40.3272 81.1182C42.4776 81.1182 43.4437 82.0936 42.6334 87.2414C42.1971 89.9507 42.0101 91.2241 41.7296 94.096C41.7296 94.3941 41.7296 94.5566 41.7296 94.8547H42.3529C43.8331 94.8623 45.3073 95.0168 46.7471 95.3153H47.4016C47.4016 95.0172 47.4016 94.8818 47.4016 94.5837C47.6198 91.5492 47.8067 90.0862 48.2119 87.3226C49.3026 80.2241 48.3677 77.2167 43.5683 76.7019L43.4125 76.6478Z" fill="#C800FF"/>
<path d="M61.3322 81.2808C63.4221 81.8068 65.2146 82.9858 66.3651 84.5912C67.5157 86.1966 67.9431 88.1151 67.5651 89.9779C67.3436 92.8013 67.3436 95.6347 67.5651 98.4582L62.9839 97.537C63.2644 95.3966 63.4514 94.367 63.8877 92.4163H63.6072C62.4541 96.0197 59.6181 97.3744 54.9746 96.4532C53.4443 96.3426 52.0261 95.7113 51.0282 94.6966C50.0303 93.682 49.5334 92.3659 49.6454 91.0345C50.1752 86.1306 58.5585 87.6478 63.3267 88.5961C63.5137 86.2931 62.3918 85.1281 59.5869 84.2882C57.3105 83.6505 54.8806 83.5477 52.5437 83.9902C52.7619 82.6355 52.9177 81.9582 53.1982 80.6306C55.9406 80.3397 58.7231 80.5992 61.3322 81.3892V81.2808ZM63.0774 90.601C59.6181 89.9508 54.3201 88.7586 54.1019 91.0887C54.1019 92.1995 55.068 93.0936 56.8133 93.4729C59.9297 94.1503 62.8281 93.4729 63.0462 90.601H63.0774ZM61.4256 80.8473C58.7647 80.0089 55.9132 79.7304 53.1047 80.0345H52.6684V80.4409C52.3879 81.7685 52.2321 82.4187 51.9827 83.8005L51.8269 84.7759L52.7307 84.5591C54.9839 84.1014 57.3348 84.1574 59.5558 84.7217C62.1113 85.4803 62.6722 86.3744 62.6722 87.702C57.4677 86.6453 49.5519 85.399 48.9598 90.7636C48.8517 91.5219 48.9205 92.2914 49.1621 93.0262C49.4036 93.7609 49.8129 94.4458 50.3655 95.04C50.9181 95.6342 51.6028 96.1256 52.3786 96.4848C53.1544 96.844 54.0055 97.0636 54.8811 97.1306C56.205 97.5365 57.6356 97.6016 59.001 97.3181C60.3665 97.0345 61.6088 96.4144 62.5787 95.532C62.5787 96.2365 62.3918 96.5887 62.2983 97.2931C62.2048 97.9976 62.2983 97.7537 62.2983 98.0788L63.0462 98.2414L67.3781 99.1897H68.0326C68.0481 98.9641 68.0481 98.7379 68.0326 98.5123C67.8119 95.6979 67.8119 92.8736 68.0326 90.0591C68.4245 88.0588 67.9675 86.0028 66.7465 84.2735C65.5255 82.5442 63.6236 81.2593 61.3945 80.6577L61.4256 80.8473ZM56.8133 92.7956C55.7848 92.5788 54.6317 92.0099 54.6941 91.2242C54.6941 89.8153 59.1506 90.5197 61.7373 90.9803H62.2671C61.6438 92.7685 59.1506 93.2291 56.8133 92.6872V92.7956Z" fill="#C800FF"/>
<path d="M81.0281 87.3227C83.7907 87.9976 86.4411 88.9812 88.9127 90.2488C88.9127 91.4951 88.9127 92.1183 88.9127 93.3646C86.3563 91.8891 83.5481 90.7736 80.5918 90.0592C76.8208 89.1651 74.3588 90.2217 74.3588 92.7685C74.462 94.211 75.1411 95.5769 76.2791 96.6305C77.417 97.684 78.9423 98.3592 80.5918 98.5394C83.3533 99.2154 86.2758 99.2154 89.0374 98.5394C89.0374 99.8128 89.1932 100.463 89.3802 101.791C86.4959 102.345 83.5072 102.345 80.6229 101.791C74.2342 100.653 69.6529 96.372 69.9023 91.739C70.1516 87.106 74.4523 85.8055 80.9657 87.404L81.0281 87.3227ZM81.0281 86.6996C74.1718 85.0198 69.5283 86.4828 69.2478 91.3867C69.388 94.0685 70.6066 96.6225 72.6912 98.6031C74.7757 100.584 77.5939 101.865 80.6541 102.224C83.6627 102.792 86.7767 102.792 89.7853 102.224H90.2528C90.2528 102.062 90.2528 101.98 90.2528 101.845C90.0658 100.517 90.0035 99.867 89.8788 98.5665C89.8788 98.1601 89.8788 97.9434 89.8788 97.537L88.6634 97.8892C86.055 98.5296 83.2936 98.5296 80.6852 97.8892C77.1325 97.1848 74.9198 95.1798 75.0133 92.8498C75.1068 90.5198 77.226 89.734 80.5294 90.4927C83.3759 91.1729 86.0795 92.2429 88.5387 93.6626L89.723 94.3129V93.3917C89.723 92.1183 89.723 91.4951 89.723 90.2759V89.9237C89.5676 89.8677 89.421 89.7949 89.2867 89.7069C86.6969 88.3949 83.9203 87.3838 81.0281 86.6996V86.6996Z" fill="#C800FF"/>
<path d="M99.7273 85.1551C98.9905 88.9683 98.8437 92.85 99.291 96.697C103.654 94.6108 105.524 93.6083 111.009 90.7906C114.47 90.7164 117.924 90.4812 121.356 90.0862C116.899 92.5246 115.123 93.4729 111.383 95.3152C115.746 99.027 118.177 100.924 122.883 104.852C119.33 104.852 117.585 104.852 114.25 104.852C111.134 101.899 109.482 100.463 106.584 97.6182L99.7273 100.815C99.7273 102.116 99.9766 102.766 100.226 104.094C97.7639 103.877 96.5485 103.714 94.18 103.416C92.825 97.2495 92.825 90.9155 94.18 84.7487C96.3615 84.9655 97.4835 85.0468 99.7897 85.1551H99.7273ZM100.756 84.6404H99.8831C97.577 84.6404 96.455 84.4778 94.2735 84.261H93.4944C93.4944 84.4778 93.4944 84.5591 93.4944 84.7758C92.1386 90.9425 92.1386 97.2766 93.4944 103.443C93.4944 103.687 93.4944 103.796 93.4944 104.039H94.367C96.7043 104.337 97.9198 104.473 100.382 104.717H101.286C101.286 104.5 101.286 104.364 101.286 104.121C101.067 102.901 100.974 102.305 100.818 101.113L106.521 98.4039C109.201 101.113 110.635 102.332 113.533 105.042L113.876 105.367H114.468C117.803 105.367 119.517 105.367 123.07 105.367H125.033L123.88 104.446C119.392 100.707 117.086 99.027 112.848 95.3965C116.369 93.6083 118.208 92.6872 122.197 90.4384L124.721 89.0295L121.605 89.4088C117.242 89.8694 115.185 90.0049 111.289 90.1404H110.915L110.635 90.3029C105.929 92.7413 104.153 93.6354 100.288 95.5049C99.9515 92.0405 100.13 88.5529 100.818 85.128C100.818 84.9113 100.818 84.8029 100.818 84.5862L100.756 84.6404Z" fill="#C800FF"/>
<path d="M135.66 81.5247C135.41 86.6996 135.255 89.4089 135.068 94.8276C131.951 95.2882 130.237 95.4779 127.183 95.803C126.716 90.872 126.591 88.4065 126.591 83.4212C130.05 82.8523 131.889 82.5001 135.66 81.6601V81.5247ZM131.047 100.192C133.665 99.9483 135.784 100.734 135.784 102.17C135.784 103.606 133.915 104.879 131.234 105.042C128.554 105.204 126.778 104.31 126.684 102.902C126.591 101.493 128.461 100.436 131.047 100.192ZM136.969 80.6848L135.66 80.9828C131.889 81.8227 130.081 82.202 126.622 82.7981L125.438 82.9877V83.638C125.369 87.7356 125.566 91.8332 126.03 95.9114V96.5345H127.152C130.268 96.2365 131.764 96.0468 135.037 95.6134L136.252 95.4237V94.7734C136.501 89.3547 136.626 86.835 136.875 81.4976V80.7932L136.969 80.6848ZM131.016 99.6503C127.713 99.9754 125.438 101.384 125.562 103.091C125.687 104.798 128.118 106.017 131.266 105.801C134.413 105.584 137.125 103.769 137.125 101.926C137.125 100.084 134.476 99.2168 131.141 99.4064L131.016 99.6503Z" fill="#C800FF"/>
<path d="M13.5878 110.108C16.4579 109.477 19.4184 109.212 22.3762 109.323C22.3762 111.138 22.3762 112.032 22.3762 113.929C19.5992 113.645 16.7875 113.765 14.0552 114.281C9.78567 115.148 7.82229 116.286 7.82229 117.559C7.82229 120.973 23.5605 113.766 23.9033 123.493C24.0903 128.667 19.9142 131.079 13.3384 131.133C9.89236 131.145 6.45816 130.781 3.11643 130.049V125.796C6.07148 126.577 9.16663 126.88 12.2477 126.69C16.7977 126.364 18.7299 125.687 18.6988 123.98C18.6988 119.916 2.27498 126.256 2.33731 118.914C2.33731 115.148 7.13667 111.761 13.5566 110.19L13.5878 110.108ZM13.5566 109.404C6.23289 111.084 1.62052 115.066 1.58936 119.049C1.58936 124.034 8.2586 123.465 13.0268 123.303C14.9902 123.303 17.9508 123.303 17.982 123.953C18.0131 124.603 16.2679 125.525 12.2788 125.877C9.29826 126.078 6.30028 125.812 3.42807 125.091L2.36847 124.874V130.483L2.92944 130.618C6.26836 131.445 9.71235 131.909 13.1826 132C23.467 132 24.6201 126.581 24.4954 123.438C24.2149 116.665 18.1066 117.017 13.3696 117.478C11.5309 117.667 8.44559 118.047 8.44559 117.478C8.44559 117.234 8.94422 116.177 13.9306 115.175C16.6198 114.715 19.3765 114.632 22.0957 114.931H22.9683V113.793C22.9683 111.924 22.9683 111.084 22.9683 109.16V108.483H22.5632C19.5502 108.371 16.535 108.654 13.6189 109.323L13.5566 109.404Z" fill="#C800FF"/>
<path d="M39.7353 105.99C44.223 105.746 46.2175 108.998 47.7446 119.266C48.3679 123.357 48.7419 125.525 49.7703 130.103H44.4723C43.662 125.85 43.3504 123.845 42.8829 119.998C41.948 112.736 40.7014 110.488 37.5226 110.759C34.3438 111.03 31.5701 115.744 32.1934 123.52C32.4116 126.229 32.5363 127.475 32.8791 130.212H27.6122C26.8629 122.843 26.6548 115.441 26.9889 108.049C29.077 107.724 30.1054 107.589 32.1623 107.345C31.8506 110.786 31.726 112.574 31.5701 116.286H31.8506C32.3493 110.271 34.9671 106.342 39.7353 105.99V105.99ZM39.7353 105.123C38.0942 105.297 36.5462 105.88 35.2794 106.804C34.0125 107.727 33.0813 108.95 32.5986 110.325C32.5986 109.133 32.5986 108.537 32.8479 107.372C32.8479 106.993 32.8479 106.803 32.8479 106.424H32.0999C30.0742 106.667 28.9835 106.803 26.9266 107.128H26.241C26.241 107.453 26.241 107.643 26.241 107.968C25.8721 115.322 26.049 122.688 26.7708 130.022C26.7708 130.429 26.7708 130.618 26.7708 131.025H33.627V130.049C33.3154 127.34 33.1595 125.931 32.9414 123.303C32.3493 116.096 34.4373 111.761 37.5538 111.49C39.9223 111.3 41.2312 112.33 42.1661 119.862C42.6336 123.709 42.9453 125.714 43.7244 129.941C43.7244 130.374 43.7244 130.591 43.9114 131.052H50.7988C50.7988 130.618 50.6429 130.401 50.5494 129.968C49.521 125.416 49.1159 123.276 48.4926 119.131C46.872 108.727 44.8151 104.69 39.7353 104.961V105.123Z" fill="#C800FF"/>
<path d="M60.4596 107.887C66.3186 108.699 69.0922 112.357 70.7128 118.02C71.8347 122.168 73.1973 126.264 74.7954 130.293H69.5909C68.8429 127.042 68.5313 125.525 68.0326 122.571H67.721C68.2508 127.99 65.7576 131.052 60.0545 131.025C57.9238 131.078 55.8526 130.409 54.2772 129.161C52.7019 127.913 51.7452 126.182 51.6088 124.332C50.1753 117.071 60.1168 117.207 65.5395 117.126C65.4463 115.826 64.796 114.604 63.717 113.701C62.6381 112.798 61.2088 112.28 59.7117 112.249C57.0273 112.054 54.3392 112.584 52.014 113.766C51.7647 111.788 51.64 110.84 51.4842 108.97C54.2879 107.95 57.3556 107.604 60.3661 107.968L60.4596 107.887ZM66.2562 120.16C62.2983 120.16 55.9407 120.16 56.7198 123.465C56.9178 124.261 57.4333 124.969 58.175 125.465C58.9167 125.961 59.8365 126.212 60.7713 126.175C61.6495 126.274 62.5424 126.175 63.3634 125.886C64.1844 125.597 64.9057 125.129 65.4575 124.527C66.0092 123.924 66.3727 123.208 66.5126 122.448C66.6525 121.688 66.5642 120.909 66.2562 120.187V120.16ZM60.2726 107.209C57.1964 106.808 54.0526 107.136 51.1725 108.158L50.7362 108.32C50.7362 108.564 50.7362 108.672 50.7362 108.916C50.892 110.786 50.9855 111.761 51.2349 113.739C51.2349 114.281 51.2349 114.552 51.4218 115.121L52.3568 114.633C54.6046 113.481 57.2027 112.952 59.8052 113.116C60.8963 113.08 61.9674 113.377 62.8327 113.956C63.6979 114.535 64.3027 115.36 64.5422 116.286C58.5897 116.286 49.2403 116.286 50.7985 124.414C50.9611 126.49 52.0101 128.438 53.7397 129.877C55.4694 131.316 57.7549 132.14 60.148 132.19C61.9612 132.447 63.8186 132.086 65.3337 131.183C66.8488 130.28 67.9048 128.903 68.282 127.34C68.5001 128.424 68.6248 128.938 68.8741 130.049C68.8741 130.51 68.8741 130.727 69.1234 131.214H76.042L75.668 130.239C74.0207 126.239 72.6061 122.17 71.4296 118.047C69.4662 111.3 66.0693 107.86 60.3661 107.047L60.2726 107.209ZM60.5219 125.172C59.2754 125.172 57.7171 124.658 57.4055 123.52C56.9068 121.433 61.9867 121.217 65.0097 121.135H65.6329C65.6747 121.717 65.5651 122.299 65.3123 122.838C65.0595 123.378 64.6701 123.861 64.1729 124.251C63.6758 124.642 63.0837 124.93 62.4408 125.094C61.7979 125.258 61.1207 125.294 60.4596 125.199L60.5219 125.172Z" fill="#C800FF"/>
<path d="M82.5241 111.084C85.8847 111.516 89.139 112.432 92.154 113.793C92.6526 115.365 92.9019 116.15 93.4941 117.803C90.4299 116.183 87.032 115.097 83.4902 114.606C79.5323 114.227 77.6936 116.232 79.0025 119.862C79.6367 121.678 80.8917 123.283 82.6008 124.464C84.3098 125.645 86.3919 126.346 88.5701 126.473C91.3053 126.765 94.0624 126.103 96.2366 124.631C96.9845 126.365 97.3897 127.34 98.2623 129.074C96.0307 130.474 93.3122 131.163 90.5646 131.025C86.785 130.808 83.1741 129.584 80.2239 127.518C77.2737 125.453 75.1278 122.647 74.0785 119.483C72.0216 112.98 75.6679 110.027 82.5241 110.867V111.084ZM82.3371 110.19C75.1381 109.269 71.1802 112.466 73.3617 119.429C74.467 122.835 76.7538 125.862 79.9105 128.097C83.0672 130.333 86.94 131.667 91.0009 131.919C93.8097 132.119 96.6104 131.457 98.9167 130.049L99.2907 129.86L99.0414 129.318C98.1999 127.503 97.7948 126.608 97.0468 124.902C96.7975 124.36 96.704 124.062 96.4547 123.52L95.5198 124.17C93.402 125.519 90.7695 126.111 88.1649 125.823C86.2588 125.731 84.4307 125.134 82.9264 124.112C81.4222 123.09 80.3139 121.692 79.7504 120.106C78.5662 116.882 80.2491 115.202 83.7395 115.527C87.1259 115.986 90.3761 117.017 93.3071 118.562L94.7718 119.293C94.616 118.805 94.5225 118.562 94.3355 118.074C93.7434 116.421 93.4941 115.636 93.0266 114.064L92.8708 113.631L92.3098 113.387C89.1968 111.923 85.8273 110.916 82.3371 110.406V110.19Z" fill="#C800FF"/>
<path d="M100.818 107.751C101.756 112.339 103.057 116.866 104.713 121.298C107.589 118.808 110.718 116.55 114.063 114.552C117.74 114.714 119.61 114.768 123.412 114.796C119.891 116.8 118.27 117.722 115.278 119.672C120.046 124.089 122.477 126.31 126.653 130.754H120.14C117.023 127.367 115.122 125.687 111.694 122.328C109.897 123.581 108.219 124.958 106.677 126.446C107.362 128.098 107.705 128.938 108.453 130.645H103.062C99.1922 123.143 96.4077 115.253 94.7718 107.155C97.1404 107.453 98.3558 107.562 100.818 107.805V107.751ZM101.597 107.291H100.693C98.2311 107.047 97.0157 106.911 94.6472 106.613H93.7746C93.7597 106.821 93.7597 107.029 93.7746 107.236C95.4105 115.379 98.2273 123.308 102.158 130.835L102.532 131.621H109.45L109.139 130.862C108.453 129.291 108.141 128.532 107.518 127.015C108.822 125.782 110.206 124.615 111.663 123.52C114.78 126.635 116.431 128.18 119.454 131.296L119.797 131.648H128.399L127.432 130.591C123.475 126.364 121.2 124.251 116.681 120.052C119.454 118.236 120.981 117.342 124.285 115.5L126.311 114.335H123.475C119.61 114.335 117.709 114.335 114.125 114.091H113.782L113.564 114.227C110.61 115.978 107.808 117.916 105.181 120.025C103.787 116.078 102.674 112.06 101.846 107.995C101.831 107.797 101.831 107.597 101.846 107.399L101.597 107.291Z" fill="#C800FF"/>
<path d="M135.816 108.158C135.629 113.414 135.567 116.042 135.504 121.298H129.271C128.492 116.123 128.149 113.576 127.526 108.564C130.643 108.564 132.419 108.374 135.847 108.131L135.816 108.158ZM132.731 126.256C133.157 126.199 133.592 126.219 134.009 126.316C134.426 126.413 134.815 126.584 135.152 126.818C135.489 127.053 135.766 127.345 135.967 127.677C136.167 128.01 136.285 128.375 136.315 128.749C136.325 129.099 136.25 129.447 136.095 129.769C135.939 130.092 135.706 130.382 135.411 130.621C135.116 130.859 134.766 131.04 134.385 131.152C134.003 131.263 133.599 131.303 133.198 131.268C132.355 131.29 131.532 131.043 130.883 130.574C130.234 130.105 129.805 129.447 129.677 128.722C129.458 127.259 130.798 126.229 132.793 126.256H132.731ZM137.187 107.291H136.003C132.575 107.535 130.923 107.643 127.651 107.751H126.56V108.401C127.215 113.414 127.588 115.961 128.43 121.108V121.759H129.334C131.796 121.759 133.011 121.759 135.567 121.759H136.502V121.108C136.657 115.69 136.751 113.197 136.969 107.887V107.209L137.187 107.291ZM132.762 125.498C130.237 125.498 128.586 126.825 128.897 128.64C129.075 129.547 129.618 130.369 130.428 130.96C131.239 131.55 132.265 131.871 133.323 131.865C133.806 131.879 134.287 131.811 134.74 131.663C135.192 131.516 135.607 131.292 135.96 131.005C136.313 130.718 136.598 130.374 136.798 129.991C136.998 129.609 137.109 129.196 137.125 128.776C137.078 128.311 136.925 127.859 136.675 127.447C136.424 127.034 136.081 126.669 135.666 126.374C135.25 126.078 134.771 125.858 134.256 125.726C133.742 125.594 133.202 125.554 132.668 125.606L132.762 125.498Z" fill="#C800FF"/>
</g>
<defs>
<clipPath id="clip0">
<rect width="137" height="132" fill="white"/>
</clipPath>
</defs>
</svg>
