<svg width="155" height="34" viewBox="0 0 155 34" fill="none" xmlns="http://www.w3.org/2000/svg">
<path d="M12.4126 33.7503C19.6502 33.7503 24.6378 30.7878 24.6378 24.0002V7.50008H19.5752L20.0627 13.5751H19.5002C18.6002 9.15009 14.3626 6.90007 9.7501 6.90007C4.38755 6.90007 0 10.8376 0 16.7252C0 22.8002 4.35004 26.6628 10.5376 26.6628C14.8877 26.6628 18.6377 24.5252 19.7627 20.6627L19.6502 23.1752C19.5002 27.4128 17.4752 29.6628 12.0001 29.6628C8.28758 29.6628 4.61255 28.7628 2.81253 27.4878V32.1003C5.73756 33.1128 8.10008 33.7503 12.4126 33.7503ZM11.8876 22.7252C8.02508 22.7252 5.21255 20.4752 5.21255 16.8002C5.21255 13.2001 8.02508 10.9876 11.8876 10.9876C15.4502 10.9876 18.6002 13.2001 18.6002 16.8002C18.6002 20.4752 15.4127 22.7252 11.8876 22.7252Z" fill="#C800FF"/>
<path d="M29.4299 26.2503H34.7549V0H29.4299V26.2503Z" fill="#C800FF"/>
<path d="M50.1814 26.8503C57.2689 26.8503 61.9565 22.8752 61.9565 16.8752C61.9565 10.8751 57.2689 6.90007 50.1814 6.90007C43.1313 6.90007 38.4438 10.8751 38.4438 16.8752C38.4438 22.8752 43.1313 26.8503 50.1814 26.8503ZM50.1814 22.7252C46.1313 22.7252 43.3938 20.3627 43.3938 16.8752C43.3938 13.3501 46.1313 10.9876 50.1814 10.9876C54.2689 10.9876 57.0064 13.3501 57.0064 16.8752C57.0064 20.3627 54.2689 22.7252 50.1814 22.7252Z" fill="#C800FF"/>
<path d="M65.3057 26.2503H70.6308V21.0752C70.6308 14.9252 73.2183 10.9126 77.2684 10.9126C80.9059 10.9126 82.4059 13.0876 82.4059 18.7502V26.2503H87.731V18.1127C87.731 9.9376 85.2184 6.97507 79.9309 6.90007C74.2683 6.90007 71.4933 10.2376 70.7058 15.2252H70.4058L71.1558 7.50008H65.3057V26.2503Z" fill="#C800FF"/>
<path d="M114.155 7.50008H108.83V12.6751C108.83 18.8252 106.28 22.8377 102.23 22.8377C98.5923 22.8377 97.0548 20.6252 97.0548 15.0002V7.50008H91.7297V15.6377C91.7297 23.7752 94.2423 26.7753 99.5673 26.8503C105.192 26.8503 107.967 23.4752 108.792 18.5252H109.055L108.305 26.2503H114.155V7.50008Z" fill="#C800FF"/>
<path d="M125.829 26.6253C127.854 26.6253 129.354 26.4003 130.929 25.8753V23.0627C130.142 23.1002 129.504 23.1377 128.942 23.1377C125.529 23.1377 125.529 22.2002 125.529 18.3752V11.3626H130.929V7.50008H125.529V2.25002L120.429 3.00003V7.50008H117.504V11.3626H120.204V19.5002C120.204 24.8628 120.954 26.6253 125.829 26.6253Z" fill="#C800FF"/>
<path d="M143.955 26.8503C150.555 26.8503 154.98 25.0128 154.98 20.6627C154.98 12.4876 138.33 16.5752 138.33 13.0501C138.33 11.7376 140.242 11.1001 144.667 11.1001C147.48 11.1001 150.817 11.6251 153.48 12.1876V7.95008C150.217 7.31258 146.355 6.90007 144.105 6.90007C137.505 6.90007 133.08 8.92509 133.08 13.1251C133.08 21.2627 149.767 17.1002 149.767 20.6627C149.767 22.2377 147.742 22.7252 143.13 22.7252C139.83 22.7252 137.055 22.1252 133.905 20.9252V25.3878C137.017 26.2878 141.067 26.8503 143.955 26.8503Z" fill="#C800FF"/>
</svg>
